<svg id="vector" xmlns="http://www.w3.org/2000/svg" width="200" height="151.58093" viewBox="0 0 256 194.01"><path fill="#000000" d="M221.41,144.49c-14.41,10.65 -30.55,18.75 -47.7,23.92c-3.86,-5.18 -7.28,-10.69 -10.21,-16.45c5.58,-2.09 10.97,-4.66 16.11,-7.69c-1.33,-0.9 -2.65,-1.91 -3.94,-2.96c-30.19,14.2 -65.13,14.2 -95.32,0c-1.27,0.98 -2.59,1.99 -3.94,2.96c5.12,3.03 10.5,5.59 16.08,7.68c-2.94,5.77 -6.35,11.27 -10.21,16.47c-17.14,-5.19 -33.27,-13.29 -47.67,-23.93c-3.33,-34.99 3.33,-70.49 27.93,-106.88c12.39,-5.67 25.47,-9.7 38.9,-11.99c1.84,3.28 3.5,6.66 4.98,10.12c14.3,-2.15 28.84,-2.15 43.14,0c1.48,-3.46 3.14,-6.84 4.98,-10.12c13.42,2.27 26.49,6.29 38.87,11.96c21.33,31.18 31.92,66.35 28.01,106.93z" stroke-linejoin="round" stroke-linecap="butt" stroke="#000000" stroke-width="17.78" fill-rule="nonzero" id="path_0"/><path fill="#000000" d="M193.4,37.56c-12.38,-5.67 -25.45,-9.69 -38.87,-11.96c-1.84,3.28 -3.5,6.66 -4.98,10.12c-14.3,-2.15 -28.84,-2.15 -43.14,0c-1.48,-3.46 -3.14,-6.84 -4.98,-10.12c-13.43,2.29 -26.51,6.32 -38.9,11.99c-24.6,36.4 -31.27,71.89 -27.93,106.89l0,0c14.41,10.64 30.53,18.74 47.67,23.94c3.86,-5.19 7.28,-10.7 10.21,-16.47c-5.57,-2.08 -10.96,-4.65 -16.08,-7.68c1.35,-0.98 2.67,-1.99 3.94,-2.96c30.19,14.2 65.13,14.2 95.32,0c1.29,1.05 2.61,2.06 3.94,2.96c-5.13,3.03 -10.52,5.6 -16.11,7.69c2.93,5.76 6.35,11.27 10.21,16.45c17.16,-5.17 33.29,-13.27 47.7,-23.92l0,0c3.91,-40.58 -6.68,-75.75 -28.01,-106.93zM96.7,122.96c-9.29,0 -16.97,-8.43 -16.97,-18.81c0,-10.37 7.41,-18.88 16.94,-18.88c9.53,0 17.15,8.51 16.98,18.88c-0.16,10.37 -7.48,18.81 -16.95,18.81zM159.3,122.96c-9.31,0 -16.95,-8.43 -16.95,-18.81c0,-10.37 7.41,-18.88 16.95,-18.88c9.54,0 17.1,8.51 16.94,18.88c-0.16,10.37 -7.47,18.81 -16.94,18.81z" stroke-linejoin="miter" stroke-linecap="butt" stroke="#000000" stroke-width="1.48" fill-rule="nonzero" id="path_1"/></svg>