<svg id="vector" xmlns="http://www.w3.org/2000/svg" width="200" height="200" viewBox="0 0 543 543"><path fill="#FFFFFF" d="M156.6,20.9c-2.5,2.6 -2.8,3.6 -2.4,7.4 0.7,6.3 3.5,8.7 9.8,8.7 6.8,-0 9,-2.2 9,-9 0,-4.2 -0.5,-5.5 -2.6,-7.5 -4,-3.7 -10.1,-3.5 -13.8,0.4z" stroke="#000000" id="path_0"/><path fill="#FFFFFF" d="M49.8,23.4c-2.3,2.1 -2.8,3.3 -2.8,7.6 0,6.8 2.2,9 9,9 6.8,-0 9,-2.2 9,-9 0,-6.2 -2.5,-9.1 -8.4,-9.7 -3.4,-0.4 -4.6,-0.1 -6.8,2.1z" stroke="#000000" id="path_1"/><path fill="#FFFFFF" d="M105.9,23.9c-2.8,2.8 -3.1,3.7 -2.7,7.5 0.7,6.2 3.5,8.6 9.8,8.6 6.8,-0 9,-2.2 9,-9 0,-6.3 -2.4,-9.1 -8.6,-9.8 -3.8,-0.4 -4.7,-0.1 -7.5,2.7z" stroke="#000000" id="path_2"/><path fill="#FFFFFF" d="M433.8,23.4c-2.3,2.1 -2.8,3.3 -2.8,7.6 0,6.8 2.2,9 9,9 3.7,-0 5.5,-0.5 7,-2 1.5,-1.5 2,-3.3 2,-7 0,-6.2 -2.5,-9.1 -8.4,-9.7 -3.4,-0.4 -4.6,-0.1 -6.8,2.1z" stroke="#000000" id="path_3"/><path fill="#FFFFFF" d="M315.6,27.2c-2.7,3 -2.5,10.9 0.4,13.8 3.1,3.1 10.9,3.1 13.9,0.1 2.9,-2.9 3,-11.2 0.1,-14.1 -2.8,-2.8 -11.7,-2.7 -14.4,0.2z" stroke="#000000" id="path_4"/><path fill="#FFFFFF" d="M266.2,27.8c-4.2,0.7 -6.2,3.7 -6.2,9.2 0,3.7 0.5,5.5 2,7 2.9,2.9 11.2,2.8 14.1,-0.1 2.9,-2.9 3,-10.8 0.2,-13.6 -2.1,-2.1 -6.4,-3.2 -10.1,-2.5z" stroke="#000000" id="path_5"/><path fill="#FFFFFF" d="M222.8,33.1c-2.7,2.8 -2.4,11.3 0.3,14 3,3 10.8,3 13.9,-0.1 3.1,-3.1 3.1,-10.9 0.1,-13.9 -2.8,-2.8 -11.7,-2.9 -14.3,-0z" stroke="#000000" id="path_6"/><path fill="#FFFFFF" d="M390.8,36.1c-1.2,1.3 -1.8,3.5 -1.8,6.9 0,6.9 2.2,9 9.4,9 4.8,-0 5.7,-0.4 7.6,-2.8 2.8,-3.4 2.3,-9.9 -0.9,-13.1 -2.8,-2.8 -11.7,-2.9 -14.3,-0z" stroke="#000000" id="path_7"/><path fill="#FFFFFF" d="M75.8,51.1c-1.2,1.3 -1.8,3.5 -1.8,6.9 0,4.2 0.5,5.5 2.6,7.5 3.4,3.2 9.1,3.3 12.8,0.4 2.2,-1.8 2.6,-2.8 2.6,-7.5 0,-7.3 -2.1,-9.4 -9.2,-9.3 -3.9,-0 -5.8,0.6 -7,2z" stroke="#000000" id="path_8"/><path fill="#FFFFFF" d="M282.8,51.1c-1.2,1.3 -1.8,3.5 -1.8,6.9 0,6.3 2.4,9.1 8.6,9.8 3.8,0.4 4.7,0.1 7.5,-2.7 2.8,-2.8 3.1,-3.7 2.7,-7.5 -0.7,-6.3 -3.5,-8.6 -10,-8.5 -3.9,-0 -5.8,0.6 -7,2z" stroke="#000000" id="path_9"/><path fill="#FFFFFF" d="M359.2,51.8c-4.2,0.7 -6.4,3.9 -6.4,9.2 0,6.6 2.5,9 9.2,9 3.7,-0 5.5,-0.5 7,-2 2.7,-2.7 2.8,-11.2 0.2,-13.8 -2,-2 -6.3,-3.1 -10,-2.4z" stroke="#000000" id="path_10"/><path fill="#FFFFFF" d="M193.1,54.7c-3.5,1.4 -5.1,4.3 -5.1,9.3 0,6.8 2.2,9 9,9 6.8,-0 9,-2.2 9,-9 0,-4.2 -0.5,-5.5 -2.6,-7.5 -2.6,-2.4 -6.9,-3.1 -10.3,-1.8z" stroke="#000000" id="path_11"/><path fill="#FFFFFF" d="M138.6,57.2c-2.9,3.2 -3.3,9.7 -0.6,13 1.9,2.4 2.8,2.8 7.6,2.8 7.2,-0 9.4,-2.1 9.4,-9 0,-6.9 -2.2,-9 -9.2,-8.9 -4,-0 -5.8,0.6 -7.2,2.1z" stroke="#000000" id="path_12"/><path fill="#FFFFFF" d="M240.8,60.1c-1.2,1.3 -1.8,3.5 -1.8,6.9 0,4.2 0.5,5.5 2.6,7.5 3.4,3.2 9.1,3.3 12.8,0.4 2.2,-1.8 2.6,-2.8 2.6,-7.5 0,-7.3 -2.1,-9.4 -9.2,-9.3 -3.9,-0 -5.8,0.6 -7,2z" stroke="#000000" id="path_13"/><path fill="#FFFFFF" d="M182.2,78.8c-4.2,0.7 -6.2,3.7 -6.2,9.2 0,6.8 2.2,9 9,9 6.7,-0 9.2,-2.4 9.2,-9 0,-7 -4.5,-10.5 -12,-9.2z" stroke="#000000" id="path_14"/><path fill="#FFFFFF" d="M51.6,81.2c-2.7,3 -2.5,10.9 0.4,13.8 3,3 11,3 13.9,0.1 2.9,-2.9 2.9,-11.3 0.1,-14.1 -2.8,-2.8 -11.7,-2.7 -14.4,0.2z" stroke="#000000" id="path_15"/><path fill="#FFFFFF" d="M109.2,81.3c-3.1,3.3 -3.1,10.5 0.1,13.5 3.3,3.1 10.5,3.1 13.5,-0.1 3.1,-3.3 3.1,-10.5 -0.1,-13.5 -3.3,-3.1 -10.5,-3.1 -13.5,0.1z" stroke="#000000" id="path_16"/><path fill="#FFFFFF" d="M330.8,84.1c-1.2,1.3 -1.8,3.5 -1.8,6.9 0,6.8 2.3,9.1 9.3,9.2 4.4,-0 5.5,-0.4 7.5,-2.8 2,-2.2 2.3,-3.6 1.9,-6.9 -0.6,-6.2 -3.4,-8.5 -9.9,-8.4 -3.9,-0 -5.8,0.6 -7,2z" stroke="#000000" id="path_17"/><path fill="#FFFFFF" d="M429.3,87.7c-3.2,3.6 -3.1,9.2 0.2,12.7 2,2.1 3.3,2.6 7.5,2.6 6.8,-0 9,-2.2 9,-9 0,-6.9 -2.2,-9 -9.2,-8.9 -4.4,-0 -5.7,0.5 -7.5,2.6z" stroke="#000000" id="path_18"/><path fill="#FFFFFF" d="M281.2,87.8c-4.2,0.7 -6.2,3.7 -6.2,9.2 0,3.7 0.5,5.5 2,7 2.8,2.8 11.2,2.8 14.1,-0.1 2.8,-2.8 2.9,-10.9 0.2,-13.6 -2.1,-2.1 -6.4,-3.2 -10.1,-2.5z" stroke="#000000" id="path_19"/><path fill="#FFFFFF" d="M380.2,87.8c-4.2,0.7 -6.4,3.9 -6.4,9.2 0,6.6 2.5,9 9.2,9 3.7,-0 5.5,-0.5 7,-2 2.7,-2.7 2.8,-11.2 0.2,-13.8 -2,-2 -6.3,-3.1 -10,-2.4z" stroke="#000000" id="path_20"/><path fill="#FFFFFF" d="M216.9,104.9c-2.8,2.8 -3.1,3.7 -2.7,7.5 0.7,6.2 3.5,8.6 9.8,8.6 6.8,-0 9,-2.2 9,-9 0,-6.3 -2.4,-9.1 -8.6,-9.8 -3.8,-0.4 -4.7,-0.1 -7.5,2.7z" stroke="#000000" id="path_21"/><path fill="#FFFFFF" d="M361.1,114.7c-0.7,0.3 -2.2,1.4 -3.2,2.4 -2.7,2.7 -2.6,11.2 0.1,13.9 1.5,1.5 3.3,2 7,2 6.3,-0 9.1,-2.4 9.8,-8.6 0.4,-3.8 0.1,-4.7 -2.6,-7.4 -3,-2.9 -7.2,-3.8 -11.1,-2.3z" stroke="#000000" id="path_22"/><path fill="#FFFFFF" d="M84.8,117.1c-2.7,2.8 -2.4,11.3 0.3,14 3,3 10.8,3 13.9,-0.1 3.1,-3.1 3.1,-10.9 0.1,-13.9 -2.8,-2.8 -11.7,-2.9 -14.3,-0z" stroke="#000000" id="path_23"/><path fill="#FFFFFF" d="M411.8,120.1c-1.3,1.3 -1.8,3.6 -1.8,7.3 0,4.7 0.4,5.7 2.6,7.5 3.7,2.9 9.4,2.8 12.8,-0.4 2.1,-2 2.6,-3.3 2.6,-7.5 0,-6.9 -2.2,-9 -9.2,-8.9 -3.9,-0 -5.8,0.6 -7,2z" stroke="#000000" id="path_24"/><path fill="#FFFFFF" d="M303.8,123.1c-2.6,2.8 -2.4,11.3 0.3,14 2.9,2.9 10.9,2.9 13.9,-0.1 3,-3 3,-11 0.1,-13.9 -2.8,-2.8 -11.8,-2.8 -14.3,-0z" stroke="#000000" id="path_25"/><path fill="#FFFFFF" d="M252.8,125.7c-3.7,3.9 -3.9,9.9 -0.3,13.7 2,2.1 3.3,2.6 7.3,2.6 6.5,-0 9.2,-2.7 9.2,-9.3 0,-6.1 -2.4,-8.6 -8.8,-9.3 -4.2,-0.5 -5,-0.3 -7.4,2.3z" stroke="#000000" id="path_26"/><path fill="#FFFFFF" d="M339.8,141.1c-1.2,1.3 -1.8,3.5 -1.8,6.9 0,6.9 2.2,9 9.4,9 4.8,-0 5.7,-0.4 7.6,-2.8 2.8,-3.4 2.3,-9.9 -0.9,-13.1 -2.8,-2.8 -11.7,-2.9 -14.3,-0z" stroke="#000000" id="path_27"/><path fill="#FFFFFF" d="M58.1,147.7c-3.5,1.4 -5.1,4.3 -5.1,9.3 0,6.8 2.2,9 9,9 6.3,-0 9.1,-2.4 9.8,-8.6 0.4,-3.8 0.1,-4.7 -2.6,-7.4 -3,-2.9 -7.2,-3.8 -11.1,-2.3z" stroke="#000000" id="path_28"/><path fill="#FFFFFF" d="M388.8,155.4c-2.3,2.1 -2.8,3.3 -2.8,7.6 0,6.8 2.2,9 9,9 3.7,-0 5.5,-0.5 7,-2 1.5,-1.5 2,-3.3 2,-7 0,-6.2 -2.5,-9.1 -8.4,-9.7 -3.4,-0.4 -4.6,-0.1 -6.8,2.1z" stroke="#000000" id="path_29"/><path fill="#FFFFFF" d="M435.6,156.2c-2.9,3.2 -3.3,9.7 -0.6,13 1.9,2.4 2.8,2.8 7.6,2.8 7.2,-0 9.4,-2.1 9.4,-9 0,-6.9 -2.2,-9 -9.2,-8.9 -4,-0 -5.8,0.6 -7.2,2.1z" stroke="#000000" id="path_30"/><path fill="#FFFFFF" d="M116.6,157.8c-0.3,0.6 -0.1,1.4 0.5,1.7 1.5,1 2.5,-0.3 1.2,-1.6 -0.7,-0.7 -1.3,-0.7 -1.7,-0.1z" stroke="#000000" id="path_31"/><path fill="#FFFFFF" d="M255,161.5c0,0.9 0.5,1.5 1.1,1.3 0.6,-0.2 1.1,-0.8 1.1,-1.3 0,-0.5 -0.5,-1.1 -1.1,-1.3 -0.6,-0.2 -1.1,0.4 -1.1,1.3z" stroke="#000000" id="path_32"/><path fill="#FFFFFF" d="M414.6,180.2c-2.7,3 -2.5,10.9 0.4,13.8 3.1,3.1 10.9,3.1 13.9,0.1 2.9,-2.9 3,-11.2 0.1,-14.1 -2.8,-2.8 -11.7,-2.7 -14.4,0.2z" stroke="#000000" id="path_33"/><path fill="#FFFFFF" d="M360.8,183.1c-2.7,2.8 -2.4,11.3 0.3,14 3,3 10.8,3 13.9,-0.1 3,-3 3,-11 0.1,-13.9 -2.8,-2.8 -11.8,-2.8 -14.3,-0z" stroke="#000000" id="path_34"/><path fill="#FFFFFF" d="M78.6,186.2c-2.9,3.2 -3.3,9.7 -0.6,13 1.9,2.4 2.8,2.8 7.6,2.8 7.2,-0 9.4,-2.1 9.4,-9 0,-6.9 -2.2,-9 -9.2,-8.9 -4,-0 -5.8,0.6 -7.2,2.1z" stroke="#000000" id="path_35"/><path fill="#FFFFFF" d="M146.2,186.8c-4.2,0.7 -6.2,3.7 -6.2,9.2 0,6.8 2.2,9 9,9 6.7,-0 9.2,-2.4 9.2,-9 0,-7 -4.5,-10.5 -12,-9.2z" stroke="#000000" id="path_36"/><path fill="#FFFFFF" d="M263.2,186.8c-4.2,0.7 -6.2,3.7 -6.2,9.2 0,3.7 0.5,5.5 2,7 2.9,2.9 11.2,2.8 14.1,-0.1 2.9,-2.9 3,-10.8 0.2,-13.6 -2.1,-2.1 -6.4,-3.2 -10.1,-2.5z" stroke="#000000" id="path_37"/><path fill="#FFFFFF" d="M317.2,189.8c-4.2,0.7 -6.4,3.9 -6.4,9.2 0,6.6 2.5,9 9.2,9 3.7,-0 5.5,-0.5 7,-2 2.7,-2.7 2.8,-11.2 0.2,-13.8 -2,-2 -6.3,-3.1 -10,-2.4z" stroke="#000000" id="path_38"/><path fill="#FFFFFF" d="M119.2,219.8c-4.1,0.6 -6.4,3.9 -6.4,9.2 0,6.6 2.5,9 9.2,9 6.8,-0 9,-2.2 9,-9 0,-7.3 -3.9,-10.3 -11.8,-9.2z" stroke="#000000" id="path_39"/><path fill="#FFFFFF" d="M442.1,219.7c-0.7,0.3 -2.2,1.4 -3.2,2.4 -2.7,2.7 -2.6,11.2 0.1,13.9 1.5,1.5 3.3,2 7,2 6.8,-0 9,-2.2 9,-9 0,-4.2 -0.5,-5.5 -2.6,-7.5 -2.6,-2.4 -6.9,-3.1 -10.3,-1.8z" stroke="#000000" id="path_40"/><path fill="#FFFFFF" d="M57.8,222.1c-1.2,1.3 -1.8,3.5 -1.8,6.9 0,4.2 0.5,5.5 2.6,7.5 3.4,3.2 9.1,3.3 12.8,0.4 2.2,-1.8 2.6,-2.8 2.6,-7.5 0,-7.3 -2.1,-9.4 -9.2,-9.3 -3.9,-0 -5.8,0.6 -7,2z" stroke="#000000" id="path_41"/><path fill="#FFFFFF" d="M186.6,225.2c-2.7,3 -2.5,10.9 0.4,13.8 3,3 11,3 13.9,0.1 2.9,-2.9 2.9,-11.3 0.1,-14.1 -2.8,-2.8 -11.7,-2.7 -14.4,0.2z" stroke="#000000" id="path_42"/><path fill="#FFFFFF" d="M391.6,227.5c-2.1,2 -2.6,3.3 -2.6,7.5 0,6.8 2.2,9 9,9 6.7,-0 9,-2.3 9.3,-9.1 0.2,-4.4 -0.1,-5.4 -2.6,-7.5 -3.8,-3.3 -9.5,-3.3 -13.1,0.1z" stroke="#000000" id="path_43"/><path fill="#FFFFFF" d="M282.8,228.1c-1.3,1.3 -1.8,3.6 -1.8,7.3 0,4.7 0.4,5.7 2.6,7.5 3.7,2.9 9.4,2.8 12.8,-0.4 2.1,-2 2.6,-3.3 2.6,-7.5 0,-6.9 -2.2,-9 -9.2,-8.9 -3.9,-0 -5.8,0.6 -7,2z" stroke="#000000" id="path_44"/><path fill="#FFFFFF" d="M333.8,228.1c-2.7,2.8 -2.4,11.3 0.3,14 3,3 10.8,3 13.9,-0.1 3.1,-3.1 3.1,-10.9 0.1,-13.9 -2.8,-2.8 -11.7,-2.9 -14.3,-0z" stroke="#000000" id="path_45"/><path fill="#FFFFFF" d="M146.7,244.6c-0.8,0.8 0.1,2.4 1.4,2.4 0.5,-0 0.9,-0.7 0.9,-1.5 0,-1.5 -1.2,-2 -2.3,-0.9z" stroke="#000000" id="path_46"/><path fill="#FFFFFF" d="M316.1,252.7c-0.7,0.3 -2.2,1.4 -3.2,2.4 -2.7,2.7 -2.6,11.2 0.1,13.9 1.5,1.5 3.3,2 7,2 6.8,-0 9,-2.2 9,-9 0,-4.2 -0.5,-5.5 -2.6,-7.5 -2.6,-2.4 -6.9,-3.1 -10.3,-1.8z" stroke="#000000" id="path_47"/><path fill="#FFFFFF" d="M367.1,258.7c-0.7,0.3 -2.2,1.4 -3.2,2.4 -2.7,2.7 -2.6,11.2 0.1,13.9 1.5,1.5 3.3,2 7,2 6.3,-0 9.1,-2.4 9.8,-8.6 0.4,-3.8 0.1,-4.7 -2.6,-7.4 -3,-2.9 -7.2,-3.8 -11.1,-2.3z" stroke="#000000" id="path_48"/><path fill="#FFFFFF" d="M205.3,266.4c-2.5,2.1 -2.8,3.1 -2.6,7.5 0.3,6.8 2.6,9.1 9.3,9.1 6.8,-0 9,-2.2 9,-9 0,-4.2 -0.5,-5.5 -2.6,-7.5 -3.6,-3.4 -9.3,-3.4 -13.1,-0.1z" stroke="#000000" id="path_49"/><path fill="#FFFFFF" d="M159.6,267.2c-2.7,3 -2.5,10.9 0.4,13.8 3,3 11,3 13.9,0.1 2.9,-2.9 2.9,-11.3 0.1,-14.1 -2.8,-2.8 -11.7,-2.7 -14.4,0.2z" stroke="#000000" id="path_50"/><path fill="#FFFFFF" d="M81.2,270.3c-1.6,1.7 -2.2,3.6 -2.2,6.9 0,3.9 0.5,5 3.1,7.3 2.8,2.3 3.7,2.5 7.7,1.9 5.9,-0.9 8.1,-3.5 8.1,-9.4 0,-6.7 -2.3,-9 -9.1,-9 -4.4,-0 -5.9,0.4 -7.6,2.3z" stroke="#000000" id="path_51"/><path fill="#FFFFFF" d="M266,269.5c0,0.9 0.5,1.5 1.1,1.3 0.6,-0.2 1.1,-0.8 1.1,-1.3 0,-0.5 -0.5,-1.1 -1.1,-1.3 -0.6,-0.2 -1.1,0.4 -1.1,1.3z" stroke="#000000" id="path_52"/><path fill="#FFFFFF" d="M407.7,283.6c-0.8,0.8 0.1,2.4 1.4,2.4 0.5,-0 0.9,-0.7 0.9,-1.5 0,-1.5 -1.2,-2 -2.3,-0.9z" stroke="#000000" id="path_53"/><path fill="#FFFFFF" d="M336.8,291.1c-1.2,1.3 -1.8,3.5 -1.8,6.9 0,6.7 2.3,9 9.1,9.3 4.4,0.2 5.4,-0.1 7.5,-2.6 3.3,-3.8 3.3,-9.5 -0.1,-13.1 -2,-2.2 -3.2,-2.6 -7.7,-2.5 -3.9,-0 -5.8,0.6 -7,2z" stroke="#000000" id="path_54"/><path fill="#FFFFFF" d="M65.2,291.8c-4.2,0.7 -6.4,3.9 -6.4,9.2 0,6.6 2.5,9 9.2,9 3.7,-0 5.5,-0.5 7,-2 2.7,-2.7 2.8,-11.2 0.2,-13.8 -2,-2 -6.3,-3.1 -10,-2.4z" stroke="#000000" id="path_55"/><path fill="#FFFFFF" d="M120.8,294.1c-1.3,1.3 -1.8,3.6 -1.8,7.3 0,4.7 0.4,5.7 2.6,7.5 3.7,2.9 9.4,2.8 12.8,-0.4 2.1,-2 2.6,-3.3 2.6,-7.5 0,-6.9 -2.2,-9 -9.2,-8.9 -3.9,-0 -5.8,0.6 -7,2z" stroke="#000000" id="path_56"/><path fill="#FFFFFF" d="M183.8,297.1c-1.3,1.3 -1.8,3.6 -1.8,7.3 0,4.7 0.4,5.7 2.6,7.5 3.7,2.9 9.4,2.8 12.8,-0.4 2.1,-2 2.6,-3.3 2.6,-7.5 0,-6.9 -2.2,-9 -9.2,-8.9 -3.9,-0 -5.8,0.6 -7,2z" stroke="#000000" id="path_57"/><path fill="#FFFFFF" d="M444.8,297.1c-1.2,1.3 -1.8,3.5 -1.8,6.9 0,6.7 2.3,9 9.1,9.3 4.4,0.2 5.4,-0.1 7.5,-2.6 3.3,-3.8 3.3,-9.5 -0.1,-13.1 -2,-2.2 -3.2,-2.6 -7.7,-2.5 -3.9,-0 -5.8,0.6 -7,2z" stroke="#000000" id="path_58"/><path fill="#FFFFFF" d="M245.7,298.6c-0.8,0.8 0.1,2.4 1.4,2.4 0.5,-0 0.9,-0.7 0.9,-1.5 0,-1.5 -1.2,-2 -2.3,-0.9z" stroke="#000000" id="path_59"/><path fill="#FFFFFF" d="M297,299.5c0,0.9 0.5,1.5 1.1,1.3 0.6,-0.2 1.1,-0.8 1.1,-1.3 0,-0.5 -0.5,-1.1 -1.1,-1.3 -0.6,-0.2 -1.1,0.4 -1.1,1.3z" stroke="#000000" id="path_60"/><path fill="#FFFFFF" d="M268.1,315.7c-3.5,1.4 -5.1,4.3 -5.1,9.3 0,6.8 2.2,9 9,9 6.3,-0 9.1,-2.4 9.8,-8.6 0.4,-3.8 0.1,-4.7 -2.6,-7.4 -3,-2.9 -7.2,-3.8 -11.1,-2.3z" stroke="#000000" id="path_61"/><path fill="#FFFFFF" d="M90.8,321.1c-1.2,1.3 -1.8,3.5 -1.8,6.9 0,6.9 2.2,9 9.4,9 4.8,-0 5.7,-0.4 7.6,-2.8 2.8,-3.4 2.3,-9.9 -0.9,-13.1 -2.8,-2.8 -11.7,-2.9 -14.3,-0z" stroke="#000000" id="path_62"/><path fill="#FFFFFF" d="M157.6,323.5c-2.1,2 -2.6,3.3 -2.6,7.5 0,6.8 2.2,9 9,9 6.7,-0 9,-2.3 9.3,-9.1 0.2,-4.4 -0.1,-5.4 -2.6,-7.5 -3.8,-3.3 -9.5,-3.3 -13.1,0.1z" stroke="#000000" id="path_63"/><path fill="#FFFFFF" d="M417.8,324.1c-1.2,1.3 -1.8,3.5 -1.8,6.9 0,6.8 2.2,9 9,9 6.4,-0 10,-3.2 10,-9 0,-2.5 -0.8,-4.5 -2.5,-6.4 -2,-2.2 -3.2,-2.6 -7.7,-2.5 -3.9,-0 -5.8,0.6 -7,2z" stroke="#000000" id="path_64"/><path fill="#FFFFFF" d="M115.8,362.4c-2.3,2.1 -2.8,3.3 -2.8,7.6 0,6.8 2.2,9 9,9 3.7,-0 5.5,-0.5 7,-2 1.5,-1.5 2,-3.3 2,-7 0,-6.2 -2.5,-9.1 -8.4,-9.7 -3.4,-0.4 -4.6,-0.1 -6.8,2.1z" stroke="#000000" id="path_65"/><path fill="#FFFFFF" d="M68.2,363.8c-4.2,0.7 -6.4,3.9 -6.4,9.2 0,6.6 2.5,9 9.2,9 3.7,-0 5.5,-0.5 7,-2 2.7,-2.7 2.8,-11.2 0.2,-13.8 -2,-2 -6.3,-3.1 -10,-2.4z" stroke="#000000" id="path_66"/><path fill="#FFFFFF" d="M184.6,365.5c-2.1,2 -2.6,3.3 -2.6,7.5 0,6.8 2.2,9 9,9 6.7,-0 9,-2.3 9.3,-9.1 0.2,-4.4 -0.1,-5.4 -2.6,-7.5 -3.8,-3.3 -9.5,-3.3 -13.1,0.1z" stroke="#000000" id="path_67"/><path fill="#FFFFFF" d="M253.8,368.4c-2.3,2.1 -2.8,3.3 -2.8,7.6 0,6.8 2.2,9 9,9 6.8,-0 9,-2.2 9,-9 0,-6.2 -2.5,-9.1 -8.4,-9.7 -3.4,-0.4 -4.6,-0.1 -6.8,2.1z" stroke="#000000" id="path_68"/><path fill="#FFFFFF" d="M291.9,368.9c-2.8,2.8 -3.1,3.7 -2.7,7.5 0.7,6.2 3.5,8.6 9.8,8.6 6.8,-0 9,-2.2 9,-9 0,-6.3 -2.4,-9.1 -8.6,-9.8 -3.8,-0.4 -4.7,-0.1 -7.5,2.7z" stroke="#000000" id="path_69"/><path fill="#FFFFFF" d="M339.9,368.9c-2.8,2.8 -3.1,3.7 -2.7,7.5 0.7,6.2 3.5,8.6 9.8,8.6 6.8,-0 9,-2.2 9,-9 0,-6.3 -2.4,-9.1 -8.6,-9.8 -3.8,-0.4 -4.7,-0.1 -7.5,2.7z" stroke="#000000" id="path_70"/><path fill="#FFFFFF" d="M396.8,369.1c-1.2,1.3 -1.8,3.5 -1.8,6.9 0,6.8 2.2,9 9,9 6.4,-0 10,-3.2 10,-9 0,-2.5 -0.8,-4.5 -2.5,-6.4 -2,-2.2 -3.2,-2.6 -7.7,-2.5 -3.9,-0 -5.8,0.6 -7,2z" stroke="#000000" id="path_71"/><path fill="#FFFFFF" d="M444.8,369.1c-2.6,2.8 -2.4,11.3 0.3,14 2.9,2.9 10.9,2.9 13.9,-0.1 3.1,-3.1 3.1,-10.9 0.1,-13.9 -2.8,-2.8 -11.7,-2.9 -14.3,-0z" stroke="#000000" id="path_72"/><path fill="#FFFFFF" d="M155.2,397c-5.6,5.6 -5.7,9.1 -0.4,14.3 5.2,5.1 9.7,5.1 14.7,0.2 4.8,-4.9 4.9,-9.8 0.2,-14.3 -1.9,-1.9 -4.8,-3.5 -6.8,-3.8 -3.1,-0.5 -3.9,-0.1 -7.7,3.6z" stroke="#000000" id="path_73"/><path fill="#FFFFFF" d="M92.1,400.1c-5.3,5.3 -5.4,8.4 -0.5,13.9 3,3.3 4.3,4 7.5,4 3.1,-0 4.5,-0.7 7.4,-3.5 2.8,-2.9 3.5,-4.3 3.5,-7.4 0,-3.2 -0.7,-4.5 -4,-7.5 -5.5,-4.9 -8.6,-4.8 -13.9,0.5z" stroke="#000000" id="path_74"/><path fill="#FFFFFF" d="M263.5,400.3c-4,4 -4.4,4.8 -3.9,7.8 0.4,1.9 2,4.9 3.7,6.6 2.5,2.7 3.9,3.3 7.2,3.3 3.3,-0 4.7,-0.6 7.3,-3.3 4.5,-4.7 4.5,-10.1 0,-14.4 -1.8,-1.7 -4.8,-3.4 -6.6,-3.8 -3,-0.6 -3.7,-0.2 -7.7,3.8z" stroke="#000000" id="path_75"/><path fill="#FFFFFF" d="M320.2,400.3c-2.5,2.6 -3.2,4.1 -3.2,7.4 0,3.5 0.6,4.6 4,7.7 2.3,2.1 5,3.6 6.5,3.6 1.5,-0 4.2,-1.5 6.5,-3.6 3.5,-3.1 4,-4.2 4,-7.8 0,-3.4 -0.6,-4.8 -3.3,-7.4 -4.7,-4.5 -10,-4.5 -14.5,0.1z" stroke="#000000" id="path_76"/><path fill="#FFFFFF" d="M425.2,400.3c-2.5,2.6 -3.2,4.1 -3.2,7.4 0,3.5 0.6,4.6 4,7.7 2.3,2.1 5,3.6 6.5,3.6 1.5,-0 4.2,-1.5 6.5,-3.6 3.5,-3.1 4,-4.2 4,-7.8 0,-3.4 -0.6,-4.8 -3.3,-7.4 -4.7,-4.5 -10,-4.5 -14.5,0.1z" stroke="#000000" id="path_77"/><path fill="#FFFFFF" d="M37.8,401.4c-2.3,2.1 -2.8,3.3 -2.8,7.6 0,6.8 2.2,9 9,9 6.8,-0 9,-2.2 9,-9 0,-6.2 -2.5,-9.1 -8.4,-9.7 -3.4,-0.4 -4.6,-0.1 -6.8,2.1z" stroke="#000000" id="path_78"/><path fill="#FFFFFF" d="M382.8,400.8c-3.9,2.6 -6.8,6.7 -6.8,9.6 0,1.6 1.4,4.2 3.6,6.6 3.1,3.5 4.2,4 7.8,4 5.8,-0 10.6,-4.8 10.6,-10.6 0,-7.5 -9.4,-13.4 -15.2,-9.6z" stroke="#000000" id="path_79"/><path fill="#FFFFFF" d="M481.6,401.5c-2.1,2 -2.6,3.3 -2.6,7.5 0,6.8 2.2,9 9,9 6.7,-0 9,-2.3 9.3,-9.1 0.2,-4.4 -0.1,-5.4 -2.6,-7.5 -3.8,-3.3 -9.5,-3.3 -13.1,0.1z" stroke="#000000" id="path_80"/><path fill="#FFFFFF" d="M290.2,430.3c-3.7,3.7 -4.2,4.8 -4.2,8.7 0,3.9 0.5,5 4.2,8.7 3.8,3.8 4.7,4.3 8.8,4.3 4.1,-0 5,-0.5 8.8,-4.3 3.6,-3.7 4.2,-4.9 4.2,-8.6 0,-3.8 -0.6,-4.9 -4.4,-8.7 -3.8,-3.9 -4.9,-4.4 -8.8,-4.4 -3.8,-0 -4.9,0.5 -8.6,4.3z" stroke="#000000" id="path_81"/><path fill="#FFFFFF" d="M353.6,430c-4.2,3.9 -4.6,4.7 -4.6,8.9 0,3.9 0.6,5.2 3.8,8.8 3.5,4 4.1,4.3 8.9,4.3 4.6,-0 5.4,-0.4 9.2,-4.1 3.6,-3.6 4.1,-4.7 4.1,-8.6 0,-3.7 -0.6,-5 -3.8,-8.4 -3.1,-3.4 -4.6,-4.2 -8.4,-4.6 -4.3,-0.5 -4.9,-0.3 -9.2,3.7z" stroke="#000000" id="path_82"/><path fill="#FFFFFF" d="M401.4,430.4c-3.8,3.8 -4.4,4.9 -4.4,8.7 0,3.7 0.6,4.9 4.2,8.6 3.8,3.8 4.7,4.3 8.8,4.3 4.1,-0 5,-0.5 8.8,-4.3 3.7,-3.7 4.2,-4.8 4.2,-8.7 0,-3.9 -0.5,-5 -4.2,-8.7 -3.7,-3.8 -4.8,-4.3 -8.6,-4.3 -3.9,-0 -5,0.5 -8.8,4.4z" stroke="#000000" id="path_83"/><path fill="#FFFFFF" d="M462,429.6c-3.5,3.1 -4,4.2 -4,7.8 0,5.8 4.8,10.6 10.6,10.6 5.7,-0 10.4,-4.9 10.4,-10.7 0,-3.5 -0.6,-4.6 -4,-7.7 -2.3,-2.1 -5,-3.6 -6.5,-3.6 -1.5,-0 -4.2,1.5 -6.5,3.6z" stroke="#000000" id="path_84"/><path fill="#FFFFFF" d="M223.7,430.8c-3.2,3.3 -3.7,4.4 -3.7,8.4 0,4 0.5,5.2 3.8,8.7 3.6,3.8 4.2,4.1 9.2,4.1 5.1,-0 5.7,-0.2 9.2,-4.3 3.1,-3.4 3.8,-5 3.8,-8.4 0,-3.5 -0.7,-5 -3.6,-8.3 -3.4,-3.8 -4,-4 -9.3,-4 -5.3,-0 -6,0.3 -9.4,3.8z" stroke="#000000" id="path_85"/><path fill="#FFFFFF" d="M176.2,433.3c-3.8,3.9 -4.2,4.8 -4.2,9.2 0,4.6 0.3,5.2 4.3,8.7 3.6,3.2 4.9,3.8 8.8,3.8 4.2,-0 5,-0.4 8.9,-4.6 4,-4.3 4.2,-4.9 3.7,-9.2 -0.4,-3.8 -1.2,-5.3 -4.6,-8.4 -3.4,-3.2 -4.7,-3.8 -8.4,-3.8 -3.7,-0 -4.8,0.5 -8.5,4.3z" stroke="#000000" id="path_86"/><path fill="#FFFFFF" d="M507.3,432.7c-3.1,3.6 -3.1,9.3 0.1,13 2.1,2.5 3.1,2.8 7.5,2.6 6.8,-0.3 9.1,-2.6 9.1,-9.3 0,-6.9 -2.2,-9 -9.2,-8.9 -4.4,-0 -5.7,0.5 -7.5,2.6z" stroke="#000000" id="path_87"/><path fill="#FFFFFF" d="M23.2,432.8c-4.2,0.7 -6.2,3.7 -6.2,9.2 0,6.8 2.2,9 9,9 6.7,-0 9.1,-2.3 9.2,-9 0,-7.1 -4.5,-10.6 -12,-9.2z" stroke="#000000" id="path_88"/><path fill="#FFFFFF" d="M74.3,436.2c-5.5,5.9 -4.8,11.4 1.9,16.7 3.9,3.1 7.2,2.6 11.8,-1.5 3.5,-3.1 4,-4.2 4,-7.8 0,-3.4 -0.6,-4.8 -3.3,-7.4 -4.7,-4.5 -10.1,-4.5 -14.4,-0z" stroke="#000000" id="path_89"/><path fill="#FFFFFF" d="M122.6,439c-4.2,3.9 -4.6,4.7 -4.6,8.9 0,3.9 0.6,5.2 3.8,8.8 3.5,4 4.1,4.3 9,4.3 4.9,-0 5.6,-0.3 9.2,-4.2 3.4,-3.5 4,-4.8 4,-8.5 0,-3.7 -0.6,-5 -3.8,-8.4 -3.1,-3.4 -4.6,-4.2 -8.4,-4.6 -4.3,-0.5 -4.9,-0.3 -9.2,3.7z" stroke="#000000" id="path_90"/><path fill="#FFFFFF" d="M146,469.4c-0.6,0.8 -2.1,1.6 -3.2,1.8 -1.2,0.2 -2.4,1 -2.8,1.8 -0.4,0.8 -1.5,2.9 -2.4,4.7 -2.2,4.2 -2,7.9 0.6,13.4 1.6,3.6 3.1,5.1 6.7,6.7 5.3,2.6 11.3,2.9 13.1,0.7 0.7,-0.8 2,-1.5 2.9,-1.5 2.2,-0 4.1,-1.9 4.1,-4.1 0,-0.9 0.7,-1.9 1.5,-2.3 1.1,-0.4 1.5,-2.1 1.5,-6.6 0,-4.5 -0.4,-6.2 -1.5,-6.6 -0.8,-0.4 -1.5,-1.4 -1.5,-2.3 0,-2.1 -1.9,-4.1 -3.8,-4.1 -0.7,-0 -2,-0.7 -2.8,-1.5 -2,-2 -10.7,-2 -12.4,-0.1z" stroke="#000000" id="path_91"/><path fill="#FFFFFF" d="M335,469.5c-0.7,0.8 -2,1.5 -2.9,1.5 -2.2,-0 -4.1,1.9 -4.1,4.1 0,0.9 -0.7,2.2 -1.5,2.9 -1,0.8 -1.5,3 -1.5,6.1 0,2.9 0.6,5.3 1.5,6.3 0.8,0.8 1.5,2.1 1.5,2.8 0,1.9 2,3.8 4.1,3.8 0.9,-0 2.2,0.7 2.9,1.5 1.7,2 10.3,2 12,-0 0.7,-0.8 2,-1.5 2.9,-1.5 2.2,-0 4.1,-1.9 4.1,-4.1 0,-0.9 0.7,-2.2 1.5,-2.9 0.9,-0.8 1.5,-3 1.5,-6 0,-3 -0.6,-5.2 -1.5,-6 -0.8,-0.7 -1.5,-2 -1.5,-2.9 0,-2.2 -1.9,-4.1 -4.1,-4.1 -0.9,-0 -2.2,-0.7 -2.9,-1.5 -0.8,-0.9 -3,-1.5 -6,-1.5 -3,-0 -5.2,0.6 -6,1.5z" stroke="#000000" id="path_92"/><path fill="#FFFFFF" d="M384.4,470.3c-3,1.5 -4.7,3.3 -6.3,6.6 -2.5,5.3 -2.8,11.3 -0.6,13.1 0.8,0.7 1.5,2 1.5,2.9 0,2.2 1.9,4.1 4.1,4.1 0.9,-0 1.9,0.7 2.3,1.5 0.4,1.1 2.1,1.5 6.6,1.5 4.5,-0 6.2,-0.4 6.6,-1.5 0.4,-0.8 1.4,-1.5 2.3,-1.5 2.1,-0 4.1,-1.9 4.1,-3.8 0,-0.7 0.7,-2 1.5,-2.8 2,-2 2,-10.7 0.1,-12.4 -0.8,-0.6 -1.6,-2.1 -1.8,-3.2 -0.2,-1.2 -1,-2.4 -1.8,-2.8 -0.8,-0.4 -2.9,-1.5 -4.7,-2.4 -4.1,-2.1 -8.9,-1.9 -13.9,0.7z" stroke="#000000" id="path_93"/><path fill="#FFFFFF" d="M95.2,475.3c-3.7,3.8 -4.2,4.8 -4.2,8.9 0,4 0.5,5.1 4.1,8.7 3.7,3.6 4.7,4.1 8.8,4.1 4.2,-0 5.1,-0.4 8.9,-4.3 3.6,-3.7 4.2,-4.9 4.2,-8.6 0,-3.8 -0.6,-4.9 -4.4,-8.7 -3.8,-3.9 -4.9,-4.4 -8.8,-4.4 -3.8,-0 -4.9,0.5 -8.6,4.3z" stroke="#000000" id="path_94"/><path fill="#FFFFFF" d="M203,472.5c-0.7,0.8 -2,1.5 -2.9,1.5 -2.2,-0 -4.1,1.9 -4.1,4.1 0,0.9 -0.7,2.2 -1.5,2.9 -1,0.8 -1.5,3 -1.5,6.1 0,2.9 0.6,5.3 1.5,6.3 0.8,0.8 1.5,2.1 1.5,2.8 0,1.8 2,3.8 3.8,3.8 0.7,-0 2,0.7 2.8,1.5 2.1,2 10.7,2 12.4,-0 0.7,-0.8 2,-1.5 2.9,-1.5 2.2,-0 4.1,-1.9 4.1,-4.1 0,-0.9 0.7,-2.2 1.5,-2.9 0.9,-0.8 1.5,-3 1.5,-6 0,-3 -0.6,-5.2 -1.5,-6 -0.8,-0.7 -1.5,-2 -1.5,-2.9 0,-2.2 -1.9,-4.1 -4.1,-4.1 -0.9,-0 -2.2,-0.7 -2.9,-1.5 -0.8,-0.9 -3,-1.5 -6,-1.5 -3,-0 -5.2,0.6 -6,1.5z" stroke="#000000" id="path_95"/><path fill="#FFFFFF" d="M437.1,474.8c-3.8,3.6 -4.1,4.2 -4.1,9.2 0,5.1 0.2,5.7 4.3,9.2 3.4,3.1 5,3.8 8.4,3.8 3.5,-0 5,-0.7 8.3,-3.6 3.8,-3.4 4,-4 4,-9.3 0,-5.3 -0.3,-6 -3.8,-9.4 -3.3,-3.2 -4.4,-3.7 -8.4,-3.7 -4,-0 -5.2,0.5 -8.7,3.8z" stroke="#000000" id="path_96"/><path fill="#FFFFFF" d="M488.2,475.3c-4.5,4.7 -4.5,10 0.1,14.5 4.7,4.5 10,4.5 14.5,-0.1 4.5,-4.7 4.5,-10 -0.1,-14.5 -4.7,-4.5 -10,-4.5 -14.5,0.1z" stroke="#000000" id="path_97"/><path fill="#FFFFFF" d="M525.3,474.7c-3.5,4 -3.2,10.1 0.7,13.8 2.6,2.5 3.4,2.7 7.7,2.1 2.6,-0.3 5.1,-1.3 5.6,-2.1 0.4,-0.8 1.5,-1.5 2.2,-1.5 1.2,-0 1.5,-1.4 1.5,-6 0,-4.4 -0.4,-6 -1.4,-6 -0.7,-0 -1.9,-0.7 -2.6,-1.5 -0.8,-1 -3,-1.5 -6.4,-1.4 -4.2,-0 -5.5,0.5 -7.3,2.6z" stroke="#000000" id="path_98"/><path fill="#FFFFFF" d="M43.6,479c-2.1,2.3 -3.6,5 -3.6,6.5 0,1.5 1.5,4.2 3.6,6.5 3.1,3.5 4.2,4 7.8,4 5.8,-0 10.6,-4.8 10.6,-10.6 0,-5.7 -4.9,-10.4 -10.7,-10.4 -3.5,-0 -4.6,0.6 -7.7,4z" stroke="#000000" id="path_99"/><path fill="#FFFFFF" d="M265.6,478.5c-0.8,0.8 -2.2,1.5 -3.1,1.5 -2.2,-0 -9.5,7.3 -9.5,9.5 0,0.9 -0.7,2.3 -1.5,3.1 -1,1.1 -1.5,3.6 -1.5,8.5 0,5.3 0.4,7.1 1.5,7.5 0.8,0.4 1.5,1.5 1.5,2.6 0,2.6 7.2,9.8 9.8,9.8 1.1,-0 2.2,0.7 2.6,1.5 0.8,2.2 15.4,2.2 16.2,-0 0.4,-0.8 1.5,-1.5 2.6,-1.5 2.6,-0 9.8,-7.2 9.8,-9.8 0,-1.1 0.7,-2.2 1.5,-2.6 1.1,-0.4 1.5,-2.2 1.5,-7.5 0,-4.9 -0.5,-7.4 -1.5,-8.5 -0.8,-0.8 -1.5,-2.2 -1.5,-3.1 0,-2.2 -7.3,-9.5 -9.5,-9.5 -0.9,-0 -2.3,-0.7 -3.1,-1.5 -1.1,-1 -3.6,-1.5 -7.9,-1.5 -4.3,-0 -6.8,0.5 -7.9,1.5z" stroke="#000000" id="path_100"/><path fill="#FFFFFF" d="M1.2,480c-1.6,2.6 -1.5,12 0.2,14.2 1,1.3 2.8,1.8 6.9,1.8 4.9,-0 5.8,-0.3 7.7,-2.8 2.8,-3.4 2.3,-9.9 -0.9,-13.1 -2.9,-2.9 -12,-3 -13.9,-0.1z" stroke="#000000" id="path_101"/></svg>