<svg id="vector" xmlns="http://www.w3.org/2000/svg" width="24" height="24" viewBox="0 0 960 960"><path fill="#FFFFFF" d="M357,576L480,453L603,576L660,520L480,340L300,520L357,576ZM480,880Q397,880 324,848.5Q251,817 197,763Q143,709 111.5,636Q80,563 80,480Q80,397 111.5,324Q143,251 197,197Q251,143 324,111.5Q397,80 480,80Q563,80 636,111.5Q709,143 763,197Q817,251 848.5,324Q880,397 880,480Q880,563 848.5,636Q817,709 763,763Q709,817 636,848.5Q563,880 480,880ZM480,800Q614,800 707,707Q800,614 800,480Q800,346 707,253Q614,160 480,160Q346,160 253,253Q160,346 160,480Q160,614 253,707Q346,800 480,800ZM480,480Q480,480 480,480Q480,480 480,480Q480,480 480,480Q480,480 480,480Q480,480 480,480Q480,480 480,480Q480,480 480,480Q480,480 480,480Z" id="path_0"/></svg>