<svg id="vector" xmlns="http://www.w3.org/2000/svg" width="200" height="200" viewBox="0 0 750 750"><g id="g_0"><path fill="#000000" d="M354.5,45.1c-16.6,2.2 -31.8,7.6 -44.3,15.5 -12.4,7.9 -21.4,18 -31.2,34.9 -12.7,21.9 -14.6,23.2 -32.5,21.9 -6.6,-0.5 -20.5,-0.9 -31,-0.9 -20.3,0.1 -25.7,0.9 -43.4,7 -21.3,7.2 -41.5,24.1 -52.6,44 -10.2,18.2 -15.1,44.8 -12.6,69 0.5,5.5 1.5,15.5 2.2,22.1 1.1,11 1.1,12.8 -0.5,18.7 -2.4,8.8 -5.8,12.5 -21.2,22.9 -25.1,16.8 -38.4,32.2 -46.9,54.2 -5.4,14.1 -7.5,24.4 -8.2,40.1 -0.4,10.7 -0.2,16 1.1,22.6 6,31.7 19.1,47.7 57.2,69.7 7.9,4.6 15,11.7 15.9,15.9 0.4,1.5 0.8,3.6 1,4.5 0.1,0.9 -0.6,6.1 -1.7,11.5 -2.2,11.1 -2.7,28.8 -1,37.3 3.6,18.4 14.3,36.9 30.9,53.2 11.5,11.4 14.7,14 26.8,22 9.9,6.6 23.3,13.3 31,15.5 14.4,4.2 17.4,4.7 29.5,4.7 10.1,-0 14.7,-0.5 24.2,-2.7 15.3,-3.5 20.1,-3.5 25.5,0.1 2.4,1.6 8,7.5 12.6,13.3 4.7,5.7 11.3,13.1 14.8,16.4 22.5,21.3 57.3,33 90.6,30.3 30.6,-2.5 54.4,-16.2 71.8,-41.6 17,-24.7 20,-26.1 48.6,-22.3 23.1,3.1 38.2,2.6 56.1,-1.9 38,-9.7 70.9,-42.5 80.9,-80.9 3,-11.4 3.6,-30.6 1.4,-46.6 -3.1,-23.3 -1.6,-27 18.6,-47 23.9,-23.6 34.8,-42.7 41,-72 1.5,-7.2 2.1,-13.8 2.2,-23.5 0.1,-16.7 -2.2,-27 -9.2,-41.5 -7.2,-14.9 -13.6,-22.8 -31.7,-38.8 -5.4,-4.9 -11.6,-11 -13.7,-13.5 -6.8,-8.2 -6.9,-8.8 -6.2,-35.7 0.8,-27.1 0,-34.2 -5.5,-50.7 -6.3,-18.8 -18.1,-38.5 -32,-53.1 -13.7,-14.5 -27.4,-23.5 -43.8,-28.7 -13,-4.2 -19.4,-5 -46.2,-5.9 -22.7,-0.7 -23.7,-0.8 -29.1,-3.4 -5.9,-2.8 -10,-6.9 -20.5,-19.8 -7.1,-8.8 -18,-18 -27.7,-23.3 -8.6,-4.9 -24.6,-10.2 -36.2,-12.2 -10.8,-1.9 -45,-2.7 -55,-1.3zM350,83.5c0.7,0.8 2,1.5 3,1.5 1,-0 2.3,-0.7 3,-1.5 0.7,-0.8 2.7,-1.5 4.5,-1.5 1.8,-0 3.8,0.7 4.5,1.5 0.7,0.9 2.9,1.5 5.1,1.5 2.8,-0 3.9,-0.4 3.9,-1.5 0,-1.1 1.2,-1.5 4.5,-1.5 3.3,-0 4.5,0.4 4.5,1.5 0,0.9 0.9,1.5 2.4,1.5 1.3,-0 2.9,-0.7 3.6,-1.5 0.7,-0.8 2,-1.5 3,-1.5 1,-0 2.3,0.7 3,1.5 1,1.1 3.6,1.5 11.1,1.5 8.1,-0 9.9,-0.3 9.9,-1.5 0,-0.8 0.7,-1.5 1.5,-1.5 0.8,-0 1.5,0.7 1.5,1.5 0,0.8 -0.7,1.5 -1.5,1.5 -0.8,-0 -1.5,0.7 -1.5,1.5 0,0.9 0.9,1.5 2.2,1.5 2.6,-0 9.8,6.7 9.8,9.1 0,0.9 0.7,2.2 1.5,2.9 1.2,1 1.5,4.1 1.5,15.6 0,7.9 -0.4,14.4 -0.9,14.4 -0.5,-0 -1.4,-0.7 -2.1,-1.5 -1.8,-2.2 -2.8,-1.8 -3.2,1.2 -0.2,2 -1,2.9 -2.8,3.3 -2.9,0.7 -4.3,6 -1.6,6 0.9,-0 1.6,0.7 1.6,1.5 0,0.8 0.7,1.5 1.5,1.5 0.8,-0 1.5,-0.7 1.5,-1.5 0,-0.8 -0.7,-1.5 -1.5,-1.5 -0.8,-0 -1.5,-0.7 -1.5,-1.5 0,-0.8 0.7,-1.5 1.5,-1.5 0.8,-0 1.5,0.7 1.5,1.5 0,0.9 0.9,1.5 2.3,1.5 2.2,0.1 9.7,6.2 9.7,8 0,0.6 -0.7,1 -1.5,1 -2.4,-0 -1.8,1.5 2.1,5.4 3.9,3.9 5.4,4.5 5.4,2.1 0,-0.8 0.6,-1.5 1.4,-1.5 0.8,-0 1.6,0.7 2,1.5 0.3,0.8 1.7,1.5 3.1,1.5 1.6,-0 2.5,-0.6 2.5,-1.5 0,-0.8 0.7,-1.5 1.5,-1.5 0.8,-0 1.5,0.7 1.5,1.5 0,0.8 -0.7,1.5 -1.5,1.5 -0.8,-0 -1.5,0.7 -1.5,1.5 0,0.9 0.9,1.5 2.4,1.5 1.3,-0 2.9,0.7 3.6,1.5 0.8,0.9 3,1.5 5.9,1.5 4.2,-0 5.1,0.4 9.1,4.5l4.4,4.5 7.7,-0c5.5,-0 8,-0.4 8.9,-1.5 0.6,-0.8 3.4,-1.5 6.3,-1.7 4.5,-0.3 5.2,-0.6 5.7,-2.8 0.5,-2.2 1.2,-2.5 5.6,-2.8 3.6,-0.2 5.4,0.1 6.4,1.3 0.7,0.8 2.7,1.5 4.5,1.5 1.8,-0 3.8,0.7 4.5,1.5 1.4,1.7 9,2.1 9,0.4 0,-1.9 -4.4,-4.8 -7.5,-4.9 -5.2,-0.1 -10.3,-6 -5.2,-6 1.4,-0 4,-1.8 6.7,-4.5 2.4,-2.5 5.2,-4.5 6.1,-4.5 0.9,-0 2.2,-0.7 2.9,-1.5 0.9,-1.1 3.3,-1.5 9,-1.5 5.7,-0 8.1,0.4 9,1.5 0.7,0.8 2,1.5 2.8,1.5 2.6,-0 15.2,13.1 15.2,15.7 0,1.4 0.6,2.3 1.5,2.3 0.8,-0 1.5,-0.7 1.5,-1.5 0,-0.8 0.7,-1.5 1.5,-1.5 0.8,-0 1.5,0.7 1.5,1.5 0,0.8 -0.7,1.5 -1.5,1.5 -0.8,-0 -1.5,0.4 -1.5,0.9 0,1.5 19.1,19.6 21.3,20.1 1.3,0.3 2.3,1.5 2.5,2.7 0.2,1.2 1,2.7 1.8,3.3 0.8,0.7 1.4,2 1.4,2.9 0,1 1.4,3 3,4.6 2.5,2.4 3,3.7 3,7.6 0,2.9 -0.6,5.1 -1.5,5.9 -0.8,0.7 -1.5,2.3 -1.5,3.6 0,1.5 0.6,2.4 1.5,2.4 0.8,-0 1.5,0.7 1.5,1.5 0,0.8 -0.7,1.5 -1.5,1.5 -0.8,-0 -1.5,-0.5 -1.5,-1.1 0,-1.1 -4,-4.8 -5.2,-4.9 -0.5,-0 -0.8,0.7 -0.8,1.5 0,2 -2.6,1.9 -3.4,-0.1 -0.9,-2.3 -5,-1.4 -5.4,1.2 -0.2,1.4 0.8,3 2.7,4.7 1.7,1.4 3.1,2.9 3.1,3.2 0,1.2 -4.5,4.4 -6.1,4.5 -0.9,-0 -2.2,0.7 -2.9,1.5 -0.7,0.8 -2.7,1.5 -4.5,1.5 -1.8,-0 -3.8,0.7 -4.5,1.5 -0.7,0.8 -2.3,1.5 -3.6,1.5 -1.5,-0 -2.4,0.6 -2.4,1.5 0,1.1 1.3,1.5 5.4,1.5 3.5,-0 5.8,-0.5 6.6,-1.5 0.7,-0.8 1.6,-1.5 2.1,-1.5 1.5,-0 1,4.7 -0.6,6 -0.8,0.7 -1.5,2 -1.5,2.9 0,1 -1.3,3 -3,4.6 -1.6,1.6 -3,3.9 -3,5.2 0,1.4 -0.6,2.3 -1.5,2.3 -0.8,-0 -1.5,0.7 -1.5,1.5 0,0.8 0.7,1.5 1.5,1.5 0.8,-0 1.5,-0.7 1.5,-1.5 0,-0.8 0.7,-1.5 1.5,-1.5 1.2,-0 1.5,1.7 1.5,9 0,7.3 -0.3,9 -1.5,9 -0.8,-0 -1.5,0.7 -1.5,1.5 0,0.8 0.7,1.5 1.5,1.5 0.8,-0 1.5,0.7 1.5,1.5 0,0.8 0.7,1.5 1.5,1.5 0.8,-0 1.5,-0.7 1.5,-1.5 0,-0.8 -0.7,-1.5 -1.5,-1.5 -0.8,-0 -1.5,-0.7 -1.5,-1.5 0,-0.8 0.7,-1.5 1.5,-1.5 0.8,-0 1.5,0.7 1.5,1.5 0,0.8 0.7,1.5 1.5,1.5 0.8,-0 1.5,0.7 1.5,1.5 0,0.8 -0.7,1.5 -1.5,1.5 -0.9,-0 -1.5,0.9 -1.5,2.4 0,1.3 0.7,2.9 1.5,3.6 0.8,0.7 1.5,2 1.5,3 0,1 0.7,2.3 1.5,3 0.8,0.7 1.5,2 1.5,2.9 0,1 1.4,3 3,4.6 2.5,2.4 3,3.7 3,7.4 0,3.2 0.6,5.1 2.2,6.8 2.4,2.6 6.8,3.1 6.8,0.8 0,-0.8 0.7,-1.5 1.5,-1.5 0.8,-0 1.5,0.7 1.5,1.5 0,1.1 1.2,1.5 4.5,1.5 3.3,-0 4.5,0.4 4.5,1.5 0,1.1 -1.2,1.5 -4.5,1.5 -3.3,-0 -4.5,-0.4 -4.5,-1.5 0,-0.8 -0.7,-1.5 -1.5,-1.5 -0.8,-0 -1.5,0.7 -1.5,1.5 0,0.8 0.7,1.5 1.5,1.5 0.8,-0 1.5,0.7 1.5,1.5 0,1.1 1.3,1.5 5.4,1.5 3.5,-0 5.8,0.5 6.6,1.5 1,1.2 4.3,1.5 17.9,1.5l16.7,-0 2.9,3c1.6,1.6 3.5,3 4.4,3 0.8,-0 2.5,1 3.8,2.2 2,1.9 2.3,3.1 2.3,9.9 0,5.6 0.4,8 1.5,8.9 1.6,1.3 2.1,9 0.6,9 -0.5,-0 -1.4,-0.7 -2.1,-1.5 -0.7,-0.8 -1.6,-1.5 -2.1,-1.5 -1.5,-0 -1,4.7 0.6,6 1.1,0.9 1.5,3.5 1.5,10.4 0,8.9 -0.1,9.3 -3,12.1 -3.3,3.2 -3.8,5.6 -1.5,7.5 1.2,1 1.5,3.7 1.5,12.2 0,8.7 0.3,11 1.5,11.4 2.4,0.9 1.8,3.4 -0.8,3.4 -1.3,-0 -3.6,1.4 -5.2,3 -1.6,1.7 -3.6,3 -4.6,3 -0.9,-0 -2.2,0.7 -2.9,1.5 -1.8,2.1 -13.8,2.1 -14.6,-0 -0.4,-0.8 -1.2,-1.5 -1.9,-1.5 -0.7,-0 -1.5,0.7 -1.9,1.5 -0.4,1.1 -2.1,1.5 -6.1,1.5 -4.2,-0 -5.5,0.3 -5.5,1.5 0,1.1 1.2,1.5 4.5,1.5 3.3,-0 4.5,0.4 4.5,1.5 0,1.1 -1.1,1.5 -4,1.5 -2.7,-0 -4.3,-0.5 -4.6,-1.5 -0.8,-1.9 -3,-1.9 -3.7,-0 -0.4,1 -2.6,1.5 -7.4,1.7 -6.2,0.3 -6.8,0.5 -7.3,2.8 -0.4,1.5 -1.5,2.6 -3,3 -1.8,0.4 -2.6,1.4 -2.8,3.3 -0.4,3 2.1,3.9 3.2,1.2 0.6,-1.7 2.6,-2.1 2.6,-0.5 0,1.3 -3.7,5 -5,5 -0.6,-0 -1,-0.7 -1,-1.6 0,-2.6 -5.4,-1.4 -5.8,1.3 -0.2,1.2 -1.7,3.3 -3.3,4.7 -3.2,2.7 -3.8,4.6 -1.4,4.6 0.8,-0 1.5,0.7 1.5,1.5 0,0.8 -0.7,1.5 -1.5,1.5 -0.8,-0 -1.5,-0.7 -1.5,-1.5 0,-0.8 -0.7,-1.5 -1.5,-1.5 -1.1,-0 -1.5,1.1 -1.5,3.9 0,2.2 -0.6,4.4 -1.5,5.1 -0.8,0.7 -1.5,2 -1.5,3 0,1 -0.7,2.3 -1.5,3 -0.9,0.8 -1.5,3 -1.5,6 0,3 -0.6,5.2 -1.5,6 -2.1,1.7 -2.1,13.3 0,15 0.8,0.7 1.5,2 1.5,2.9 0,2.1 3.8,5.8 6.5,6.3 1.1,0.2 2.1,1.2 2.3,2.3 0.5,2.8 4.2,6.5 6.4,6.5 1,-0 2.1,0.7 2.4,1.5 0.8,1.9 3.4,1.9 3.4,-0 0,-0.8 0.7,-1.5 1.5,-1.5 0.8,-0 1.5,0.7 1.5,1.5 0,0.8 -0.7,1.5 -1.5,1.5 -2.6,-0 -1.7,1.8 3,6.1l4.5,4.2 0,9.1c-0.1,9 -0.1,9.1 -3.5,12.8 -3.9,4.2 -5,4.6 -5.9,2.2 -0.4,-1.1 -1.7,-1.4 -4.3,-1.2 -3.3,0.3 -3.8,0.6 -3.8,2.8 0,2.2 0.5,2.5 4.3,2.8 2.3,0.2 4.2,0.6 4.2,1 0,0.4 -2.7,3.4 -6,6.7 -3.2,3.2 -6,6.8 -6.2,7.9 -0.4,2.6 -4.5,3.5 -5.4,1.2 -0.8,-2 -3,-2.1 -3.8,-0.1 -0.3,0.9 -1.8,1.5 -3.9,1.5 -1.9,-0 -4,0.7 -4.7,1.5 -0.7,0.8 -2.3,1.5 -3.6,1.5 -1.5,-0 -2.4,0.6 -2.4,1.5 0,1.1 1.2,1.5 4.4,1.5 3,-0 4.6,-0.5 5,-1.5 0.3,-0.8 1.7,-1.5 3.1,-1.5 1.6,-0 2.5,0.6 2.5,1.5 0,1 -1,1.5 -3,1.5 -2,-0 -3,0.5 -3,1.5 0,1 1,1.5 3,1.5 1.7,-0 3,0.5 3,1.1 0,1.5 -4.1,4.8 -6,4.9 -0.9,-0 -4.2,2.7 -7.5,6 -3.3,3.3 -6.7,6 -7.6,6 -0.9,-0 -2.2,0.7 -2.9,1.5 -0.7,0.9 -2.9,1.5 -5.1,1.5 -2.2,-0 -3.9,0.5 -3.9,1.1 0,0.6 -1,1.9 -2.2,2.9 -2.1,1.6 -2.4,1.7 -4.5,0.1 -1.2,-0.9 -2.3,-2.2 -2.3,-2.9 0,-0.6 -0.7,-1.2 -1.5,-1.2 -0.8,-0 -1.5,-0.4 -1.5,-1 0,-1.5 -7.3,-7.9 -9,-8 -0.9,-0 -4.2,-2.7 -7.5,-6 -3.3,-3.3 -6.7,-6 -7.5,-6 -0.9,-0 -2.9,-1.4 -4.5,-3 -1.6,-1.7 -3.6,-3 -4.6,-3 -0.9,-0 -2.2,-0.7 -2.9,-1.5 -0.7,-0.8 -2.7,-1.5 -4.5,-1.5 -1.8,-0 -3.8,0.7 -4.5,1.5 -0.8,1 -3,1.5 -6.2,1.5 -3.4,-0 -5,0.4 -5.4,1.5 -0.8,1.9 -3.4,1.9 -3.4,-0 0,-2.5 -2.4,-1.7 -4.5,1.5 -1.1,1.6 -2.6,3 -3.2,3 -1.8,-0 -1.6,-4.5 0.2,-6 1.8,-1.5 2,-6 0.2,-6 -1.4,-0 -3.9,3.5 -4.7,6.5 -0.3,1.1 -1.5,2.1 -2.7,2.3 -1.2,0.2 -2.7,1 -3.3,1.8 -0.7,0.8 -2,1.4 -3,1.4 -1,-0 -2.3,0.6 -3,1.4 -0.6,0.8 -2.8,1.6 -4.8,1.8 -2.8,0.2 -3.8,0.8 -4,2.3 -0.5,2.6 -4.1,6.5 -6.1,6.5 -2.7,-0 -6.1,4.2 -6.1,7.6 0,1.7 -0.7,3.7 -1.5,4.4 -1.1,0.9 -1.5,3.2 -1.5,8.1 0,5.5 -0.3,6.9 -1.5,6.9 -0.9,-0 -1.5,-0.9 -1.5,-2.3 -0.1,-2.2 -6.2,-9.7 -8,-9.7 -1.6,-0 -1.2,4.6 0.5,6 0.9,0.8 1.5,3 1.5,6 0,3 0.6,5.2 1.5,6 0.8,0.7 1.5,2.7 1.5,4.4 0,2.3 0.9,4.1 3,6.1 3.3,3.2 4.1,8.4 1.5,10.5 -0.8,0.7 -1.5,1.9 -1.5,2.8 0,2.8 -4.1,6.2 -7.6,6.2 -1.7,-0 -3.7,0.7 -4.4,1.5 -0.9,1.1 -3.3,1.5 -9,1.5 -5.7,-0 -8.1,0.4 -9,1.5 -0.9,1.1 -3.5,1.5 -10.5,1.5 -7,-0 -9.6,-0.4 -10.5,-1.5 -1,-1.2 -3.8,-1.5 -13.5,-1.5 -9.7,-0 -12.5,-0.3 -13.5,-1.5 -0.8,-0.9 -3,-1.5 -6,-1.5 -3,-0 -5.2,-0.6 -6,-1.5 -0.7,-0.8 -2,-1.5 -2.8,-1.5 -0.9,-0 -3.3,-1.7 -5.4,-3.7l-3.8,-3.7 0,-16.7c0,-13.4 -0.3,-16.9 -1.5,-17.9 -0.9,-0.7 -1.5,-3.5 -1.7,-7.8 -0.3,-5.9 -0.5,-6.7 -2.4,-7 -1.2,-0.2 -3.4,-1.6 -4.9,-3.3 -1.6,-1.6 -3.6,-2.9 -4.5,-2.9 -0.9,-0 -2.9,-1.4 -4.5,-3 -2,-2.1 -3.8,-3 -6.1,-3 -1.7,-0 -3.7,-0.7 -4.4,-1.5 -0.7,-0.8 -2,-1.5 -3,-1.5 -1,-0 -2.3,-0.7 -3,-1.5 -0.7,-0.8 -2,-1.5 -3,-1.5 -1,-0 -2.3,-0.7 -3,-1.5 -0.7,-0.8 -2,-1.5 -3,-1.5 -1,-0 -2.3,-0.7 -3,-1.5 -0.9,-1.1 -3.3,-1.5 -9,-1.5 -5.7,-0 -8.1,0.4 -9,1.5 -0.7,0.9 -2.9,1.5 -5.1,1.5 -2.8,-0 -3.9,0.4 -3.9,1.5 0,0.8 0.7,1.5 1.5,1.5 0.8,-0 1.5,0.7 1.5,1.5 0,0.8 -0.7,1.5 -1.5,1.5 -0.8,-0 -1.5,-0.7 -1.5,-1.6 0,-2.7 -5.3,-1.3 -6,1.6 -0.4,1.5 -1.4,2.6 -2.7,2.8 -1.2,0.2 -2.7,1 -3.3,1.8 -0.7,0.8 -2,1.4 -3,1.4 -1,-0 -2.3,0.6 -3,1.4 -0.6,0.8 -2.1,1.6 -3.3,1.8 -1.2,0.2 -2.4,1.2 -2.7,2.4 -0.5,2.3 -9.5,12.4 -10.9,12.4 -0.5,-0 -1.1,-0.7 -1.5,-1.5 -0.4,-1.1 -2.2,-1.5 -6.9,-1.5 -4.5,-0 -6.8,-0.5 -7.7,-1.5 -0.7,-0.8 -2.6,-1.5 -4.3,-1.5 -1.8,-0 -4,-0.9 -5.4,-2.2 -2,-1.9 -2.3,-3.1 -2.3,-9.9 0,-5.6 -0.4,-8 -1.5,-8.9 -0.9,-0.7 -1.5,-2.9 -1.5,-5.1 0,-2.2 -0.5,-3.9 -1.1,-3.9 -2.2,-0 -4.8,4.5 -4.9,8.2 0,2.7 -0.4,3.8 -1.5,3.8 -0.8,-0 -1.5,0.7 -1.5,1.5 0,0.8 -0.7,1.5 -1.5,1.5 -0.8,-0 -1.5,-0.7 -1.5,-1.5 0,-0.8 0.7,-1.5 1.5,-1.5 0.9,-0 1.5,-0.9 1.5,-2.4 0,-1.3 -0.7,-2.9 -1.5,-3.6 -0.8,-0.7 -1.5,-2 -1.5,-2.9 0,-1.7 -9.5,-12.1 -11.1,-12.1 -0.5,-0 -0.9,0.7 -0.9,1.5 0,0.8 -0.7,1.5 -1.5,1.5 -0.8,-0 -1.5,-0.7 -1.5,-1.5 0,-0.8 0.7,-1.5 1.5,-1.5 0.9,-0 1.5,-0.9 1.5,-2.3 -0.1,-2.4 -3.2,-6.7 -4.9,-6.7 -0.6,-0 -1.1,-0.7 -1.1,-1.5 0,-0.8 -0.7,-1.5 -1.5,-1.5 -0.8,-0 -1.5,0.7 -1.5,1.5 0,0.8 0.7,1.5 1.5,1.5 0.8,-0 1.5,0.7 1.5,1.5 0,0.8 -0.7,1.5 -1.5,1.5 -0.8,-0 -1.5,-0.7 -1.5,-1.5 0,-0.8 -0.4,-1.5 -1,-1.5 -0.5,-0 -2.5,-1.7 -4.5,-3.8 -2.9,-3.1 -3.4,-4.4 -3.5,-8.5 0,-3.3 -0.5,-4.9 -1.5,-5.3 -1.9,-0.8 -1.9,-3 0,-3.8 0.8,-0.3 1.5,-1.3 1.5,-2.3 0,-2.1 18.8,-21.3 20.9,-21.3 2.7,-0 6.1,-4.2 6.1,-7.6 0,-1.7 0.7,-3.7 1.5,-4.4 2.1,-1.8 2.1,-16.2 0,-18 -0.8,-0.7 -1.5,-2 -1.5,-3 0,-1 -0.7,-2.3 -1.5,-3 -0.8,-0.7 -1.5,-2.7 -1.5,-4.5 0,-1.8 -0.7,-3.8 -1.5,-4.5 -0.8,-0.7 -1.5,-2.7 -1.5,-4.5 0,-1.8 -0.7,-3.8 -1.5,-4.5 -0.8,-0.7 -1.5,-2.3 -1.5,-3.6 0,-2.7 -1.2,-3.1 -3,-0.9 -2.5,3 -3,1.3 -3,-9.9 0,-8.9 -0.3,-11.6 -1.5,-12.6 -0.8,-0.7 -1.5,-2.3 -1.5,-3.6 0,-1.5 -0.6,-2.4 -1.5,-2.4 -1.2,-0 -1.5,1.3 -1.5,6 0,6.8 -0.9,7.4 -4.7,3 -2,-2.4 -3.3,-3 -6.4,-3 -4.1,-0 -4.9,-0.9 -2.4,-3 2.7,-2.2 1.6,-3 -3.9,-3 -3.5,-0 -5.8,-0.5 -6.6,-1.5 -1,-1.2 -4.2,-1.5 -16.5,-1.5 -12.3,-0 -15.5,-0.3 -16.5,-1.5 -1.6,-2 -6,-2 -6,-0 0,0.8 -0.7,1.5 -1.5,1.5 -0.8,-0 -1.5,-0.7 -1.5,-1.5 0,-0.8 0.7,-1.5 1.5,-1.5 1.2,-0 1.5,-1.6 1.5,-8.4 0,-6.2 0.4,-8.7 1.5,-9.6 0.8,-0.7 1.5,-2 1.5,-3 0,-1 0.7,-2.3 1.5,-3 0.8,-0.7 1.5,-2.3 1.5,-3.6 0,-1.5 0.6,-2.4 1.5,-2.4 1,-0 1.5,-1 1.5,-3 0,-2 -0.5,-3 -1.5,-3 -1,-0 -1.5,1 -1.5,3 0,1.9 -0.5,3 -1.4,3 -0.8,-0 -1.7,0.7 -2,1.6 -0.3,0.9 -1.5,1.4 -2.8,1.2 -2,-0.3 -2.3,-1 -2.6,-5.4 -0.3,-4.7 0,-5.4 2.8,-7.7 3.7,-3.2 3.8,-4.5 0.3,-4.9l-2.8,-0.3 -0.3,-14.1c-0.2,-11.7 0,-14.3 1.3,-15.4 0.8,-0.7 1.5,-2 1.5,-2.9 0,-1 1.3,-3 2.9,-4.6 1.7,-1.5 3.1,-3.7 3.3,-4.9 0.3,-1.9 1,-2.1 8.5,-2.4 5.6,-0.2 8.5,-0.7 9.3,-1.7 0.7,-0.8 2.7,-1.5 4.5,-1.5 1.8,-0 3.8,-0.7 4.5,-1.5 1.6,-1.9 7.4,-1.9 9,-0 0.8,0.9 3,1.5 5.9,1.5 3.9,-0 5.2,-0.5 7.6,-3 2.2,-2.3 3.8,-3 6.7,-3 3.9,-0 5.4,-2.2 2.3,-3.4 -0.8,-0.3 -1.5,-1.4 -1.5,-2.4 0,-2.2 6.7,-8.9 9.5,-9.4 2.5,-0.4 3.5,-5.8 1.1,-5.8 -0.9,-0 -1.6,0.7 -1.6,1.5 0,0.8 -0.7,1.5 -1.5,1.5 -0.8,-0 -1.5,-0.7 -1.5,-1.5 0,-0.8 0.6,-1.5 1.3,-1.5 0.6,-0 2.1,-1.4 3.2,-3 1.1,-1.6 2.6,-3 3.3,-3 0.8,-0 1.2,-2 1.2,-6.9 0,-4.9 0.4,-7.2 1.5,-8.1 0.8,-0.7 1.5,-2 1.5,-2.9 0,-1 1.4,-3 3,-4.6 2.8,-2.6 3,-3.4 3,-9.7 0,-4.2 -0.4,-6.8 -1.1,-6.8 -1.1,-0 -4.8,-4 -4.9,-5.3 0,-0.4 0.7,-0.7 1.5,-0.7 1.9,-0 1.9,-1.4 0,-3 -2.3,-1.9 -1.8,-3 1.5,-3 3.1,-0 4.2,-2.3 1.6,-3.3 -0.8,-0.3 -1.6,-1.6 -1.8,-2.9 -0.3,-2 -1,-2.4 -5.8,-2.8l-5.5,-0.5 -0.3,-3.7c-0.2,-2 -1,-4.2 -1.8,-4.8 -0.8,-0.7 -1.4,-2 -1.4,-3 0,-1 -0.7,-2.3 -1.5,-3 -0.8,-0.7 -1.5,-2 -1.5,-3 0,-1 -0.7,-2.3 -1.5,-3 -0.8,-0.7 -1.5,-2.1 -1.5,-3.1 0,-1 -0.7,-2.2 -1.6,-2.7 -2.5,-1.4 -0.7,-3.2 3.2,-3.2 2.2,-0 3.7,0.6 4,1.5 0.8,2.1 2.3,1.9 4.5,-0.8 3.8,-4.6 0.8,-12.7 -4.8,-12.7 -2.6,-0 -3,-1.2 -0.9,-3 0.8,-0.6 1.6,-2.1 1.8,-3.3 0.2,-1.3 1.1,-2.3 2.4,-2.5 1.2,-0.2 3.4,-1.6 4.9,-3.3 1.6,-1.6 3.9,-2.9 5.2,-2.9 2.7,-0 2.9,-0.7 0.7,-3.1 -1.4,-1.6 -1.3,-2 2.3,-5.3 2.6,-2.5 4.8,-3.6 6.9,-3.6 1.7,-0 3.7,-0.6 4.4,-1.4 0.6,-0.8 2.8,-1.6 4.8,-1.8l3.7,-0.3 0.3,-8c0.4,-10.7 2,-12.5 10.8,-12.5 4.2,-0 6.5,0.5 7.4,1.5 0.7,0.8 2,1.5 3,1.5 1,-0 2.3,0.7 3,1.5 0.8,0.9 3,1.5 5.9,1.5 3.9,-0 5.2,0.5 7.6,3 3,3.2 7.5,4.1 7.5,1.5 0,-0.8 0.7,-1.5 1.5,-1.5 0.8,-0 1.5,0.7 1.5,1.5 0,0.8 -0.7,1.5 -1.5,1.5 -2.7,-0 -1.6,1.7 5.3,8.4 6.5,6.4 11.2,8.5 11.2,5.1 0,-0.8 0.7,-1.5 1.5,-1.5 0.8,-0 1.5,0.7 1.5,1.5 0,0.8 -0.5,1.5 -1.1,1.5 -1.1,-0 -4.8,4 -4.9,5.2 0,1.5 7.7,0.8 9,-0.7 0.7,-0.9 2.9,-1.5 5.1,-1.5l3.9,-0 0,4.5c0,5.1 1.5,5.8 4.3,1.9 1.8,-2.4 1.8,-2.5 -0.5,-4.4 -1.3,-1.1 -2.6,-1.9 -3,-2 -0.5,-0 -0.8,-0.7 -0.8,-1.6 0,-2.7 5.4,-1.4 5.8,1.4 0.3,2.1 3.4,6.2 4.6,6.2 1.1,-0 10.6,-10.7 10.6,-11.9 0,-2.1 4,-6.1 6.1,-6.1 0.9,-0 2.2,-0.7 2.9,-1.5 0.7,-0.8 2,-1.5 3,-1.5 1,-0 2.3,-0.7 3,-1.5 0.7,-0.8 2,-1.5 2.9,-1.5 2.7,-0 5.9,-4.1 6.3,-8 0.3,-3.3 0.6,-3.5 4.3,-4 3.9,-0.5 4,-0.6 4.3,-4.8 0.2,-3.3 0,-4.2 -1.2,-4.2 -0.9,-0 -1.6,-0.7 -1.6,-1.5 0,-0.8 0.7,-1.5 1.5,-1.5 0.8,-0 1.5,0.7 1.5,1.5 0,0.8 0.7,1.5 1.5,1.5 1.1,-0 1.5,-1.7 1.7,-7.3 0.3,-7 0.4,-7.2 3.1,-7.5 3.8,-0.5 3.6,-3.2 -0.3,-3.2 -3.4,-0 -3.7,-0.6 -1.3,-3.2 1.5,-1.7 1.5,-1.9 -0.1,-3.1 -1.4,-1 -1.6,-2.6 -1.4,-9.2 0.3,-7.9 0.3,-8 3.1,-8.3 2.8,-0.3 3.9,-3.2 1.2,-3.2 -0.8,-0 -1.5,-0.7 -1.5,-1.5 0,-0.8 0.7,-1.5 1.5,-1.5 0.8,-0 1.5,0.7 1.5,1.5 0,0.8 0.6,1.5 1.4,1.5 0.8,-0 1.6,-0.7 2,-1.5 0.3,-0.8 1.4,-1.5 2.4,-1.5 1.1,-0 2.5,-0.7 3.2,-1.5 0.7,-0.8 2,-1.5 3,-1.5 1,-0 2.3,-0.7 3,-1.5 0.7,-0.8 2,-1.5 3,-1.5 1,-0 2.3,0.7 3,1.5zM206,137.5c0,0.8 -0.7,1.5 -1.5,1.5 -0.8,-0 -1.5,-0.7 -1.5,-1.5 0,-0.8 0.7,-1.5 1.5,-1.5 0.8,-0 1.5,0.7 1.5,1.5zM437,137.5c0,0.8 -0.7,1.5 -1.5,1.5 -0.8,-0 -1.5,-0.7 -1.5,-1.5 0,-0.8 0.7,-1.5 1.5,-1.5 0.8,-0 1.5,0.7 1.5,1.5zM533,140.5c0,0.8 -0.7,1.5 -1.5,1.5 -0.8,-0 -1.5,-0.7 -1.5,-1.5 0,-0.8 0.7,-1.5 1.5,-1.5 0.8,-0 1.5,0.7 1.5,1.5zM521,152c0,0.5 -0.9,1.9 -2,3 -3.6,3.6 -5.7,1.8 -2.2,-1.9 1.9,-2.1 4.2,-2.7 4.2,-1.1zM287,161.5c0,0.8 -0.7,1.5 -1.5,1.5 -0.8,-0 -1.5,-0.7 -1.5,-1.5 0,-0.8 0.7,-1.5 1.5,-1.5 0.8,-0 1.5,0.7 1.5,1.5zM266,167.5c0,0.8 -0.7,1.5 -1.5,1.5 -0.8,-0 -1.5,-0.7 -1.5,-1.5 0,-0.8 0.7,-1.5 1.5,-1.5 0.8,-0 1.5,0.7 1.5,1.5zM145.8,192.7c-0.4,3.9 -2.8,4.2 -2.8,0.4 0,-2.1 0.5,-3.1 1.6,-3.1 1.1,-0 1.4,0.8 1.2,2.7zM146.4,200.5c0.3,0.8 1.7,1.5 3.1,1.5 1.6,-0 2.5,0.6 2.5,1.5 0,1.2 -1.3,1.5 -5.5,1.5 -4,-0 -5.7,0.4 -6.1,1.5 -0.4,0.8 -1.2,1.5 -2,1.5 -0.8,-0 -1.4,-0.7 -1.4,-1.5 0,-0.8 0.5,-1.5 1.1,-1.5 0.6,-0 2.2,-1.4 3.6,-3 2.8,-3.4 3.8,-3.7 4.7,-1.5zM137,212.5c0,0.8 -0.7,1.5 -1.5,1.5 -0.8,-0 -1.5,-0.7 -1.5,-1.5 0,-0.8 0.7,-1.5 1.5,-1.5 0.8,-0 1.5,0.7 1.5,1.5zM617,215.5c0,0.8 -0.7,1.5 -1.5,1.5 -0.8,-0 -1.5,-0.7 -1.5,-1.5 0,-0.8 0.7,-1.5 1.5,-1.5 0.8,-0 1.5,0.7 1.5,1.5zM144,222c2.2,2.2 2.6,4 1,4 -1.3,-0 -5,-3.7 -5,-5 0,-1.6 1.8,-1.2 4,1zM167,260.5c0,0.8 -0.7,1.5 -1.5,1.5 -0.8,-0 -1.5,-0.7 -1.5,-1.5 0,-0.8 0.7,-1.5 1.5,-1.5 0.8,-0 1.5,0.7 1.5,1.5zM158,296.5c0,0.8 -0.7,1.5 -1.5,1.5 -0.8,-0 -1.5,-0.7 -1.5,-1.5 0,-0.8 0.7,-1.5 1.5,-1.5 0.8,-0 1.5,0.7 1.5,1.5zM146,308.5c0,0.8 -0.7,1.5 -1.5,1.5 -0.8,-0 -1.5,-0.7 -1.5,-1.5 0,-0.8 0.7,-1.5 1.5,-1.5 0.8,-0 1.5,0.7 1.5,1.5zM605,310.1c0,3.8 -2.4,3.5 -2.8,-0.4 -0.2,-1.9 0.1,-2.7 1.2,-2.7 1.1,-0 1.6,1 1.6,3.1zM140,317.5c0,1 -1,1.5 -3,1.5 -2,-0 -3,-0.5 -3,-1.5 0,-1 1,-1.5 3,-1.5 2,-0 3,0.5 3,1.5zM80,344.5c0,0.8 -0.7,1.5 -1.5,1.5 -0.8,-0 -1.5,-0.7 -1.5,-1.5 0,-0.8 0.7,-1.5 1.5,-1.5 0.8,-0 1.5,0.7 1.5,1.5zM89,431.5c0,0.8 -0.7,1.5 -1.5,1.5 -0.8,-0 -1.5,-0.7 -1.5,-1.5 0,-0.8 0.7,-1.5 1.5,-1.5 0.8,-0 1.5,0.7 1.5,1.5zM653,437.5c0,0.8 -0.7,1.5 -1.5,1.5 -0.8,-0 -1.5,-0.7 -1.5,-1.5 0,-0.8 0.7,-1.5 1.5,-1.5 0.8,-0 1.5,0.7 1.5,1.5zM584,497.5c0,0.8 -0.7,1.5 -1.5,1.5 -0.8,-0 -1.5,-0.7 -1.5,-1.5 0,-0.8 0.7,-1.5 1.5,-1.5 0.8,-0 1.5,0.7 1.5,1.5zM164,505c0,2 -0.5,3 -1.5,3 -1,-0 -1.5,-1 -1.5,-3 0,-2 0.5,-3 1.5,-3 1,-0 1.5,1 1.5,3zM608,566.5c0,0.8 -0.7,1.5 -1.5,1.5 -0.8,-0 -1.5,-0.7 -1.5,-1.5 0,-0.8 0.7,-1.5 1.5,-1.5 0.8,-0 1.5,0.7 1.5,1.5zM267,588c1.1,1.1 2,2.4 2,3 0,1.6 -1.8,1.2 -4,-1 -1.1,-1.1 -2,-2.5 -2,-3 0,-1.6 1.8,-1.2 4,1zM503,590.5c0,0.8 -0.7,1.5 -1.5,1.5 -0.8,-0 -1.5,-0.7 -1.5,-1.5 0,-0.8 0.7,-1.5 1.5,-1.5 0.8,-0 1.5,0.7 1.5,1.5zM287,599.5c0,0.8 -0.7,1.5 -1.5,1.5 -0.8,-0 -1.5,-0.7 -1.5,-1.5 0,-0.8 0.7,-1.5 1.5,-1.5 0.8,-0 1.5,0.7 1.5,1.5zM452,599.5c0,1 -1,1.5 -3,1.5 -2.9,-0 -3.8,-0.9 -2.3,-2.3 1.3,-1.3 5.3,-0.7 5.3,0.8zM296,602.5c0,0.8 -0.7,1.5 -1.5,1.5 -0.8,-0 -1.5,-0.7 -1.5,-1.5 0,-0.8 0.7,-1.5 1.5,-1.5 0.8,-0 1.5,0.7 1.5,1.5zM443,608.5c0,0.8 -0.7,1.5 -1.5,1.5 -0.8,-0 -1.5,-0.7 -1.5,-1.5 0,-0.8 0.7,-1.5 1.5,-1.5 0.8,-0 1.5,0.7 1.5,1.5zM317,611.5c0,0.8 -0.7,1.5 -1.5,1.5 -0.8,-0 -1.5,-0.7 -1.5,-1.5 0,-0.8 0.7,-1.5 1.5,-1.5 0.8,-0 1.5,0.7 1.5,1.5zM536,614.5c0,0.8 0.7,1.5 1.5,1.5 0.8,-0 1.5,0.7 1.5,1.5 0,0.8 -0.7,1.5 -1.5,1.5 -0.8,-0 -1.5,-0.7 -1.5,-1.5 0,-0.8 -0.7,-1.5 -1.5,-1.5 -0.8,-0 -1.5,-0.7 -1.5,-1.5 0,-0.8 0.7,-1.5 1.5,-1.5 0.8,-0 1.5,0.7 1.5,1.5zM209,617c0,0.5 -0.9,1.9 -2,3 -3.6,3.6 -5.7,1.8 -2.2,-1.9 1.9,-2.1 4.2,-2.7 4.2,-1.1zM551,617.5c0,0.8 -0.7,1.5 -1.5,1.5 -0.8,-0 -1.5,-0.7 -1.5,-1.5 0,-0.8 0.7,-1.5 1.5,-1.5 0.8,-0 1.5,0.7 1.5,1.5zM320,641.5c0,3.3 -0.4,4.5 -1.5,4.5 -1.1,-0 -1.5,-1.2 -1.5,-4.5 0,-3.3 0.4,-4.5 1.5,-4.5 1.1,-0 1.5,1.2 1.5,4.5zM320,659.5c0,0.8 -0.7,1.5 -1.5,1.5 -0.8,-0 -1.5,-0.7 -1.5,-1.5 0,-0.8 0.7,-1.5 1.5,-1.5 0.8,-0 1.5,0.7 1.5,1.5zM350,674.5c0,1 -1,1.5 -3,1.5 -2,-0 -3,-0.5 -3,-1.5 0,-1 1,-1.5 3,-1.5 2,-0 3,0.5 3,1.5zM419,674.5c0,0.8 -0.7,1.5 -1.5,1.5 -0.8,-0 -1.5,-0.7 -1.5,-1.5 0,-0.8 0.7,-1.5 1.5,-1.5 0.8,-0 1.5,0.7 1.5,1.5z" stroke="#000000"/><path fill="#000000" d="M374,86.5c0,1.1 1.2,1.5 4.5,1.5 3.3,-0 4.5,-0.4 4.5,-1.5 0,-1.1 -1.2,-1.5 -4.5,-1.5 -3.3,-0 -4.5,0.4 -4.5,1.5z" stroke="#000000"/><path fill="#000000" d="M377,236.5c-0.8,0.9 -3,1.5 -6,1.5 -3,-0 -5.2,0.6 -6,1.5 -0.9,1 -3.2,1.5 -7.7,1.5 -4.7,-0 -6.5,0.4 -6.9,1.5 -1,2.5 -3.2,1.7 -3.6,-1.3 -0.3,-2.5 -0.7,-2.7 -5.4,-3 -3.6,-0.2 -5.4,0.1 -6.4,1.3 -0.7,0.8 -2,1.5 -3,1.5 -1,-0 -2.3,0.7 -3,1.5 -0.7,0.8 -2,1.5 -3,1.5 -1,-0 -2.3,0.7 -3,1.5 -0.7,0.8 -2,1.5 -3,1.5 -1,-0 -2.3,0.7 -3,1.5 -0.7,0.8 -2,1.5 -3,1.5 -1,-0 -2.3,0.7 -3,1.5 -0.7,0.8 -2,1.5 -3,1.5 -1,-0 -2.3,0.7 -3,1.5 -0.7,0.8 -2,1.5 -3,1.5 -1,-0 -2.3,0.7 -3,1.5 -0.7,0.8 -2,1.5 -3,1.5 -1,-0 -2.3,0.7 -3,1.5 -0.7,0.8 -2,1.5 -2.9,1.5 -0.9,-0 -3.7,2 -6.1,4.5 -2.4,2.5 -5.1,4.5 -6,4.5 -0.9,-0 -3.3,1.7 -5.3,3.8 -3.2,3.3 -3.7,4.4 -3.7,8.5 0,3.3 -0.5,4.9 -1.5,5.3 -0.8,0.4 -1.5,1.2 -1.5,2 0,0.8 -0.7,1.4 -1.5,1.4 -0.8,-0 -1.5,0.7 -1.5,1.5 0,0.8 0.7,1.5 1.5,1.5 0.8,-0 1.5,-0.7 1.5,-1.5 0,-0.8 0.7,-1.5 1.5,-1.5 0.8,-0 1.5,0.7 1.5,1.5 0,0.8 -0.7,1.5 -1.5,1.5 -0.8,-0 -1.5,0.6 -1.5,1.4 0,0.8 -0.7,1.6 -1.5,2 -0.8,0.3 -1.5,1.4 -1.5,2.4 0,2.8 -4.2,6.2 -7.6,6.2 -3.3,-0 -7,3.1 -7.6,6.5 -0.2,1.1 -1.4,2.2 -2.8,2.5 -2.2,0.5 -2.5,1.2 -2.8,5.7 -0.2,2.9 -0.9,5.7 -1.7,6.3 -0.8,0.7 -1.5,2 -1.5,3 0,1 -0.7,2.3 -1.5,3 -0.8,0.7 -1.5,2.1 -1.5,3.2 0,1 -0.7,2.1 -1.5,2.4 -2.4,0.9 -1.8,3.4 0.8,3.4 2.6,-0 6.7,3.8 6.7,6.2 0,0.9 -0.7,2.1 -1.5,2.8 -0.8,0.7 -1.5,2.7 -1.5,4.5 0,1.8 -0.7,3.8 -1.5,4.5 -1,0.8 -1.5,3 -1.5,6.2 0,3.4 -0.4,5 -1.5,5.4 -2.5,1 -1.7,3.2 1.3,3.6 2.5,0.3 2.7,0.7 3,5.4 0.2,3.6 -0.1,5.4 -1.3,6.4 -2,1.7 -2.1,10.3 0,12 1.1,0.9 1.5,3.3 1.5,9 0,5.7 0.4,8.1 1.5,9 1.2,1 1.5,3.7 1.5,12.6 0,9.5 0.3,11.4 1.5,11.4 0.8,-0 1.5,-0.7 1.5,-1.5 0,-0.8 0.7,-1.5 1.5,-1.5 0.8,-0 1.5,0.7 1.5,1.5 0,0.8 -0.7,1.5 -1.5,1.5 -2.6,-0 -1.7,4.5 1.5,7.5 1.7,1.6 3,3.6 3,4.6 0,0.9 0.7,2.2 1.5,2.9 0.8,0.7 1.5,2.7 1.5,4.5 0,1.8 0.7,3.8 1.5,4.5 0.8,0.7 1.5,2.3 1.5,3.6 0,2.7 1.2,3.1 3,0.9 1.9,-2.3 3,-1.8 3,1.5 0,2 0.5,3 1.5,3 0.8,-0 1.5,0.7 1.5,1.5 0,0.9 0.9,1.5 2.4,1.5 1.3,-0 2.9,0.7 3.6,1.5 0.7,0.8 2.1,1.5 3.2,1.5 1,-0 2.1,-0.7 2.4,-1.5 0.4,-0.8 1,-1.5 1.4,-1.5 0.4,-0 3.8,3 7.4,6.7 5.2,5.4 6.6,7.4 6.6,9.9 0,3.3 3.5,7.4 6.2,7.4 0.8,-0 3.4,2 5.7,4.5 2.3,2.5 4.6,4.5 5.1,4.5 0.5,-0 1,-1.2 1.2,-2.8 0.4,-3.2 3.7,-4.2 5.8,-1.7 0.7,0.8 2.7,1.5 4.5,1.5 1.8,-0 3.8,0.7 4.5,1.5 0.7,0.8 2.3,1.5 3.6,1.5 2.8,-0 3,0.7 0.8,3.1 -1.4,1.6 -1.3,2 2.3,5.3 2.1,1.9 4.1,3.6 4.6,3.6 0.4,-0 0.7,0.7 0.7,1.5 0,0.8 0.7,1.5 1.5,1.5 0.8,-0 1.5,-0.7 1.5,-1.5 0,-0.8 -0.7,-1.5 -1.5,-1.5 -1,-0 -1.5,-1 -1.5,-3 0,-2 -0.5,-3 -1.5,-3 -2.1,-0 -1.9,-1.6 0.5,-4 2.4,-2.4 4,-2.6 4,-0.5 0,0.8 -0.7,1.5 -1.5,1.5 -0.8,-0 -1.5,0.7 -1.5,1.5 0,1.1 1.1,1.5 3.9,1.5 2.2,-0 4.4,0.6 5.1,1.5 0.7,0.9 2.9,1.5 5.1,1.5 4.1,-0 4.9,0.9 2.4,3 -0.8,0.7 -1.5,1.6 -1.5,2.1 0,1.5 7.7,1 9,-0.6 0.7,-0.8 2.7,-1.5 4.5,-1.5 1.8,-0 3.8,-0.7 4.5,-1.5 1.9,-2.3 4.3,-1.8 7.5,1.5 1.6,1.6 3.6,3 4.6,3 0.9,-0 2.2,0.7 2.9,1.5 0.8,0.9 3,1.5 6,1.5 3,-0 5.2,0.6 6,1.5 1.6,1.9 4.4,1.9 6,-0 0.7,-0.8 2.7,-1.5 4.5,-1.5 1.8,-0 3.8,-0.7 4.5,-1.5 0.7,-0.8 2,-1.5 2.9,-1.5 1.9,-0.1 6.1,-3.4 6.1,-4.9 0,-0.6 -0.7,-1.1 -1.5,-1.1 -0.8,-0 -1.5,-0.7 -1.5,-1.5 0,-0.8 0.7,-1.5 1.5,-1.5 0.8,-0 1.5,0.7 1.5,1.6 0,2.7 5.3,1.3 6,-1.6 0.5,-2.2 1.2,-2.6 6,-3 4.8,-0.4 5.5,-0.8 6,-3 0.4,-1.5 1.4,-2.6 2.7,-2.8 1.2,-0.2 2.7,-1 3.3,-1.8 0.7,-0.8 2,-1.4 3,-1.4 1,-0 2.3,-0.7 3,-1.5 0.7,-0.8 2,-1.5 3,-1.5 1,-0 2.3,-0.7 3,-1.5 0.7,-0.8 2,-1.5 3,-1.5 1,-0 2.3,-0.7 3,-1.5 0.7,-0.8 2,-1.5 2.9,-1.5 3,-0 9.1,-7.2 9.1,-10.7 0,-2.3 0.9,-3.8 3.1,-5.7 2.9,-2.5 3,-2.8 1.5,-4.5 -2.2,-2.4 -2,-3.1 0.7,-3.1 3,-0 15.7,-12.7 15.7,-15.8 0,-1.3 0.6,-2.2 1.5,-2.2 1.1,-0 1.5,-1.3 1.5,-5.3 0,-4.9 0.3,-5.6 4.5,-9.7 3.5,-3.4 4.5,-5.2 4.5,-7.6 0,-1.7 0.7,-3.7 1.5,-4.4 0.8,-0.7 1.5,-2.1 1.5,-3.2 0,-1 -0.7,-2.1 -1.5,-2.4 -0.8,-0.4 -1.5,-1.2 -1.5,-1.9 0,-0.7 0.7,-1.5 1.5,-1.9 0.8,-0.3 1.5,-1.4 1.5,-2.4 0,-1.1 0.7,-2.5 1.5,-3.2 1.1,-0.9 1.5,-3.3 1.5,-9 0,-5.7 0.4,-8.1 1.5,-9 1,-0.9 1.5,-3.2 1.5,-7.5 0,-4.3 -0.5,-6.6 -1.5,-7.5 -0.8,-0.7 -1.5,-2.1 -1.5,-3.2 0,-1 -0.7,-2.1 -1.5,-2.4 -2.7,-1.1 -1.8,-3.6 1.2,-3.2 1.9,0.2 2.9,1 3.3,2.7 1,4.3 3,3.7 3,-0.8 0,-2.8 0.5,-4.4 1.5,-4.7 0.8,-0.4 1.5,-1.2 1.5,-1.9 0,-0.7 -0.7,-1.5 -1.5,-1.9 -0.9,-0.3 -1.5,-1.8 -1.5,-3.9 0,-1.9 -0.7,-4 -1.5,-4.7 -0.8,-0.7 -1.5,-2 -1.5,-2.9 0,-1 -1.3,-3 -3,-4.6 -1.6,-1.6 -3,-3.6 -3,-4.6 0,-0.9 -0.7,-2.2 -1.5,-2.9 -0.8,-0.7 -1.5,-2.3 -1.5,-3.6 0,-1.5 0.6,-2.4 1.5,-2.4 0.8,-0 1.5,-0.7 1.5,-1.5 0,-0.8 -0.7,-1.5 -1.5,-1.5 -0.8,-0 -1.5,-0.6 -1.5,-1.4 0,-0.8 -0.7,-1.6 -1.5,-2 -0.9,-0.3 -1.5,-1.8 -1.5,-3.9 0,-1.9 -0.7,-4 -1.5,-4.7 -0.8,-0.7 -1.5,-2 -1.5,-3 0,-1 -0.7,-2.3 -1.5,-3 -0.8,-0.7 -1.5,-2 -1.5,-3 0,-1 -0.7,-2.3 -1.5,-3 -0.8,-0.7 -1.5,-2 -1.5,-2.9 0,-0.9 -2,-3.6 -4.5,-6.1 -2.4,-2.4 -4.5,-5.3 -4.7,-6.4 -0.2,-1.2 -1.2,-2.2 -2.4,-2.4 -2.6,-0.4 -9.1,-7 -9.6,-9.7 -0.2,-1.5 -1.3,-2.1 -4.3,-2.5 -3.5,-0.4 -4,-0.9 -4.3,-3.3 -0.5,-3.8 -3.2,-3.6 -3.2,0.3 0,2 -0.5,3 -1.5,3 -0.9,-0 -1.5,-0.9 -1.5,-2.5 0,-1.4 0.7,-2.8 1.5,-3.1 2,-0.8 1.9,-2 -0.5,-4.4 -2.4,-2.4 -4,-2.6 -4,-0.5 0,0.8 -0.7,1.5 -1.5,1.5 -0.8,-0 -1.5,-0.7 -1.5,-1.5 0,-0.8 0.7,-1.5 1.5,-1.5 2.1,-0 1.9,-1.6 -0.5,-4 -2.4,-2.4 -4,-2.6 -4,-0.5 0,0.8 -0.6,1.5 -1.4,1.5 -0.8,-0 -1.6,-0.7 -2,-1.5 -0.3,-0.8 -1.4,-1.5 -2.4,-1.5 -1.1,-0 -2.5,-0.7 -3.2,-1.5 -0.7,-0.8 -2.3,-1.5 -3.6,-1.5 -1.5,-0 -2.4,0.6 -2.4,1.5 0,0.8 -0.7,1.5 -1.5,1.5 -0.8,-0 -1.5,-0.7 -1.5,-1.5 0,-0.8 0.7,-1.5 1.5,-1.5 0.8,-0 1.5,-0.7 1.5,-1.5 0,-0.9 -0.9,-1.5 -2.4,-1.5 -1.3,-0 -2.9,-0.7 -3.6,-1.5 -0.7,-0.8 -2.1,-1.5 -3.2,-1.5 -1,-0 -2.1,0.7 -2.4,1.5 -0.9,2.2 -2.2,1.8 -5.1,-1.5 -1.3,-1.7 -3.3,-3 -4.3,-3 -1,-0 -2.3,-0.7 -3,-1.5 -0.9,-1 -3.2,-1.5 -7.5,-1.5 -4.3,-0 -6.6,-0.5 -7.5,-1.5 -0.7,-0.8 -2,-1.5 -3,-1.5 -1,-0 -2.3,-0.7 -3,-1.5 -0.7,-0.8 -2,-1.5 -3,-1.5 -1,-0 -2.3,-0.7 -3,-1.5 -0.7,-0.8 -2.7,-1.5 -4.5,-1.5 -1.8,-0 -3.8,0.7 -4.5,1.5zM344,242.5c0,0.8 -0.7,1.5 -1.5,1.5 -0.8,-0 -1.5,-0.7 -1.5,-1.5 0,-0.8 0.7,-1.5 1.5,-1.5 0.8,-0 1.5,0.7 1.5,1.5zM500,323.5c0,0.8 -0.7,1.5 -1.5,1.5 -0.8,-0 -1.5,-0.7 -1.5,-1.5 0,-0.8 0.7,-1.5 1.5,-1.5 0.8,-0 1.5,0.7 1.5,1.5zM509,332.5c0,0.8 -0.7,1.5 -1.5,1.5 -0.8,-0 -1.5,-0.7 -1.5,-1.5 0,-0.8 0.7,-1.5 1.5,-1.5 0.8,-0 1.5,0.7 1.5,1.5zM245,412.1c0,3.8 -2.4,3.5 -2.8,-0.4 -0.2,-1.9 0.1,-2.7 1.2,-2.7 1.1,-0 1.6,1 1.6,3.1zM509,410.5c0,0.8 -0.7,1.5 -1.5,1.5 -0.8,-0 -1.5,-0.7 -1.5,-1.5 0,-0.8 0.7,-1.5 1.5,-1.5 0.8,-0 1.5,0.7 1.5,1.5zM269,473.5c0,0.8 -0.7,1.5 -1.5,1.5 -0.8,-0 -1.5,-0.7 -1.5,-1.5 0,-0.8 0.7,-1.5 1.5,-1.5 0.8,-0 1.5,0.7 1.5,1.5zM467,485.5c0,0.8 -0.7,1.5 -1.5,1.5 -0.8,-0 -1.5,-0.7 -1.5,-1.5 0,-0.8 0.7,-1.5 1.5,-1.5 0.8,-0 1.5,0.7 1.5,1.5zM467,491.5c0,0.8 -0.7,1.5 -1.5,1.5 -0.8,-0 -1.5,-0.7 -1.5,-1.5 0,-0.8 0.7,-1.5 1.5,-1.5 0.8,-0 1.5,0.7 1.5,1.5zM398,521.5c0,0.8 -0.7,1.5 -1.5,1.5 -0.8,-0 -1.5,-0.7 -1.5,-1.5 0,-0.8 0.7,-1.5 1.5,-1.5 0.8,-0 1.5,0.7 1.5,1.5zM413,521.5c0,0.8 -0.7,1.5 -1.5,1.5 -0.8,-0 -1.5,-0.7 -1.5,-1.5 0,-0.8 0.7,-1.5 1.5,-1.5 0.8,-0 1.5,0.7 1.5,1.5z" stroke="#000000"/><path fill="#000000" d="M410,239.5c0,1.1 1.2,1.5 4.5,1.5 3.3,-0 4.5,-0.4 4.5,-1.5 0,-1.1 -1.2,-1.5 -4.5,-1.5 -3.3,-0 -4.5,0.4 -4.5,1.5z" stroke="#000000"/><path fill="#000000" d="M422,242.5c0,0.8 0.7,1.5 1.5,1.5 0.8,-0 1.5,-0.7 1.5,-1.5 0,-0.8 -0.7,-1.5 -1.5,-1.5 -0.8,-0 -1.5,0.7 -1.5,1.5z" stroke="#000000"/><path fill="#000000" d="M515,335.5c0,0.8 0.7,1.5 1.5,1.5 0.8,-0 1.5,-0.7 1.5,-1.5 0,-0.8 -0.7,-1.5 -1.5,-1.5 -0.8,-0 -1.5,0.7 -1.5,1.5z" stroke="#000000"/><path fill="#000000" d="M503,452.5c0,0.8 -0.7,1.5 -1.5,1.5 -0.8,-0 -1.5,0.7 -1.5,1.5 0,2.1 1.6,1.9 4,-0.5 2.4,-2.4 2.6,-4 0.5,-4 -0.8,-0 -1.5,0.7 -1.5,1.5z" stroke="#000000"/><path fill="#000000" d="M299,512.5c0,1 1,1.5 3,1.5 2,-0 3,-0.5 3,-1.5 0,-1 -1,-1.5 -3,-1.5 -2,-0 -3,0.5 -3,1.5z" stroke="#000000"/><path fill="#000000" d="M305.2,522.7c0.2,2.2 0.9,2.9 3.1,3.1 2.6,0.3 2.8,0.1 2.5,-2.5 -0.2,-2.2 -0.9,-2.9 -3.1,-3.1 -2.6,-0.3 -2.8,-0.1 -2.5,2.5z" stroke="#000000"/><path fill="#000000" d="M341,536.5c0,0.8 0.7,1.5 1.5,1.5 0.8,-0 1.5,-0.7 1.5,-1.5 0,-0.8 -0.7,-1.5 -1.5,-1.5 -0.8,-0 -1.5,0.7 -1.5,1.5z" stroke="#000000"/><path fill="#000000" d="M383,539.5c0,0.8 0.7,1.5 1.5,1.5 0.8,-0 1.5,-0.7 1.5,-1.5 0,-0.8 -0.7,-1.5 -1.5,-1.5 -0.8,-0 -1.5,0.7 -1.5,1.5z" stroke="#000000"/></g><g id="g_1"><path fill="#000000" d="M344,83.5c-0.7,0.8 -2,1.5 -3,1.5 -1,-0 -2.3,0.7 -3,1.5 -0.7,0.8 -2.1,1.5 -3.2,1.5 -1,-0 -2.1,0.7 -2.4,1.5 -0.4,0.8 -1.2,1.5 -2,1.5 -0.8,-0 -1.4,-0.7 -1.4,-1.5 0,-0.8 -0.7,-1.5 -1.5,-1.5 -0.8,-0 -1.5,0.7 -1.5,1.5 0,0.8 0.7,1.5 1.5,1.5 2.7,-0 1.6,2.9 -1.2,3.2 -2.8,0.3 -2.8,0.4 -3.1,8.3 -0.2,6.6 0,8.2 1.4,9.2 1.6,1.2 1.6,1.4 0.1,3.1 -2.4,2.6 -2.1,3.2 1.3,3.2 3.9,-0 4.1,2.7 0.3,3.2 -2.7,0.3 -2.8,0.5 -3.1,7.5 -0.2,5.6 -0.6,7.3 -1.7,7.3 -0.8,-0 -1.5,-0.7 -1.5,-1.5 0,-0.8 -0.7,-1.5 -1.5,-1.5 -0.8,-0 -1.5,0.7 -1.5,1.5 0,0.8 0.7,1.5 1.6,1.5 1.2,-0 1.4,0.9 1.2,4.2 -0.3,4.2 -0.4,4.3 -4.3,4.8 -3.7,0.5 -4,0.7 -4.3,4 -0.4,3.9 -3.6,8 -6.3,8 -0.9,-0 -2.2,0.7 -2.9,1.5 -0.7,0.8 -2,1.5 -3,1.5 -1,-0 -2.3,0.7 -3,1.5 -0.7,0.8 -2,1.5 -2.9,1.5 -2.1,-0 -6.1,4 -6.1,6.1 0,0.8 -2.3,3.8 -5.1,6.6 -5,5.2 -5.1,5.3 -7.4,3.5 -1.3,-0.9 -2.5,-2.8 -2.7,-4.2 -0.2,-1.9 -1,-2.6 -3,-2.8 -2,-0.2 -2.8,0.1 -2.8,1.2 0,0.9 0.3,1.6 0.8,1.6 0.4,0.1 1.7,0.9 3,2 2.3,1.9 2.3,2 0.5,4.4 -2.8,3.9 -4.3,3.2 -4.3,-1.9l0,-4.5 -3.9,-0c-2.2,-0 -4.4,0.6 -5.1,1.5 -1.3,1.5 -9,2.2 -9,0.7 0.1,-1.2 3.8,-5.2 4.9,-5.2 0.6,-0 1.1,-0.7 1.1,-1.5 0,-0.8 -0.7,-1.5 -1.5,-1.5 -0.8,-0 -1.5,0.7 -1.5,1.5 0,3.4 -4.7,1.3 -11.2,-5.1 -6.9,-6.7 -8,-8.4 -5.3,-8.4 0.8,-0 1.5,-0.7 1.5,-1.5 0,-0.8 -0.7,-1.5 -1.5,-1.5 -0.8,-0 -1.5,0.7 -1.5,1.5 0,2.6 -4.5,1.7 -7.5,-1.5 -2.4,-2.5 -3.7,-3 -7.6,-3 -2.9,-0 -5.1,-0.6 -5.9,-1.5 -0.7,-0.8 -2,-1.5 -3,-1.5 -1,-0 -2.3,-0.7 -3,-1.5 -0.9,-1 -3.2,-1.5 -7.4,-1.5 -8.8,-0 -10.4,1.8 -10.8,12.5l-0.3,8 -3.7,0.3c-2,0.2 -4.2,1 -4.8,1.8 -0.7,0.8 -2.7,1.4 -4.4,1.4 -2.1,-0 -4.3,1.1 -6.9,3.6 -3.6,3.3 -3.7,3.7 -2.3,5.3 2.2,2.4 2,3.1 -0.7,3.1 -1.3,-0 -3.6,1.3 -5.2,2.9 -1.5,1.7 -3.7,3.1 -4.9,3.3 -1.3,0.2 -2.2,1.2 -2.4,2.5 -0.2,1.2 -1,2.7 -1.8,3.3 -2.1,1.8 -1.7,3 0.9,3 5.6,-0 8.6,8.1 4.8,12.7 -2.2,2.7 -3.7,2.9 -4.5,0.8 -0.7,-2 -8.6,-2.1 -8.6,-0.1 0,0.8 0.7,1.6 1.5,2 0.8,0.3 1.5,1.4 1.5,2.4 0,1.1 0.7,2.5 1.5,3.2 0.8,0.7 1.5,2 1.5,3 0,1 0.7,2.3 1.5,3 0.8,0.7 1.5,2 1.5,3 0,1 0.6,2.3 1.4,3 0.8,0.6 1.6,2.8 1.8,4.8l0.3,3.7 5.5,0.5c4.8,0.4 5.5,0.8 5.8,2.8 0.2,1.3 1,2.6 1.8,2.9 2.6,1 1.5,3.3 -1.6,3.3 -3.3,-0 -3.8,1.1 -1.5,3 1.9,1.6 1.9,3 0,3 -0.8,-0 -1.5,0.4 -1.5,1 0,1.3 3.7,5 5,5 0.6,-0 1,2.9 1,6.8 0,6.3 -0.2,7.1 -3,9.7 -1.6,1.6 -3,3.6 -3,4.6 0,0.9 -0.7,2.2 -1.5,2.9 -1.1,0.9 -1.5,3.2 -1.5,8.1 0,4.9 -0.4,6.9 -1.2,6.9 -0.7,-0 -2.2,1.4 -3.3,3 -1.1,1.6 -2.6,3 -3.2,3 -0.7,-0 -1.3,0.7 -1.3,1.5 0,0.8 0.7,1.5 1.5,1.5 0.8,-0 1.5,-0.7 1.5,-1.5 0,-0.8 0.7,-1.5 1.6,-1.5 2.4,-0 1.4,5.4 -1.1,5.8 -2.8,0.5 -9.5,7.2 -9.5,9.4 0,1 0.7,2.1 1.5,2.4 3.1,1.2 1.6,3.4 -2.3,3.4 -2.9,-0 -4.5,0.7 -6.7,3 -2.4,2.5 -3.7,3 -7.6,3 -2.9,-0 -5.1,-0.6 -5.9,-1.5 -1.6,-1.9 -7.4,-1.9 -9,-0 -0.7,0.8 -2.7,1.5 -4.5,1.5 -1.8,-0 -3.8,0.7 -4.5,1.5 -0.8,1 -3.7,1.5 -9.3,1.7 -7.5,0.3 -8.2,0.5 -8.5,2.4 -0.2,1.2 -1.6,3.4 -3.3,4.9 -1.6,1.6 -2.9,3.6 -2.9,4.6 0,0.9 -0.7,2.2 -1.5,2.9 -1.2,1 -1.5,4.1 -1.5,15.6l0,14.4 3,-0c3.8,-0 3.8,1.5 0,4.7 -2.8,2.3 -3.1,3 -2.8,7.7 0.3,4.4 0.6,5.1 2.6,5.4 1.3,0.2 2.5,-0.3 2.8,-1.2 0.3,-0.9 1.2,-1.6 2,-1.6 0.9,-0 1.4,-1.1 1.4,-3 0,-2 0.5,-3 1.5,-3 1,-0 1.5,1 1.5,3 0,2 -0.5,3 -1.5,3 -0.9,-0 -1.5,0.9 -1.5,2.4 0,1.3 -0.7,2.9 -1.5,3.6 -0.8,0.7 -1.5,2 -1.5,3 0,1 -0.7,2.3 -1.5,3 -1.1,0.9 -1.5,3.4 -1.5,9.6 0,6.8 -0.3,8.4 -1.5,8.4 -0.8,-0 -1.5,0.7 -1.5,1.5 0,0.8 0.7,1.5 1.5,1.5 0.8,-0 1.5,-0.7 1.5,-1.5 0,-2 4.4,-2 6,-0 1,1.2 4.2,1.5 16.5,1.5 12.3,-0 15.5,0.3 16.5,1.5 0.8,1 3.1,1.5 6.6,1.5 5.5,-0 6.6,0.8 3.9,3 -2.5,2.1 -1.7,3 2.4,3 3.1,-0 4.4,0.6 6.4,3 3.8,4.4 4.7,3.8 4.7,-3 0,-4.7 0.3,-6 1.5,-6 0.9,-0 1.5,0.9 1.5,2.4 0,1.3 0.7,2.9 1.5,3.6 1.2,1 1.5,3.7 1.5,12.6 0,11.2 0.5,12.9 3,9.9 1.8,-2.2 3,-1.8 3,0.9 0,1.3 0.7,2.9 1.5,3.6 0.8,0.7 1.5,2.7 1.5,4.5 0,1.8 0.7,3.8 1.5,4.5 0.8,0.7 1.5,2.7 1.5,4.5 0,1.8 0.7,3.8 1.5,4.5 0.8,0.7 1.5,2 1.5,3 0,1 0.7,2.3 1.5,3 2.1,1.8 2.1,16.2 0,18 -0.8,0.7 -1.5,2.7 -1.5,4.4 0,3.4 -3.4,7.6 -6.1,7.6 -2.1,-0 -20.9,19.2 -20.9,21.3 0,1 -0.7,2 -1.5,2.3 -1.9,0.8 -1.9,3 0,3.8 1,0.4 1.5,2 1.5,5.3 0.1,4.1 0.6,5.4 3.5,8.5 2,2.1 4,3.8 4.5,3.8 0.6,-0 1,0.7 1,1.5 0,0.8 0.7,1.5 1.5,1.5 0.8,-0 1.5,-0.7 1.5,-1.5 0,-0.8 -0.7,-1.5 -1.5,-1.5 -0.8,-0 -1.5,-0.7 -1.5,-1.5 0,-0.8 0.7,-1.5 1.5,-1.5 0.8,-0 1.5,0.7 1.5,1.5 0,0.8 0.5,1.5 1.1,1.5 1.7,-0 4.8,4.3 4.9,6.7 0,1.4 -0.6,2.3 -1.5,2.3 -0.8,-0 -1.5,0.7 -1.5,1.5 0,0.8 0.7,1.5 1.5,1.5 0.8,-0 1.5,-0.7 1.5,-1.5 0,-0.8 0.4,-1.5 0.9,-1.5 1.6,-0 11.1,10.4 11.1,12.1 0,0.9 0.7,2.2 1.5,2.9 0.8,0.7 1.5,2.3 1.5,3.6 0,1.5 -0.6,2.4 -1.5,2.4 -0.8,-0 -1.5,0.7 -1.5,1.5 0,0.8 0.7,1.5 1.5,1.5 0.8,-0 1.5,-0.7 1.5,-1.5 0,-0.8 0.7,-1.5 1.5,-1.5 1.1,-0 1.5,-1.1 1.5,-3.8 0.1,-3.7 2.7,-8.2 4.9,-8.2 0.6,-0 1.1,1.7 1.1,3.9 0,2.2 0.6,4.4 1.5,5.1 1.1,0.9 1.5,3.3 1.5,8.9 0,6.8 0.3,8 2.3,9.9 1.4,1.3 3.6,2.2 5.4,2.2 1.7,-0 3.6,0.7 4.3,1.5 0.9,1 3.2,1.5 7.7,1.5 4.7,-0 6.5,0.4 6.9,1.5 0.4,0.8 1,1.5 1.5,1.5 1.4,-0 10.4,-10.1 10.9,-12.4 0.3,-1.2 1.5,-2.2 2.7,-2.4 1.2,-0.2 2.7,-1 3.3,-1.8 0.7,-0.8 2,-1.4 3,-1.4 1,-0 2.3,-0.6 3,-1.4 0.6,-0.8 2.1,-1.6 3.3,-1.8 1.3,-0.2 2.3,-1.3 2.7,-2.8 0.7,-2.9 6,-4.3 6,-1.6 0,0.9 0.7,1.6 1.5,1.6 0.8,-0 1.5,-0.7 1.5,-1.5 0,-0.8 -0.7,-1.5 -1.5,-1.5 -0.8,-0 -1.5,-0.7 -1.5,-1.5 0,-1.1 1.1,-1.5 3.9,-1.5 2.2,-0 4.4,-0.6 5.1,-1.5 0.9,-1.1 3.3,-1.5 9,-1.5 5.7,-0 8.1,0.4 9,1.5 0.7,0.8 2,1.5 3,1.5 1,-0 2.3,0.7 3,1.5 0.7,0.8 2,1.5 3,1.5 1,-0 2.3,0.7 3,1.5 0.7,0.8 2,1.5 3,1.5 1,-0 2.3,0.7 3,1.5 0.7,0.8 2.7,1.5 4.4,1.5 2.3,-0 4.1,0.9 6.1,3 1.6,1.6 3.6,3 4.5,3 0.9,-0 2.9,1.3 4.5,2.9 1.5,1.7 3.7,3.1 4.9,3.3 1.9,0.3 2.1,1.1 2.4,7 0.2,4.3 0.8,7.1 1.7,7.8 1.2,1 1.5,4.5 1.5,17.9l0,16.7 3.8,3.7c2.1,2 4.5,3.7 5.4,3.7 0.8,-0 2.1,0.7 2.8,1.5 0.8,0.9 3,1.5 6,1.5 3,-0 5.2,0.6 6,1.5 1,1.2 3.8,1.5 13.5,1.5 9.7,-0 12.5,0.3 13.5,1.5 0.9,1.1 3.5,1.5 10.5,1.5 7,-0 9.6,-0.4 10.5,-1.5 0.9,-1.1 3.3,-1.5 9,-1.5 5.7,-0 8.1,-0.4 9,-1.5 0.7,-0.8 2.7,-1.5 4.4,-1.5 3.5,-0 7.6,-3.4 7.6,-6.2 0,-0.9 0.7,-2.1 1.5,-2.8 2.6,-2.1 1.8,-7.3 -1.5,-10.5 -2.1,-2 -3,-3.8 -3,-6.1 0,-1.7 -0.7,-3.7 -1.5,-4.4 -0.9,-0.8 -1.5,-3 -1.5,-6 0,-3 -0.6,-5.2 -1.5,-6 -1.7,-1.4 -2.1,-6 -0.5,-6 1.8,-0 7.9,7.5 8,9.7 0,1.4 0.6,2.3 1.5,2.3 1.2,-0 1.5,-1.4 1.5,-6.9 0,-4.9 0.4,-7.2 1.5,-8.1 0.8,-0.7 1.5,-2.7 1.5,-4.4 0,-3.4 3.4,-7.6 6.1,-7.6 2,-0 5.6,-3.9 6.1,-6.5 0.2,-1.5 1.2,-2.1 4,-2.3 2,-0.2 4.2,-1 4.8,-1.8 0.7,-0.8 2,-1.4 3,-1.4 1,-0 2.3,-0.6 3,-1.4 0.6,-0.8 2.1,-1.6 3.3,-1.8 1.2,-0.2 2.4,-1.2 2.7,-2.3 0.8,-3 3.3,-6.5 4.7,-6.5 1.8,-0 1.6,4.5 -0.2,6 -1.8,1.5 -2,6 -0.2,6 0.6,-0 2.1,-1.4 3.2,-3 2.1,-3.2 4.5,-4 4.5,-1.5 0,1.9 2.6,1.9 3.4,-0 0.4,-1.1 2,-1.5 5.4,-1.5 3.2,-0 5.4,-0.5 6.2,-1.5 0.7,-0.8 2.7,-1.5 4.5,-1.5 1.8,-0 3.8,0.7 4.5,1.5 0.7,0.8 2,1.5 2.9,1.5 1,-0 3,1.3 4.6,3 1.6,1.6 3.6,3 4.5,3 0.8,-0 4.2,2.7 7.5,6 3.3,3.3 6.6,6 7.5,6 1.7,0.1 9,6.5 9,8 0,0.6 0.7,1 1.5,1 0.8,-0 1.5,0.4 1.5,1 0,1 3.6,5 4.5,5 0.9,-0 4.5,-4 4.5,-5 0,-0.6 1.7,-1 3.9,-1 2.2,-0 4.4,-0.6 5.1,-1.5 0.7,-0.8 2,-1.5 2.9,-1.5 0.9,-0 4.3,-2.7 7.6,-6 3.3,-3.3 6.6,-6 7.5,-6 1.9,-0.1 6,-3.4 6,-4.9 0,-0.6 -1.3,-1.1 -3,-1.1 -2,-0 -3,-0.5 -3,-1.5 0,-1 1,-1.5 3,-1.5 2,-0 3,-0.5 3,-1.5 0,-0.9 -0.9,-1.5 -2.5,-1.5 -1.4,-0 -2.8,0.7 -3.1,1.5 -0.4,1 -2,1.5 -5,1.5 -3.2,-0 -4.4,-0.4 -4.4,-1.5 0,-0.9 0.9,-1.5 2.4,-1.5 1.3,-0 2.9,-0.7 3.6,-1.5 0.7,-0.8 2.8,-1.5 4.7,-1.5 2.1,-0 3.6,-0.6 3.9,-1.5 0.8,-2 3,-1.9 3.8,0.1 0.9,2.3 5,1.4 5.4,-1.2 0.2,-1.1 3,-4.7 6.2,-7.9 3.3,-3.3 6,-6.3 6,-6.7 0,-0.4 -1.9,-0.8 -4.2,-1 -3.8,-0.3 -4.3,-0.6 -4.3,-2.8 0,-2.2 0.5,-2.5 3.8,-2.8 2.6,-0.2 3.9,0.1 4.3,1.2 0.9,2.4 2,2 5.9,-2.2 3.4,-3.7 3.4,-3.8 3.5,-12.8l0,-9.1 -4.5,-4.2c-4.7,-4.3 -5.6,-6.1 -3,-6.1 0.8,-0 1.5,-0.7 1.5,-1.5 0,-0.8 -0.7,-1.5 -1.5,-1.5 -0.8,-0 -1.5,0.7 -1.5,1.5 0,1.9 -2.6,1.9 -3.4,-0 -0.3,-0.8 -1.4,-1.5 -2.4,-1.5 -2.2,-0 -5.9,-3.7 -6.4,-6.5 -0.2,-1.1 -1.2,-2.1 -2.3,-2.3 -2.7,-0.5 -6.5,-4.2 -6.5,-6.3 0,-0.9 -0.7,-2.2 -1.5,-2.9 -2.1,-1.7 -2.1,-13.3 0,-15 0.9,-0.8 1.5,-3 1.5,-6 0,-3 0.6,-5.2 1.5,-6 0.8,-0.7 1.5,-2 1.5,-3 0,-1 0.7,-2.3 1.5,-3 0.9,-0.7 1.5,-2.9 1.5,-5.1 0,-2.8 0.4,-3.9 1.5,-3.9 0.8,-0 1.5,0.7 1.5,1.5 0,0.8 0.7,1.5 1.5,1.5 0.8,-0 1.5,-0.7 1.5,-1.5 0,-0.8 -0.7,-1.5 -1.5,-1.5 -2.4,-0 -1.8,-1.9 1.4,-4.6 1.6,-1.4 3.1,-3.5 3.3,-4.7 0.4,-2.7 5.8,-3.9 5.8,-1.3 0,2.2 1.6,2 4,-0.4 2.4,-2.4 2.6,-4 0.5,-4 -0.8,-0 -1.5,0.7 -1.5,1.5 0,0.8 -0.7,1.5 -1.6,1.5 -2.7,-0 -1.4,-5.3 1.6,-6 1.5,-0.4 2.6,-1.5 3,-3 0.5,-2.3 1.1,-2.5 7.3,-2.8 4.8,-0.2 7,-0.7 7.4,-1.7 0.7,-1.9 2.9,-1.9 3.7,-0 0.3,1 1.9,1.5 4.6,1.5 2.9,-0 4,-0.4 4,-1.5 0,-1.1 -1.2,-1.5 -4.5,-1.5 -3.3,-0 -4.5,-0.4 -4.5,-1.5 0,-1.2 1.3,-1.5 5.5,-1.5 4,-0 5.7,-0.4 6.1,-1.5 0.4,-0.8 1.2,-1.5 1.9,-1.5 0.7,-0 1.5,0.7 1.9,1.5 0.8,2.1 12.8,2.1 14.6,-0 0.7,-0.8 2,-1.5 2.9,-1.5 1,-0 3,-1.3 4.6,-3 1.6,-1.6 3.9,-3 5.2,-3 2.6,-0 3.2,-2.5 0.8,-3.4 -1.2,-0.4 -1.5,-2.7 -1.5,-11.4 0,-8.5 -0.3,-11.2 -1.5,-12.2 -2.3,-1.9 -1.8,-4.3 1.5,-7.5 2.9,-2.8 3,-3.2 3,-12.1 0,-6.9 -0.4,-9.5 -1.5,-10.4 -1.6,-1.3 -2.1,-6 -0.6,-6 0.5,-0 1.4,0.7 2.1,1.5 0.7,0.8 1.6,1.5 2.1,1.5 1.5,-0 1,-7.7 -0.6,-9 -1.1,-0.9 -1.5,-3.3 -1.5,-8.9 0,-6.8 -0.3,-8 -2.3,-9.9 -1.3,-1.2 -3,-2.2 -3.8,-2.2 -0.9,-0 -2.8,-1.4 -4.4,-3l-2.9,-3 -16.7,-0c-13.6,-0 -16.9,-0.3 -17.9,-1.5 -0.8,-1 -3.1,-1.5 -6.6,-1.5 -4.1,-0 -5.4,-0.4 -5.4,-1.5 0,-0.8 -0.7,-1.5 -1.5,-1.5 -0.8,-0 -1.5,-0.7 -1.5,-1.5 0,-0.8 0.7,-1.5 1.5,-1.5 0.8,-0 1.5,0.7 1.5,1.5 0,1.1 1.2,1.5 4.5,1.5 3.3,-0 4.5,-0.4 4.5,-1.5 0,-1.1 -1.2,-1.5 -4.5,-1.5 -3.3,-0 -4.5,-0.4 -4.5,-1.5 0,-0.8 -0.7,-1.5 -1.5,-1.5 -0.8,-0 -1.5,0.7 -1.5,1.5 0,2.3 -4.4,1.8 -6.8,-0.8 -1.6,-1.7 -2.2,-3.6 -2.2,-6.8 0,-3.7 -0.5,-5 -3,-7.4 -1.6,-1.6 -3,-3.6 -3,-4.6 0,-0.9 -0.7,-2.2 -1.5,-2.9 -0.8,-0.7 -1.5,-2 -1.5,-3 0,-1 -0.7,-2.3 -1.5,-3 -0.8,-0.7 -1.5,-2.3 -1.5,-3.6 0,-1.5 0.6,-2.4 1.5,-2.4 0.8,-0 1.5,-0.7 1.5,-1.5 0,-0.8 -0.7,-1.5 -1.5,-1.5 -0.8,-0 -1.5,-0.7 -1.5,-1.5 0,-0.8 -0.7,-1.5 -1.5,-1.5 -0.8,-0 -1.5,0.7 -1.5,1.5 0,0.8 0.7,1.5 1.5,1.5 0.8,-0 1.5,0.7 1.5,1.5 0,0.8 -0.7,1.5 -1.5,1.5 -0.8,-0 -1.5,-0.7 -1.5,-1.5 0,-0.8 -0.7,-1.5 -1.5,-1.5 -0.8,-0 -1.5,-0.7 -1.5,-1.5 0,-0.8 0.7,-1.5 1.5,-1.5 1.2,-0 1.5,-1.7 1.5,-9 0,-7.3 -0.3,-9 -1.5,-9 -0.8,-0 -1.5,0.7 -1.5,1.5 0,0.8 -0.7,1.5 -1.5,1.5 -0.8,-0 -1.5,-0.7 -1.5,-1.5 0,-0.8 0.7,-1.5 1.5,-1.5 0.9,-0 1.5,-0.9 1.5,-2.3 0,-1.3 1.4,-3.6 3,-5.2 1.7,-1.6 3,-3.6 3,-4.6 0,-0.9 0.7,-2.2 1.5,-2.9 1.6,-1.3 2.1,-6 0.6,-6 -0.5,-0 -1.4,0.7 -2.1,1.5 -0.8,1 -3.1,1.5 -6.6,1.5 -4.1,-0 -5.4,-0.4 -5.4,-1.5 0,-0.9 0.9,-1.5 2.4,-1.5 1.3,-0 2.9,-0.7 3.6,-1.5 0.7,-0.8 2.7,-1.5 4.5,-1.5 1.8,-0 3.8,-0.7 4.5,-1.5 0.7,-0.8 2,-1.5 2.9,-1.5 1.6,-0.1 6.1,-3.3 6.1,-4.5 0,-0.3 -1.4,-1.8 -3.1,-3.2 -1.9,-1.7 -2.9,-3.3 -2.7,-4.7 0.4,-2.6 4.5,-3.5 5.4,-1.2 0.8,2 3.4,2.1 3.4,0.1 0,-0.8 0.3,-1.5 0.8,-1.5 1.2,0.1 5.2,3.8 5.2,4.9 0,0.6 0.7,1.1 1.5,1.1 0.8,-0 1.5,-0.7 1.5,-1.5 0,-0.8 -0.7,-1.5 -1.5,-1.5 -0.9,-0 -1.5,-0.9 -1.5,-2.4 0,-1.3 0.7,-2.9 1.5,-3.6 0.9,-0.8 1.5,-3 1.5,-5.9 0,-3.9 -0.5,-5.2 -3,-7.6 -1.6,-1.6 -3,-3.6 -3,-4.6 0,-0.9 -0.6,-2.2 -1.4,-2.9 -0.8,-0.6 -1.6,-2.1 -1.8,-3.3 -0.2,-1.2 -1.2,-2.4 -2.5,-2.7 -2.2,-0.5 -21.3,-18.6 -21.3,-20.1 0,-0.5 0.7,-0.9 1.5,-0.9 0.8,-0 1.5,-0.7 1.5,-1.5 0,-0.8 -0.7,-1.5 -1.5,-1.5 -0.8,-0 -1.5,0.7 -1.5,1.5 0,0.8 -0.7,1.5 -1.5,1.5 -0.9,-0 -1.5,-0.9 -1.5,-2.3 0,-2.6 -12.6,-15.7 -15.2,-15.7 -0.8,-0 -2.1,-0.7 -2.8,-1.5 -0.9,-1.1 -3.3,-1.5 -9,-1.5 -5.7,-0 -8.1,0.4 -9,1.5 -0.7,0.8 -2,1.5 -2.9,1.5 -0.9,-0 -3.7,2 -6.1,4.5 -2.7,2.7 -5.3,4.5 -6.7,4.5 -5.1,-0 0,5.9 5.2,6 3.1,0.1 7.5,3 7.5,4.9 0,1.7 -7.6,1.3 -9,-0.4 -0.7,-0.8 -2.7,-1.5 -4.5,-1.5 -1.8,-0 -3.8,-0.7 -4.5,-1.5 -1,-1.2 -2.8,-1.5 -6.4,-1.3 -4.4,0.3 -5.1,0.6 -5.6,2.8 -0.5,2.2 -1.2,2.5 -5.7,2.8 -2.9,0.2 -5.7,0.9 -6.3,1.7 -0.9,1.1 -3.4,1.5 -8.9,1.5l-7.7,-0 -4.4,-4.5c-4,-4.1 -4.9,-4.5 -9.1,-4.5 -2.9,-0 -5.1,-0.6 -5.9,-1.5 -0.7,-0.8 -2.3,-1.5 -3.6,-1.5 -1.5,-0 -2.4,-0.6 -2.4,-1.5 0,-0.8 0.7,-1.5 1.5,-1.5 0.8,-0 1.5,-0.7 1.5,-1.5 0,-0.8 -0.7,-1.5 -1.5,-1.5 -0.8,-0 -1.5,0.7 -1.5,1.5 0,0.9 -0.9,1.5 -2.5,1.5 -1.4,-0 -2.8,-0.7 -3.1,-1.5 -0.8,-1.9 -2.4,-1.9 -3.8,0.1 -1.1,1.4 -1.7,1.1 -4.9,-2.1 -4,-4 -4.6,-5.5 -2.2,-5.5 0.8,-0 1.5,-0.4 1.5,-1 0,-1.8 -7.5,-7.9 -9.7,-8 -1.4,-0 -2.3,-0.6 -2.3,-1.5 0,-0.8 -0.7,-1.5 -1.5,-1.5 -0.8,-0 -1.5,0.7 -1.5,1.5 0,0.8 0.7,1.5 1.5,1.5 0.8,-0 1.5,0.7 1.5,1.5 0,0.8 -0.7,1.5 -1.5,1.5 -0.8,-0 -1.5,-0.7 -1.5,-1.5 0,-0.8 -0.7,-1.5 -1.6,-1.5 -2.7,-0 -1.3,-5.3 1.6,-6 1.8,-0.4 2.6,-1.3 2.8,-3.3 0.4,-3 1.4,-3.4 3.2,-1.2 0.7,0.8 1.6,1.5 2.1,1.5 0.5,-0 0.9,-6.5 0.9,-14.4 0,-11.5 -0.3,-14.6 -1.5,-15.6 -0.8,-0.7 -1.5,-2 -1.5,-2.9 0,-2.4 -7.2,-9.1 -9.8,-9.1 -1.3,-0 -2.2,-0.6 -2.2,-1.5 0,-0.8 0.7,-1.5 1.5,-1.5 0.8,-0 1.5,-0.7 1.5,-1.5 0,-0.8 -0.7,-1.5 -1.5,-1.5 -0.8,-0 -1.5,0.7 -1.5,1.5 0,1.2 -1.8,1.5 -9.9,1.5 -7.5,-0 -10.1,-0.4 -11.1,-1.5 -0.7,-0.8 -2,-1.5 -3,-1.5 -1,-0 -2.3,0.7 -3,1.5 -0.7,0.8 -2.3,1.5 -3.6,1.5 -1.5,-0 -2.4,-0.6 -2.4,-1.5 0,-1.1 -1.2,-1.5 -4.5,-1.5 -3.3,-0 -4.5,0.4 -4.5,1.5 0,1.1 -1.1,1.5 -3.9,1.5 -2.2,-0 -4.4,-0.6 -5.1,-1.5 -0.7,-0.8 -2.7,-1.5 -4.5,-1.5 -1.8,-0 -3.8,0.7 -4.5,1.5 -0.7,0.8 -2,1.5 -3,1.5 -1,-0 -2.3,-0.7 -3,-1.5 -0.7,-0.8 -2,-1.5 -3,-1.5 -1,-0 -2.3,0.7 -3,1.5zM383,86.5c0,1.1 -1.2,1.5 -4.5,1.5 -3.3,-0 -4.5,-0.4 -4.5,-1.5 0,-1.1 1.2,-1.5 4.5,-1.5 3.3,-0 4.5,0.4 4.5,1.5zM386,236.5c0.7,0.8 2,1.5 3,1.5 1,-0 2.3,0.7 3,1.5 0.7,0.8 2,1.5 3,1.5 1,-0 2.3,0.7 3,1.5 0.9,1 3.2,1.5 7.5,1.5 4.3,-0 6.6,0.5 7.5,1.5 0.7,0.8 2,1.5 3,1.5 1,-0 3,1.3 4.3,3 2.9,3.3 4.2,3.7 5.1,1.5 0.3,-0.8 1.4,-1.5 2.4,-1.5 1.1,-0 2.5,0.7 3.2,1.5 0.7,0.8 2.3,1.5 3.6,1.5 1.5,-0 2.4,0.6 2.4,1.5 0,0.8 -0.7,1.5 -1.5,1.5 -0.8,-0 -1.5,0.7 -1.5,1.5 0,0.8 0.7,1.5 1.5,1.5 0.8,-0 1.5,-0.7 1.5,-1.5 0,-0.9 0.9,-1.5 2.4,-1.5 1.3,-0 2.9,0.7 3.6,1.5 0.7,0.8 2.1,1.5 3.2,1.5 1,-0 2.1,0.7 2.4,1.5 0.4,0.8 1.2,1.5 2,1.5 0.8,-0 1.4,-0.7 1.4,-1.5 0,-2.1 1.6,-1.9 4,0.5 2.4,2.4 2.6,4 0.5,4 -0.8,-0 -1.5,0.7 -1.5,1.5 0,0.8 0.7,1.5 1.5,1.5 0.8,-0 1.5,-0.7 1.5,-1.5 0,-2.1 1.6,-1.9 4,0.5 2.4,2.4 2.5,3.6 0.5,4.4 -0.8,0.3 -1.5,1.7 -1.5,3.1 0,1.6 0.6,2.5 1.5,2.5 1,-0 1.5,-1 1.5,-3 0,-3.9 2.7,-4.1 3.2,-0.3 0.3,2.4 0.8,2.9 4.3,3.3 3,0.4 4.1,1 4.3,2.5 0.5,2.7 7,9.3 9.6,9.7 1.2,0.2 2.2,1.2 2.4,2.4 0.2,1.1 2.3,4 4.7,6.4 2.5,2.5 4.5,5.2 4.5,6.1 0,0.9 0.7,2.2 1.5,2.9 0.8,0.7 1.5,2 1.5,3 0,1 0.7,2.3 1.5,3 0.8,0.7 1.5,2 1.5,3 0,1 0.7,2.3 1.5,3 0.8,0.7 1.5,2.8 1.5,4.7 0,2.1 0.6,3.6 1.5,3.9 0.8,0.4 1.5,1.2 1.5,2 0,0.8 0.7,1.4 1.5,1.4 0.8,-0 1.5,0.7 1.5,1.5 0,0.8 -0.7,1.5 -1.5,1.5 -0.9,-0 -1.5,0.9 -1.5,2.4 0,1.3 0.7,2.9 1.5,3.6 0.8,0.7 1.5,2 1.5,2.9 0,1 1.4,3 3,4.6 1.7,1.6 3,3.6 3,4.6 0,0.9 0.7,2.2 1.5,2.9 0.8,0.7 1.5,2.8 1.5,4.7 0,2.1 0.6,3.6 1.5,3.9 0.8,0.4 1.5,1.2 1.5,1.9 0,0.7 -0.7,1.5 -1.5,1.9 -1,0.3 -1.5,1.9 -1.5,4.7 0,4.5 -2,5.1 -3,0.8 -0.4,-1.7 -1.4,-2.5 -3.3,-2.7 -3,-0.4 -3.9,2.1 -1.2,3.2 0.8,0.3 1.5,1.4 1.5,2.4 0,1.1 0.7,2.5 1.5,3.2 1,0.9 1.5,3.2 1.5,7.5 0,4.3 -0.5,6.6 -1.5,7.5 -1.1,0.9 -1.5,3.3 -1.5,9 0,5.7 -0.4,8.1 -1.5,9 -0.8,0.7 -1.5,2.1 -1.5,3.2 0,1 -0.7,2.1 -1.5,2.4 -0.8,0.4 -1.5,1.2 -1.5,1.9 0,0.7 0.7,1.5 1.5,1.9 0.8,0.3 1.5,1.4 1.5,2.4 0,1.1 -0.7,2.5 -1.5,3.2 -0.8,0.7 -1.5,2.7 -1.5,4.4 0,2.4 -1,4.2 -4.5,7.6 -4.2,4.1 -4.5,4.8 -4.5,9.7 0,4 -0.4,5.3 -1.5,5.3 -0.9,-0 -1.5,0.9 -1.5,2.2 0,3.1 -12.7,15.8 -15.7,15.8 -2.7,-0 -2.9,0.7 -0.7,3.1 1.5,1.7 1.4,2 -1.5,4.5 -2.2,1.9 -3.1,3.4 -3.1,5.7 0,3.5 -6.1,10.7 -9.1,10.7 -0.9,-0 -2.2,0.7 -2.9,1.5 -0.7,0.8 -2,1.5 -3,1.5 -1,-0 -2.3,0.7 -3,1.5 -0.7,0.8 -2,1.5 -3,1.5 -1,-0 -2.3,0.7 -3,1.5 -0.7,0.8 -2,1.5 -3,1.5 -1,-0 -2.3,0.6 -3,1.4 -0.6,0.8 -2.1,1.6 -3.3,1.8 -1.3,0.2 -2.3,1.3 -2.7,2.8 -0.5,2.2 -1.2,2.6 -6,3 -4.8,0.4 -5.5,0.8 -6,3 -0.7,2.9 -6,4.3 -6,1.6 0,-0.9 -0.7,-1.6 -1.5,-1.6 -0.8,-0 -1.5,0.7 -1.5,1.5 0,0.8 0.7,1.5 1.5,1.5 0.8,-0 1.5,0.5 1.5,1.1 0,1.5 -4.2,4.8 -6.1,4.9 -0.9,-0 -2.2,0.7 -2.9,1.5 -0.7,0.8 -2.7,1.5 -4.5,1.5 -1.8,-0 -3.8,0.7 -4.5,1.5 -1.6,1.9 -4.4,1.9 -6,-0 -0.8,-0.9 -3,-1.5 -6,-1.5 -3,-0 -5.2,-0.6 -6,-1.5 -0.7,-0.8 -2,-1.5 -2.9,-1.5 -1,-0 -3,-1.4 -4.6,-3 -3.2,-3.3 -5.6,-3.8 -7.5,-1.5 -0.7,0.8 -2.7,1.5 -4.5,1.5 -1.8,-0 -3.8,0.7 -4.5,1.5 -1.3,1.6 -9,2.1 -9,0.6 0,-0.5 0.7,-1.4 1.5,-2.1 2.5,-2.1 1.7,-3 -2.4,-3 -2.2,-0 -4.4,-0.6 -5.1,-1.5 -0.7,-0.9 -2.9,-1.5 -5.1,-1.5 -2.8,-0 -3.9,-0.4 -3.9,-1.5 0,-0.8 0.7,-1.5 1.5,-1.5 0.8,-0 1.5,-0.7 1.5,-1.5 0,-2.1 -1.6,-1.9 -4,0.5 -2.4,2.4 -2.6,4 -0.5,4 1,-0 1.5,1 1.5,3 0,2 0.5,3 1.5,3 0.8,-0 1.5,0.7 1.5,1.5 0,0.8 -0.7,1.5 -1.5,1.5 -0.8,-0 -1.5,-0.7 -1.5,-1.5 0,-0.8 -0.3,-1.5 -0.7,-1.5 -0.5,-0 -2.5,-1.7 -4.6,-3.6 -3.6,-3.3 -3.7,-3.7 -2.3,-5.3 2.2,-2.4 2,-3.1 -0.8,-3.1 -1.3,-0 -2.9,-0.7 -3.6,-1.5 -0.7,-0.8 -2.7,-1.5 -4.5,-1.5 -1.8,-0 -3.8,-0.7 -4.5,-1.5 -2.1,-2.5 -5.4,-1.5 -5.8,1.7 -0.2,1.6 -0.7,2.8 -1.2,2.8 -0.5,-0 -2.8,-2 -5.1,-4.5 -2.3,-2.5 -4.9,-4.5 -5.7,-4.5 -2.7,-0 -6.2,-4.1 -6.2,-7.4 0,-2.5 -1.4,-4.5 -6.6,-9.9 -3.6,-3.7 -7,-6.7 -7.4,-6.7 -0.4,-0 -1,0.7 -1.4,1.5 -0.3,0.8 -1.4,1.5 -2.4,1.5 -1.1,-0 -2.5,-0.7 -3.2,-1.5 -0.7,-0.8 -2.3,-1.5 -3.6,-1.5 -1.5,-0 -2.4,-0.6 -2.4,-1.5 0,-0.8 -0.7,-1.5 -1.5,-1.5 -1,-0 -1.5,-1 -1.5,-3 0,-3.3 -1.1,-3.8 -3,-1.5 -1.8,2.2 -3,1.8 -3,-0.9 0,-1.3 -0.7,-2.9 -1.5,-3.6 -0.8,-0.7 -1.5,-2.7 -1.5,-4.5 0,-1.8 -0.7,-3.8 -1.5,-4.5 -0.8,-0.7 -1.5,-2 -1.5,-2.9 0,-1 -1.3,-3 -3,-4.6 -3.2,-3 -4.1,-7.5 -1.5,-7.5 0.8,-0 1.5,-0.7 1.5,-1.5 0,-0.8 -0.7,-1.5 -1.5,-1.5 -0.8,-0 -1.5,0.7 -1.5,1.5 0,0.8 -0.7,1.5 -1.5,1.5 -1.2,-0 -1.5,-1.9 -1.5,-11.4 0,-8.9 -0.3,-11.6 -1.5,-12.6 -1.1,-0.9 -1.5,-3.3 -1.5,-9 0,-5.7 -0.4,-8.1 -1.5,-9 -2.1,-1.7 -2,-10.3 0,-12 1.2,-1 1.5,-2.8 1.3,-6.4 -0.3,-4.7 -0.5,-5.1 -3,-5.4 -3,-0.4 -3.8,-2.6 -1.3,-3.6 1.1,-0.4 1.5,-2 1.5,-5.4 0,-3.2 0.5,-5.4 1.5,-6.2 0.8,-0.7 1.5,-2.7 1.5,-4.5 0,-1.8 0.7,-3.8 1.5,-4.5 0.8,-0.7 1.5,-1.9 1.5,-2.8 0,-2.4 -4.1,-6.2 -6.7,-6.2 -2.6,-0 -3.2,-2.5 -0.8,-3.4 0.8,-0.3 1.5,-1.4 1.5,-2.4 0,-1.1 0.7,-2.5 1.5,-3.2 0.8,-0.7 1.5,-2 1.5,-3 0,-1 0.7,-2.3 1.5,-3 0.8,-0.6 1.5,-3.4 1.7,-6.3 0.3,-4.5 0.6,-5.2 2.8,-5.7 1.4,-0.3 2.6,-1.4 2.8,-2.5 0.6,-3.4 4.3,-6.5 7.6,-6.5 3.4,-0 7.6,-3.4 7.6,-6.2 0,-1 0.7,-2.1 1.5,-2.4 0.8,-0.4 1.5,-1.2 1.5,-2 0,-0.8 0.7,-1.4 1.5,-1.4 0.8,-0 1.5,-0.7 1.5,-1.5 0,-0.8 -0.7,-1.5 -1.5,-1.5 -0.8,-0 -1.5,0.7 -1.5,1.5 0,0.8 -0.7,1.5 -1.5,1.5 -0.8,-0 -1.5,-0.7 -1.5,-1.5 0,-0.8 0.7,-1.5 1.5,-1.5 0.8,-0 1.5,-0.6 1.5,-1.4 0,-0.8 0.7,-1.6 1.5,-2 1,-0.4 1.5,-2 1.5,-5.3 0,-4.1 0.5,-5.2 3.7,-8.5 2,-2.1 4.4,-3.8 5.3,-3.8 0.9,-0 3.6,-2 6,-4.5 2.4,-2.5 5.2,-4.5 6.1,-4.5 0.9,-0 2.2,-0.7 2.9,-1.5 0.7,-0.8 2,-1.5 3,-1.5 1,-0 2.3,-0.7 3,-1.5 0.7,-0.8 2,-1.5 3,-1.5 1,-0 2.3,-0.7 3,-1.5 0.7,-0.8 2,-1.5 3,-1.5 1,-0 2.3,-0.7 3,-1.5 0.7,-0.8 2,-1.5 3,-1.5 1,-0 2.3,-0.7 3,-1.5 0.7,-0.8 2,-1.5 3,-1.5 1,-0 2.3,-0.7 3,-1.5 0.7,-0.8 2,-1.5 3,-1.5 1,-0 2.3,-0.7 3,-1.5 0.7,-0.8 2,-1.5 3,-1.5 1,-0 2.3,-0.7 3,-1.5 1,-1.2 2.8,-1.5 6.4,-1.3 4.7,0.3 5.1,0.5 5.4,3 0.4,3 2.6,3.8 3.6,1.3 0.4,-1.1 2.2,-1.5 6.9,-1.5 4.5,-0 6.8,-0.5 7.7,-1.5 0.8,-0.9 3,-1.5 6,-1.5 3,-0 5.2,-0.6 6,-1.5 0.7,-0.8 2.7,-1.5 4.5,-1.5 1.8,-0 3.8,0.7 4.5,1.5zM419,239.5c0,1.1 -1.2,1.5 -4.5,1.5 -3.3,-0 -4.5,-0.4 -4.5,-1.5 0,-1.1 1.2,-1.5 4.5,-1.5 3.3,-0 4.5,0.4 4.5,1.5zM425,242.5c0,0.8 -0.7,1.5 -1.5,1.5 -0.8,-0 -1.5,-0.7 -1.5,-1.5 0,-0.8 0.7,-1.5 1.5,-1.5 0.8,-0 1.5,0.7 1.5,1.5zM224,332.5c0,0.8 -0.7,1.5 -1.5,1.5 -0.8,-0 -1.5,-0.7 -1.5,-1.5 0,-0.8 0.7,-1.5 1.5,-1.5 0.8,-0 1.5,0.7 1.5,1.5zM518,335.5c0,0.8 -0.7,1.5 -1.5,1.5 -0.8,-0 -1.5,-0.7 -1.5,-1.5 0,-0.8 0.7,-1.5 1.5,-1.5 0.8,-0 1.5,0.7 1.5,1.5zM506,452c0,0.5 -0.9,1.9 -2,3 -2.4,2.4 -4,2.6 -4,0.5 0,-0.8 0.7,-1.5 1.5,-1.5 0.8,-0 1.5,-0.7 1.5,-1.5 0,-0.8 0.7,-1.5 1.5,-1.5 0.8,-0 1.5,0.4 1.5,1zM305,512.5c0,1 -1,1.5 -3,1.5 -2,-0 -3,-0.5 -3,-1.5 0,-1 1,-1.5 3,-1.5 2,-0 3,0.5 3,1.5zM310.5,523c0,1.8 -0.6,2.6 -2.3,2.8 -2.4,0.4 -3.8,-1.8 -2.8,-4.4 0.3,-0.9 1.5,-1.4 2.8,-1.2 1.7,0.2 2.3,1 2.3,2.8zM344,536.5c0,0.8 -0.7,1.5 -1.5,1.5 -0.8,-0 -1.5,-0.7 -1.5,-1.5 0,-0.8 0.7,-1.5 1.5,-1.5 0.8,-0 1.5,0.7 1.5,1.5zM386,539.5c0,0.8 -0.7,1.5 -1.5,1.5 -0.8,-0 -1.5,-0.7 -1.5,-1.5 0,-0.8 0.7,-1.5 1.5,-1.5 0.8,-0 1.5,0.7 1.5,1.5z" stroke="#000000"/><path fill="#000000" d="M341,242.5c0,0.8 0.7,1.5 1.5,1.5 0.8,-0 1.5,-0.7 1.5,-1.5 0,-0.8 -0.7,-1.5 -1.5,-1.5 -0.8,-0 -1.5,0.7 -1.5,1.5z" stroke="#000000"/><path fill="#000000" d="M497,323.5c0,0.8 0.7,1.5 1.5,1.5 0.8,-0 1.5,-0.7 1.5,-1.5 0,-0.8 -0.7,-1.5 -1.5,-1.5 -0.8,-0 -1.5,0.7 -1.5,1.5z" stroke="#000000"/><path fill="#000000" d="M506,332.5c0,0.8 0.7,1.5 1.5,1.5 0.8,-0 1.5,-0.7 1.5,-1.5 0,-0.8 -0.7,-1.5 -1.5,-1.5 -0.8,-0 -1.5,0.7 -1.5,1.5z" stroke="#000000"/><path fill="#000000" d="M242.2,411.7c0.4,3.9 2.8,4.2 2.8,0.4 0,-2.1 -0.5,-3.1 -1.6,-3.1 -1.1,-0 -1.4,0.8 -1.2,2.7z" stroke="#000000"/><path fill="#000000" d="M506,410.5c0,0.8 0.7,1.5 1.5,1.5 0.8,-0 1.5,-0.7 1.5,-1.5 0,-0.8 -0.7,-1.5 -1.5,-1.5 -0.8,-0 -1.5,0.7 -1.5,1.5z" stroke="#000000"/><path fill="#000000" d="M266,473.5c0,0.8 0.7,1.5 1.5,1.5 0.8,-0 1.5,-0.7 1.5,-1.5 0,-0.8 -0.7,-1.5 -1.5,-1.5 -0.8,-0 -1.5,0.7 -1.5,1.5z" stroke="#000000"/><path fill="#000000" d="M464,485.5c0,0.8 0.7,1.5 1.5,1.5 0.8,-0 1.5,-0.7 1.5,-1.5 0,-0.8 -0.7,-1.5 -1.5,-1.5 -0.8,-0 -1.5,0.7 -1.5,1.5z" stroke="#000000"/><path fill="#000000" d="M464,491.5c0,0.8 0.7,1.5 1.5,1.5 0.8,-0 1.5,-0.7 1.5,-1.5 0,-0.8 -0.7,-1.5 -1.5,-1.5 -0.8,-0 -1.5,0.7 -1.5,1.5z" stroke="#000000"/><path fill="#000000" d="M395,521.5c0,0.8 0.7,1.5 1.5,1.5 0.8,-0 1.5,-0.7 1.5,-1.5 0,-0.8 -0.7,-1.5 -1.5,-1.5 -0.8,-0 -1.5,0.7 -1.5,1.5z" stroke="#000000"/><path fill="#000000" d="M410,521.5c0,0.8 0.7,1.5 1.5,1.5 0.8,-0 1.5,-0.7 1.5,-1.5 0,-0.8 -0.7,-1.5 -1.5,-1.5 -0.8,-0 -1.5,0.7 -1.5,1.5z" stroke="#000000"/><path fill="#000000" d="M203,137.5c0,0.8 0.7,1.5 1.5,1.5 0.8,-0 1.5,-0.7 1.5,-1.5 0,-0.8 -0.7,-1.5 -1.5,-1.5 -0.8,-0 -1.5,0.7 -1.5,1.5z" stroke="#000000"/><path fill="#000000" d="M434,137.5c0,0.8 0.7,1.5 1.5,1.5 0.8,-0 1.5,-0.7 1.5,-1.5 0,-0.8 -0.7,-1.5 -1.5,-1.5 -0.8,-0 -1.5,0.7 -1.5,1.5z" stroke="#000000"/><path fill="#000000" d="M530,140.5c0,0.8 0.7,1.5 1.5,1.5 0.8,-0 1.5,-0.7 1.5,-1.5 0,-0.8 -0.7,-1.5 -1.5,-1.5 -0.8,-0 -1.5,0.7 -1.5,1.5z" stroke="#000000"/><path fill="#000000" d="M516.8,153.1c-3.5,3.7 -1.4,5.5 2.2,1.9 1.1,-1.1 2,-2.5 2,-3 0,-1.6 -2.3,-1 -4.2,1.1z" stroke="#000000"/><path fill="#000000" d="M284,161.5c0,0.8 0.7,1.5 1.5,1.5 0.8,-0 1.5,-0.7 1.5,-1.5 0,-0.8 -0.7,-1.5 -1.5,-1.5 -0.8,-0 -1.5,0.7 -1.5,1.5z" stroke="#000000"/><path fill="#000000" d="M263,167.5c0,0.8 0.7,1.5 1.5,1.5 0.8,-0 1.5,-0.7 1.5,-1.5 0,-0.8 -0.7,-1.5 -1.5,-1.5 -0.8,-0 -1.5,0.7 -1.5,1.5z" stroke="#000000"/><path fill="#000000" d="M143,193.1c0,3.8 2.4,3.5 2.8,-0.4 0.2,-1.9 -0.1,-2.7 -1.2,-2.7 -1.1,-0 -1.6,1 -1.6,3.1z" stroke="#000000"/><path fill="#000000" d="M141.5,202c-1.1,1.6 -2.6,3 -3.2,3 -0.7,-0 -1.3,0.7 -1.3,1.5 0,0.8 0.6,1.5 1.4,1.5 0.8,-0 1.6,-0.7 2,-1.5 0.4,-1.1 2.1,-1.5 6.1,-1.5 4.2,-0 5.5,-0.3 5.5,-1.5 0,-0.9 -0.9,-1.5 -2.5,-1.5 -1.4,-0 -2.8,-0.7 -3.1,-1.5 -0.9,-2.3 -2.7,-1.8 -4.9,1.5z" stroke="#000000"/><path fill="#000000" d="M134,212.5c0,0.8 0.7,1.5 1.5,1.5 0.8,-0 1.5,-0.7 1.5,-1.5 0,-0.8 -0.7,-1.5 -1.5,-1.5 -0.8,-0 -1.5,0.7 -1.5,1.5z" stroke="#000000"/><path fill="#000000" d="M614,215.5c0,0.8 0.7,1.5 1.5,1.5 0.8,-0 1.5,-0.7 1.5,-1.5 0,-0.8 -0.7,-1.5 -1.5,-1.5 -0.8,-0 -1.5,0.7 -1.5,1.5z" stroke="#000000"/><path fill="#000000" d="M140,221c0,1.3 3.7,5 5,5 1.6,-0 1.2,-1.8 -1,-4 -2.2,-2.2 -4,-2.6 -4,-1z" stroke="#000000"/><path fill="#000000" d="M164,260.5c0,0.8 0.7,1.5 1.5,1.5 0.8,-0 1.5,-0.7 1.5,-1.5 0,-0.8 -0.7,-1.5 -1.5,-1.5 -0.8,-0 -1.5,0.7 -1.5,1.5z" stroke="#000000"/><path fill="#000000" d="M155,296.5c0,0.8 0.7,1.5 1.5,1.5 0.8,-0 1.5,-0.7 1.5,-1.5 0,-0.8 -0.7,-1.5 -1.5,-1.5 -0.8,-0 -1.5,0.7 -1.5,1.5z" stroke="#000000"/><path fill="#000000" d="M143,308.5c0,0.8 0.7,1.5 1.5,1.5 0.8,-0 1.5,-0.7 1.5,-1.5 0,-0.8 -0.7,-1.5 -1.5,-1.5 -0.8,-0 -1.5,0.7 -1.5,1.5z" stroke="#000000"/><path fill="#000000" d="M602.2,309.7c0.4,3.9 2.8,4.2 2.8,0.4 0,-2.1 -0.5,-3.1 -1.6,-3.1 -1.1,-0 -1.4,0.8 -1.2,2.7z" stroke="#000000"/><path fill="#000000" d="M134,317.5c0,1 1,1.5 3,1.5 2,-0 3,-0.5 3,-1.5 0,-1 -1,-1.5 -3,-1.5 -2,-0 -3,0.5 -3,1.5z" stroke="#000000"/><path fill="#000000" d="M77,344.5c0,0.8 0.7,1.5 1.5,1.5 0.8,-0 1.5,-0.7 1.5,-1.5 0,-0.8 -0.7,-1.5 -1.5,-1.5 -0.8,-0 -1.5,0.7 -1.5,1.5z" stroke="#000000"/><path fill="#000000" d="M86,431.5c0,0.8 0.7,1.5 1.5,1.5 0.8,-0 1.5,-0.7 1.5,-1.5 0,-0.8 -0.7,-1.5 -1.5,-1.5 -0.8,-0 -1.5,0.7 -1.5,1.5z" stroke="#000000"/><path fill="#000000" d="M650,437.5c0,0.8 0.7,1.5 1.5,1.5 0.8,-0 1.5,-0.7 1.5,-1.5 0,-0.8 -0.7,-1.5 -1.5,-1.5 -0.8,-0 -1.5,0.7 -1.5,1.5z" stroke="#000000"/><path fill="#000000" d="M581,497.5c0,0.8 0.7,1.5 1.5,1.5 0.8,-0 1.5,-0.7 1.5,-1.5 0,-0.8 -0.7,-1.5 -1.5,-1.5 -0.8,-0 -1.5,0.7 -1.5,1.5z" stroke="#000000"/><path fill="#000000" d="M161,505c0,2 0.5,3 1.5,3 1,-0 1.5,-1 1.5,-3 0,-2 -0.5,-3 -1.5,-3 -1,-0 -1.5,1 -1.5,3z" stroke="#000000"/><path fill="#000000" d="M605,566.5c0,0.8 0.7,1.5 1.5,1.5 0.8,-0 1.5,-0.7 1.5,-1.5 0,-0.8 -0.7,-1.5 -1.5,-1.5 -0.8,-0 -1.5,0.7 -1.5,1.5z" stroke="#000000"/><path fill="#000000" d="M263,587c0,0.5 0.9,1.9 2,3 2.2,2.2 4,2.6 4,1 0,-0.6 -0.9,-1.9 -2,-3 -2.2,-2.2 -4,-2.6 -4,-1z" stroke="#000000"/><path fill="#000000" d="M500,590.5c0,0.8 0.7,1.5 1.5,1.5 0.8,-0 1.5,-0.7 1.5,-1.5 0,-0.8 -0.7,-1.5 -1.5,-1.5 -0.8,-0 -1.5,0.7 -1.5,1.5z" stroke="#000000"/><path fill="#000000" d="M284,599.5c0,0.8 0.7,1.5 1.5,1.5 0.8,-0 1.5,-0.7 1.5,-1.5 0,-0.8 -0.7,-1.5 -1.5,-1.5 -0.8,-0 -1.5,0.7 -1.5,1.5z" stroke="#000000"/><path fill="#000000" d="M446.7,598.7c-1.5,1.4 -0.6,2.3 2.3,2.3 2,-0 3,-0.5 3,-1.5 0,-1.5 -4,-2.1 -5.3,-0.8z" stroke="#000000"/><path fill="#000000" d="M293,602.5c0,0.8 0.7,1.5 1.5,1.5 0.8,-0 1.5,-0.7 1.5,-1.5 0,-0.8 -0.7,-1.5 -1.5,-1.5 -0.8,-0 -1.5,0.7 -1.5,1.5z" stroke="#000000"/><path fill="#000000" d="M440,608.5c0,0.8 0.7,1.5 1.5,1.5 0.8,-0 1.5,-0.7 1.5,-1.5 0,-0.8 -0.7,-1.5 -1.5,-1.5 -0.8,-0 -1.5,0.7 -1.5,1.5z" stroke="#000000"/><path fill="#000000" d="M314,611.5c0,0.8 0.7,1.5 1.5,1.5 0.8,-0 1.5,-0.7 1.5,-1.5 0,-0.8 -0.7,-1.5 -1.5,-1.5 -0.8,-0 -1.5,0.7 -1.5,1.5z" stroke="#000000"/><path fill="#000000" d="M533,614.5c0,0.8 0.7,1.5 1.5,1.5 0.8,-0 1.5,0.7 1.5,1.5 0,0.8 0.7,1.5 1.5,1.5 0.8,-0 1.5,-0.7 1.5,-1.5 0,-0.8 -0.7,-1.5 -1.5,-1.5 -0.8,-0 -1.5,-0.7 -1.5,-1.5 0,-0.8 -0.7,-1.5 -1.5,-1.5 -0.8,-0 -1.5,0.7 -1.5,1.5z" stroke="#000000"/><path fill="#000000" d="M204.8,618.1c-3.5,3.7 -1.4,5.5 2.2,1.9 1.1,-1.1 2,-2.5 2,-3 0,-1.6 -2.3,-1 -4.2,1.1z" stroke="#000000"/><path fill="#000000" d="M548,617.5c0,0.8 0.7,1.5 1.5,1.5 0.8,-0 1.5,-0.7 1.5,-1.5 0,-0.8 -0.7,-1.5 -1.5,-1.5 -0.8,-0 -1.5,0.7 -1.5,1.5z" stroke="#000000"/><path fill="#000000" d="M317,641.5c0,3.3 0.4,4.5 1.5,4.5 1.1,-0 1.5,-1.2 1.5,-4.5 0,-3.3 -0.4,-4.5 -1.5,-4.5 -1.1,-0 -1.5,1.2 -1.5,4.5z" stroke="#000000"/><path fill="#000000" d="M317,659.5c0,0.8 0.7,1.5 1.5,1.5 0.8,-0 1.5,-0.7 1.5,-1.5 0,-0.8 -0.7,-1.5 -1.5,-1.5 -0.8,-0 -1.5,0.7 -1.5,1.5z" stroke="#000000"/><path fill="#000000" d="M344,674.5c0,1 1,1.5 3,1.5 2,-0 3,-0.5 3,-1.5 0,-1 -1,-1.5 -3,-1.5 -2,-0 -3,0.5 -3,1.5z" stroke="#000000"/><path fill="#000000" d="M416,674.5c0,0.8 0.7,1.5 1.5,1.5 0.8,-0 1.5,-0.7 1.5,-1.5 0,-0.8 -0.7,-1.5 -1.5,-1.5 -0.8,-0 -1.5,0.7 -1.5,1.5z" stroke="#000000"/></g></svg>