<svg id="vector" xmlns="http://www.w3.org/2000/svg" width="200" height="200" viewBox="0 0 750 750"><g id="g_0"><path fill="#000000" d="M359,52.3c-0.3,0.3 -5.4,0.7 -11.5,1.1 -29.7,1.7 -66.4,7.9 -94.5,15.7 -48,13.5 -97.3,43.4 -133.5,81 -19.3,20.1 -30.1,35.2 -42.8,60.2 -19.6,38.1 -30.3,72.9 -35.4,114.2 -2.1,17.8 -2.4,71.8 -0.5,90.5 2.3,21.7 6.7,49 9.3,57.5 0.5,1.6 2,7 3.5,12 8.5,29.3 24.7,59 48,88 7.6,9.4 51.9,53.8 61.4,61.6 26.7,21.7 51.4,34.6 92.4,48.3 28.2,9.5 45.4,13.6 81.1,19.5 24.7,4.1 41.3,5.5 57.4,4.7 35.7,-1.9 68.6,-8.5 94.1,-19.1 6.9,-2.9 23.8,-11.2 25.5,-12.5 0.6,-0.4 10.7,-6.1 22.5,-12.5 41.6,-22.7 52.2,-29.9 70.1,-48.2 11,-11.1 31.3,-35.1 41,-48.3 31,-42.2 52.2,-93.7 55.6,-135.2 0.5,-5.1 0.7,-17.9 0.6,-28.3 -0.1,-16.7 -0.6,-26.7 -2.9,-58.5 -0.9,-11.9 -5.1,-42.6 -7.3,-53 -8.9,-41.7 -27.1,-84.1 -50.2,-116.5 -23.3,-32.7 -48.7,-56.1 -81.3,-74.9 -49.1,-28.4 -86.7,-41.1 -133.1,-45.2 -4.4,-0.3 -9.1,-0.8 -10.5,-1 -3.6,-0.6 -58.5,-1.5 -59,-1.1zM398,80.5c0.9,1.1 3.5,1.5 10.5,1.5 7,-0 9.6,0.4 10.5,1.5 0.9,1.1 3.3,1.5 9,1.5 5.7,-0 8.1,0.4 9,1.5 0.8,0.9 3,1.5 6,1.5 3,-0 5.2,0.6 6,1.5 0.8,0.9 3,1.5 6,1.5 3,-0 5.2,0.6 6,1.5 0.8,0.9 3,1.5 6,1.5 3,-0 5.2,0.6 6,1.5 0.7,0.8 2.7,1.5 4.4,1.5 2.3,-0 4.1,0.9 6.1,3 1.6,1.6 3.6,3 4.6,3 0.9,-0 2.2,0.7 2.9,1.5 0.7,0.8 2,1.5 3,1.5 1,-0 2.3,0.7 3,1.5 0.7,0.8 2.7,1.5 4.5,1.5 1.8,-0 3.8,0.7 4.5,1.5 0.7,0.8 2,1.5 3,1.5 1,-0 2.3,0.7 3,1.5 0.7,0.8 2,1.5 3,1.5 1,-0 2.3,0.7 3,1.5 0.7,0.8 2,1.5 2.8,1.5 2.5,-0 9.2,7.1 9.2,9.7 0,2.6 1.2,3 3,0.8 1.9,-2.3 3,-1.8 3,1.5 0,2 0.5,3 1.5,3 0.8,-0 1.5,-0.7 1.5,-1.5 0,-0.8 0.7,-1.5 1.5,-1.5 0.8,-0 1.5,0.7 1.5,1.5 0,0.8 -0.7,1.5 -1.5,1.5 -2,-0 -2.1,7.3 -0.1,9 0.8,0.6 1.6,2.1 1.8,3.3 0.2,1.8 1.1,2.3 4.1,2.5 2.2,0.2 4.1,1 4.4,1.8 1.1,3 3.2,1.4 3.5,-2.9 0.4,-6 3,-6.1 8.8,-0.2 2.4,2.5 5.1,4.5 5.9,4.5 2.1,-0 30.1,28 30.1,30 0,0.9 1.4,2.9 3,4.5 1.7,1.6 3,3.6 3,4.6 0,0.9 0.7,2.2 1.5,2.9 0.8,0.7 1.5,2 1.5,2.9 0,1 1.4,3 3,4.6 1.7,1.6 3,3.6 3,4.6 0,0.9 0.7,2.2 1.5,2.9 0.8,0.7 1.5,2 1.5,2.9 0,0.9 2.7,4.3 6,7.6 4.8,4.8 6,6.6 6,9.1 0,1.7 0.7,3.7 1.5,4.4 0.8,0.7 1.5,2 1.5,3 0,1 0.7,2.3 1.5,3 0.8,0.7 1.5,2 1.5,3 0,1 0.7,2.3 1.5,3 0.8,0.7 1.5,2 1.5,3 0,1 0.7,2.3 1.5,3 0.8,0.7 1.5,2.7 1.5,4.4 0,2.3 0.9,4.1 3,6.1 2.1,2 3,3.8 3,6.1 0,1.7 0.7,3.7 1.5,4.4 0.8,0.7 1.5,2.7 1.5,4.5 0,1.8 0.7,3.8 1.5,4.5 0.8,0.7 1.5,2 1.5,3 0,1 0.7,2.3 1.5,3 0.9,0.8 1.5,3 1.5,6 0,3 0.6,5.2 1.5,6 1,0.9 1.5,3.2 1.5,7.5 0,4.3 0.5,6.6 1.5,7.5 1.1,0.9 1.5,3.3 1.5,9 0,5.6 0.4,8.1 1.5,9 1.1,0.9 1.5,4.4 1.7,15.3l0.3,14.1 2.5,0.6c2.1,0.5 2.5,1.2 2.8,4.8 0.4,5 -0.7,5.3 -4.1,1.2 -1.4,-1.7 -3,-3 -3.6,-3 -0.7,-0 -1.1,4.6 -1.1,13.5 0,11.3 0.2,13.5 1.5,13.5 1.1,-0 1.5,-1.3 1.5,-5.4 0,-3.5 0.5,-5.8 1.5,-6.6 0.8,-0.7 1.5,-2.3 1.5,-3.6 0,-1.5 0.6,-2.4 1.5,-2.4 1.3,-0 1.5,2.9 1.5,20.4 0,16.9 -0.3,20.6 -1.5,21.6 -0.8,0.7 -1.5,2.7 -1.5,4.5 0,1.8 -0.7,3.8 -1.5,4.5 -1.1,0.9 -1.5,3.3 -1.5,9 0,5.7 -0.4,8.1 -1.5,9 -0.9,0.8 -1.5,3 -1.5,6 0,3 -0.6,5.2 -1.5,6 -0.8,0.7 -1.5,2.7 -1.5,4.5 0,1.8 -0.7,3.8 -1.5,4.5 -0.8,0.7 -1.5,2.7 -1.5,4.5 0,1.8 -0.7,3.8 -1.5,4.5 -0.8,0.7 -1.5,2 -1.5,3 0,1 -0.7,2.3 -1.5,3 -0.8,0.7 -1.5,2 -1.5,3 0,1 -0.7,2.3 -1.5,3 -0.8,0.7 -1.5,2 -1.5,3 0,1 -0.7,2.3 -1.5,3 -0.8,0.7 -1.5,2 -1.5,3 0,1 -0.7,2.3 -1.5,3 -0.8,0.7 -1.5,2 -1.5,3 0,1 -0.7,2.3 -1.5,3 -0.8,0.7 -1.5,2 -1.5,3 0,1 -0.7,2.3 -1.5,3 -0.8,0.7 -1.5,2 -1.5,3 0,1 -0.7,2.3 -1.5,3 -0.8,0.7 -1.5,2 -1.5,3 0,1 -0.7,2.3 -1.5,3 -0.8,0.7 -1.5,2 -1.5,3 0,1 -0.7,2.3 -1.5,3 -0.8,0.7 -1.5,2 -1.5,3 0,1 -0.7,2.3 -1.5,3 -0.8,0.7 -1.5,2 -1.5,2.9 0,0.9 -2,3.7 -4.5,6.1 -2.5,2.4 -4.5,5.1 -4.5,5.9 0,0.8 -1.7,3.2 -3.7,5.3 -3,3.1 -4.4,3.8 -7.5,3.8 -2.7,-0 -3.8,0.4 -3.8,1.5 0,0.8 0.7,1.5 1.5,1.5 0.8,-0 1.5,0.7 1.5,1.5 0,0.8 -0.7,1.5 -1.5,1.5 -0.8,-0 -1.5,-0.7 -1.5,-1.5 0,-1.1 -1.2,-1.5 -4.5,-1.5 -3.3,-0 -4.5,0.4 -4.5,1.5 0,1 -1,1.5 -3,1.5 -2,-0 -3,0.5 -3,1.5 0,1 1,1.5 3,1.5 2.1,-0 3,-0.5 3,-1.6 0,-1.1 0.8,-1.4 2.7,-1.2 3.9,0.4 4.2,2.8 0.4,2.8 -2.1,-0 -3.1,0.5 -3.1,1.5 0,1 -1,1.5 -3,1.5 -2,-0 -3,-0.5 -3,-1.5 0,-0.9 -0.9,-1.5 -2.4,-1.5 -1.3,-0 -2.9,0.7 -3.6,1.5 -0.7,0.8 -2.3,1.5 -3.6,1.5 -1.5,-0 -2.4,0.6 -2.4,1.5 0,1.2 1.3,1.5 6,1.5 4.5,-0 6,0.4 6,1.4 0,0.8 -0.7,1.6 -1.5,2 -2,0.7 -2.1,8.6 -0.1,8.6 0.8,-0 1.6,-0.7 2,-1.5 0.6,-1.6 5.6,-2.1 5.6,-0.6 0,1.5 -13.4,14.1 -15,14.1 -0.9,-0 -4.9,3.4 -9,7.5 -4.1,4.1 -8.2,7.5 -9.1,7.5 -0.9,-0 -2.2,0.6 -2.9,1.4 -0.6,0.8 -2.1,1.6 -3.3,1.8 -1.2,0.2 -2.3,1.2 -2.5,2.3 -0.2,1.1 -2,3.7 -4,5.7 -2.7,2.8 -4.4,3.8 -6.8,3.8 -1.7,-0 -3.7,0.7 -4.4,1.5 -0.7,0.8 -2,1.5 -3,1.5 -1,-0 -2.3,0.7 -3,1.5 -2.1,2.5 -5.4,1.5 -5.8,-1.8 -0.4,-2.9 -2.6,-3.7 -3.6,-1.2 -0.7,1.9 -4.5,1.9 -5.2,-0 -0.9,-2.4 -3.4,-1.8 -3.4,0.8 0,1.6 -2.4,4.7 -7.5,9.6 -7.6,7.4 -8.7,9.1 -6,9.1 0.8,-0 1.5,0.7 1.5,1.5 0,0.8 -0.7,1.5 -1.5,1.5 -0.8,-0 -1.5,-0.7 -1.5,-1.5 0,-2.4 -1.9,-1.8 -4.7,1.5 -1.8,2.2 -3.3,3 -5.8,3 -1.8,-0 -3.8,0.7 -4.5,1.5 -0.9,1 -3.2,1.5 -7.5,1.5 -4.3,-0 -6.6,0.5 -7.5,1.5 -0.7,0.8 -2.7,1.5 -4.5,1.5 -1.8,-0 -3.8,0.7 -4.5,1.5 -0.7,0.8 -2,1.5 -3,1.5 -1,-0 -2.3,0.7 -3,1.5 -0.7,0.8 -2,1.5 -3,1.5 -1,-0 -2.3,0.7 -3,1.5 -0.9,1 -3.2,1.5 -7.5,1.5 -4.3,-0 -6.6,0.5 -7.5,1.5 -1,1.2 -4.3,1.5 -18,1.5 -13.7,-0 -17,0.3 -18,1.5 -1.8,2.2 -19.2,2.2 -21,-0 -1,-1.2 -4.3,-1.5 -18,-1.5 -13.7,-0 -17,-0.3 -18,-1.5 -0.9,-1.1 -3.5,-1.5 -10.5,-1.5 -7,-0 -9.6,-0.4 -10.5,-1.5 -0.8,-0.9 -3,-1.5 -6,-1.5 -3,-0 -5.2,-0.6 -6,-1.5 -0.8,-0.9 -3,-1.5 -6,-1.5 -3,-0 -5.2,-0.6 -6,-1.5 -0.7,-0.8 -2.7,-1.5 -4.5,-1.5 -1.8,-0 -3.8,-0.7 -4.5,-1.5 -0.7,-0.8 -2.7,-1.5 -4.5,-1.5 -1.8,-0 -3.8,-0.7 -4.5,-1.5 -0.7,-0.8 -2,-1.5 -2.9,-1.5 -1,-0 -3,-1.4 -4.6,-3 -1.6,-1.7 -3.6,-3 -4.6,-3 -0.9,-0 -2.2,-0.7 -2.9,-1.5 -0.7,-0.8 -2.7,-1.5 -4.5,-1.5 -1.8,-0 -3.8,-0.6 -4.5,-1.4 -0.6,-0.8 -2.1,-1.6 -3.3,-1.8 -1.3,-0.2 -2.3,-1.3 -2.7,-2.8 -0.4,-1.5 -1.5,-2.6 -3,-3 -1.5,-0.4 -2.6,-1.5 -3,-3 -0.4,-1.5 -1.4,-2.6 -2.7,-2.8 -1.2,-0.2 -2.7,-1 -3.3,-1.8 -0.7,-0.8 -2,-1.4 -3,-1.4 -1,-0 -2.3,-0.7 -3,-1.5 -0.7,-0.8 -2.7,-1.5 -4.5,-1.5 -1.8,-0 -3.8,-0.7 -4.5,-1.5 -0.7,-0.8 -2,-1.5 -2.9,-1.5 -1,-0 -3,-1.4 -4.6,-3 -1.6,-1.7 -3.6,-3 -4.5,-3 -0.9,-0 -2.9,-1.4 -4.5,-3 -1.6,-1.7 -3.6,-3 -4.5,-3 -0.8,-0 -5.6,-4 -10.5,-9 -4.9,-5 -9.7,-9 -10.5,-9 -0.8,-0 -5.6,-4 -10.5,-9 -4.9,-4.9 -9.6,-9 -10.5,-9 -2,-0 -18,-16 -18,-18.1 0,-0.9 -0.7,-2.2 -1.5,-2.9 -0.8,-0.7 -1.5,-2 -1.5,-3 0,-1 -0.7,-2.3 -1.5,-3 -0.8,-0.7 -1.5,-2 -1.5,-3 0,-1 -0.7,-2.3 -1.5,-3 -0.8,-0.7 -1.5,-2 -1.5,-3 0,-1 -0.7,-2.3 -1.5,-3 -0.8,-0.7 -1.5,-2.3 -1.5,-3.6 0,-1.5 -0.6,-2.4 -1.5,-2.4 -0.8,-0 -1.5,-0.7 -1.5,-1.5 0,-1.8 3,-2 3,-0.3 0,0.7 1.2,2.2 2.7,3.2 2.3,1.7 2.6,1.8 3.5,0.2 1.1,-2 4.7,-2.1 5.4,-0.1 0.4,0.8 1.2,1.5 2,1.5 2.1,-0 1.7,-4.1 -0.8,-6.7 -2.4,-2.6 -6.8,-3.1 -6.8,-0.8 0,0.8 -0.7,1.5 -1.5,1.5 -0.8,-0 -1.5,-0.7 -1.5,-1.5 0,-0.8 0.7,-1.5 1.5,-1.5 0.8,-0 1.5,-0.7 1.5,-1.5 0,-1.1 -1.2,-1.5 -4.5,-1.5 -3.3,-0 -4.5,-0.4 -4.5,-1.5 0,-0.8 -0.7,-1.5 -1.5,-1.5 -0.8,-0 -1.5,-0.7 -1.5,-1.5 0,-0.8 0.7,-1.5 1.5,-1.5 2.7,-0 1.6,-4.4 -2,-8.2 -4.3,-4.6 -5.5,-4.8 -5.5,-0.8 0,2 -0.5,3 -1.5,3 -0.9,-0 -1.5,-0.9 -1.5,-2.4 0,-1.3 -0.7,-2.9 -1.5,-3.6 -0.8,-0.7 -1.5,-2 -1.5,-3 0,-1 -0.7,-2.3 -1.5,-3 -0.8,-0.7 -1.5,-2.7 -1.5,-4.5 0,-1.8 -0.7,-3.8 -1.5,-4.5 -0.9,-0.8 -1.5,-3 -1.5,-6 0,-3 -0.6,-5.2 -1.5,-6 -0.8,-0.7 -1.5,-2 -1.5,-3 0,-1 -0.7,-2.3 -1.5,-3 -0.8,-0.7 -1.5,-2.7 -1.5,-4.5 0,-1.8 -0.7,-3.8 -1.5,-4.5 -0.8,-0.7 -1.5,-2 -1.5,-3 0,-1 -0.7,-2.3 -1.5,-3 -0.8,-0.7 -1.5,-2.7 -1.5,-4.5 0,-1.8 -0.7,-3.8 -1.5,-4.5 -1.1,-0.9 -1.5,-3.5 -1.5,-10.5 0,-7 -0.4,-9.6 -1.5,-10.5 -1,-0.9 -1.5,-3.2 -1.5,-7.5 0,-4.3 -0.5,-6.6 -1.5,-7.5 -2.2,-1.9 -2.2,-52.1 0,-54 1.1,-0.9 1.5,-3.3 1.5,-9 0,-5.7 0.4,-8.1 1.5,-9 1.1,-0.9 1.5,-3.5 1.5,-10.5 0,-7 0.4,-9.6 1.5,-10.5 1,-0.9 1.5,-3.2 1.5,-7.5 0,-4.3 0.5,-6.6 1.5,-7.5 0.8,-0.7 1.5,-2.7 1.5,-4.5 0,-1.8 0.7,-3.8 1.5,-4.5 0.9,-0.8 1.5,-3 1.5,-6 0,-3 0.6,-5.2 1.5,-6 0.8,-0.7 1.5,-2.7 1.5,-4.5 0,-1.8 0.7,-3.8 1.5,-4.5 0.8,-0.7 1.5,-2.7 1.5,-4.5 0,-1.8 0.7,-3.8 1.5,-4.5 0.8,-0.7 1.5,-2 1.5,-3 0,-1 0.7,-2.3 1.5,-3 0.8,-0.7 1.5,-2 1.5,-3 0,-1 0.7,-2.3 1.5,-3 0.8,-0.7 1.5,-2 1.5,-3 0,-1 0.7,-2.3 1.5,-3 0.8,-0.7 1.5,-2 1.5,-3 0,-1 0.7,-2.3 1.5,-3 0.8,-0.7 1.5,-2 1.5,-3 0,-1 0.7,-2.3 1.5,-3 0.8,-0.7 1.5,-2 1.5,-2.9 0,-0.9 2,-3.7 4.5,-6.1 2.5,-2.4 4.5,-5.1 4.5,-6 0,-0.9 2,-3.6 4.5,-6 2.5,-2.4 4.5,-5.1 4.5,-6 0,-0.9 2.7,-4.2 6,-7.5 3.2,-3.2 6,-6.8 6.2,-7.9 0.2,-1.2 1.3,-2.3 2.8,-2.6 1.5,-0.4 2.6,-1.5 3,-3 0.5,-2 1.3,-2.6 4,-2.8 3,-0.3 5.5,-2.3 17.1,-13.9 15.7,-15.6 17.2,-16.2 17.7,-7 0.2,4.2 0.7,5.7 1.7,5.7 0.9,-0 1.5,-1 1.5,-2.4 0,-1.3 0.7,-2.9 1.5,-3.6 1.1,-0.9 1.5,-3.3 1.5,-8.8 0,-6.4 0.3,-7.9 2.2,-9.9 1.2,-1.3 2.9,-2.3 3.8,-2.3 2.1,-0 5.7,-3.8 6.2,-6.5 0.2,-1.1 1.2,-2.1 2.4,-2.3 1.2,-0.2 3.4,-1.6 4.9,-3.3 1.6,-1.6 3.6,-2.9 4.6,-2.9 0.9,-0 2.2,-0.7 2.9,-1.5 0.7,-0.8 2,-1.5 3,-1.5 1,-0 2.3,-0.7 3,-1.5 0.7,-0.8 2,-1.5 3,-1.5 1,-0 2.3,-0.7 3,-1.5 0.7,-0.8 2,-1.5 3,-1.5 1,-0 2.3,-0.7 3,-1.5 0.7,-0.8 2.7,-1.5 4.5,-1.5 1.8,-0 3.8,-0.7 4.5,-1.5 0.7,-0.8 2.7,-1.5 4.5,-1.5 1.8,-0 3.8,-0.7 4.5,-1.5 0.7,-0.8 2,-1.5 3,-1.5 1,-0 2.3,-0.7 3,-1.5 0.7,-0.8 2,-1.5 3,-1.5 1,-0 2.3,-0.7 3,-1.5 0.7,-0.8 2,-1.5 3,-1.5 1,-0 2.3,-0.7 3,-1.5 0.7,-0.8 2,-1.5 3,-1.5 1,-0 2.3,-0.7 3,-1.5 0.9,-1.1 3.3,-1.5 9,-1.5 5.7,-0 8.1,-0.4 9,-1.5 0.7,-0.8 2.7,-1.5 4.5,-1.5 1.8,-0 3.8,-0.7 4.5,-1.5 0.9,-1.1 3.3,-1.5 9,-1.5 5.7,-0 8.1,-0.4 9,-1.5 0.9,-1 3.2,-1.5 7.5,-1.5 4.3,-0 6.6,-0.5 7.5,-1.5 1,-1.3 5.3,-1.5 27,-1.5 21.7,-0 26,0.2 27,1.5zM185,146c0,1.2 -6.8,8 -8,8 -1.8,-0 -1,-1.9 2.3,-5.4 3.1,-3.3 5.7,-4.5 5.7,-2.6zM590,575.5c0,0.8 -0.7,1.5 -1.5,1.5 -0.8,-0 -1.5,-0.7 -1.5,-1.5 0,-0.8 0.7,-1.5 1.5,-1.5 0.8,-0 1.5,0.7 1.5,1.5z" stroke="#000000"/><path fill="#000000" d="M293,122.5c0,1 1,1.5 3,1.5 3.2,-0 4.2,2.3 1.4,3.4 -0.9,0.3 -1.4,1.5 -1.2,2.8 0.3,2 1,2.3 6.1,2.6 4.2,0.2 5.7,0.7 5.7,1.7 0,1.1 -1.3,1.5 -5.4,1.5 -3.5,-0 -5.8,0.5 -6.6,1.5 -0.9,1 -3.2,1.5 -7.5,1.5 -4.3,-0 -6.6,0.5 -7.5,1.5 -0.7,0.8 -2,1.5 -3,1.5 -1,-0 -2.3,0.7 -3,1.5 -0.7,0.8 -2,1.5 -3,1.5 -1,-0 -2.3,0.7 -3,1.5 -0.7,0.8 -2,1.5 -3,1.5 -1,-0 -2.3,0.7 -3,1.5 -0.7,0.8 -2,1.5 -3,1.5 -1,-0 -2.3,0.7 -3,1.5 -0.7,0.8 -2,1.5 -3,1.5 -1,-0 -2.3,0.7 -3,1.5 -0.7,0.8 -2,1.5 -3,1.5 -1,-0 -2.3,0.7 -3,1.5 -0.7,0.8 -2,1.5 -2.9,1.5 -0.9,-0 -5,3.4 -9.1,7.5 -4.1,4.1 -8.2,7.5 -9,7.5 -0.9,-0 -2.9,1.3 -4.5,3 -1.6,1.6 -3.6,3 -4.5,3 -0.9,-0 -3.6,2 -6,4.5 -2.4,2.5 -5.1,4.5 -6,4.5 -0.9,-0 -2.9,1.3 -4.5,3 -1.6,1.6 -3.6,3 -4.5,3 -0.9,-0 -3.6,2 -6,4.5 -2.4,2.5 -5.1,4.5 -6,4.5 -2,-0 -6,4.1 -6,6.1 0,0.9 -1.3,2.8 -3,4.4 -1.6,1.6 -3,3.6 -3,4.5 0,0.9 -1.3,2.9 -3,4.5 -1.7,1.6 -3,3.6 -3,4.6 0,0.9 -0.7,2.2 -1.5,2.9 -0.8,0.7 -1.5,2 -1.5,2.9 0,0.9 -2,3.7 -4.5,6.1 -2.5,2.4 -4.5,5.1 -4.5,6 0,0.9 -1.3,2.9 -3,4.5 -1.6,1.6 -3,3.6 -3,4.6 0,0.9 -0.7,2.2 -1.5,2.9 -0.8,0.7 -1.5,2 -1.5,3 0,1 -0.7,2.3 -1.5,3 -1,0.9 -1.5,3.2 -1.5,7.4 0,5.6 -0.3,6.5 -3,9.1 -1.6,1.6 -3,3.6 -3,4.6 0,0.9 -2,3.5 -4.5,5.8 -4.7,4.3 -5.6,6.1 -3,6.1 2.4,-0 1.8,1.9 -1.5,4.7 -3.6,3 -4,7.5 -0.9,11.2 1.8,2.2 2.1,2.3 3.7,0.7 1,-0.9 2.2,-1.6 2.5,-1.6 1.4,-0 0.7,7.8 -0.8,9 -0.8,0.7 -1.5,2.7 -1.5,4.4 -0.1,3.1 -2.9,7.6 -4.9,7.6 -0.6,-0 -1.1,-1.7 -1.1,-3.9 0,-2.2 -0.6,-4.4 -1.5,-5.1 -0.8,-0.7 -1.5,-2 -1.5,-3 0,-1 -0.7,-2.3 -1.5,-3 -0.8,-0.7 -1.5,-2 -1.5,-2.9 -0.1,-1.7 -3.3,-6.1 -4.5,-6.1 -1.2,-0 -4.4,4.4 -4.5,6.1 0,0.9 0.7,2.2 1.5,2.9 0.8,0.7 1.5,2 1.5,3 0,1 0.7,2.3 1.5,3 0.8,0.7 1.5,2 1.5,3 0,1 0.6,2.3 1.4,3 0.8,0.6 1.6,2.8 1.8,4.8 0.2,2.9 0.8,3.7 2.8,4.2 2.9,0.7 3.8,4.1 1.5,6 -2.2,1.9 -2.3,58.1 0,60 1.1,0.9 1.5,3.3 1.5,9 0,5.7 0.4,8.1 1.5,9 0.9,0.8 1.5,3 1.5,6 0,3.1 0.5,5.2 1.6,6 1,0.9 1.4,2.6 1.2,4.9 -0.3,3.1 -0.7,3.6 -3.1,3.9 -1.9,0.2 -2.7,-0.1 -2.7,-1.2 0,-0.9 -0.7,-1.6 -1.5,-1.6 -0.8,-0 -1.5,0.7 -1.5,1.5 0,0.8 0.5,1.5 1.1,1.5 0.6,-0 2.2,1.4 3.6,3 1.3,1.7 3.2,3 4.2,3 2.1,-0 9.1,7 9.1,9.2 0,0.8 0.7,2.1 1.5,2.8 0.8,0.7 1.5,2 1.5,3 0,1 0.7,2.3 1.5,3 1.1,0.9 1.5,3.3 1.5,8.9 0,7.3 0.2,7.9 3,10.6 1.6,1.6 3,3.6 3,4.5 0,0.8 2.7,4.2 6,7.5 3.3,3.3 6,6.7 6,7.5 0,0.9 1.4,2.9 3,4.5 1.6,1.6 3,3.6 3,4.5 0,0.9 2,3.6 4.5,6 2.5,2.4 4.5,5.1 4.5,6 0,0.9 2,3.6 4.5,6 2.5,2.4 4.5,5.1 4.5,6 0,2 13.1,15 15.1,15 0.8,-0 2.8,1.3 4.4,3 1.6,1.6 3.6,3 4.5,3 0.8,-0 4.2,2.7 7.5,6 3.3,3.3 6.6,6 7.5,6 0.9,-0 3.6,2 6,4.5 2.7,2.7 5.3,4.5 6.7,4.5 1.4,-0 2.3,0.6 2.3,1.5 0,1 1,1.5 3,1.5 2,-0 3,0.5 3,1.5 0,1 -1,1.5 -3,1.5 -2,-0 -3,-0.5 -3,-1.5 0,-2.1 -4,-1.8 -6.7,0.4 -3.3,2.8 -2.8,4.1 1.5,4.1 4.1,-0 7.7,2.8 8.4,6.5 0.3,1.8 1.2,2 10,2.3 6.9,0.2 9.9,0.7 10.8,1.7 0.7,0.8 2.7,1.5 4.5,1.5 1.8,-0 3.8,0.6 4.5,1.4 0.6,0.8 2.1,1.6 3.3,1.8 1.3,0.2 2.3,1.2 2.5,2.3 0.6,3.1 10.3,12.5 12.9,12.5 1.4,-0 2.3,-0.6 2.3,-1.5 0,-0.8 -0.7,-1.5 -1.5,-1.5 -0.8,-0 -1.5,-0.7 -1.5,-1.5 0,-0.8 0.7,-1.5 1.5,-1.5 0.8,-0 1.5,0.7 1.5,1.5 0,0.8 0.7,1.5 1.5,1.5 0.8,-0 1.5,0.7 1.5,1.5 0,0.8 0.7,1.5 1.5,1.5 0.8,-0 1.5,-0.7 1.5,-1.5 0,-0.8 0.6,-1.5 1.4,-1.5 0.8,-0 1.7,-0.7 2,-1.6 0.4,-1.1 1.6,-1.4 4.3,-1.2 3,0.2 3.8,0.8 4.3,2.8l0.6,2.5 14.1,0.3c10.9,0.2 14.4,0.6 15.3,1.7 1,1.3 5.9,1.5 30,1.5 24.3,-0 28.9,0.2 30,1.5 0.9,1 3.2,1.5 7.5,1.5 4.3,-0 6.6,-0.5 7.5,-1.5 0.9,-1 3.2,-1.5 7.5,-1.5 4.3,-0 6.6,-0.5 7.5,-1.5 0.7,-0.8 2.7,-1.5 4.5,-1.5 1.8,-0 3.8,-0.7 4.5,-1.5 0.7,-0.8 2.7,-1.5 4.5,-1.5 1.8,-0 3.8,-0.7 4.5,-1.5 0.7,-0.8 2,-1.5 3,-1.5 1,-0 2.3,-0.7 3,-1.5 0.8,-0.9 3,-1.5 5.9,-1.5 4.2,-0 5.1,-0.4 9.1,-4.5 3.4,-3.5 5.2,-4.5 7.6,-4.5 1.7,-0 3.7,-0.7 4.4,-1.5 0.7,-0.8 2,-1.5 2.9,-1.5 1,-0 3,-1.4 4.6,-3 1.6,-1.7 3.6,-3 4.5,-3 0.9,-0 3.6,-2 6,-4.5 2.4,-2.5 5.1,-4.5 6,-4.5 0.9,-0 2.9,-1.4 4.5,-3 1.6,-1.6 3.6,-3 4.5,-3 0.9,-0 3.6,-2 6,-4.5 2.4,-2.5 5.1,-4.5 6,-4.5 0.9,-0 2.9,-1.4 4.5,-3 1.6,-1.7 3.6,-3 4.5,-3 0.8,-0 4.2,-2.7 7.5,-6 3.3,-3.3 6.6,-6 7.5,-6 2,-0 14.7,-12.9 15.2,-15.5 0.2,-1.1 1.4,-2.2 2.8,-2.5 1.4,-0.3 2.6,-1.4 2.8,-2.5 0.2,-1.1 1,-2.7 1.7,-3.5 0.7,-0.8 1.5,-2.4 1.7,-3.5 0.2,-1.1 1.4,-2.2 2.8,-2.5 1.5,-0.4 2.6,-1.4 2.8,-2.7 0.2,-1.2 1,-2.7 1.8,-3.3 0.8,-0.7 1.4,-2.7 1.4,-4.4 0,-2.4 1,-4.2 4.5,-7.6 2.5,-2.4 4.5,-5.2 4.5,-6.1 0,-0.9 0.7,-2.2 1.5,-2.9 0.8,-0.7 1.5,-2 1.5,-3 0,-1 0.7,-2.3 1.5,-3 0.8,-0.7 1.5,-2.7 1.5,-4.5 0,-1.8 0.7,-3.8 1.5,-4.5 0.8,-0.7 1.5,-2 1.5,-3 0,-1 0.7,-2.3 1.5,-3 0.8,-0.7 1.5,-2 1.5,-3 0,-1 0.7,-2.3 1.5,-3 0.8,-0.7 1.5,-2 1.5,-3 0,-1 0.7,-2.3 1.5,-3 0.8,-0.7 1.5,-2.7 1.5,-4.4 0,-2.4 1,-4.1 3.8,-6.8 2,-2 4.6,-3.8 5.7,-4 1.1,-0.2 2.2,-1.4 2.5,-2.8 0.3,-1.3 1.5,-2.7 2.5,-3 5.2,-1.4 8.2,-5.2 5,-6.4 -0.8,-0.3 -1.5,-1.3 -1.5,-2.2 0,-1 -0.8,-2.6 -1.7,-3.7 -1.7,-1.8 -1.7,-1.9 0,-2.8 1.1,-0.7 1.7,-2.2 1.7,-4.4 0,-2.2 0.6,-3.7 1.7,-4.4 1.7,-0.9 1.7,-1 0,-2.8 -2.3,-2.6 -2.2,-3.1 1.1,-3.5 2.4,-0.3 2.7,-0.7 3,-4.6 0.3,-4.4 1.2,-5.2 3.2,-2.7 1.8,2.2 3,1.8 3,-0.8 0,-1.3 -1.3,-3.6 -2.9,-5.2 -1.7,-1.5 -3.1,-3.7 -3.3,-4.9 -0.2,-1.2 -1.2,-2.2 -2.3,-2.4 -1.1,-0.2 -3,-1.3 -4.2,-2.5 -2.2,-2 -2.3,-2.8 -2.3,-17.3 0,-12.2 -0.3,-15.4 -1.5,-16.4 -1.1,-0.9 -1.5,-3.5 -1.5,-10.5 0,-7 -0.4,-9.6 -1.5,-10.5 -1,-0.9 -1.5,-3.2 -1.5,-7.5 0,-4.3 -0.5,-6.6 -1.5,-7.5 -0.8,-0.7 -1.5,-2 -1.5,-3 0,-1 -0.7,-2.3 -1.5,-3 -0.9,-0.8 -1.5,-3 -1.5,-6 0,-3 -0.6,-5.2 -1.5,-6 -0.9,-0.8 -1.5,-3 -1.5,-6 0,-3 -0.6,-5.2 -1.5,-6 -0.8,-0.7 -1.5,-2 -1.5,-3 0,-1 -0.7,-2.3 -1.5,-3 -0.8,-0.7 -1.5,-2 -1.5,-3 0,-1 -0.7,-2.3 -1.5,-3 -0.8,-0.7 -1.5,-2.7 -1.5,-4.5 0,-1.8 -0.7,-3.8 -1.5,-4.5 -0.8,-0.7 -1.5,-2 -1.5,-3 0,-1 -0.7,-2.3 -1.5,-3 -0.8,-0.7 -1.5,-2 -1.5,-2.9 0,-1 -1.3,-3 -3,-4.6 -1.6,-1.6 -3,-3.6 -3,-4.5 0,-0.9 -1.3,-2.9 -3,-4.5 -1.6,-1.6 -3,-3.6 -3,-4.6 0,-0.9 -0.7,-2.2 -1.5,-2.9 -0.8,-0.7 -1.5,-2.7 -1.5,-4.5 0,-1.8 -0.7,-3.8 -1.5,-4.5 -0.8,-0.7 -1.5,-2.7 -1.5,-4.4 0,-2.3 -0.9,-4.1 -3,-6.1 -1.6,-1.6 -3,-3.6 -3,-4.5 0,-0.8 -2.7,-4.2 -6,-7.5 -3.2,-3.2 -6,-6.8 -6.2,-7.9 -0.2,-1.2 -1.3,-2.3 -2.8,-2.6 -1.5,-0.4 -2.6,-1.5 -3,-3 -0.4,-1.5 -1.4,-2.6 -2.7,-2.8 -1.2,-0.2 -2.7,-1 -3.3,-1.8 -0.7,-0.8 -2,-1.4 -2.9,-1.4 -0.9,-0 -5.7,-4.1 -10.6,-9 -4.9,-5 -9.7,-9 -10.5,-9 -0.9,-0 -2.9,-1.4 -4.5,-3 -1.6,-1.7 -3.6,-3 -4.6,-3 -0.9,-0 -2.2,-0.7 -2.9,-1.5 -0.7,-0.8 -2,-1.5 -2.9,-1.5 -1,-0 -3,-1.4 -4.6,-3 -2,-2.1 -3.8,-3 -6.1,-3 -1.7,-0 -3.7,-0.7 -4.4,-1.5 -0.7,-0.8 -2,-1.5 -3,-1.5 -1,-0 -2.3,-0.7 -3,-1.5 -0.8,-1 -3.1,-1.5 -6.6,-1.5 -4.1,-0 -5.4,-0.4 -5.4,-1.5 0,-1.1 1.2,-1.5 4.5,-1.5 3.3,-0 4.5,-0.4 4.5,-1.5 0,-1.1 -1.1,-1.5 -3.9,-1.5 -2.1,-0 -4.4,-0.6 -5.1,-1.4 -0.6,-0.8 -2.8,-1.6 -4.8,-1.8 -3.2,-0.3 -3.7,-0.6 -3.7,-2.8 0,-2.2 0.5,-2.5 4.3,-2.8 2.8,-0.2 4.2,-0.8 4.2,-1.8 0,-2.1 -19.8,-2.1 -20.6,0.1 -0.4,0.8 -1.2,1.5 -1.9,1.5 -0.7,-0 -1.5,-0.7 -1.9,-1.5 -0.3,-0.9 -1.8,-1.5 -3.9,-1.5 -1.9,-0 -4,-0.7 -4.7,-1.5 -0.7,-0.8 -2,-1.5 -3,-1.5 -1,-0 -2.3,0.7 -3,1.5 -0.9,1 -3.2,1.5 -7.7,1.5 -4.7,-0 -6.5,-0.4 -6.9,-1.5 -0.4,-0.8 -1.2,-1.5 -1.9,-1.5 -0.7,-0 -1.5,0.7 -1.9,1.5 -0.3,0.8 -1.4,1.5 -2.4,1.5 -1.1,-0 -2.5,-0.7 -3.2,-1.5 -0.8,-0.9 -3,-1.5 -6,-1.5 -3,-0 -5.2,-0.6 -6,-1.5 -1,-1.2 -4.2,-1.5 -16.5,-1.5 -12.3,-0 -15.5,-0.3 -16.5,-1.5 -1,-1.2 -3.7,-1.5 -12,-1.5 -8.3,-0 -11,0.3 -12,1.5 -1,1.2 -4,1.5 -15,1.5 -11,-0 -14,-0.3 -15,-1.5 -1,-1.1 -3.6,-1.5 -11.1,-1.5 -8.1,-0 -9.9,0.3 -9.9,1.5zM464,134.5c0,0.8 -0.7,1.5 -1.5,1.5 -0.8,-0 -1.5,-0.7 -1.5,-1.5 0,-0.8 0.7,-1.5 1.5,-1.5 0.8,-0 1.5,0.7 1.5,1.5zM353.4,188.5c0.4,1.2 3.2,1.5 15.9,1.5 12.5,-0 15.7,0.3 16.7,1.5 0.7,0.8 2,1.5 2.9,1.5 2.1,-0 5.8,3.8 6.3,6.5 0.3,1.7 1.2,2 7,2.3 4.3,0.2 7.1,0.8 7.8,1.7 0.7,0.8 2,1.5 3,1.5 1,-0 2.3,0.7 3,1.5 0.7,0.8 1.9,1.5 2.8,1.5 2.1,-0 6.2,4 6.2,6 0,0.9 1.4,2.9 3,4.5 1.7,1.6 3,3.6 3,4.6 0,0.9 0.7,2.2 1.5,2.9 1.1,0.9 1.5,3.5 1.5,10.3l0,9.1 -6.7,6.8c-3.7,3.8 -7.5,6.8 -8.4,6.8 -0.9,-0 -2.2,0.7 -2.9,1.5 -0.7,0.8 -2,1.5 -2.9,1.5 -1,-0 -3,1.3 -4.6,3 -2,2.1 -3.8,3 -6.1,3 -1.7,-0 -3.7,0.7 -4.4,1.5 -0.7,0.8 -2,1.5 -3,1.5 -1,-0 -2.3,0.7 -3,1.5 -0.7,0.8 -2.7,1.5 -4.5,1.5 -1.8,-0 -3.8,0.7 -4.5,1.5 -0.8,0.9 -3,1.5 -6,1.5 -3,-0 -5.2,0.6 -6,1.5 -0.7,0.8 -2.7,1.5 -4.5,1.5 -1.8,-0 -3.8,-0.7 -4.5,-1.5 -0.7,-0.8 -2.7,-1.5 -4.5,-1.5 -1.8,-0 -3.8,-0.7 -4.5,-1.5 -0.7,-0.8 -2,-1.5 -2.9,-1.5 -0.8,-0 -5.3,-3.7 -9.8,-8.2l-8.3,-8.3 0,-16.6c0,-13.6 0.3,-16.9 1.5,-17.9 0.8,-0.7 1.5,-2.7 1.5,-4.5 0,-1.8 0.7,-3.8 1.5,-4.5 0.8,-0.7 1.5,-2 1.5,-3 0,-1 0.7,-2.3 1.5,-3 0.8,-0.7 1.5,-2 1.5,-3 0,-1 0.7,-2.3 1.5,-3 0.8,-0.7 1.5,-2 1.5,-3 0,-1 0.7,-2.3 1.5,-3 0.8,-0.7 1.5,-1.9 1.5,-2.7 0,-1.9 3.2,-6.2 4.6,-6.3 0.7,-0 1.4,0.7 1.8,1.5zM134,308.5c0,0.8 -0.7,1.5 -1.5,1.5 -0.8,-0 -1.5,-0.7 -1.5,-1.5 0,-0.8 0.7,-1.5 1.5,-1.5 0.8,-0 1.5,0.7 1.5,1.5zM344.4,317.5c0.3,0.9 1.8,1.5 3.9,1.5 1.9,-0 4,0.7 4.7,1.5 0.9,1 3.2,1.5 7.5,1.5 4.3,-0 6.6,0.5 7.5,1.5 0.9,1 3.2,1.5 7.5,1.5 4.3,-0 6.6,0.5 7.5,1.5 0.8,0.9 3,1.5 6,1.5 3,-0 5.2,0.6 6,1.5 0.7,0.8 2.7,1.5 4.5,1.5 1.8,-0 3.8,0.7 4.5,1.5 0.7,0.8 2,1.5 2.9,1.5 1,-0 3,1.3 4.6,3 1.6,1.6 3.5,3 4.4,3 2.1,-0 6.1,4 6.1,6.1 0,0.9 0.7,2.2 1.5,2.9 0.8,0.7 1.5,2 1.5,3 0,1 0.7,2.3 1.5,3 0.9,0.8 1.5,3 1.5,6 0,3 -0.6,5.2 -1.5,6 -0.8,0.7 -1.5,2 -1.5,3 0,1 -0.7,2.3 -1.5,3 -0.8,0.7 -1.5,2 -1.5,3 0,1 -0.7,2.3 -1.5,3 -0.8,0.7 -1.5,2 -1.5,3 0,1 -0.7,2.3 -1.5,3 -0.8,0.7 -1.5,2 -1.5,3 0,1 -0.7,2.3 -1.5,3 -0.8,0.7 -1.5,2 -1.5,3 0,1 -0.7,2.3 -1.5,3 -0.9,0.8 -1.5,3 -1.5,6 0,3 -0.6,5.2 -1.5,6 -1.3,1.1 -1.5,6.4 -1.5,36.6 0,30.8 -0.2,35.4 -1.5,35.4 -0.9,-0 -1.5,0.9 -1.5,2.5 0,1.4 0.7,2.8 1.5,3.1 2.7,1.1 1.7,3.4 -1.5,3.4 -3.3,-0 -3.9,1.6 -1.3,3.5 1.5,1.1 1.4,1.4 -0.7,3.5 -2.1,2.1 -2.4,2.2 -3.5,0.7 -1.8,-2.4 -3.5,-2.1 -3.5,0.7 0,1.3 -0.7,2.9 -1.5,3.6 -1.7,1.4 -2.2,15 -0.5,15 0.5,-0 2.5,-1.7 4.5,-3.8 2.6,-2.8 3.5,-4.6 3.5,-7.5 0,-2.6 0.4,-3.7 1.5,-3.7 1.3,-0 1.5,2.4 1.5,15.9 0,12.9 -0.3,16.1 -1.5,17.1 -2.1,1.7 -2,10.3 0,12 0.9,0.7 1.5,2.3 1.3,3.4 -0.3,1.9 -1.1,2.1 -7,2.4 -4.3,0.2 -7.1,0.8 -7.8,1.7 -0.7,0.8 -2.1,1.5 -3.2,1.5 -1,-0 -2.1,0.7 -2.4,1.5 -0.4,0.8 -1.2,1.5 -1.9,1.5 -0.7,-0 -1.5,-0.7 -1.9,-1.5 -0.3,-0.8 -1.4,-1.5 -2.4,-1.5 -1.1,-0 -2.5,-0.7 -3.2,-1.5 -1.7,-2.1 -13.3,-2.1 -15,-0 -0.7,0.8 -2.1,1.5 -3.2,1.5 -1,-0 -2.1,0.7 -2.4,1.5 -0.8,1.9 -3,1.9 -3.8,-0 -0.3,-0.8 -1.4,-1.5 -2.4,-1.5 -1.1,-0 -2.5,-0.7 -3.2,-1.5 -0.9,-1 -3.2,-1.5 -7.4,-1.5 -5.6,-0 -6.5,-0.3 -9.1,-2.9 -1.5,-1.7 -3.7,-3.1 -4.9,-3.3 -1.3,-0.2 -2.2,-1.2 -2.4,-2.5 -0.2,-1.2 -1,-2.7 -1.8,-3.3 -2.1,-1.9 -2.1,-40.2 0.1,-42 1.2,-1 1.5,-4.2 1.5,-16.5 0,-12.3 0.3,-15.5 1.5,-16.5 1.2,-1 1.5,-4 1.5,-15 0,-11 0.3,-14 1.5,-15 1.2,-1 1.5,-4 1.5,-15 0,-11 0.3,-14 1.5,-15 1.2,-1 1.5,-4 1.5,-15 0,-11 0.3,-14 1.5,-15 1.2,-1 1.5,-4.2 1.5,-16.5 0,-12.3 0.3,-15.5 1.5,-16.5 1,-0.9 1.5,-3.2 1.5,-7.5 0,-4.3 0.5,-6.6 1.5,-7.5 0.8,-0.7 1.5,-2.6 1.5,-4.2 0,-5.1 4.9,-10 6.4,-6.3zM629,395.5c0,0.8 -0.7,1.5 -1.5,1.5 -0.8,-0 -1.5,-0.7 -1.5,-1.5 0,-0.8 0.7,-1.5 1.5,-1.5 0.8,-0 1.5,0.7 1.5,1.5zM626,415c0,4.7 -0.3,6 -1.5,6 -1.2,-0 -1.5,-1.3 -1.5,-6 0,-4.7 0.3,-6 1.5,-6 1.2,-0 1.5,1.3 1.5,6zM623,433c0,4.7 -0.3,6 -1.5,6 -0.8,-0 -1.5,0.7 -1.5,1.5 0,0.8 -0.7,1.5 -1.5,1.5 -0.8,-0 -1.5,-0.7 -1.5,-1.5 0,-0.8 0.7,-1.5 1.5,-1.5 1.2,-0 1.5,-1.3 1.5,-6 0,-4.7 0.3,-6 1.5,-6 1.2,-0 1.5,1.3 1.5,6zM397.5,562c0,1.8 -0.6,2.6 -2.3,2.8 -1.3,0.2 -2.5,-0.3 -2.8,-1.2 -1,-2.6 0.4,-4.8 2.8,-4.4 1.7,0.2 2.3,1 2.3,2.8zM254,593.5c0,0.8 -0.7,1.5 -1.5,1.5 -0.8,-0 -1.5,-0.7 -1.5,-1.5 0,-0.8 0.7,-1.5 1.5,-1.5 0.8,-0 1.5,0.7 1.5,1.5zM299,617.5c0,0.8 -0.7,1.5 -1.5,1.5 -0.8,-0 -1.5,-0.7 -1.5,-1.5 0,-0.8 0.7,-1.5 1.5,-1.5 0.8,-0 1.5,0.7 1.5,1.5z" stroke="#000000"/><path fill="#000000" d="M399.8,477.5c-1.8,2.4 -2.4,6.5 -1,6.5 1.9,-0.1 5.2,-4.1 5.2,-6.4 0,-3.2 -1.9,-3.3 -4.2,-0.1z" stroke="#000000"/><path fill="#000000" d="M383.7,499.7c-0.4,0.3 -0.7,3 -0.7,6 0,4 0.4,5.3 1.5,5.3 1.1,-0 1.5,-1.1 1.5,-4 0,-2.7 0.5,-4.3 1.5,-4.6 2.4,-0.9 1.8,-3.4 -0.8,-3.4 -1.3,-0 -2.7,0.3 -3,0.7z" stroke="#000000"/><path fill="#000000" d="M383,548.5c0,1 1,1.5 3,1.5 2,-0 3,-0.5 3,-1.5 0,-1 -1,-1.5 -3,-1.5 -2,-0 -3,0.5 -3,1.5z" stroke="#000000"/><path fill="#000000" d="M119,512.5c0,0.8 0.7,1.5 1.5,1.5 0.8,-0 1.5,-0.7 1.5,-1.5 0,-0.8 -0.7,-1.5 -1.5,-1.5 -0.8,-0 -1.5,0.7 -1.5,1.5z" stroke="#000000"/></g><g id="g_1"><path fill="#000000" d="M344,80.5c-0.9,1 -3.2,1.5 -7.5,1.5 -4.3,-0 -6.6,0.5 -7.5,1.5 -0.9,1.1 -3.3,1.5 -9,1.5 -5.7,-0 -8.1,0.4 -9,1.5 -0.7,0.8 -2.7,1.5 -4.5,1.5 -1.8,-0 -3.8,0.7 -4.5,1.5 -0.9,1.1 -3.3,1.5 -9,1.5 -5.7,-0 -8.1,0.4 -9,1.5 -0.7,0.8 -2,1.5 -3,1.5 -1,-0 -2.3,0.7 -3,1.5 -0.7,0.8 -2,1.5 -3,1.5 -1,-0 -2.3,0.7 -3,1.5 -0.7,0.8 -2,1.5 -3,1.5 -1,-0 -2.3,0.7 -3,1.5 -0.7,0.8 -2,1.5 -3,1.5 -1,-0 -2.3,0.7 -3,1.5 -0.7,0.8 -2.7,1.5 -4.5,1.5 -1.8,-0 -3.8,0.7 -4.5,1.5 -0.7,0.8 -2.7,1.5 -4.5,1.5 -1.8,-0 -3.8,0.7 -4.5,1.5 -0.7,0.8 -2,1.5 -3,1.5 -1,-0 -2.3,0.7 -3,1.5 -0.7,0.8 -2,1.5 -3,1.5 -1,-0 -2.3,0.7 -3,1.5 -0.7,0.8 -2,1.5 -3,1.5 -1,-0 -2.3,0.7 -3,1.5 -0.7,0.8 -2,1.5 -2.9,1.5 -1,-0 -3,1.3 -4.6,2.9 -1.5,1.7 -3.7,3.1 -4.9,3.3 -1.2,0.2 -2.2,1.2 -2.4,2.3 -0.5,2.7 -4.1,6.5 -6.2,6.5 -0.9,-0 -2.6,1 -3.8,2.3 -1.9,2 -2.2,3.5 -2.2,9.9 0,5.5 -0.4,7.9 -1.5,8.8 -0.8,0.7 -1.5,2.3 -1.5,3.6 0,1.4 -0.6,2.4 -1.5,2.4 -1,-0 -1.5,-1.5 -1.7,-5.7 -0.5,-9.2 -2,-8.6 -17.7,7 -11.6,11.6 -14.1,13.6 -17.1,13.9 -2.7,0.2 -3.5,0.8 -4,2.8 -0.4,1.5 -1.5,2.6 -3,3 -1.5,0.3 -2.6,1.4 -2.8,2.6 -0.2,1.1 -3,4.7 -6.2,7.9 -3.3,3.3 -6,6.6 -6,7.5 0,0.9 -2,3.6 -4.5,6 -2.5,2.4 -4.5,5.1 -4.5,6 0,0.9 -2,3.6 -4.5,6 -2.5,2.4 -4.5,5.2 -4.5,6.1 0,0.9 -0.7,2.2 -1.5,2.9 -0.8,0.7 -1.5,2 -1.5,3 0,1 -0.7,2.3 -1.5,3 -0.8,0.7 -1.5,2 -1.5,3 0,1 -0.7,2.3 -1.5,3 -0.8,0.7 -1.5,2 -1.5,3 0,1 -0.7,2.3 -1.5,3 -0.8,0.7 -1.5,2 -1.5,3 0,1 -0.7,2.3 -1.5,3 -0.8,0.7 -1.5,2 -1.5,3 0,1 -0.7,2.3 -1.5,3 -0.8,0.7 -1.5,2.7 -1.5,4.5 0,1.8 -0.7,3.8 -1.5,4.5 -0.8,0.7 -1.5,2.7 -1.5,4.5 0,1.8 -0.7,3.8 -1.5,4.5 -0.9,0.8 -1.5,3 -1.5,6 0,3 -0.6,5.2 -1.5,6 -0.8,0.7 -1.5,2.7 -1.5,4.5 0,1.8 -0.7,3.8 -1.5,4.5 -1,0.9 -1.5,3.2 -1.5,7.5 0,4.3 -0.5,6.6 -1.5,7.5 -1.1,0.9 -1.5,3.5 -1.5,10.5 0,7 -0.4,9.6 -1.5,10.5 -1.1,0.9 -1.5,3.3 -1.5,9 0,5.7 -0.4,8.1 -1.5,9 -2.2,1.9 -2.2,52.1 0,54 1,0.9 1.5,3.2 1.5,7.5 0,4.3 0.5,6.6 1.5,7.5 1.1,0.9 1.5,3.5 1.5,10.5 0,7 0.4,9.6 1.5,10.5 0.8,0.7 1.5,2.7 1.5,4.5 0,1.8 0.7,3.8 1.5,4.5 0.8,0.7 1.5,2 1.5,3 0,1 0.7,2.3 1.5,3 0.8,0.7 1.5,2.7 1.5,4.5 0,1.8 0.7,3.8 1.5,4.5 0.8,0.7 1.5,2 1.5,3 0,1 0.7,2.3 1.5,3 0.9,0.8 1.5,3 1.5,6 0,3 0.6,5.2 1.5,6 0.8,0.7 1.5,2.7 1.5,4.5 0,1.8 0.7,3.8 1.5,4.5 0.8,0.7 1.5,2 1.5,3 0,1 0.7,2.3 1.5,3 0.8,0.7 1.5,2.3 1.5,3.6 0,1.5 0.6,2.4 1.5,2.4 1,-0 1.5,-1 1.5,-3 0,-4 1.2,-3.8 5.5,0.8 3.6,3.8 4.7,8.2 2,8.2 -0.8,-0 -1.5,0.7 -1.5,1.5 0,0.8 0.7,1.5 1.5,1.5 0.8,-0 1.5,0.7 1.5,1.5 0,1.1 1.2,1.5 4.5,1.5 3.3,-0 4.5,0.4 4.5,1.5 0,0.8 -0.7,1.5 -1.5,1.5 -0.8,-0 -1.5,0.7 -1.5,1.5 0,0.8 0.7,1.5 1.5,1.5 0.8,-0 1.5,-0.7 1.5,-1.5 0,-2.3 4.4,-1.8 6.8,0.8 2.5,2.6 2.9,6.7 0.8,6.7 -0.8,-0 -1.6,-0.7 -2,-1.5 -0.7,-2 -4.3,-1.9 -5.4,0.1 -0.9,1.6 -1.2,1.5 -3.5,-0.2 -1.5,-1 -2.7,-2.5 -2.7,-3.2 0,-1.7 -3,-1.5 -3,0.3 0,0.8 0.7,1.5 1.5,1.5 0.9,-0 1.5,0.9 1.5,2.4 0,1.3 0.7,2.9 1.5,3.6 0.8,0.7 1.5,2 1.5,3 0,1 0.7,2.3 1.5,3 0.8,0.7 1.5,2 1.5,3 0,1 0.7,2.3 1.5,3 0.8,0.7 1.5,2 1.5,3 0,1 0.7,2.3 1.5,3 0.8,0.7 1.5,2 1.5,2.9 0,2.1 16,18.1 18,18.1 0.9,-0 5.6,4.1 10.5,9 4.9,5 9.7,9 10.5,9 0.8,-0 5.6,4 10.5,9 4.9,5 9.7,9 10.5,9 0.9,-0 2.9,1.3 4.5,3 1.6,1.6 3.6,3 4.5,3 0.9,-0 2.9,1.3 4.5,3 1.6,1.6 3.6,3 4.6,3 0.9,-0 2.2,0.7 2.9,1.5 0.7,0.8 2.7,1.5 4.5,1.5 1.8,-0 3.8,0.7 4.5,1.5 0.7,0.8 2,1.5 3,1.5 1,-0 2.3,0.6 3,1.4 0.6,0.8 2.1,1.6 3.3,1.8 1.3,0.2 2.3,1.3 2.7,2.8 0.4,1.5 1.5,2.6 3,3 1.5,0.4 2.6,1.5 3,3 0.4,1.5 1.4,2.6 2.7,2.8 1.2,0.2 2.7,1 3.3,1.8 0.7,0.8 2.7,1.4 4.5,1.4 1.8,-0 3.8,0.7 4.5,1.5 0.7,0.8 2,1.5 2.9,1.5 1,-0 3,1.3 4.6,3 1.6,1.6 3.6,3 4.6,3 0.9,-0 2.2,0.7 2.9,1.5 0.7,0.8 2.7,1.5 4.5,1.5 1.8,-0 3.8,0.7 4.5,1.5 0.7,0.8 2.7,1.5 4.5,1.5 1.8,-0 3.8,0.7 4.5,1.5 0.8,0.9 3,1.5 6,1.5 3,-0 5.2,0.6 6,1.5 0.8,0.9 3,1.5 6,1.5 3,-0 5.2,0.6 6,1.5 0.9,1.1 3.5,1.5 10.5,1.5 7,-0 9.6,0.4 10.5,1.5 1,1.2 4.3,1.5 18,1.5 13.7,-0 17,0.3 18,1.5 1.8,2.2 19.2,2.2 21,-0 1,-1.2 4.3,-1.5 18,-1.5 13.7,-0 17,-0.3 18,-1.5 0.9,-1 3.2,-1.5 7.5,-1.5 4.3,-0 6.6,-0.5 7.5,-1.5 0.7,-0.8 2,-1.5 3,-1.5 1,-0 2.3,-0.7 3,-1.5 0.7,-0.8 2,-1.5 3,-1.5 1,-0 2.3,-0.7 3,-1.5 0.7,-0.8 2.7,-1.5 4.5,-1.5 1.8,-0 3.8,-0.7 4.5,-1.5 0.9,-1 3.2,-1.5 7.5,-1.5 4.3,-0 6.6,-0.5 7.5,-1.5 0.7,-0.8 2.7,-1.5 4.5,-1.5 2.5,-0 4,-0.8 5.8,-3 2.8,-3.3 4.7,-3.9 4.7,-1.5 0,0.8 0.7,1.5 1.5,1.5 0.8,-0 1.5,-0.7 1.5,-1.5 0,-0.8 -0.7,-1.5 -1.5,-1.5 -2.7,-0 -1.6,-1.7 6,-9.1 5.1,-4.9 7.5,-8 7.5,-9.6 0,-2.6 2.5,-3.2 3.4,-0.8 0.7,1.9 4.5,1.9 5.2,-0 1,-2.5 3.2,-1.7 3.6,1.2 0.4,3.3 3.7,4.3 5.8,1.8 0.7,-0.8 2,-1.5 3,-1.5 1,-0 2.3,-0.7 3,-1.5 0.7,-0.8 2.7,-1.5 4.4,-1.5 2.4,-0 4.1,-1 6.8,-3.8 2,-2 3.8,-4.6 4,-5.7 0.2,-1.1 1.3,-2.1 2.5,-2.3 1.2,-0.2 2.7,-1 3.3,-1.8 0.7,-0.8 2,-1.4 2.9,-1.4 0.9,-0 5,-3.4 9.1,-7.5 4.1,-4.1 8.1,-7.5 9,-7.5 1.6,-0 15,-12.6 15,-14.1 0,-1.5 -5,-1 -5.6,0.6 -0.4,0.8 -1.2,1.5 -2,1.5 -2,-0 -1.9,-7.9 0.1,-8.6 0.8,-0.4 1.5,-1.2 1.5,-2 0,-1 -1.5,-1.4 -6,-1.4 -4.7,-0 -6,-0.3 -6,-1.5 0,-0.9 0.9,-1.5 2.4,-1.5 1.3,-0 2.9,-0.7 3.6,-1.5 1.6,-2 6,-2 6,-0 0,1 1,1.5 3,1.5 2,-0 3,-0.5 3,-1.5 0,-1 1,-1.5 3.1,-1.5 3.8,-0 3.5,-2.4 -0.4,-2.8 -1.9,-0.2 -2.7,0.1 -2.7,1.2 0,1.1 -0.9,1.6 -3,1.6 -2,-0 -3,-0.5 -3,-1.5 0,-1 1,-1.5 3,-1.5 2,-0 3,-0.5 3,-1.5 0,-1.1 1.2,-1.5 4.5,-1.5 3.3,-0 4.5,0.4 4.5,1.5 0,0.8 0.7,1.5 1.5,1.5 0.8,-0 1.5,-0.7 1.5,-1.5 0,-0.8 -0.7,-1.5 -1.5,-1.5 -0.8,-0 -1.5,-0.7 -1.5,-1.5 0,-1.1 1.1,-1.5 3.8,-1.5 3.1,-0 4.5,-0.7 7.5,-3.8 2,-2.1 3.7,-4.5 3.7,-5.3 0,-0.8 2,-3.5 4.5,-5.9 2.5,-2.4 4.5,-5.2 4.5,-6.1 0,-0.9 0.7,-2.2 1.5,-2.9 0.8,-0.7 1.5,-2 1.5,-3 0,-1 0.7,-2.3 1.5,-3 0.8,-0.7 1.5,-2 1.5,-3 0,-1 0.7,-2.3 1.5,-3 0.8,-0.7 1.5,-2 1.5,-3 0,-1 0.7,-2.3 1.5,-3 0.8,-0.7 1.5,-2 1.5,-3 0,-1 0.7,-2.3 1.5,-3 0.8,-0.7 1.5,-2 1.5,-3 0,-1 0.7,-2.3 1.5,-3 0.8,-0.7 1.5,-2 1.5,-3 0,-1 0.7,-2.3 1.5,-3 0.8,-0.7 1.5,-2 1.5,-3 0,-1 0.7,-2.3 1.5,-3 0.8,-0.7 1.5,-2 1.5,-3 0,-1 0.7,-2.3 1.5,-3 0.8,-0.7 1.5,-2 1.5,-3 0,-1 0.7,-2.3 1.5,-3 0.8,-0.7 1.5,-2 1.5,-3 0,-1 0.7,-2.3 1.5,-3 0.8,-0.7 1.5,-2.7 1.5,-4.5 0,-1.8 0.7,-3.8 1.5,-4.5 0.8,-0.7 1.5,-2.7 1.5,-4.5 0,-1.8 0.7,-3.8 1.5,-4.5 0.9,-0.8 1.5,-3 1.5,-6 0,-3 0.6,-5.2 1.5,-6 1.1,-0.9 1.5,-3.3 1.5,-9 0,-5.7 0.4,-8.1 1.5,-9 0.8,-0.7 1.5,-2.7 1.5,-4.5 0,-1.8 0.7,-3.8 1.5,-4.5 1.2,-1 1.5,-4.7 1.5,-21.6 0,-17.5 -0.2,-20.4 -1.5,-20.4 -0.9,-0 -1.5,0.9 -1.5,2.4 0,1.3 -0.7,2.9 -1.5,3.6 -1,0.8 -1.5,3.1 -1.5,6.6 0,4.1 -0.4,5.4 -1.5,5.4 -1.3,-0 -1.5,-2.2 -1.5,-13.5 0,-8.9 0.4,-13.5 1.1,-13.5 0.6,-0 2.2,1.3 3.6,3 3.4,4.1 4.5,3.8 4.1,-1.2 -0.3,-3.6 -0.7,-4.3 -2.8,-4.8l-2.5,-0.6 -0.3,-14.1c-0.2,-10.9 -0.6,-14.4 -1.7,-15.3 -1.1,-0.9 -1.5,-3.4 -1.5,-9 0,-5.7 -0.4,-8.1 -1.5,-9 -1,-0.9 -1.5,-3.2 -1.5,-7.5 0,-4.3 -0.5,-6.6 -1.5,-7.5 -0.9,-0.8 -1.5,-3 -1.5,-6 0,-3 -0.6,-5.2 -1.5,-6 -0.8,-0.7 -1.5,-2 -1.5,-3 0,-1 -0.7,-2.3 -1.5,-3 -0.8,-0.7 -1.5,-2.7 -1.5,-4.5 0,-1.8 -0.7,-3.8 -1.5,-4.5 -0.8,-0.7 -1.5,-2.7 -1.5,-4.4 0,-2.3 -0.9,-4.1 -3,-6.1 -2.1,-2 -3,-3.8 -3,-6.1 0,-1.7 -0.7,-3.7 -1.5,-4.4 -0.8,-0.7 -1.5,-2 -1.5,-3 0,-1 -0.7,-2.3 -1.5,-3 -0.8,-0.7 -1.5,-2 -1.5,-3 0,-1 -0.7,-2.3 -1.5,-3 -0.8,-0.7 -1.5,-2 -1.5,-3 0,-1 -0.7,-2.3 -1.5,-3 -0.8,-0.7 -1.5,-2.7 -1.5,-4.4 0,-2.5 -1.2,-4.3 -6,-9.1 -3.3,-3.3 -6,-6.7 -6,-7.6 0,-0.9 -0.7,-2.2 -1.5,-2.9 -0.8,-0.7 -1.5,-2 -1.5,-2.9 0,-1 -1.3,-3 -3,-4.6 -1.6,-1.6 -3,-3.6 -3,-4.6 0,-0.9 -0.7,-2.2 -1.5,-2.9 -0.8,-0.7 -1.5,-2 -1.5,-2.9 0,-1 -1.3,-3 -3,-4.6 -1.6,-1.6 -3,-3.6 -3,-4.5 0,-2 -28,-30 -30.1,-30 -0.8,-0 -3.5,-2 -5.9,-4.5 -5.8,-5.9 -8.4,-5.8 -8.8,0.2 -0.3,4.3 -2.4,5.9 -3.5,2.9 -0.3,-0.8 -2.2,-1.6 -4.4,-1.8 -3,-0.2 -3.9,-0.7 -4.1,-2.5 -0.2,-1.2 -1,-2.7 -1.8,-3.3 -2,-1.7 -1.9,-9 0.1,-9 0.8,-0 1.5,-0.7 1.5,-1.5 0,-0.8 -0.7,-1.5 -1.5,-1.5 -0.8,-0 -1.5,0.7 -1.5,1.5 0,0.8 -0.7,1.5 -1.5,1.5 -1,-0 -1.5,-1 -1.5,-3 0,-3.3 -1.1,-3.8 -3,-1.5 -1.8,2.2 -3,1.8 -3,-0.8 0,-2.6 -6.7,-9.7 -9.2,-9.7 -0.8,-0 -2.1,-0.7 -2.8,-1.5 -0.7,-0.8 -2,-1.5 -3,-1.5 -1,-0 -2.3,-0.7 -3,-1.5 -0.7,-0.8 -2,-1.5 -3,-1.5 -1,-0 -2.3,-0.7 -3,-1.5 -0.7,-0.8 -2.7,-1.5 -4.5,-1.5 -1.8,-0 -3.8,-0.7 -4.5,-1.5 -0.7,-0.8 -2,-1.5 -3,-1.5 -1,-0 -2.3,-0.7 -3,-1.5 -0.7,-0.8 -2,-1.5 -2.9,-1.5 -1,-0 -3,-1.4 -4.6,-3 -2,-2.1 -3.8,-3 -6.1,-3 -1.7,-0 -3.7,-0.7 -4.4,-1.5 -0.8,-0.9 -3,-1.5 -6,-1.5 -3,-0 -5.2,-0.6 -6,-1.5 -0.8,-0.9 -3,-1.5 -6,-1.5 -3,-0 -5.2,-0.6 -6,-1.5 -0.8,-0.9 -3,-1.5 -6,-1.5 -3,-0 -5.2,-0.6 -6,-1.5 -0.9,-1.1 -3.3,-1.5 -9,-1.5 -5.7,-0 -8.1,-0.4 -9,-1.5 -0.9,-1.1 -3.5,-1.5 -10.5,-1.5 -7,-0 -9.6,-0.4 -10.5,-1.5 -1,-1.3 -5.3,-1.5 -27,-1.5 -21.7,-0 -26,0.2 -27,1.5zM314,122.5c1,1.2 4,1.5 15,1.5 11,-0 14,-0.3 15,-1.5 1,-1.2 3.7,-1.5 12,-1.5 8.3,-0 11,0.3 12,1.5 1,1.2 4.2,1.5 16.5,1.5 12.3,-0 15.5,0.3 16.5,1.5 0.8,0.9 3,1.5 6,1.5 3,-0 5.2,0.6 6,1.5 0.7,0.8 2.1,1.5 3.2,1.5 1,-0 2.1,-0.7 2.4,-1.5 0.4,-0.8 1.2,-1.5 1.9,-1.5 0.7,-0 1.5,0.7 1.9,1.5 0.4,1.1 2.2,1.5 6.9,1.5 4.5,-0 6.8,-0.5 7.7,-1.5 0.7,-0.8 2,-1.5 3,-1.5 1,-0 2.3,0.7 3,1.5 0.7,0.8 2.8,1.5 4.7,1.5 2.1,-0 3.6,0.6 3.9,1.5 0.4,0.8 1.2,1.5 1.9,1.5 0.7,-0 1.5,-0.7 1.9,-1.5 0.8,-2.2 20.6,-2.2 20.6,-0.1 0,1 -1.4,1.6 -4.2,1.8 -3.8,0.3 -4.3,0.6 -4.3,2.8 0,2.2 0.5,2.5 3.7,2.8 2,0.2 4.2,1 4.8,1.8 0.7,0.8 3,1.4 5.1,1.4 2.8,-0 3.9,0.4 3.9,1.5 0,1.1 -1.2,1.5 -4.5,1.5 -3.3,-0 -4.5,0.4 -4.5,1.5 0,1.1 1.3,1.5 5.4,1.5 3.5,-0 5.8,0.5 6.6,1.5 0.7,0.8 2,1.5 3,1.5 1,-0 2.3,0.7 3,1.5 0.7,0.8 2.7,1.5 4.4,1.5 2.3,-0 4.1,0.9 6.1,3 1.6,1.6 3.6,3 4.6,3 0.9,-0 2.2,0.7 2.9,1.5 0.7,0.8 2,1.5 2.9,1.5 1,-0 3,1.3 4.6,3 1.6,1.6 3.6,3 4.5,3 0.8,-0 5.6,4 10.5,9 4.9,4.9 9.7,9 10.6,9 0.9,-0 2.2,0.6 2.9,1.4 0.6,0.8 2.1,1.6 3.3,1.8 1.3,0.2 2.3,1.3 2.7,2.8 0.4,1.5 1.5,2.6 3,3 1.5,0.3 2.6,1.4 2.8,2.6 0.2,1.1 3,4.7 6.2,7.9 3.3,3.3 6,6.7 6,7.5 0,0.9 1.4,2.9 3,4.5 2.1,2 3,3.8 3,6.1 0,1.7 0.7,3.7 1.5,4.4 0.8,0.7 1.5,2.7 1.5,4.5 0,1.8 0.7,3.8 1.5,4.5 0.8,0.7 1.5,2 1.5,2.9 0,1 1.4,3 3,4.6 1.7,1.6 3,3.6 3,4.5 0,0.9 1.4,2.9 3,4.5 1.7,1.6 3,3.6 3,4.6 0,0.9 0.7,2.2 1.5,2.9 0.8,0.7 1.5,2 1.5,3 0,1 0.7,2.3 1.5,3 0.8,0.7 1.5,2.7 1.5,4.5 0,1.8 0.7,3.8 1.5,4.5 0.8,0.7 1.5,2 1.5,3 0,1 0.7,2.3 1.5,3 0.8,0.7 1.5,2 1.5,3 0,1 0.7,2.3 1.5,3 0.9,0.8 1.5,3 1.5,6 0,3 0.6,5.2 1.5,6 0.9,0.8 1.5,3 1.5,6 0,3 0.6,5.2 1.5,6 0.8,0.7 1.5,2 1.5,3 0,1 0.7,2.3 1.5,3 1,0.9 1.5,3.2 1.5,7.5 0,4.3 0.5,6.6 1.5,7.5 1.1,0.9 1.5,3.5 1.5,10.5 0,7 0.4,9.6 1.5,10.5 1.2,1 1.5,4.2 1.5,16.4 0,14.5 0.1,15.3 2.3,17.3 1.2,1.2 3.1,2.3 4.2,2.5 1.1,0.2 2.1,1.2 2.3,2.4 0.2,1.2 1.6,3.4 3.3,4.9 1.6,1.6 2.9,3.9 2.9,5.2 0,2.6 -1.2,3 -3,0.8 -2,-2.5 -2.9,-1.7 -3.2,2.7 -0.3,3.9 -0.6,4.3 -3,4.6 -3.3,0.4 -3.4,0.9 -1.1,3.5 1.7,1.8 1.7,1.9 0,2.8 -1.1,0.7 -1.7,2.2 -1.7,4.4 0,2.2 -0.6,3.7 -1.7,4.4 -1.7,0.9 -1.7,1 0,2.8 0.9,1.1 1.7,2.7 1.7,3.7 0,0.9 0.7,1.9 1.5,2.2 3.2,1.2 0.2,5 -5,6.4 -1,0.3 -2.2,1.7 -2.5,3 -0.3,1.4 -1.4,2.6 -2.5,2.8 -1.1,0.2 -3.7,2 -5.7,4 -2.8,2.7 -3.8,4.4 -3.8,6.8 0,1.7 -0.7,3.7 -1.5,4.4 -0.8,0.7 -1.5,2 -1.5,3 0,1 -0.7,2.3 -1.5,3 -0.8,0.7 -1.5,2 -1.5,3 0,1 -0.7,2.3 -1.5,3 -0.8,0.7 -1.5,2 -1.5,3 0,1 -0.7,2.3 -1.5,3 -0.8,0.7 -1.5,2.7 -1.5,4.5 0,1.8 -0.7,3.8 -1.5,4.5 -0.8,0.7 -1.5,2 -1.5,3 0,1 -0.7,2.3 -1.5,3 -0.8,0.7 -1.5,2 -1.5,2.9 0,0.9 -2,3.7 -4.5,6.1 -3.5,3.4 -4.5,5.2 -4.5,7.6 0,1.7 -0.6,3.7 -1.4,4.4 -0.8,0.6 -1.6,2.1 -1.8,3.3 -0.2,1.3 -1.3,2.3 -2.8,2.7 -1.4,0.3 -2.6,1.4 -2.8,2.5 -0.2,1.1 -1,2.7 -1.7,3.5 -0.7,0.8 -1.5,2.4 -1.7,3.5 -0.2,1.1 -1.4,2.2 -2.8,2.5 -1.4,0.3 -2.6,1.4 -2.8,2.5 -0.5,2.6 -13.2,15.5 -15.2,15.5 -0.9,-0 -4.2,2.7 -7.5,6 -3.3,3.3 -6.7,6 -7.5,6 -0.9,-0 -2.9,1.3 -4.5,3 -1.6,1.6 -3.6,3 -4.5,3 -0.9,-0 -3.6,2 -6,4.5 -2.4,2.5 -5.1,4.5 -6,4.5 -0.9,-0 -2.9,1.4 -4.5,3 -1.6,1.6 -3.6,3 -4.5,3 -0.9,-0 -3.6,2 -6,4.5 -2.4,2.5 -5.1,4.5 -6,4.5 -0.9,-0 -2.9,1.3 -4.5,3 -1.6,1.6 -3.6,3 -4.6,3 -0.9,-0 -2.2,0.7 -2.9,1.5 -0.7,0.8 -2.7,1.5 -4.4,1.5 -2.4,-0 -4.2,1 -7.6,4.5 -4,4.1 -4.9,4.5 -9.1,4.5 -2.9,-0 -5.1,0.6 -5.9,1.5 -0.7,0.8 -2,1.5 -3,1.5 -1,-0 -2.3,0.7 -3,1.5 -0.7,0.8 -2.7,1.5 -4.5,1.5 -1.8,-0 -3.8,0.7 -4.5,1.5 -0.7,0.8 -2.7,1.5 -4.5,1.5 -1.8,-0 -3.8,0.7 -4.5,1.5 -0.9,1 -3.2,1.5 -7.5,1.5 -4.3,-0 -6.6,0.5 -7.5,1.5 -0.9,1 -3.2,1.5 -7.5,1.5 -4.3,-0 -6.6,-0.5 -7.5,-1.5 -1.1,-1.3 -5.7,-1.5 -30,-1.5 -24.1,-0 -29,-0.2 -30,-1.5 -0.9,-1.1 -4.4,-1.5 -15.3,-1.7l-14.1,-0.3 -0.6,-2.5c-0.5,-2 -1.3,-2.6 -4.3,-2.8 -2.7,-0.2 -3.9,0.1 -4.3,1.2 -0.3,0.9 -1.2,1.6 -2,1.6 -0.8,-0 -1.4,0.7 -1.4,1.5 0,0.8 -0.7,1.5 -1.5,1.5 -0.8,-0 -1.5,-0.7 -1.5,-1.5 0,-1.9 -2.6,-1.9 -3.4,-0 -0.3,0.8 -1.4,1.5 -2.4,1.5 -2.2,-0 -11.9,-9.8 -12.4,-12.5 -0.2,-1.1 -1.2,-2.1 -2.5,-2.3 -1.2,-0.2 -2.7,-1 -3.3,-1.8 -0.7,-0.8 -2.7,-1.4 -4.5,-1.4 -1.8,-0 -3.8,-0.7 -4.5,-1.5 -0.9,-1 -3.9,-1.5 -10.8,-1.7 -8.8,-0.3 -9.7,-0.5 -10,-2.3 -0.7,-3.7 -4.3,-6.5 -8.4,-6.5 -4.3,-0 -4.8,-1.3 -1.5,-4.1 2.7,-2.2 6.7,-2.5 6.7,-0.4 0,1 1,1.5 3,1.5 2,-0 3,-0.5 3,-1.5 0,-1 -1,-1.5 -3,-1.5 -2,-0 -3,-0.5 -3,-1.5 0,-0.9 -0.9,-1.5 -2.3,-1.5 -1.4,-0 -4,-1.8 -6.7,-4.5 -2.4,-2.5 -5.1,-4.5 -6,-4.5 -0.9,-0 -4.2,-2.7 -7.5,-6 -3.3,-3.3 -6.7,-6 -7.5,-6 -0.9,-0 -2.9,-1.4 -4.5,-3 -1.6,-1.7 -3.6,-3 -4.4,-3 -2,-0 -15.1,-13 -15.1,-15 0,-0.9 -2,-3.6 -4.5,-6 -2.5,-2.4 -4.5,-5.1 -4.5,-6 0,-0.9 -2,-3.6 -4.5,-6 -2.5,-2.4 -4.5,-5.1 -4.5,-6 0,-0.9 -1.4,-2.9 -3,-4.5 -1.6,-1.6 -3,-3.6 -3,-4.5 0,-0.8 -2.7,-4.2 -6,-7.5 -3.3,-3.3 -6,-6.7 -6,-7.5 0,-0.9 -1.4,-2.9 -3,-4.5 -2.8,-2.7 -3,-3.3 -3,-10.6 0,-5.6 -0.4,-8 -1.5,-8.9 -0.8,-0.7 -1.5,-2 -1.5,-3 0,-1 -0.7,-2.3 -1.5,-3 -0.8,-0.7 -1.5,-2 -1.5,-2.8 0,-2.2 -7,-9.2 -9.1,-9.2 -1,-0 -2.9,-1.3 -4.2,-3 -1.4,-1.6 -3,-3 -3.6,-3 -0.6,-0 -1.1,-0.7 -1.1,-1.5 0,-0.8 0.7,-1.5 1.5,-1.5 0.8,-0 1.5,0.7 1.5,1.6 0,1.1 0.8,1.4 2.7,1.2 2.4,-0.3 2.8,-0.8 3.1,-3.9 0.2,-2.3 -0.2,-4 -1.2,-4.9 -1.1,-0.8 -1.6,-2.9 -1.6,-6 0,-3 -0.6,-5.2 -1.5,-6 -1.1,-0.9 -1.5,-3.3 -1.5,-9 0,-5.7 -0.4,-8.1 -1.5,-9 -2.3,-1.9 -2.2,-58.1 0,-60 2.3,-1.9 1.4,-5.3 -1.5,-6 -2,-0.5 -2.6,-1.3 -2.8,-4.2 -0.2,-2 -1,-4.2 -1.8,-4.8 -0.8,-0.7 -1.4,-2 -1.4,-3 0,-1 -0.7,-2.3 -1.5,-3 -0.8,-0.7 -1.5,-2 -1.5,-3 0,-1 -0.7,-2.3 -1.5,-3 -0.8,-0.7 -1.5,-2 -1.5,-2.9 0.1,-1.7 3.3,-6.1 4.5,-6.1 1.2,-0 4.4,4.4 4.5,6.1 0,0.9 0.7,2.2 1.5,2.9 0.8,0.7 1.5,2 1.5,3 0,1 0.7,2.3 1.5,3 0.9,0.7 1.5,2.9 1.5,5.1 0,2.2 0.5,3.9 1.1,3.9 2,-0 4.8,-4.5 4.9,-7.6 0,-1.7 0.7,-3.7 1.5,-4.4 1.8,-1.5 2.1,-9 0.4,-9 -0.7,-0 -1.7,0.8 -2.4,1.7 -1.2,1.6 -1.5,1.6 -3.4,-0.7 -3.1,-3.7 -2.7,-8.3 0.9,-11.3 3.3,-2.8 3.9,-4.7 1.5,-4.7 -2.6,-0 -1.7,-1.8 3,-6.1 2.5,-2.3 4.5,-4.9 4.5,-5.8 0,-1 1.4,-3 3,-4.6 2.7,-2.6 3,-3.5 3,-9.1 0,-4.2 0.5,-6.5 1.5,-7.4 0.8,-0.7 1.5,-2 1.5,-3 0,-1 0.7,-2.3 1.5,-3 0.8,-0.7 1.5,-2 1.5,-2.9 0,-1 1.4,-3 3,-4.6 1.7,-1.6 3,-3.6 3,-4.5 0,-0.9 2,-3.6 4.5,-6 2.5,-2.4 4.5,-5.2 4.5,-6.1 0,-0.9 0.7,-2.2 1.5,-2.9 0.8,-0.7 1.5,-2 1.5,-2.9 0,-1 1.3,-3 3,-4.6 1.7,-1.6 3,-3.6 3,-4.5 0,-0.9 1.4,-2.9 3,-4.5 1.7,-1.6 3,-3.5 3,-4.4 0,-2 4,-6.1 6,-6.1 0.9,-0 3.6,-2 6,-4.5 2.4,-2.5 5.1,-4.5 6,-4.5 0.9,-0 2.9,-1.4 4.5,-3 1.6,-1.7 3.6,-3 4.5,-3 0.9,-0 3.6,-2 6,-4.5 2.4,-2.5 5.1,-4.5 6,-4.5 0.9,-0 2.9,-1.4 4.5,-3 1.6,-1.7 3.6,-3 4.5,-3 0.8,-0 4.9,-3.4 9,-7.5 4.1,-4.1 8.2,-7.5 9.1,-7.5 0.9,-0 2.2,-0.7 2.9,-1.5 0.7,-0.8 2,-1.5 3,-1.5 1,-0 2.3,-0.7 3,-1.5 0.7,-0.8 2,-1.5 3,-1.5 1,-0 2.3,-0.7 3,-1.5 0.7,-0.8 2,-1.5 3,-1.5 1,-0 2.3,-0.7 3,-1.5 0.7,-0.8 2,-1.5 3,-1.5 1,-0 2.3,-0.7 3,-1.5 0.7,-0.8 2,-1.5 3,-1.5 1,-0 2.3,-0.7 3,-1.5 0.7,-0.8 2,-1.5 3,-1.5 1,-0 2.3,-0.7 3,-1.5 0.9,-1 3.2,-1.5 7.5,-1.5 4.3,-0 6.6,-0.5 7.5,-1.5 0.8,-1 3.1,-1.5 6.6,-1.5 4.1,-0 5.4,-0.4 5.4,-1.5 0,-1 -1.5,-1.5 -5.7,-1.7 -5.1,-0.3 -5.8,-0.6 -6.1,-2.6 -0.2,-1.3 0.3,-2.5 1.2,-2.8 2.8,-1.1 1.8,-3.4 -1.4,-3.4 -2,-0 -3,-0.5 -3,-1.5 0,-1.2 1.8,-1.5 9.9,-1.5 7.5,-0 10.1,0.4 11.1,1.5zM122,512.5c0,0.8 -0.7,1.5 -1.5,1.5 -0.8,-0 -1.5,-0.7 -1.5,-1.5 0,-0.8 0.7,-1.5 1.5,-1.5 0.8,-0 1.5,0.7 1.5,1.5z" stroke="#000000"/><path fill="#000000" d="M461,134.5c0,0.8 0.7,1.5 1.5,1.5 0.8,-0 1.5,-0.7 1.5,-1.5 0,-0.8 -0.7,-1.5 -1.5,-1.5 -0.8,-0 -1.5,0.7 -1.5,1.5z" stroke="#000000"/><path fill="#000000" d="M348.8,189.5c-1,1.3 -1.8,3 -1.8,3.8 0,0.8 -0.7,2 -1.5,2.7 -0.8,0.7 -1.5,2 -1.5,3 0,1 -0.7,2.3 -1.5,3 -0.8,0.7 -1.5,2 -1.5,3 0,1 -0.7,2.3 -1.5,3 -0.8,0.7 -1.5,2 -1.5,3 0,1 -0.7,2.3 -1.5,3 -0.8,0.7 -1.5,2.7 -1.5,4.5 0,1.8 -0.7,3.8 -1.5,4.5 -1.2,1 -1.5,4.3 -1.5,17.9l0,16.6 8.3,8.3c4.5,4.5 9,8.2 9.8,8.2 0.9,-0 2.2,0.7 2.9,1.5 0.7,0.8 2.7,1.5 4.5,1.5 1.8,-0 3.8,0.7 4.5,1.5 0.7,0.8 2.7,1.5 4.5,1.5 1.8,-0 3.8,-0.7 4.5,-1.5 0.8,-0.9 3,-1.5 6,-1.5 3,-0 5.2,-0.6 6,-1.5 0.7,-0.8 2.7,-1.5 4.5,-1.5 1.8,-0 3.8,-0.7 4.5,-1.5 0.7,-0.8 2,-1.5 3,-1.5 1,-0 2.3,-0.7 3,-1.5 0.7,-0.8 2.7,-1.5 4.4,-1.5 2.3,-0 4.1,-0.9 6.1,-3 1.6,-1.7 3.6,-3 4.6,-3 0.9,-0 2.2,-0.7 2.9,-1.5 0.7,-0.8 2,-1.5 2.9,-1.5 0.9,-0 4.7,-3 8.4,-6.8l6.7,-6.8 0,-9.1c0,-6.8 -0.4,-9.4 -1.5,-10.3 -0.8,-0.7 -1.5,-2 -1.5,-2.9 0,-1 -1.3,-3 -3,-4.6 -1.6,-1.6 -3,-3.6 -3,-4.5 0,-2 -4.1,-6 -6.2,-6 -0.9,-0 -2.1,-0.7 -2.8,-1.5 -0.7,-0.8 -2,-1.5 -3,-1.5 -1,-0 -2.3,-0.7 -3,-1.5 -0.7,-0.9 -3.5,-1.5 -7.8,-1.7 -5.8,-0.3 -6.7,-0.6 -7,-2.3 -0.5,-2.7 -4.2,-6.5 -6.3,-6.5 -0.9,-0 -2.2,-0.7 -2.9,-1.5 -1,-1.2 -4.2,-1.5 -16.7,-1.5 -12.7,-0 -15.5,-0.3 -15.9,-1.5 -0.9,-2.2 -2.6,-1.8 -4.6,1z" stroke="#000000"/><path fill="#000000" d="M131,308.5c0,0.8 0.7,1.5 1.5,1.5 0.8,-0 1.5,-0.7 1.5,-1.5 0,-0.8 -0.7,-1.5 -1.5,-1.5 -0.8,-0 -1.5,0.7 -1.5,1.5z" stroke="#000000"/><path fill="#000000" d="M339.8,318.5c-1,1.3 -1.8,3.7 -1.8,5.3 0,1.6 -0.7,3.5 -1.5,4.2 -1,0.9 -1.5,3.2 -1.5,7.5 0,4.3 -0.5,6.6 -1.5,7.5 -1.2,1 -1.5,4.2 -1.5,16.5 0,12.3 -0.3,15.5 -1.5,16.5 -1.2,1 -1.5,4 -1.5,15 0,11 -0.3,14 -1.5,15 -1.2,1 -1.5,4 -1.5,15 0,11 -0.3,14 -1.5,15 -1.2,1 -1.5,4 -1.5,15 0,11 -0.3,14 -1.5,15 -1.2,1 -1.5,4.2 -1.5,16.5 0,12.3 -0.3,15.5 -1.5,16.5 -2.2,1.8 -2.2,40.1 -0.1,42 0.8,0.6 1.6,2.1 1.8,3.3 0.2,1.3 1.1,2.3 2.4,2.5 1.2,0.2 3.4,1.6 4.9,3.3 2.6,2.6 3.5,2.9 9.1,2.9 4.2,-0 6.5,0.5 7.4,1.5 0.7,0.8 2.1,1.5 3.2,1.5 1,-0 2.1,0.7 2.4,1.5 0.8,1.9 3,1.9 3.8,-0 0.3,-0.8 1.4,-1.5 2.4,-1.5 1.1,-0 2.5,-0.7 3.2,-1.5 1.7,-2.1 13.3,-2.1 15,-0 0.7,0.8 2.1,1.5 3.2,1.5 1,-0 2.1,0.7 2.4,1.5 0.4,0.8 1.2,1.5 1.9,1.5 0.7,-0 1.5,-0.7 1.9,-1.5 0.3,-0.8 1.4,-1.5 2.4,-1.5 1.1,-0 2.5,-0.7 3.2,-1.5 0.7,-0.9 3.5,-1.5 7.8,-1.7 5.9,-0.3 6.7,-0.5 7,-2.4 0.2,-1.1 -0.4,-2.7 -1.3,-3.4 -2,-1.7 -2.1,-10.3 0,-12 1.2,-1 1.5,-4.2 1.5,-17.1 0,-13.5 -0.2,-15.9 -1.5,-15.9 -1.1,-0 -1.5,1.1 -1.5,3.7 0,2.9 -0.9,4.7 -3.5,7.5 -2,2.1 -4,3.8 -4.5,3.8 -1.7,-0 -1.2,-13.6 0.5,-15 0.8,-0.7 1.5,-2.3 1.5,-3.6 0,-2.8 0.7,-3 3.1,-0.8 1.6,1.4 1.9,1.4 3.9,-0.6 2,-2 2,-2.3 0.6,-3.9 -2.3,-2.5 -2,-3.1 1.4,-3.1 3.2,-0 4.2,-2.3 1.5,-3.4 -0.8,-0.3 -1.5,-1.7 -1.5,-3.1 0,-1.6 0.6,-2.5 1.5,-2.5 1.3,-0 1.5,-4.6 1.5,-35.4 0,-30.2 0.2,-35.5 1.5,-36.6 0.9,-0.8 1.5,-3 1.5,-6 0,-3 0.6,-5.2 1.5,-6 0.8,-0.7 1.5,-2 1.5,-3 0,-1 0.7,-2.3 1.5,-3 0.8,-0.7 1.5,-2 1.5,-3 0,-1 0.7,-2.3 1.5,-3 0.8,-0.7 1.5,-2 1.5,-3 0,-1 0.7,-2.3 1.5,-3 0.8,-0.7 1.5,-2 1.5,-3 0,-1 0.7,-2.3 1.5,-3 0.8,-0.7 1.5,-2 1.5,-3 0,-1 0.7,-2.3 1.5,-3 0.9,-0.8 1.5,-3 1.5,-6 0,-3 -0.6,-5.2 -1.5,-6 -0.8,-0.7 -1.5,-2 -1.5,-3 0,-1 -0.7,-2.3 -1.5,-3 -0.8,-0.7 -1.5,-2 -1.5,-2.9 0,-2.1 -4,-6.1 -6.1,-6.1 -0.9,-0 -2.8,-1.4 -4.4,-3 -1.6,-1.7 -3.6,-3 -4.6,-3 -0.9,-0 -2.2,-0.7 -2.9,-1.5 -0.7,-0.8 -2.7,-1.5 -4.5,-1.5 -1.8,-0 -3.8,-0.7 -4.5,-1.5 -0.8,-0.9 -3,-1.5 -6,-1.5 -3,-0 -5.2,-0.6 -6,-1.5 -0.9,-1 -3.2,-1.5 -7.5,-1.5 -4.3,-0 -6.6,-0.5 -7.5,-1.5 -0.9,-1 -3.2,-1.5 -7.5,-1.5 -4.3,-0 -6.6,-0.5 -7.5,-1.5 -0.7,-0.8 -2.8,-1.5 -4.7,-1.5 -2.1,-0 -3.6,-0.6 -3.9,-1.5 -0.9,-2.2 -2.6,-1.8 -4.6,1zM404,477.6c0,2.3 -3.3,6.3 -5.2,6.4 -1.4,-0 -0.8,-4.1 1,-6.5 2.3,-3.2 4.2,-3.1 4.2,0.1zM389,500.4c0,0.8 -0.7,1.6 -1.5,2 -1,0.3 -1.5,1.9 -1.5,4.6 0,2.9 -0.4,4 -1.5,4 -1.1,-0 -1.5,-1.3 -1.5,-5.3 0,-3 0.3,-5.7 0.7,-6 1.2,-1.3 5.3,-0.7 5.3,0.7zM389,548.5c0,1 -1,1.5 -3,1.5 -2,-0 -3,-0.5 -3,-1.5 0,-1 1,-1.5 3,-1.5 2,-0 3,0.5 3,1.5z" stroke="#000000"/><path fill="#000000" d="M626,395.5c0,0.8 0.7,1.5 1.5,1.5 0.8,-0 1.5,-0.7 1.5,-1.5 0,-0.8 -0.7,-1.5 -1.5,-1.5 -0.8,-0 -1.5,0.7 -1.5,1.5z" stroke="#000000"/><path fill="#000000" d="M623,415c0,4.7 0.3,6 1.5,6 1.2,-0 1.5,-1.3 1.5,-6 0,-4.7 -0.3,-6 -1.5,-6 -1.2,-0 -1.5,1.3 -1.5,6z" stroke="#000000"/><path fill="#000000" d="M620,433c0,4.7 -0.3,6 -1.5,6 -0.8,-0 -1.5,0.7 -1.5,1.5 0,0.8 0.7,1.5 1.5,1.5 0.8,-0 1.5,-0.7 1.5,-1.5 0,-0.8 0.7,-1.5 1.5,-1.5 1.2,-0 1.5,-1.3 1.5,-6 0,-4.7 -0.3,-6 -1.5,-6 -1.2,-0 -1.5,1.3 -1.5,6z" stroke="#000000"/><path fill="#000000" d="M392.4,560.4c-1,2.6 0.4,4.8 2.8,4.4 1.7,-0.2 2.3,-1 2.3,-2.8 0,-1.8 -0.6,-2.6 -2.3,-2.8 -1.3,-0.2 -2.5,0.3 -2.8,1.2z" stroke="#000000"/><path fill="#000000" d="M251,593.5c0,0.8 0.7,1.5 1.5,1.5 0.8,-0 1.5,-0.7 1.5,-1.5 0,-0.8 -0.7,-1.5 -1.5,-1.5 -0.8,-0 -1.5,0.7 -1.5,1.5z" stroke="#000000"/><path fill="#000000" d="M290,617.5c0,0.8 0.7,1.5 1.5,1.5 0.8,-0 1.5,-0.7 1.5,-1.5 0,-0.8 -0.7,-1.5 -1.5,-1.5 -0.8,-0 -1.5,0.7 -1.5,1.5z" stroke="#000000"/><path fill="#000000" d="M296,617.5c0,0.8 0.7,1.5 1.5,1.5 0.8,-0 1.5,-0.7 1.5,-1.5 0,-0.8 -0.7,-1.5 -1.5,-1.5 -0.8,-0 -1.5,0.7 -1.5,1.5z" stroke="#000000"/><path fill="#000000" d="M179.3,148.6c-3.3,3.5 -4.1,5.4 -2.3,5.4 1.2,-0 8,-6.8 8,-8 0,-1.9 -2.6,-0.7 -5.7,2.6z" stroke="#000000"/><path fill="#000000" d="M587,575.5c0,0.8 0.7,1.5 1.5,1.5 0.8,-0 1.5,-0.7 1.5,-1.5 0,-0.8 -0.7,-1.5 -1.5,-1.5 -0.8,-0 -1.5,0.7 -1.5,1.5z" stroke="#000000"/></g></svg>