<svg id="vector" xmlns="http://www.w3.org/2000/svg" width="200" height="200" viewBox="0 0 400 400"><g id="g_0"><path fill="#000000" d="M254.37,88.84C255.79,97.19 256.95,105.25 258.22,114C265.49,114 273.6,114 281.7,114C289.03,114 296.37,114.23 303.69,113.94C311.26,113.64 317.04,116.72 321.78,122.29C337.13,140.31 352.49,158.32 367.83,176.35C371.23,180.35 374.82,184.23 377.83,188.52C379.43,190.81 380.81,193.82 380.87,196.54C381.42,221.29 381.72,246.05 381.98,270.81C382.1,282.81 372.82,291.98 360.82,292C357.82,292 354.83,292 353.02,292C347.89,298.73 344.04,305.64 338.5,310.68C324.28,323.62 304.96,328.14 286.74,319.47C275.03,313.9 266.44,305.77 261.46,293.88C260.22,290.92 258.64,289.57 255.25,289.95C220.98,293.72 186.58,291.33 152.24,292.1C150.85,292.14 148.82,293.35 148.22,294.57C141.81,307.77 131.72,316.86 117.45,319.98C102.23,323.3 87.49,321.48 75.72,310.01C70.5,304.93 66.34,298.76 60.82,292C55,292 47.35,292.02 39.7,292C28.43,291.97 19.01,282.58 19.01,271.33C18.99,213.85 18.99,156.38 19,98.9C19.01,87.29 28.33,78.01 39.97,78C105.28,78 170.59,78.01 235.89,77.99C244.05,77.99 249.94,81.76 254.37,88.84z" stroke="#000000"/></g><g id="g_1"><path fill="#FFFFFF" d="M60,98C119.12,98 177.73,98 236.68,98C236.68,155.9 236.68,213.61 236.68,271.66C207.12,271.66 177.39,271.66 147.1,271.66C147.82,258.49 142.77,247.25 132.92,238.6C123.19,230.06 111.19,227.49 98.58,229.09C81.62,231.24 62.64,245.2 62.8,271.7C55.06,271.7 47.33,271.7 39.29,271.7C39.29,214.03 39.29,156.32 39.29,98C45.98,98 52.74,98 60,98z" stroke="#FFFFFF"/><path fill="#FFFFFF" d="M341.25,176.75C347.99,184.49 354.5,191.95 360.92,199.49C361.58,200.26 361.95,201.53 361.96,202.57C362.01,225.54 362,248.5 362,271.73C356.64,271.73 351.57,271.73 346.11,271.73C346.72,258.7 341.95,247.71 332.46,239.12C322.99,230.56 311.39,227.81 298.82,229.01C282.03,230.6 263.02,243.58 261.6,269.79C257.66,269.79 253.7,269.79 249.37,269.79C249.37,224.86 249.37,179.8 249.37,134.23C250.49,134.17 251.91,134.01 253.33,134.01C268.33,133.99 283.34,134.48 298.3,133.77C304.47,133.48 307.51,136.58 310.75,140.38C317.88,148.71 324.93,157.1 331.98,165.5C335.03,169.13 337.99,172.82 341.25,176.75z" stroke="#FFFFFF"/><path fill="#FFFFFF" d="M291.11,250.99C305.59,242.83 315.96,245.56 324.84,253.98C336.16,264.72 338.44,276.98 328.95,291.5C324.28,298.65 310.83,305.18 304.41,303.77C285.94,299.7 280.6,292.37 278.27,279.74C276.12,268.11 280.58,258 291.11,250.99z" stroke="#FFFFFF"/><path fill="#FFFFFF" d="M80,271.33C81.95,257.82 92.48,249.93 102.15,249.02C120.47,247.3 129.52,258.01 131.6,268.74C134.49,283.66 128.68,296.74 112.21,300.54C97.39,303.96 85.22,297.39 80.24,281.23C79.35,278.33 80.04,274.95 80,271.33z" stroke="#FFFFFF"/></g></svg>