<svg id="vector" xmlns="http://www.w3.org/2000/svg" width="147.7352" height="200" viewBox="0 0 212 287"><path fill="#000000" d="M126.3,3.2c-1.9,2.5 -2.1,4.6 -0.8,7.1 1.2,2.3 1.1,3.5 -0.7,9l-2.1,6.3 -5.6,-1.9c-8.6,-2.9 -19.9,-2.1 -28.5,2.2 -8.4,4.1 -15.7,11.5 -19.9,20 -3,6.1 -3.2,7.4 -3.4,17.4 -0.1,10.8 -1.3,15.1 -3.7,12.7 -1.5,-1.5 -7.2,-1.2 -8.6,0.5 -1.6,1.9 -1.6,6.1 0,8 2.6,3.1 10,1.3 10,-2.3 0,-1.4 2.7,-4.1 4.1,-4.2 0.4,-0 1,1.1 1.3,2.4 1.1,4.5 9.2,14 14.9,17.6 8.9,5.5 7.7,6.4 -9.3,7.2 -14.6,0.7 -57.1,4.4 -64.5,5.7 -3.5,0.5 -4.3,1.2 -6.3,5.1 -3,6 -2.9,12.6 0.3,19.1 1.4,2.7 3.2,5.2 4,5.5 1.6,0.7 33.3,-2.8 51.9,-5.6 17.4,-2.7 17,-2.7 16.3,1.2 -0.4,1.8 -2,8.5 -3.7,14.8 -4.6,17.6 -4.1,29.1 2.2,41.7 3.4,7 3.3,8.1 -2,14l-3.7,4.3 -4.7,-3.5c-2.7,-1.9 -4.8,-4.3 -4.8,-5.3 0,-2.5 -2,-4.2 -5,-4.2 -3.3,-0 -5,1.7 -5,5.1 0,3.5 2.3,5.2 6.2,4.7 2.4,-0.4 4.2,0.2 7.5,2.5 2.7,1.9 3.9,3.4 3.4,4.1 -11.8,15.1 -36.1,50.6 -36.1,52.8 0,1.8 3.9,8.5 6.6,11.2 4.4,4.5 12.6,7.8 16.9,7 4.2,-0.8 5.5,-2.5 17.1,-22.4 7.8,-13.5 24.4,-46.9 24.4,-49.1 0,-0.8 1,-0.9 3.1,-0.5 1.7,0.3 6.1,0.6 9.8,0.6l6.6,0.1 9.2,18.7c8.4,17.1 22.7,41.8 28.9,49.9 3,4 5.4,4.2 14.7,1.3 7.7,-2.4 12.3,-6.4 13.3,-11.5 0.6,-3.2 -0.2,-4.7 -7.4,-15.8 -4.3,-6.7 -10.7,-16.7 -14.2,-22.2 -5.8,-9.3 -13.6,-19.8 -22.7,-30.3 -3.6,-4.3 -3.7,-4.4 -1.9,-7 5.5,-8.6 7.5,-16.4 7.6,-29.4 0,-9 -0.3,-10.5 -4.5,-21.9 -2.5,-6.7 -4.5,-12.8 -4.5,-13.6 0,-1.8 1.8,-1.7 26.5,2.1 12.1,1.9 26.9,4 32.8,4.6 10.3,1.2 10.9,1.2 13.5,-0.7 3.8,-2.8 5.5,-8.5 4.9,-16.2 -0.7,-9.6 -0.5,-9.5 -25.7,-12.5 -11.8,-1.4 -23.6,-2.9 -26.2,-3.2 -2.7,-0.3 -4.8,-0.9 -4.8,-1.2 0,-2.6 6.5,-15 8.3,-15.8 2.5,-1 3.5,-5.8 1.6,-8 -1.4,-1.7 -6,-1.9 -7.7,-0.2 -1.5,1.5 -1.6,6 -0.1,7.5 0.8,0.8 0.1,3.3 -2.4,8.9 -1.9,4.4 -3.8,7.8 -4.3,7.7 -0.5,-0.1 -6.9,-0.5 -14.2,-0.9 -8.6,-0.4 -13.2,-1.1 -13.1,-1.8 0,-0.6 2.8,-2.9 6.2,-5.1 11.1,-7.4 17.7,-20 17.7,-34.1 0,-9.2 -2.5,-16.7 -8.1,-24.7l-4.1,-5.9 2.3,-2.4c1.3,-1.3 3.4,-2.4 4.9,-2.4 3.4,-0 5,-1.7 5,-5.5 0,-3.9 -1.6,-5.5 -5.6,-5.5 -3.9,-0 -5.7,2.1 -5.6,6.3 0,2 -0.7,4 -2,5.4l-2.1,2.2 -2.8,-2 -2.8,-1.9 2.3,-6.8c1.9,-5.5 2.7,-6.8 4.7,-7 1.3,-0.2 3,-0.9 3.7,-1.4 1.5,-1.3 1.6,-7 0,-8.6 -1.6,-1.6 -8.3,-1.5 -9.5,-0zM134,7.5c0,2.1 -0.5,2.5 -2.9,2.5 -1.6,-0 -3.1,-0.6 -3.4,-1.3 -0.8,-2.3 0.5,-3.7 3.4,-3.7 2.4,-0 2.9,0.4 2.9,2.5zM143,22.5c0,2 -0.5,2.5 -2.4,2.5 -1.3,-0 -2.6,-0.6 -2.9,-1.3 -0.7,-2.2 0.4,-3.7 2.9,-3.7 1.9,-0 2.4,0.5 2.4,2.5zM60,80.5c0,2 -0.5,2.5 -2.4,2.5 -1.3,-0 -2.6,-0.6 -2.9,-1.3 -0.7,-2.2 0.4,-3.7 2.9,-3.7 1.9,-0 2.4,0.5 2.4,2.5zM162,85c0,1.3 -0.7,2 -2,2 -1.3,-0 -2,-0.7 -2,-2 0,-1.3 0.7,-2 2,-2 1.3,-0 2,0.7 2,2zM56,203c0,1.3 -0.7,2 -2,2 -1.3,-0 -2,-0.7 -2,-2 0,-1.3 0.7,-2 2,-2 1.3,-0 2,0.7 2,2z" stroke="#000000" id="path_0"/><g id="g_0"><path fill="#FFFFFF" d="M127.8,6.2c-0.9,2.4 0.4,3.8 3.3,3.8 2.4,-0 2.9,-0.4 2.9,-2.5 0,-2.1 -0.5,-2.5 -2.9,-2.5 -1.6,-0 -3.1,0.6 -3.3,1.2z" stroke="#000000"/><path fill="#FFFFFF" d="M137.8,21.2c-0.9,2.3 0.3,3.8 2.8,3.8 1.9,-0 2.4,-0.5 2.4,-2.5 0,-2 -0.5,-2.5 -2.4,-2.5 -1.3,-0 -2.6,0.6 -2.8,1.2z" stroke="#000000"/><path fill="#FFFFFF" d="M93.2,29.1c-7.1,2.8 -16.3,11.4 -19.9,18.7 -2.5,5.1 -2.8,6.8 -2.8,15.7 0,8.9 0.3,10.6 2.7,15.6 3.6,7.2 10.9,14.6 17.8,17.8 4.6,2.2 6.9,2.6 14.5,2.6 7.6,-0 9.9,-0.4 14.5,-2.6 6.9,-3.2 14.2,-10.6 17.8,-17.8 2.4,-5 2.7,-6.7 2.7,-15.6 0,-8.9 -0.3,-10.6 -2.8,-15.7 -3.7,-7.5 -12.8,-16 -20.2,-18.7 -7.3,-2.7 -17.1,-2.7 -24.3,-0z" stroke="#000000"/><path fill="#FFFFFF" d="M54.8,79.2c-0.9,2.3 0.3,3.8 2.8,3.8 1.9,-0 2.4,-0.5 2.4,-2.5 0,-2 -0.5,-2.5 -2.4,-2.5 -1.3,-0 -2.6,0.6 -2.8,1.2z" stroke="#000000"/><path fill="#FFFFFF" d="M158,85c0,1.3 0.7,2 2,2 1.3,-0 2,-0.7 2,-2 0,-1.3 -0.7,-2 -2,-2 -1.3,-0 -2,0.7 -2,2z" stroke="#000000"/><path fill="#FFFFFF" d="M99.7,107.7c-0.4,0.6 -6.4,1.4 -13.4,1.7 -18.7,1 -38.8,2.5 -55.3,4.2 -23.3,2.3 -22.7,2.2 -23.9,5.7 -1.6,4.4 -1.3,9.1 0.6,13.2 1.7,3.6 1.8,3.6 6.8,3 31.6,-3.5 60.2,-7.6 62.5,-9 0.6,-0.3 1,-1.3 1,-2.1 0,-0.8 1,-1.4 2.5,-1.4 2.5,-0 2.6,-0 1.9,6.7 -0.4,3.8 -1,7.5 -1.5,8.4 -0.5,0.9 -2.3,7.4 -4,14.4 -4.3,17.4 -3.9,26 1.4,36.8 3.9,7.9 4.4,10.5 2.6,13.8 -0.6,1.1 -5.3,7.5 -10.5,14.1 -11.8,15 -19,25.1 -28.1,39.4l-7.1,11.2 1.8,2.8c3.6,5.9 12,11.2 15.9,9.9 4.7,-1.5 38.7,-65.3 36.1,-67.9 -1.5,-1.5 -1.2,-4.2 0.6,-5.7 1.3,-1 2.4,-0.9 6.5,0.5 3.8,1.4 6.5,1.7 11.7,1.2 13.8,-1.4 12.7,-1.6 12.8,2.9 0.1,6.5 13.5,33 29.2,57.8l7.4,11.8 4.2,-0.6c5.4,-0.9 11.7,-4.4 13.4,-7.5 1.4,-2.4 1,-3.2 -7.4,-16.2 -4.9,-7.6 -11.7,-18.2 -15.2,-23.5 -3.4,-5.4 -9.3,-13.5 -13.1,-17.9 -7.3,-8.6 -10.1,-13.1 -10.1,-16.2 0,-1.1 1.7,-5.5 3.7,-9.8 3.5,-7.3 3.8,-8.7 4.1,-18.6 0.4,-10.6 0.4,-10.6 -4.7,-25.3 -2.8,-8.1 -5.8,-15.7 -6.6,-16.8 -3.3,-4.8 -0.7,-8.9 3.4,-5.3 1.7,1.4 37.1,7.4 60,10.2 16.4,2 16.6,1.9 16.6,-8.5 0,-3.8 -0.3,-7.2 -0.6,-7.6 -0.4,-0.3 -11.6,-1.9 -25,-3.5 -21,-2.6 -34.9,-3.9 -72,-6.7 -4.7,-0.3 -7.9,-0.2 -8.2,0.4z" stroke="#000000"/><path fill="#FFFFFF" d="M52,203c0,1.3 0.7,2 2,2 1.3,-0 2,-0.7 2,-2 0,-1.3 -0.7,-2 -2,-2 -1.3,-0 -2,0.7 -2,2z" stroke="#000000"/></g></svg>