<svg id="vector" xmlns="http://www.w3.org/2000/svg" width="200" height="200" viewBox="0 0 750 750"><g id="g_0"><path fill="#000000" d="M558,70.2c-23,1.7 -75.7,2.7 -113.5,2.2 -22.5,-0.4 -70,-0.1 -105.5,0.6 -35.5,0.6 -87,1.5 -114.5,2 -30.7,0.5 -52.3,1.3 -55.9,2 -17.5,3.4 -24.4,9.9 -28.1,26 -4.5,19.7 -10.1,34.2 -15.8,40.7 -6.6,7.5 -18.3,10.8 -45.2,12.8 -24.6,1.8 -33.3,4.4 -41,12 -1.9,2 -4.4,5.3 -5.5,7.5 -4.7,9.2 -4.8,11.2 -5.4,106.2 -0.3,49.4 -1.1,102.7 -1.7,118.5 -1.3,32.9 -0.6,86.3 1.6,130.4 1.6,30.8 6.5,70.3 10.3,84.1 2.6,9.2 7.5,16.9 15.3,24.2 16.6,15.4 34.4,20.8 79.6,24.1 11.4,0.8 26.9,2.5 34.3,3.6 11.8,1.9 18.6,2.3 53.5,2.6 22,0.2 62.5,-0 90,-0.4 27.5,-0.4 63.5,-0.4 80,-0 17.5,0.4 50.3,0.3 79,-0.3 27,-0.6 76,-1.5 109,-2 33,-0.5 62.6,-1.4 65.7,-2 8.4,-1.5 21.3,-5.7 29.3,-9.6 24.3,-11.8 31.7,-27.6 34.4,-73.9 5.7,-94 6.2,-173.2 2.1,-346 -0.5,-22.6 -1.2,-57.9 -1.6,-78.5 -0.8,-57.8 -1.9,-65.3 -10.6,-73.6 -5.7,-5.4 -9.7,-7.7 -19.3,-11l-8,-2.8 -51.5,-0.1c-28.3,-0 -55.8,0.3 -61,0.7zM671.1,101.5c3.4,3.6 4.8,4.5 7.6,4.5 2.1,-0 3.6,-0.6 3.9,-1.5 0.4,-0.8 1.1,-1.5 1.6,-1.5 1.4,-0 4.7,4.2 4.8,6.1 0,0.9 0.7,2.2 1.5,2.9 1.3,1.1 1.5,5.8 1.5,31.5 0,25.7 -0.2,30.4 -1.5,31.5 -1.2,1 -1.5,3.9 -1.5,14.1 0,10.8 0.2,12.9 1.5,12.9 1.3,-0 1.5,2.1 1.5,12.9 0,10.2 -0.3,13.1 -1.5,14.1 -1.3,1.1 -1.5,6.2 -1.5,35.1 0,29.5 -0.2,33.9 -1.5,33.9 -1.1,-0 -1.5,-1.2 -1.5,-4.5 0,-3.4 -0.4,-4.5 -1.5,-4.5 -1.3,-0 -1.5,1.9 -1.3,13.2l0.3,13.3 2.5,-0c2.4,-0 2.5,-0.3 2.8,-7.3 0.2,-5.5 0.6,-7.2 1.7,-7.2 2.3,-0 2.2,46.2 0,48 -1.3,1.1 -1.5,15.2 -1.5,115.5 0,100.3 -0.2,114.4 -1.5,115.5 -0.9,0.8 -1.5,3 -1.5,6 0,3 -0.6,5.2 -1.5,6 -0.8,0.7 -1.5,2.7 -1.5,4.5 0,1.8 -0.7,3.8 -1.5,4.5 -0.8,0.7 -1.5,2 -1.5,2.9 0,1 -1.3,3 -3,4.6 -1.6,1.6 -3,3.6 -3,4.5 0,0.8 -2.7,4.2 -6,7.5 -3.2,3.2 -6,6.8 -6.2,7.9 -0.2,1.2 -1.2,2.2 -2.4,2.4 -1.1,0.2 -4,2.3 -6.4,4.7 -4.1,4.2 -4.8,4.5 -9.7,4.5 -4,-0 -5.3,-0.4 -5.3,-1.5 0,-1 -1,-1.5 -3,-1.5 -2,-0 -3,-0.5 -3,-1.5 0,-1.2 -1.7,-1.5 -9,-1.5 -7.3,-0 -9,0.3 -9,1.5 0,1.2 1.7,1.5 9,1.5 7.3,-0 9,0.3 9,1.5 0,0.8 0.7,1.5 1.5,1.5 0.8,-0 1.5,0.7 1.5,1.5 0,0.8 -0.7,1.5 -1.5,1.5 -0.8,-0 -1.5,-0.7 -1.5,-1.5 0,-0.9 -0.9,-1.5 -2.4,-1.5 -1.3,-0 -2.9,0.7 -3.6,1.5 -1.1,1.3 -14.7,1.5 -111,1.5 -96.3,-0 -109.9,0.2 -111,1.5 -1.1,1.3 -15.8,1.5 -121.4,1.5l-120.3,-0 -2,-2.3c-1.2,-1.2 -2.3,-3.1 -2.5,-4.2 -0.2,-1.5 -1.2,-2.1 -4,-2.3 -2,-0.2 -4.2,-1 -4.8,-1.8 -1.8,-2.1 -28.2,-2.1 -30,0.1 -0.7,0.8 -2.8,1.5 -4.7,1.5 -2.1,-0 -3.6,0.6 -3.9,1.5 -0.8,1.9 -3,1.9 -3.8,-0 -0.3,-0.8 -1.4,-1.5 -2.4,-1.5 -1.1,-0 -2.5,-0.7 -3.2,-1.5 -0.7,-0.8 -2,-1.5 -3,-1.5 -1,-0 -2.3,-0.7 -3,-1.5 -0.7,-0.8 -2,-1.5 -2.9,-1.5 -1,-0 -3,-1.3 -4.6,-3 -1.6,-1.6 -3.6,-3 -4.4,-3 -2.1,-0 -18.1,-16 -18.1,-18.1 0,-0.9 -0.7,-2.2 -1.5,-2.9 -0.8,-0.7 -1.5,-2.3 -1.5,-3.6 0,-1.5 -0.6,-2.4 -1.5,-2.4 -0.8,-0 -1.5,-0.7 -1.5,-1.5 0,-0.8 0.7,-1.5 1.5,-1.5 0.8,-0 1.5,0.7 1.5,1.5 0,2.1 1.6,1.9 4,-0.5 2.6,-2.6 2.5,-2.7 -0.9,-5.6 -1.6,-1.4 -3.1,-3.4 -3.3,-4.6 -0.2,-1.2 -1.2,-2.5 -2.3,-2.8 -1.1,-0.3 -3.2,-1.3 -4.5,-2.3 -2.3,-1.7 -2.4,-1.9 -0.8,-3.1 2.2,-1.6 2.3,-3.2 0.3,-4 -1.3,-0.5 -1.5,-12.3 -1.5,-98.4 0,-85.9 -0.2,-98.1 -1.5,-99.2 -1.3,-1.1 -1.5,-6.2 -1.5,-35.1 0,-18.8 0.4,-33.9 0.9,-33.9 0.5,-0 1.4,0.7 2.1,1.5 0.7,0.8 1.6,1.5 2.1,1.5 1.5,-0 1,-7.7 -0.6,-9 -2.1,-1.8 -2.1,-12 0,-12 1,-0 1.5,1 1.5,3 0,2 0.5,3 1.5,3 2.1,-0 2.1,-10.2 0,-12 -0.9,-0.7 -1.5,-2.9 -1.5,-5.1 0,-2.8 -0.4,-3.9 -1.5,-3.9 -1,-0 -1.5,1 -1.5,3 0,2 -0.5,3 -1.5,3 -1,-0 -1.5,-1 -1.5,-3 0,-2 0.5,-3 1.5,-3 2.2,-0 2.2,-22.2 0,-24 -1.2,-1 -1.5,-4.3 -1.5,-18.2 0,-14.1 -0.2,-17 -1.5,-17.4 -1.9,-0.8 -1.9,-3 0,-3.8 1.2,-0.4 1.5,-2.5 1.5,-9.9 0,-7 0.4,-9.8 1.4,-10.7 0.8,-0.6 1.6,-2.1 1.8,-3.3 0.3,-2 0.9,-2.2 8.4,-2.5 6.3,-0.2 8.4,0.1 9.4,1.3 1.8,2.2 28.2,2.2 30,-0 0.7,-0.8 2,-1.5 3,-1.5 1,-0 2.3,0.7 3,1.5 1.8,2.2 33,2.2 33,-0 0,-1.1 2,-1.5 10.3,-1.7l10.2,-0.3 0.5,-41.5 0.5,-41.5 8.1,-0.3c6.3,-0.2 8.4,0.1 9.4,1.3 0.7,0.8 2.7,1.5 4.5,1.5 1.8,-0 3.8,0.7 4.5,1.5 0.8,0.9 3,1.5 6,1.5 3,-0 5.2,-0.6 6,-1.5 0.8,-0.9 3,-1.5 6,-1.5 3,-0 5.2,0.6 6,1.5 1,1.2 3.7,1.5 12.6,1.5 9.5,-0 11.4,-0.3 11.4,-1.5 0,-1.2 -1.3,-1.5 -6,-1.5 -4.7,-0 -6,-0.3 -6,-1.5 0,-1.3 7.1,-1.5 57.9,-1.5 50.2,-0 58,0.2 59.1,1.5 0.9,1 3.2,1.5 7.5,1.5 4.3,-0 6.6,0.5 7.5,1.5 0.7,0.8 2,1.5 3,1.5 1,-0 2.3,-0.7 3,-1.5 0.7,-0.8 2.8,-1.5 4.7,-1.5 2.1,-0 3.6,-0.6 3.9,-1.5 0.4,-0.8 1.2,-1.5 1.9,-1.5 0.7,-0 1.5,0.7 1.9,1.5 0.3,0.8 1.4,1.5 2.4,1.5 1.1,-0 2.5,-0.7 3.2,-1.5 0.7,-0.8 2,-1.5 3,-1.5 1,-0 2.3,0.7 3,1.5 0.9,1.1 3.3,1.5 9.2,1.5 6.1,-0 8,0.3 8.4,1.5 0.4,0.8 1.2,1.5 1.9,1.5 0.7,-0 1.5,-0.7 1.9,-1.5 0.5,-1.3 4,-1.5 23.4,-1.5 19.2,-0 23.2,-0.2 24.2,-1.5 1.1,-1.3 14,-1.5 105.2,-1.5 91.4,-0 103.9,-0.2 104.4,-1.5 0.9,-2.3 2.1,-1.8 6.5,3zM59,590.5c0,0.8 -0.7,1.5 -1.5,1.5 -0.8,-0 -1.5,-0.7 -1.5,-1.5 0,-0.8 0.7,-1.5 1.5,-1.5 0.8,-0 1.5,0.7 1.5,1.5z" stroke="#000000"/><path fill="#000000" d="M377,107.5c0,0.8 0.7,1.5 1.5,1.5 0.8,-0 1.5,-0.7 1.5,-1.5 0,-0.8 -0.7,-1.5 -1.5,-1.5 -0.8,-0 -1.5,0.7 -1.5,1.5z" stroke="#000000"/><path fill="#000000" d="M662,119.5c0,0.8 0.7,1.5 1.5,1.5 0.8,-0 1.5,-0.7 1.5,-1.5 0,-0.8 -0.7,-1.5 -1.5,-1.5 -0.8,-0 -1.5,0.7 -1.5,1.5z" stroke="#000000"/><path fill="#000000" d="M434,121.9c0,0.5 0.7,1.4 1.5,2.1 0.8,0.7 1.5,1.6 1.5,2.1 0,0.5 -54.3,1 -124.2,1.1l-124.3,0.3 -0.3,7.2c-0.3,8.1 -1.5,9.2 -4.7,4.3 -1.1,-1.6 -2.6,-3 -3.2,-3 -1.8,-0 -1.6,4.5 0.2,6 0.8,0.7 1.5,2 1.5,3 0,1 0.7,2.3 1.5,3 0.8,0.7 1.5,2 1.5,3 0,1 0.7,2.3 1.5,3 1.3,1.1 1.5,9.4 1.5,63.6 0,54.8 -0.2,62.4 -1.5,62.4 -1.2,-0 -1.5,-1.3 -1.5,-6 0,-4.7 -0.3,-6 -1.5,-6 -1.3,-0 -1.5,2.2 -1.5,13.5 0,11.3 0.2,13.5 1.5,13.5 0.8,-0 1.5,-0.7 1.5,-1.5 0,-0.8 0.7,-1.5 1.5,-1.5 0.8,-0 1.5,0.7 1.5,1.5 0,0.8 -0.7,1.5 -1.5,1.5 -1.3,-0 -1.5,2.5 -1.5,16.5 0,14 -0.2,16.5 -1.5,16.5 -0.8,-0 -1.5,0.7 -1.5,1.5 0,0.8 0.7,1.5 1.5,1.5 0.8,-0 1.5,-0.7 1.5,-1.5 0,-0.8 0.7,-1.5 1.5,-1.5 2.2,-0 2.2,13.2 0,15 -1.3,1 -1.5,5.1 -1.5,24.6 0,20.1 -0.2,23.4 -1.5,23.4 -1,-0 -1.5,-1 -1.5,-3 0,-2 -0.5,-3 -1.5,-3 -2.1,-0 -2.1,10.2 0,12 1.2,1 1.5,4.7 1.5,21 0,16.3 0.3,20 1.5,21 2.3,1.9 2.3,118.1 0,120 -1.2,1 -1.5,3.7 -1.5,12 0,8.3 -0.3,11 -1.5,12 -0.8,0.7 -1.5,2.7 -1.5,4.4 0,2.3 -0.9,4.1 -3,6.1 -1.6,1.6 -3,3.6 -3,4.5 0,1.9 -13,15 -15,15 -1.9,0.1 -6,3.4 -6,4.9 0,0.8 30.3,1.1 106.5,1.1 94,-0 106.5,0.2 106.5,1.5 0,0.9 -0.9,1.5 -2.4,1.5 -1.3,-0 -2.9,0.7 -3.6,1.5 -1,1.2 -4.9,1.5 -23.1,1.5 -18.8,-0 -21.9,0.2 -21.9,1.5 0,2.2 46.1,2.2 48,-0 0.8,-0.9 3,-1.5 6,-1.5 3,-0 5.2,-0.6 6,-1.5 1,-1.2 4.3,-1.5 18,-1.5 13.7,-0 17,-0.3 18,-1.5 1.1,-1.3 7,-1.5 42,-1.5 35,-0 40.9,0.2 42,1.5 1.8,2.2 27,2.2 27,-0 0,-0.8 -0.7,-1.5 -1.5,-1.5 -0.8,-0 -1.5,-0.7 -1.5,-1.5 0,-0.8 0.7,-1.5 1.5,-1.5 0.8,-0 1.5,0.7 1.5,1.5 0,2.2 22.2,2.2 24,-0 1.1,-1.3 7.5,-1.5 46.4,-1.5l45.2,-0 6.7,-6.8c3.7,-3.7 6.7,-7.4 6.7,-8.3 0,-0.8 1.4,-2.8 3,-4.4 1.7,-1.6 3,-3.9 3,-5.2 0,-1.4 0.6,-2.3 1.5,-2.3 1,-0 1.5,1 1.5,3 0,2 0.5,3 1.5,3 1.1,-0 1.5,-1.1 1.5,-3.8 0,-2.9 0.7,-4.5 3,-6.7l3,-2.9 0,-14.3c0,-12 -0.2,-14.3 -1.5,-14.3 -1.2,-0 -1.5,1.5 -1.5,7.5 0,6 -0.3,7.5 -1.5,7.5 -1.3,-0 -1.5,-12.8 -1.5,-108.9 0,-95.5 0.2,-109 1.5,-110.1 1.3,-1.1 1.5,-13.3 1.5,-99 0,-85.7 0.2,-97.9 1.5,-99 0.9,-0.8 1.5,-3 1.5,-6 0,-3 0.6,-5.2 1.5,-6 0.8,-0.7 1.5,-2.7 1.5,-4.5 0,-1.8 -0.7,-3.8 -1.5,-4.5 -0.8,-0.7 -1.5,-2.3 -1.5,-3.6 0,-2.7 -2.4,-3.3 -3.4,-0.9 -0.5,1.3 -11.8,1.5 -93.9,1.5 -81.9,-0 -93.6,-0.2 -94.7,-1.5 -0.9,-1.1 -3.5,-1.5 -10.5,-1.5 -7,-0 -9.6,-0.4 -10.5,-1.5 -0.8,-1 -3,-1.5 -6.2,-1.5 -3.4,-0 -5,0.4 -5.4,1.5 -0.4,0.8 -1.2,1.5 -1.9,1.5 -0.7,-0 -1.5,-0.7 -1.9,-1.5 -0.6,-1.6 -5.6,-2.1 -5.6,-0.6zM220.5,145.7c1.9,2.1 3.5,4.5 3.5,5.3 0,2 7,9 9.1,9 0.9,-0 4.2,2.7 7.3,6 5.9,6.1 7.6,7.2 7.6,4.5 0,-0.8 0.7,-1.5 1.5,-1.5 0.8,-0 1.5,0.7 1.5,1.5 0,0.8 -0.7,1.5 -1.5,1.5 -0.8,-0 -1.5,0.7 -1.5,1.5 0,0.9 0.9,1.5 2.3,1.5 1.3,-0 3.6,1.3 5.2,2.9 1.5,1.7 3.7,3.1 4.9,3.3 1.3,0.2 2.2,1.2 2.4,2.5 0.2,1.2 1,2.7 1.8,3.3 1.4,1.2 2,6 0.7,6 -0.3,-0 -1.4,-0.7 -2.4,-1.6 -1.7,-1.5 -2,-1.4 -4.5,1.5 -1.4,1.7 -3.4,3.1 -4.3,3.1 -1,-0 -3,1.3 -4.6,3 -1.6,1.6 -3.6,3 -4.4,3 -1.8,0.1 -9.1,6.5 -9.1,8 0,0.6 0.7,1 1.5,1 0.8,-0 1.5,0.7 1.5,1.5 0,0.8 -0.7,1.5 -1.5,1.5 -0.8,-0 -1.5,-0.7 -1.5,-1.5 0,-2.7 -2.9,-1.6 -3.2,1.2 -0.2,2 -1,2.9 -2.8,3.3 -2.9,0.7 -4.3,6 -1.6,6 0.9,-0 1.6,-0.7 1.6,-1.5 0,-0.8 0.7,-1.5 1.5,-1.5 0.8,-0 1.5,0.7 1.5,1.5 0,0.8 -0.7,1.5 -1.5,1.5 -1.3,-0 -1.5,3 -1.5,21 0,13.7 -0.4,21 -1,21 -0.6,-0 -2.5,-1.6 -4.3,-3.7 -3.1,-3.5 -3.2,-4 -3.7,-14.7l-0.5,-11.1 -2.7,-0.3c-3,-0.4 -3.8,-2.6 -1.2,-3.6 1.1,-0.4 1.4,-1.8 1.2,-5.8 -0.3,-4.6 -0.6,-5.3 -2.6,-5.6 -1.3,-0.2 -2.5,0.3 -2.8,1.2 -0.9,2.4 -3.4,1.9 -3.4,-0.7 0,-1.4 1.8,-4 4.5,-6.7l4.5,-4.4 0,-10.7c0,-8.2 -0.3,-10.9 -1.5,-11.9 -1,-0.8 -1.5,-3.1 -1.5,-6.6 0,-5.5 0.8,-6.6 3,-3.9 2.2,2.7 3,1.6 3,-4.5 0,-6.1 -0.8,-7.2 -3,-4.5 -2.4,2.9 -3,1.4 -3,-7 0,-6.7 0.3,-8.7 1.5,-9.1 0.8,-0.4 1.5,-1.2 1.5,-1.9 0,-0.7 -0.7,-1.5 -1.5,-1.9 -1.6,-0.6 -2.1,-5.6 -0.5,-5.6 0.5,-0 2.5,1.7 4.5,3.7zM329,147.5c0,1.4 -0.7,2.8 -1.5,3.1 -0.8,0.4 -1.5,1.2 -1.5,2 0,0.8 0.7,1.4 1.5,1.4 2.1,-0 1.9,1.6 -0.5,4 -2.4,2.4 -4,2.6 -4,0.5 0,-2.4 -1.9,-1.8 -4.7,1.5 -1.3,1.6 -3.3,3 -4.3,3 -1,-0 -2.3,0.7 -3,1.5 -0.8,0.9 -3,1.5 -5.9,1.5 -6.3,0.1 -11.9,4.7 -7.6,6.4 0.9,0.3 1.5,1.9 1.5,4.1 0,2.2 -0.6,3.8 -1.5,4.1 -0.8,0.4 -1.5,1.2 -1.5,2 0,1.9 4.9,1.8 5.6,-0.1 1.1,-2.7 3.4,-1.7 3.4,1.5l0,3 13.5,-0c10.9,-0 13.5,0.3 13.5,1.4 0,0.8 -0.6,1.6 -1.4,1.9 -0.8,0.3 -1.6,1.6 -1.8,2.9 -0.3,2.2 -0.8,2.3 -10.3,2.8l-10,0.5 -0.3,2.7c-0.2,2 0.1,2.8 1.2,2.8 0.9,-0 1.6,0.7 1.6,1.5 0,0.8 -0.7,1.5 -1.5,1.5 -0.8,-0 -1.5,-0.7 -1.5,-1.5 0,-0.9 -0.9,-1.5 -2.5,-1.5 -1.4,-0 -2.8,-0.7 -3.1,-1.5 -1.1,-2.7 -3.4,-1.7 -3.4,1.5 0,3.3 -1.1,3.8 -3,1.5 -0.7,-0.8 -1.6,-1.5 -2.1,-1.5 -0.5,-0 -0.9,5.4 -0.9,12 0,9.8 0.3,12 1.4,12 0.8,-0 1.6,1.2 1.8,2.7 0.2,1.9 1,2.9 2.8,3.3 1.5,0.4 2.6,1.5 3,3 0.4,1.5 1.4,2.6 2.7,2.8 1.2,0.2 2.7,1 3.3,1.8 0.8,0.9 3.3,1.4 7.3,1.4 4.9,-0 6.5,0.4 8.4,2.2 1.3,1.2 2.3,2.9 2.3,3.9 0,0.9 1.4,2.9 3,4.2 1.7,1.4 3,3 3,3.6 0,1.6 -4.6,1.3 -6,-0.4 -0.7,-0.8 -2.7,-1.5 -4.5,-1.5 -1.8,-0 -3.8,-0.7 -4.5,-1.5 -0.9,-1 -3.2,-1.5 -7.5,-1.5 -4.3,-0 -6.6,-0.5 -7.5,-1.5 -0.7,-0.8 -2.7,-1.5 -4.5,-1.5 -1.8,-0 -3.8,-0.7 -4.5,-1.5 -0.7,-0.8 -2.7,-1.5 -4.5,-1.5 -1.8,-0 -3.8,-0.7 -4.5,-1.5 -0.7,-0.8 -2,-1.5 -2.9,-1.5 -1.9,-0.1 -6.1,-3.4 -6.1,-4.9 0,-0.5 1.9,-1.1 4.2,-1.3 4.8,-0.3 6.2,-2.6 3.4,-5.7 -1.2,-1.3 -1.6,-4.7 -1.8,-15.6l-0.3,-14 -4.2,-0.3c-2.5,-0.2 -4.3,-0.8 -4.3,-1.5 0,-1.4 3.5,-3.9 6.5,-4.7 1.4,-0.4 2.1,-1.6 2.3,-4 0.2,-1.9 1,-4.2 1.8,-5.1 1,-1.1 1.4,-3.3 1.2,-6.5l-0.3,-4.9 -4.2,-0.3c-4.6,-0.3 -5.3,-1.2 -2.8,-3.2 1.4,-1.2 1.4,-1.5 0,-3 -2.1,-2.3 -1.9,-3 0.9,-3 1.3,-0 2.9,-0.7 3.6,-1.5 0.7,-0.8 2.7,-1.5 4.5,-1.5 1.8,-0 3.8,-0.7 4.5,-1.5 0.7,-0.8 2.7,-1.5 4.5,-1.5 1.8,-0 3.8,-0.7 4.5,-1.5 0.7,-0.8 2,-1.5 3,-1.5 1,-0 2.3,-0.7 3,-1.5 0.8,-0.9 3,-1.5 6,-1.5 3,-0 5.2,-0.6 6,-1.5 0.7,-0.8 2.8,-1.5 4.7,-1.5 2.1,-0 3.6,-0.6 3.9,-1.5 1,-2.5 3.4,-1.7 3.4,1zM212,155.5c0,6 -0.3,7.5 -1.5,7.5 -1.2,-0 -1.5,-1.5 -1.5,-7.5 0,-6 0.3,-7.5 1.5,-7.5 1.2,-0 1.5,1.5 1.5,7.5zM389,149.5c0.9,1 3.2,1.5 7.4,1.5 5.6,-0 6.5,0.3 9.1,3 1.6,1.6 3.9,3 5.2,3 1.4,-0 2.3,0.6 2.3,1.5 0,1.2 -2,1.5 -12,1.5 -6.6,-0 -12,0.4 -12,0.9 0,0.5 0.7,1.4 1.5,2.1 2.6,2.2 1.6,3 -3.7,3 -7.1,-0 -9.8,2.5 -9.8,9.1 0,2.9 0.6,5.1 1.5,5.9 0.8,0.7 1.5,2 1.5,3 0,1 -0.7,2.3 -1.5,3 -0.9,0.8 -1.5,3 -1.5,6 0,3 -0.6,5.2 -1.5,6 -1.1,0.9 -1.5,3.3 -1.5,9 0,5.7 0.4,8.1 1.5,9 0.8,0.7 1.5,2.7 1.5,4.5 0,1.8 -0.7,3.8 -1.5,4.5 -1.2,1 -1.5,4.7 -1.5,21.6 0,17.2 -0.2,20.4 -1.5,20.4 -1.1,-0 -1.5,-1.9 -1.7,-8.7 -0.3,-8.4 -0.4,-8.7 -2.8,-9.3l-2.5,-0.6 -0.3,-21.6c-0.2,-17.6 -0.5,-21.8 -1.7,-22.8 -2,-1.7 -2,-10.3 0,-12 1.2,-1 1.5,-3.8 1.5,-13.3 0,-11 -0.2,-12.3 -2.2,-14.4 -1.9,-2 -3.1,-2.3 -9.9,-2.3 -5.6,-0 -8,-0.4 -8.9,-1.5 -0.7,-0.8 -2.1,-1.5 -3.2,-1.5 -1,-0 -2.1,0.7 -2.4,1.5 -0.4,0.8 -1.3,1.5 -2.1,1.5 -1.1,-0 -1.3,-1.1 -1.1,-4.3 0.2,-3.4 0.7,-4.3 2.5,-4.5 1.2,-0.2 2.7,-1 3.3,-1.8 0.7,-0.8 2,-1.4 3,-1.4 1,-0 2.3,-0.7 3,-1.5 1,-1.2 4.7,-1.5 21,-1.5 16.3,-0 20,0.3 21,1.5zM305,170.5c0,0.8 -0.7,1.5 -1.5,1.5 -0.8,-0 -1.5,-0.7 -1.5,-1.5 0,-0.8 0.7,-1.5 1.5,-1.5 0.8,-0 1.5,0.7 1.5,1.5zM361.8,172.3c0.2,1.9 -0.1,2.7 -1.2,2.7 -1.1,-0 -1.6,-1 -1.6,-3.1 0,-3.8 2.4,-3.5 2.8,0.4zM260,173.5c0,0.8 -0.7,1.5 -1.5,1.5 -0.8,-0 -1.5,-0.7 -1.5,-1.5 0,-0.8 0.7,-1.5 1.5,-1.5 0.8,-0 1.5,0.7 1.5,1.5zM605.8,197.9c1.2,1.1 2.2,2.4 2.2,3 0,0.6 0.7,1.1 1.5,1.1 0.8,-0 1.5,0.7 1.5,1.5 0,0.8 -0.7,1.5 -1.5,1.5 -0.8,-0 -1.5,0.7 -1.5,1.5 0,0.8 -0.7,1.5 -1.5,1.5 -0.8,-0 -1.5,-0.7 -1.5,-1.5 0,-0.8 0.7,-1.5 1.5,-1.5 0.8,-0 1.5,-0.7 1.5,-1.5 0,-0.8 -0.7,-1.5 -1.5,-1.5 -0.8,-0 -1.5,0.7 -1.5,1.5 0,0.8 -0.5,1.5 -1.1,1.5 -0.6,-0 -2.2,1.3 -3.6,3 -1.3,1.6 -3.2,3 -4.1,3 -2.1,-0 -6.2,3.9 -6.2,6 0,2 6.9,8.7 9.5,9.2 4.5,0.8 1.3,8 -4,9 -1.1,0.2 -2.1,1.2 -2.3,2.3 -0.5,2.6 -10.2,12.5 -12.2,12.5 -1.5,-0.1 -6,-3.3 -6,-4.3 0,-0.3 2.7,-3.1 6,-6.3 3.3,-3.1 6,-6.4 6,-7.2 0,-2.1 -3.9,-6.2 -5.9,-6.2 -1.9,-0.1 -6.1,-3.4 -6.1,-4.8 0,-0.5 0.7,-1.2 1.5,-1.6 0.8,-0.3 1.5,-1.5 1.5,-2.6 0,-1.1 0.7,-2.3 1.5,-2.6 0.8,-0.4 1.5,-1.2 1.5,-2 0,-0.8 -0.7,-1.4 -1.5,-1.4 -0.8,-0 -1.5,-0.7 -1.5,-1.5 0,-0.8 0.7,-1.5 1.5,-1.5 0.8,-0 1.5,0.7 1.5,1.5 0,2.7 2.9,1.6 3.2,-1.3 0.2,-1.9 0.9,-2.8 2.5,-3 1.2,-0.2 2.7,-1 3.3,-1.8 0.7,-0.8 2,-1.4 2.9,-1.4 1,-0 3,-1.4 4.6,-3 3.3,-3.5 5.1,-3.7 8.3,-1.1zM491,200.5c0.7,0.8 3.4,1.5 6.3,1.7 4.8,0.3 5.2,0.5 5.2,2.8 0,1.8 -0.6,2.6 -2.2,2.8 -1.2,0.2 -2.7,1 -3.3,1.8 -0.7,0.8 -2,1.4 -2.9,1.4 -1.9,0.1 -6.1,3.4 -6.1,4.9 0,0.7 2.3,1.1 5.9,1.1 5.7,-0 6,-0.1 6.3,-2.7 0.4,-3.9 2.8,-4.2 2.8,-0.4 0,2.1 -0.5,3.1 -1.5,3.1 -1.2,-0 -1.5,1.3 -1.5,6 0,6.1 -0.7,7.2 -3,4.4 -0.9,-1 -2.6,-1.4 -4.9,-1.2 -3.1,0.3 -3.6,0.7 -3.6,2.8 0,2.4 0.3,2.5 7,3 6.7,0.5 7,0.6 7,3 0,2.5 -0.1,2.5 -9.5,2.8 -6.8,0.2 -9.9,0.7 -11.1,1.8 -2.6,2.3 -5.3,1.4 -5.7,-1.9 -0.2,-1.9 0.1,-2.7 1.2,-2.7 0.9,-0 1.6,-0.7 1.6,-1.5 0,-0.8 -0.7,-1.5 -1.5,-1.5 -0.8,-0 -1.5,0.7 -1.5,1.5 0,0.8 -0.7,1.5 -1.5,1.5 -1.1,-0 -1.5,-1.3 -1.5,-5.4 0,-3.5 0.5,-5.8 1.5,-6.6 1.1,-0.9 1.5,-3.3 1.5,-8.8 0,-7.4 0.1,-7.7 3.7,-11.4 4,-4.1 8.9,-5.1 11.3,-2.3zM383,203.5c0,0.8 -0.7,1.5 -1.5,1.5 -0.8,-0 -1.5,-0.7 -1.5,-1.5 0,-0.8 0.7,-1.5 1.5,-1.5 0.8,-0 1.5,0.7 1.5,1.5zM449,203.5c0,2 2.6,1.9 3.4,-0.1 0.3,-0.9 1.5,-1.4 2.8,-1.2l2.3,0.3 0,20.5 0,20.5 -5,0.3c-4.9,0.3 -5.1,0.2 -11,-5.8 -3.3,-3.3 -6.7,-6 -7.6,-6 -1,-0 -2.9,-1.4 -4.2,-3 -3.7,-4.3 -4.7,-3.8 -4.7,2.4 0,3.4 -0.5,5.8 -1.4,6.6 -0.8,0.6 -1.6,2.1 -1.8,3.3 -0.2,1.8 -1,2.2 -4.3,2.2l-4,-0 0,-19c0,-18.5 0.1,-19 2.1,-19.3 1.1,-0.2 2.7,0.4 3.4,1.3 0.7,0.8 2,1.5 3,1.5 1,-0 2.3,0.6 3,1.4 0.6,0.8 2.8,1.6 4.8,1.8 2.8,0.2 3.8,0.8 4,2.3 0.5,2.8 4.2,6.5 6.4,6.5 1,-0 2.1,0.7 2.4,1.5 0.4,0.8 1.2,1.5 2,1.5 1.1,-0 1.4,-1.7 1.4,-7 0,-5.4 0.4,-7.2 1.5,-7.6 0.8,-0.4 1.5,-1.2 1.5,-2 0,-0.8 -0.7,-1.4 -1.5,-1.4 -0.8,-0 -1.5,-0.7 -1.5,-1.5 0,-0.8 0.7,-1.5 1.5,-1.5 0.8,-0 1.5,0.7 1.5,1.5zM565.8,213.6c0.2,9 0,11.3 -1.3,12.4 -1.1,0.9 -1.5,3.3 -1.5,8.9 0,6.9 -0.3,8 -2.4,10 -3.1,2.9 -8.9,2.6 -9.4,-0.4 -0.2,-1.1 -1,-2.7 -1.7,-3.5 -0.7,-0.8 -1.5,-2.4 -1.7,-3.5 -0.2,-1.2 -1.3,-2.1 -2.6,-2.3 -1.3,-0.2 -2.6,-1 -2.9,-1.8 -0.3,-0.8 -1,-1.4 -1.5,-1.4 -1.4,-0 -4.7,4.2 -4.8,6.1 0,0.9 -0.7,2.2 -1.5,2.9 -0.8,0.7 -1.5,2.3 -1.5,3.6 0,5.5 -5.1,0.8 -6,-5.6 -0.4,-2.5 -1.1,-3.6 -2.5,-3.8 -2.7,-0.5 -6.5,-4.1 -6.5,-6.2 0,-0.9 -2,-3.6 -4.5,-6 -2.5,-2.4 -4.5,-5.1 -4.5,-6 0.1,-1.9 3.4,-6 4.9,-6 0.6,-0 1.1,-0.7 1.1,-1.5 0,-0.8 0.7,-1.5 1.5,-1.5 0.8,-0 1.5,0.7 1.5,1.5 0,0.8 0.7,1.5 1.5,1.5 0.9,-0 1.5,0.9 1.5,2.3 0,1.3 1.4,3.6 3,5.2 1.7,1.6 3,3.6 3,4.6 0,0.9 0.7,2.2 1.5,2.9 0.8,0.7 1.5,2.3 1.5,3.6 0,1.5 0.6,2.4 1.5,2.4 0.9,-0 1.5,-0.9 1.5,-2.4 0,-1.3 0.7,-2.9 1.5,-3.6 0.8,-0.7 1.5,-2 1.5,-2.9 0.1,-1.6 3.3,-6.1 4.5,-6.1 0.3,-0 1.7,1.3 3.1,2.9 1.4,1.6 3.5,3.1 4.7,3.3 1.6,0.2 2.3,1.1 2.5,3 0.5,4.5 3.2,3.5 3.2,-1.1 0,-2.2 0.6,-4.4 1.5,-5.1 1,-0.8 1.5,-3.1 1.5,-6.6 0,-4.1 -0.4,-5.4 -1.5,-5.4 -0.8,-0 -1.5,-0.7 -1.5,-1.5 0,-0.8 0.7,-1.5 1.5,-1.5 0.8,-0 1.5,0.7 1.5,1.5 0,0.8 0.7,1.5 1.5,1.5 0.9,-0 1.5,-0.9 1.5,-2.3 0,-1.3 0.3,-2.7 0.7,-3.1 0.4,-0.4 1.6,-0.6 2.8,-0.4 1.9,0.3 2,1.1 2.3,11.4zM305,224c0,0.5 -0.9,1.9 -2.1,3.1 -2,2 -2.1,2 -4.2,0.2 -1.2,-1 -2.4,-1.9 -2.6,-2 -0.1,-0.1 0,-0.6 0.4,-1.2 0.8,-1.4 8.5,-1.4 8.5,-0.1zM326,236.5c0,0.8 -0.7,1.5 -1.5,1.5 -0.8,-0 -1.5,-0.7 -1.5,-1.5 0,-0.8 0.7,-1.5 1.5,-1.5 0.8,-0 1.5,0.7 1.5,1.5zM218,247c0,2 -0.5,3 -1.5,3 -1,-0 -1.5,-1 -1.5,-3 0,-2 0.5,-3 1.5,-3 1,-0 1.5,1 1.5,3zM362,247c0,2 -0.5,3 -1.5,3 -1,-0 -1.5,-1 -1.5,-3 0,-2 0.5,-3 1.5,-3 1,-0 1.5,1 1.5,3zM626,281.5c0,0.8 -0.7,1.5 -1.5,1.5 -0.8,-0 -1.5,-0.7 -1.5,-1.5 0,-0.8 0.7,-1.5 1.5,-1.5 0.8,-0 1.5,0.7 1.5,1.5zM257,283.9c0,0.5 -0.7,1.4 -1.5,2.1 -0.8,0.7 -1.5,1.6 -1.5,2.1 0,1.5 7.7,1 9,-0.6 1,-1.2 4.4,-1.5 18.6,-1.5 14.8,-0 17.4,-0.2 17.4,-1.5 0,-0.8 0.7,-1.5 1.5,-1.5 0.8,-0 1.5,0.7 1.5,1.5 0,0.8 -0.7,1.5 -1.5,1.5 -0.8,-0 -1.5,0.7 -1.5,1.5 0,1.2 1.9,1.5 11.4,1.5 8.9,-0 11.6,0.3 12.6,1.5 0.9,1.1 3.2,1.5 8.1,1.5 6.9,-0 8.2,-0.7 5.4,-3 -0.8,-0.7 -1.5,-1.6 -1.5,-2.1 0,-1.5 7.7,-1 9,0.6 1,1.2 3.7,1.5 12.6,1.5 9.5,-0 11.4,0.3 11.4,1.5 0,0.8 0.7,1.5 1.5,1.5 0.8,-0 1.5,-0.7 1.5,-1.5 0,-0.8 -0.7,-1.5 -1.5,-1.5 -2.2,-0 -1.8,-1.9 0.8,-4.1 1.9,-1.6 4,-1.8 15,-1.9 10.6,-0 12.7,0.2 12.7,1.5 0,1.1 -1.2,1.5 -4.5,1.5 -3.3,-0 -4.5,0.4 -4.5,1.5 0,1.1 1.1,1.5 3.9,1.5 2.2,-0 4.4,0.6 5.1,1.5 0.7,0.9 3.5,1.5 7.8,1.7l6.7,0.3 0.3,15.6c0.2,13 0,15.8 -1.3,16.9 -1.1,0.9 -1.5,3.4 -1.5,10.5 0,7 -0.4,9.6 -1.5,10.5 -0.8,0.7 -1.5,2 -1.5,3 0,1 0.7,2.3 1.5,3 1.3,1.1 1.5,5.8 1.5,31.5 0,25.7 0.2,30.4 1.5,31.5 1.9,1.6 1.9,4.4 0,6 -2,1.6 -2,6 0,6 1.2,-0 1.5,1.3 1.5,6 0,4.7 -0.3,6 -1.5,6 -1.2,-0 -1.5,-1.3 -1.5,-6.1 0,-6 0,-6 -2.7,-5.7 -3.3,0.4 -4.2,3.2 -1.8,5.8 0.9,1 1.5,2.7 1.3,3.7 -0.3,1.6 -1.8,1.8 -17.3,2.1 -13.4,0.2 -17.2,0.6 -18.6,1.8 -1.3,1.2 -4.1,1.4 -14,1.2l-12.4,-0.3 -0.3,-2.8c-0.4,-2.9 -2.6,-3.7 -3.6,-1.2 -0.3,0.9 -1.8,1.5 -3.9,1.5 -1.9,-0 -4,0.7 -4.7,1.5 -0.9,1.1 -3.5,1.5 -10.5,1.5 -7,-0 -9.6,0.4 -10.5,1.5 -0.9,1.1 -3.5,1.5 -10.5,1.5 -7,-0 -9.6,-0.4 -10.5,-1.5 -0.7,-0.8 -2.3,-1.5 -3.6,-1.5 -1.5,-0 -2.4,-0.6 -2.4,-1.5 0,-0.9 -0.9,-1.5 -2.4,-1.5 -1.3,-0 -2.9,-0.7 -3.6,-1.5 -1.4,-1.7 -6,-2 -6,-0.4 0,2.2 4.5,4.8 8.3,4.9 3.6,-0 3.8,0.2 3.5,2.7l-0.3,2.8 -31,-0 -31,-0 -0.3,-6.6c-0.2,-5 0.1,-6.9 1.3,-7.9 0.8,-0.7 1.5,-2.7 1.5,-4.5 0,-1.8 0.7,-3.8 1.5,-4.5 1,-0.9 1.5,-3.2 1.5,-7.7 0,-4.7 -0.4,-6.5 -1.5,-6.9 -0.8,-0.4 -1.5,-1.2 -1.5,-1.9 0,-0.7 0.7,-1.5 1.5,-1.9 2.7,-1 1.9,-6.9 -1.5,-10.1l-3,-2.9 0,-14.3c0,-12 0.2,-14.3 1.5,-14.3 1.1,-0 1.5,1.2 1.5,4.5 0,3.3 0.4,4.5 1.5,4.5 1.2,-0 1.5,-1.4 1.5,-6.9 0,-4.9 0.4,-7.2 1.5,-8.1 0.8,-0.7 1.5,-2 1.5,-3 0,-1 -0.7,-2.3 -1.5,-3 -0.9,-0.8 -1.5,-3 -1.5,-6 0,-3 -0.6,-5.2 -1.5,-6 -0.8,-0.7 -1.5,-2 -1.5,-3 0,-1 -0.7,-2.3 -1.5,-3 -1.3,-1 -1.5,-5.2 -1.5,-25.5 0,-13.3 0.3,-24.5 0.7,-24.8 1,-1 35.3,-0.8 35.3,0.2zM545,287.5c0.7,0.8 2,1.5 3,1.5 1,-0 2.3,0.7 3,1.5 0.9,1.1 3.5,1.5 10.5,1.5 7,-0 9.6,-0.4 10.5,-1.5 1,-1.3 5,-1.5 24,-1.5 19.3,-0 22.9,-0.2 24,-1.5 0.7,-0.9 2.3,-1.5 3.4,-1.3 1.9,0.3 2.1,1.1 2.4,8.2 0.2,5.7 -0.1,8.3 -1.2,9.5 -0.7,0.9 -1.6,2.5 -1.8,3.6 -0.3,1.9 -1.2,2 -26.4,2.3 -22.4,0.2 -26.3,-0 -27.4,-1.3 -1.8,-2.2 -25.2,-2.2 -27,-0 -1.1,1.3 -7,1.5 -42,1.5 -35,-0 -40.9,-0.2 -42,-1.5 -1,-1.2 -3.7,-1.5 -12.2,-1.5 -8.7,-0 -11,0.3 -11.4,1.5 -0.4,0.8 -1.3,1.5 -2,1.5 -1.2,-0 -1.4,-1.9 -1.2,-10.3l0.3,-10.2 26.1,-0.3c21.7,-0.2 26.4,-0.5 27.4,-1.7 1.9,-2.2 58.1,-2.2 60,-0zM530,344.5c1,1.2 4.7,1.5 18.3,1.7l17.1,0.3 0.6,2.5c0.5,2.2 1.2,2.5 5.4,2.8 3.3,0.2 5.3,-0.2 6.6,-1.3 1.5,-1.3 4.7,-1.5 23.1,-1.3l21.4,0.3 0,7 0,7 -12.7,0.3c-9.6,0.2 -12.9,0.6 -13.8,1.7 -0.9,1.1 -3.4,1.5 -9,1.5 -5.7,-0 -8.1,0.4 -9,1.5 -1,1.3 -5.2,1.5 -25.5,1.5 -20.3,-0 -24.5,-0.2 -25.5,-1.5 -1,-1.3 -5,-1.5 -23.9,-1.5l-22.7,-0 -2.9,-3 -2.9,-3 -15.9,-0c-12.2,-0 -15.8,0.3 -15.5,1.2 0.3,0.9 3.6,1.4 10.6,1.6 8.3,0.2 10.2,0.6 10.2,1.8 0,1.2 -1.9,1.4 -11.7,1.2l-11.8,-0.3 0,-8.5 0,-8.5 8.2,-0.3c5.6,-0.2 8.5,-0.7 9.3,-1.7 1,-1.2 3.8,-1.5 12,-1.5 8.3,-0 11,-0.3 12,-1.5 1.8,-2.2 46.1,-2.2 48,-0zM473,404.5c1,1.2 3.7,1.5 12,1.5 8.3,-0 11,-0.3 12,-1.5 1,-1.2 3.8,-1.5 13.5,-1.5 9.7,-0 12.5,0.3 13.5,1.5 0.8,0.9 3,1.5 6,1.5 3,-0 5.2,-0.6 6,-1.5 0.9,-1.1 3.3,-1.5 9,-1.5 5.7,-0 8.1,0.4 9,1.5 1.9,2.3 52.1,2.2 54,-0 1,-1.2 3.1,-1.5 9.4,-1.3l8.1,0.3 0.3,7.2c0.2,4 0,7.3 -0.4,7.3 -0.4,-0 -1.6,-0.8 -2.7,-1.7 -1.8,-1.7 -1.9,-1.7 -2.8,-0 -0.6,0.9 -1.8,1.7 -2.8,1.7 -1,-0 -2.4,0.7 -3.1,1.5 -0.9,1.1 -3.3,1.5 -9,1.5 -5.7,-0 -8.1,0.4 -9,1.5 -1,1.2 -3.7,1.5 -12.2,1.5 -8.7,-0 -11,0.3 -11.4,1.5 -0.4,0.8 -1.2,1.5 -1.9,1.5 -0.7,-0 -1.5,-0.7 -1.9,-1.5 -0.4,-1.3 -3.4,-1.5 -17.6,-1.5 -14.2,-0 -17.2,-0.2 -17.6,-1.5 -0.4,-0.8 -1.2,-1.5 -1.9,-1.5 -0.7,-0 -1.5,0.7 -1.9,1.5 -0.3,0.9 -1.8,1.5 -3.9,1.5 -1.9,-0 -4,0.7 -4.7,1.5 -1,1.2 -3.8,1.5 -13.5,1.5 -9.7,-0 -12.5,-0.3 -13.5,-1.5 -1,-1.2 -3.7,-1.5 -12,-1.5 -8.3,-0 -11,-0.3 -12,-1.5 -1,-1.2 -3.7,-1.5 -12.2,-1.5 -8.7,-0 -11,0.3 -11.4,1.5 -0.4,0.8 -1.2,1.5 -2,1.5 -1.1,-0 -1.4,-2.1 -1.4,-9.8 0,-5.4 0.3,-10.2 0.7,-10.5 0.3,-0.4 6.8,-0.7 14.3,-0.7 11,-0 14,0.3 15,1.5zM398,446.5c0,0.8 -0.7,1.5 -1.5,1.5 -0.8,-0 -1.5,-0.7 -1.5,-1.5 0,-0.8 0.7,-1.5 1.5,-1.5 0.8,-0 1.5,0.7 1.5,1.5zM413,446.5c0,0.8 -0.7,1.5 -1.5,1.5 -0.8,-0 -1.5,-0.7 -1.5,-1.5 0,-0.8 0.7,-1.5 1.5,-1.5 0.8,-0 1.5,0.7 1.5,1.5zM224,461.5c0,1 -1,1.5 -3,1.5 -2,-0 -3,-0.5 -3,-1.5 0,-1 1,-1.5 3,-1.5 2,-0 3,0.5 3,1.5zM359.4,461.5c0.5,1.3 6,1.5 41.4,1.5 35.2,-0 41.1,-0.2 42.2,-1.5 1.9,-2.3 97.1,-2.3 99,-0 1,1.3 7.5,1.5 43.9,1.7l42.6,0.3 0,10 0,10 -22.2,0.3c-19.4,0.2 -22.3,-0 -22.3,-1.3 0,-1.1 1.1,-1.5 4.5,-1.5 3.3,-0 4.5,-0.4 4.5,-1.5 0,-1.3 -6.1,-1.5 -48.9,-1.5 -42.2,-0 -49,-0.2 -50.1,-1.5 -1.3,-1.6 -6,-2.1 -6,-0.6 0,0.5 0.7,1.4 1.5,2.1 0.8,0.7 1.5,1.6 1.5,2.1 0,0.5 -21.5,0.9 -48.9,0.9 -42.4,-0 -49,-0.2 -50.1,-1.5 -1.1,-1.3 -5.5,-1.5 -31.8,-1.3l-30.6,0.3 -0.6,2.5 -0.6,2.5 -54.9,-0 -55,-0 0,-8.5 0,-8.5 6.6,-0.3c5,-0.2 6.9,0.1 7.9,1.3 1.8,2.1 12,2.1 12,-0 0,-1.1 1.3,-1.5 5.4,-1.5 3.5,-0 5.8,-0.5 6.6,-1.5 1,-1.2 4.7,-1.5 21,-1.5 16.3,-0 20,0.3 21,1.5 0.9,1.1 3.3,1.5 9,1.5 5.7,-0 8.1,-0.4 9,-1.5 1,-1.2 4.5,-1.5 19.7,-1.5 15.4,-0 18.5,-0.2 18.9,-1.5 0.4,-0.8 1.2,-1.5 1.9,-1.5 0.7,-0 1.5,0.7 1.9,1.5zM388.8,482.7c0.2,0.9 -1,1.3 -4.2,1.3 -3.5,-0 -4.6,-0.4 -4.6,-1.6 0,-1.2 0.9,-1.4 4.2,-1.2 2.3,0.2 4.3,0.9 4.6,1.5zM578,482.5c0,1.1 -1.2,1.5 -4.5,1.5 -3.3,-0 -4.5,-0.4 -4.5,-1.5 0,-1.1 1.2,-1.5 4.5,-1.5 3.3,-0 4.5,0.4 4.5,1.5zM506,509.5c0.8,0.9 3,1.5 6,1.5 3,-0 5.2,0.6 6,1.5 0.9,1.1 3.3,1.5 9,1.5 5.7,-0 8.1,-0.4 9,-1.5 1,-1.2 3.8,-1.5 13.5,-1.5 9.7,-0 12.5,0.3 13.5,1.5 2.2,2.6 7.3,1.8 10.5,-1.5l2.9,-3 21.6,0.2 21.5,0.3 0,11.5 0,11.5 -74.1,0.3c-65,0.2 -74.3,-0 -75.4,-1.3 -1.9,-2.3 -85.1,-2.3 -87,-0 -0.8,1 -3.1,1.5 -6.6,1.5 -4.1,-0 -5.4,0.4 -5.4,1.5 0,1.2 -1.7,1.5 -9,1.5 -7.3,-0 -9,-0.3 -9,-1.5 0,-1.3 -2.8,-1.5 -18.9,-1.5 -15.5,-0 -19.1,0.3 -20.1,1.5 -1.1,1.3 -6.7,1.5 -38.9,1.5l-37.7,-0 -2.9,-3c-1.9,-2 -3.8,-3 -5.9,-3 -3.6,-0 -7.6,3.5 -7.6,6.7 0,1.4 -0.6,2.3 -1.5,2.3 -1.3,-0 -1.5,-1.7 -1.3,-11.8l0.3,-11.7 5.2,-0.3c2.9,-0.2 5.6,-0.9 6.3,-1.7 1.1,-1.3 14.6,-1.5 97.5,-1.5 84.3,-0 96.4,-0.2 97.5,-1.5 1.1,-1.3 6.8,-1.5 40.5,-1.5 33.7,-0 39.4,0.2 40.5,1.5zM410,533.5c0,1.2 -2,1.5 -12,1.5 -11,-0 -13.2,-0.5 -11.3,-2.3 0.3,-0.4 5.7,-0.7 12,-0.7 9.4,-0 11.3,0.3 11.3,1.5zM230,536.5c0,1 -1,1.5 -3,1.5 -2.9,-0 -3.8,-0.9 -2.3,-2.3 1.3,-1.3 5.3,-0.7 5.3,0.8zM296,560.5c0.7,0.8 2.1,1.5 3.2,1.5 1,-0 2.1,0.7 2.4,1.5 0.4,0.8 1.2,1.5 1.9,1.5 0.7,-0 1.5,-0.7 1.9,-1.5 0.4,-1.2 2.3,-1.5 8.4,-1.5 5.9,-0 8.3,0.4 9.2,1.5 1,1.2 4.6,1.5 20.1,1.5 16.1,-0 18.9,-0.2 18.9,-1.5 0,-1.2 -1.8,-1.5 -10.5,-1.5 -8.7,-0 -10.5,-0.3 -10.5,-1.5 0,-1.3 14.4,-1.5 123.9,-1.5 107.7,-0 124,0.2 125.1,1.5 0.9,1.1 4,1.5 12.3,1.7l11.2,0.3 0,8.5 0,8.5 -75.4,0.3c-65.4,0.2 -75.7,0.4 -77.1,1.7 -1.5,1.3 -16.3,1.5 -122.1,1.3l-120.4,-0.3 -0.3,-10.4c-0.1,-5.8 0,-11.1 0.2,-11.8 0.4,-1 8,-1.3 38.4,-1.3 32.5,-0 38.1,0.2 39.2,1.5zM665,575.5c0,0.8 -0.7,1.5 -1.5,1.5 -0.8,-0 -1.5,-0.7 -1.5,-1.5 0,-0.8 0.7,-1.5 1.5,-1.5 0.8,-0 1.5,0.7 1.5,1.5zM614,584.5c0,1.2 -1.5,1.5 -7.5,1.5 -6,-0 -7.5,-0.3 -7.5,-1.5 0,-1.2 1.5,-1.5 7.5,-1.5 6,-0 7.5,0.3 7.5,1.5z" stroke="#000000"/><path fill="#000000" d="M235.7,176.4c-0.3,0.8 -2.2,1.6 -4.4,1.8 -3,0.2 -3.9,0.8 -4.1,2.4 -0.2,1.1 0.4,2.7 1.3,3.4 0.9,0.7 1.5,2.8 1.5,5.1 0,4.1 0.9,4.9 3,2.4 0.7,-0.8 1.6,-1.5 2.1,-1.5 0.5,-0 0.9,0.7 0.9,1.5 0,0.8 0.4,1.5 0.9,1.5 0.9,-0 8.1,-6.8 8.1,-7.7 0,-0.2 -1.3,-1.6 -3,-3 -1.8,-1.5 -3,-3.4 -3,-4.9 0,-2.6 -2.4,-3.3 -3.3,-1z" stroke="#000000"/><path fill="#000000" d="M221,196c0,4.7 0.3,6 1.5,6 1.2,-0 1.5,-1.3 1.5,-6 0,-4.7 -0.3,-6 -1.5,-6 -1.2,-0 -1.5,1.3 -1.5,6z" stroke="#000000"/><path fill="#000000" d="M284,203.5c0,3.3 0.4,4.5 1.5,4.5 1.1,-0 1.5,-1.2 1.5,-4.5 0,-3.3 -0.4,-4.5 -1.5,-4.5 -1.1,-0 -1.5,1.2 -1.5,4.5z" stroke="#000000"/><path fill="#000000" d="M515,212.5c0,0.8 0.7,1.5 1.5,1.5 0.8,-0 1.5,-0.7 1.5,-1.5 0,-0.8 -0.7,-1.5 -1.5,-1.5 -0.8,-0 -1.5,0.7 -1.5,1.5z" stroke="#000000"/><path fill="#000000" d="M230,421c0,4.7 0.3,6 1.5,6 1.2,-0 1.5,-1.3 1.5,-6 0,-4.7 -0.3,-6 -1.5,-6 -1.2,-0 -1.5,1.3 -1.5,6z" stroke="#000000"/><path fill="#000000" d="M533,362.5c0,0.8 0.7,1.5 1.5,1.5 0.8,-0 1.5,-0.7 1.5,-1.5 0,-0.8 -0.7,-1.5 -1.5,-1.5 -0.8,-0 -1.5,0.7 -1.5,1.5z" stroke="#000000"/><path fill="#000000" d="M500,407.5c0,1 1,1.5 3,1.5 2,-0 3,-0.5 3,-1.5 0,-1 -1,-1.5 -3,-1.5 -2,-0 -3,0.5 -3,1.5z" stroke="#000000"/><path fill="#000000" d="M284,467.5c0,0.8 0.7,1.5 1.5,1.5 0.8,-0 1.5,-0.7 1.5,-1.5 0,-0.8 -0.7,-1.5 -1.5,-1.5 -0.8,-0 -1.5,0.7 -1.5,1.5z" stroke="#000000"/><path fill="#000000" d="M245,470.5c0,1.1 1.2,1.5 4.5,1.5 3.3,-0 4.5,-0.4 4.5,-1.5 0,-1.1 -1.2,-1.5 -4.5,-1.5 -3.3,-0 -4.5,0.4 -4.5,1.5z" stroke="#000000"/><path fill="#000000" d="M353,530.5c0,1.2 1.7,1.5 9,1.5 7.3,-0 9,-0.3 9,-1.5 0,-1.2 -1.7,-1.5 -9,-1.5 -7.3,-0 -9,0.3 -9,1.5z" stroke="#000000"/><path fill="#000000" d="M371,566.5c0,0.8 0.7,1.5 1.5,1.5 0.8,-0 1.5,-0.7 1.5,-1.5 0,-0.8 -0.7,-1.5 -1.5,-1.5 -0.8,-0 -1.5,0.7 -1.5,1.5z" stroke="#000000"/><path fill="#000000" d="M140,188.5c0,1.2 1.3,1.5 6,1.5 4.7,-0 6,-0.3 6,-1.5 0,-1.2 -1.3,-1.5 -6,-1.5 -4.7,-0 -6,0.3 -6,1.5z" stroke="#000000"/><path fill="#000000" d="M686,214c0,10 0.3,12 1.5,12 1.3,-0 1.5,-2 1.5,-12 0,-10 -0.2,-12 -1.5,-12 -1.2,-0 -1.5,2 -1.5,12z" stroke="#000000"/><path fill="#000000" d="M89,206.5c0,0.8 0.7,1.5 1.5,1.5 0.8,-0 1.5,0.7 1.5,1.5 0,1.1 -1.9,1.5 -8.7,1.7l-8.8,0.3 -0.3,3.6c-0.2,2.3 0.2,4 1.2,4.9 1.4,1.1 1.6,10.1 1.6,80.1 0,69.5 -0.2,78.9 -1.5,78.9 -1.2,-0 -1.5,2 -1.5,12 0,10 -0.2,12 -1.5,12 -1.2,-0 -1.5,1.8 -1.5,10.5 0,8.7 0.3,10.5 1.5,10.5 1.3,-0 1.5,3.3 1.5,24 0,20.7 0.2,24 1.5,24 0.8,-0 1.5,-0.7 1.5,-1.5 0,-0.8 0.7,-1.5 1.5,-1.5 0.8,-0 1.5,0.7 1.5,1.5 0,0.8 -0.7,1.5 -1.5,1.5 -2.2,-0 -2.2,34.1 0,36 1,0.8 1.5,3.1 1.5,6.6 0,4.1 -0.4,5.4 -1.5,5.4 -1.1,-0 -1.5,-1.1 -1.5,-3.8 -0.1,-3.7 -2.7,-8.2 -4.9,-8.2 -1.6,-0 -1.3,4.6 0.4,6 0.8,0.7 1.5,2.3 1.5,3.6 0,1.5 0.6,2.4 1.5,2.4 1.1,-0 1.5,1.1 1.5,3.9 0,2.2 0.6,4.4 1.5,5.1 1.3,1 1.5,5.2 1.5,25.5 0,20.3 0.2,24.5 1.5,25.5 0.8,0.7 1.5,2 1.5,3 0,1 0.7,2.3 1.5,3 0.8,0.7 1.5,2 1.5,2.9 0,2.1 16,18.1 18.1,18.1 0.9,-0 2.2,0.7 2.9,1.5 0.7,0.8 2.1,1.5 3.2,1.5 1,-0 2.1,0.7 2.4,1.5 0.9,2.2 2.2,1.8 5.1,-1.5 1.3,-1.7 3.3,-3 4.3,-3 1,-0 2.3,-0.7 3,-1.5 0.7,-0.8 2,-1.5 2.9,-1.5 1,-0 3,-1.4 4.6,-3 1.6,-1.7 3.6,-3 4.5,-3 0.9,-0 2.9,-1.4 4.5,-3 1.6,-1.7 3.6,-3 4.5,-3 2,-0 9,-7.1 9,-9.2 0,-0.8 0.7,-2.1 1.5,-2.8 1.3,-1.1 1.5,-7.2 1.5,-43.5 0,-36.3 0.2,-42.4 1.5,-43.5 0.8,-0.7 1.5,-2 1.5,-3 0,-1 -0.7,-2.3 -1.5,-3 -1.9,-1.6 -1.9,-4.4 0,-6 0.8,-0.7 1.5,-2 1.5,-3 0,-1 0.7,-2.3 1.5,-3 1,-0.8 1.5,-3.1 1.5,-6.6 0,-4.1 -0.4,-5.4 -1.5,-5.4 -1,-0 -1.5,1 -1.5,3 0,2 -0.5,3 -1.5,3 -1.3,-0 -1.5,-7.6 -1.5,-62.4 0,-54.3 0.2,-62.5 1.5,-63.6 1.3,-1.1 1.5,-9.4 1.3,-66.4l-0.3,-65.1 -23.7,-0.3c-13.1,-0.1 -23.8,-0.6 -23.8,-1.1 0,-0.5 0.7,-1.4 1.5,-2.1 0.8,-0.7 1.5,-1.6 1.5,-2.1 0,-1.5 -5,-1 -5.6,0.6 -0.4,0.8 -1.2,1.5 -1.9,1.5 -0.7,-0 -1.5,-0.7 -1.9,-1.5 -0.3,-0.9 -1.8,-1.5 -3.9,-1.5 -1.9,-0 -4,0.7 -4.7,1.5 -0.7,0.8 -2.3,1.5 -3.6,1.5 -1.5,-0 -2.4,-0.6 -2.4,-1.5 0,-0.8 -0.7,-1.5 -1.5,-1.5 -0.8,-0 -1.5,0.7 -1.5,1.5zM80,393.4c0,11.5 -0.3,14.6 -1.5,15.6 -1.1,0.9 -1.5,3.2 -1.5,8.1 0,5.5 -0.3,6.9 -1.5,6.9 -1.2,-0 -1.5,-1.8 -1.5,-10.4 0,-8.3 0.3,-10.5 1.5,-11 1.2,-0.4 1.5,-2.7 1.5,-12.1 0,-9.6 0.3,-11.5 1.5,-11.5 1.3,-0 1.5,2.3 1.5,14.4z" stroke="#000000"/><path fill="#000000" d="M164,235c0,2 0.5,3 1.5,3 1,-0 1.5,-1 1.5,-3 0,-2 -0.5,-3 -1.5,-3 -1,-0 -1.5,1 -1.5,3z" stroke="#000000"/><path fill="#000000" d="M161.7,496.7c-1.3,1.3 -0.7,5.3 0.8,5.3 1,-0 1.5,-1 1.5,-3 0,-2.9 -0.9,-3.8 -2.3,-2.3z" stroke="#000000"/><path fill="#000000" d="M431,623.5c0,1.3 3.2,1.5 22.5,1.5 19.3,-0 22.5,-0.2 22.5,-1.5 0,-1.3 -3.2,-1.5 -22.5,-1.5 -19.3,-0 -22.5,0.2 -22.5,1.5z" stroke="#000000"/><path fill="#000000" d="M639.8,633.1c-2.6,2.7 -2.2,4.1 1,3.7 2.1,-0.2 2.8,-0.9 3,-3.1 0.4,-3.2 -1.4,-3.5 -4,-0.6z" stroke="#000000"/><path fill="#000000" d="M263,638.5c0,1.1 1.1,1.5 3.9,1.5 2.2,-0 4.4,0.6 5.1,1.5 1,1.2 4.5,1.5 19.7,1.5 15.4,-0 18.5,-0.2 18.9,-1.5 0.4,-0.9 1.9,-1.5 3.5,-1.5 1.9,-0 2.9,-0.5 2.9,-1.5 0,-1 -1,-1.5 -3,-1.5 -2,-0 -3,0.5 -3,1.5 0,1.3 -2.3,1.5 -14.4,1.5 -11.5,-0 -14.6,-0.3 -15.6,-1.5 -0.9,-1.1 -3.4,-1.5 -9.6,-1.5 -6.8,-0 -8.4,0.3 -8.4,1.5z" stroke="#000000"/></g><g id="g_1"><path fill="#FFFFFF" d="M664.6,98.5c-0.5,1.3 -13,1.5 -104.4,1.5 -91.2,-0 -104.1,0.2 -105.2,1.5 -1,1.3 -5,1.5 -24.2,1.5 -19.4,-0 -22.9,0.2 -23.4,1.5 -0.4,0.8 -1.2,1.5 -1.9,1.5 -0.7,-0 -1.5,-0.7 -1.9,-1.5 -0.4,-1.2 -2.3,-1.5 -8.4,-1.5 -5.9,-0 -8.3,-0.4 -9.2,-1.5 -0.7,-0.8 -2,-1.5 -3,-1.5 -1,-0 -2.3,0.7 -3,1.5 -0.7,0.8 -2.1,1.5 -3.2,1.5 -1,-0 -2.1,-0.7 -2.4,-1.5 -0.4,-0.8 -1.2,-1.5 -1.9,-1.5 -0.7,-0 -1.5,0.7 -1.9,1.5 -0.3,0.9 -1.8,1.5 -3.9,1.5 -1.9,-0 -4,0.7 -4.7,1.5 -0.7,0.8 -2,1.5 -3,1.5 -1,-0 -2.3,-0.7 -3,-1.5 -0.9,-1 -3.2,-1.5 -7.5,-1.5 -4.3,-0 -6.6,-0.5 -7.5,-1.5 -1.1,-1.3 -8.9,-1.5 -59.1,-1.5 -50.8,-0 -57.9,0.2 -57.9,1.5 0,1.2 1.3,1.5 6,1.5 4.7,-0 6,0.3 6,1.5 0,1.2 -1.9,1.5 -11.4,1.5 -8.9,-0 -11.6,-0.3 -12.6,-1.5 -0.8,-0.9 -3,-1.5 -6,-1.5 -3,-0 -5.2,0.6 -6,1.5 -0.8,0.9 -3,1.5 -6,1.5 -3,-0 -5.2,-0.6 -6,-1.5 -0.7,-0.8 -2.7,-1.5 -4.5,-1.5 -1.8,-0 -3.8,-0.7 -4.5,-1.5 -1,-1.2 -3.1,-1.5 -9.4,-1.3l-8.1,0.3 -0.5,41.5 -0.5,41.5 -10.2,0.3c-8.3,0.2 -10.3,0.6 -10.3,1.7 0,2.2 -31.2,2.2 -33,-0 -0.7,-0.8 -2,-1.5 -3,-1.5 -1,-0 -2.3,0.7 -3,1.5 -1.8,2.2 -28.2,2.2 -30,-0 -1,-1.2 -3.1,-1.5 -9.4,-1.3 -7.5,0.3 -8.1,0.5 -8.4,2.5 -0.2,1.2 -1,2.7 -1.8,3.3 -1,0.9 -1.4,3.7 -1.4,10.7 0,7.4 -0.3,9.5 -1.5,9.9 -1.9,0.8 -1.9,3 0,3.8 1.3,0.4 1.5,3.3 1.5,17.4 0,13.9 0.3,17.2 1.5,18.2 2.2,1.8 2.2,24 0,24 -1,-0 -1.5,1 -1.5,3 0,2 0.5,3 1.5,3 1,-0 1.5,-1 1.5,-3 0,-2 0.5,-3 1.5,-3 1.1,-0 1.5,1.1 1.5,3.9 0,2.2 0.6,4.4 1.5,5.1 2.1,1.8 2.1,12 0,12 -1,-0 -1.5,-1 -1.5,-3 0,-2 -0.5,-3 -1.5,-3 -2.1,-0 -2.1,10.2 0,12 1.6,1.3 2.1,9 0.6,9 -0.5,-0 -1.4,-0.7 -2.1,-1.5 -0.7,-0.8 -1.6,-1.5 -2.1,-1.5 -0.5,-0 -0.9,15.1 -0.9,33.9 0,28.9 0.2,34 1.5,35.1 1.3,1.1 1.5,13.3 1.5,99.2 0,86.1 0.2,97.9 1.5,98.4 1.9,0.8 1.9,3.4 0,3.4 -3.8,-0 0.1,4.7 5,6 1.1,0.3 2.1,1.6 2.3,2.8 0.2,1.2 1.7,3.2 3.3,4.6 3.4,2.9 3.5,3 0.9,5.6 -2.4,2.4 -4,2.6 -4,0.5 0,-0.8 -0.7,-1.5 -1.5,-1.5 -0.8,-0 -1.5,0.7 -1.5,1.5 0,0.8 0.7,1.5 1.5,1.5 0.9,-0 1.5,0.9 1.5,2.4 0,1.3 0.7,2.9 1.5,3.6 0.8,0.7 1.5,2 1.5,2.9 0,2.1 16,18.1 18.1,18.1 0.8,-0 2.8,1.4 4.4,3 1.6,1.7 3.6,3 4.6,3 0.9,-0 2.2,0.7 2.9,1.5 0.7,0.8 2,1.5 3,1.5 1,-0 2.3,0.7 3,1.5 0.7,0.8 2.1,1.5 3.2,1.5 1,-0 2.1,0.7 2.4,1.5 0.8,1.9 3,1.9 3.8,-0 0.3,-0.9 1.8,-1.5 3.9,-1.5 1.9,-0 4,-0.7 4.7,-1.5 1.8,-2.2 28.2,-2.2 30,-0.1 0.6,0.8 2.8,1.6 4.8,1.8 2.8,0.2 3.8,0.8 4,2.3 0.2,1.1 1.3,3 2.5,4.2l2,2.3 120.3,-0c105.6,-0 120.3,-0.2 121.4,-1.5 1.1,-1.3 14.7,-1.5 111,-1.5 96.3,-0 109.9,-0.2 111,-1.5 0.7,-0.8 2.3,-1.5 3.6,-1.5 1.5,-0 2.4,0.6 2.4,1.5 0,0.8 0.7,1.5 1.5,1.5 0.8,-0 1.5,-0.7 1.5,-1.5 0,-0.8 -0.7,-1.5 -1.5,-1.5 -0.8,-0 -1.5,-0.7 -1.5,-1.5 0,-1.2 -1.7,-1.5 -9,-1.5 -7.3,-0 -9,-0.3 -9,-1.5 0,-1.2 1.7,-1.5 9,-1.5 7.3,-0 9,0.3 9,1.5 0,2.9 5.3,1.8 7.5,-1.5 2.6,-3.8 4.7,-4 4.3,-0.3 -0.2,2.2 -0.9,2.9 -3,3.1 -1.6,0.2 -2.8,0.9 -2.8,1.8 0,1 1.4,1.4 5.3,1.4 4.9,-0 5.6,-0.3 9.7,-4.5 2.4,-2.4 5.3,-4.5 6.4,-4.7 1.2,-0.2 2.2,-1.2 2.4,-2.4 0.2,-1.1 3,-4.7 6.2,-7.9 3.3,-3.3 6,-6.7 6,-7.5 0,-0.9 1.4,-2.9 3,-4.5 1.7,-1.6 3,-3.6 3,-4.6 0,-0.9 0.7,-2.2 1.5,-2.9 0.8,-0.7 1.5,-2.7 1.5,-4.5 0,-1.8 0.7,-3.8 1.5,-4.5 0.9,-0.8 1.5,-3 1.5,-6 0,-3 0.6,-5.2 1.5,-6 1.3,-1.1 1.5,-15.2 1.5,-115.5 0,-100.3 0.2,-114.4 1.5,-115.5 2.2,-1.8 2.3,-48 0,-48 -1.1,-0 -1.5,1.7 -1.7,7.2 -0.3,7 -0.4,7.3 -2.8,7.3l-2.5,-0 -0.3,-13.3c-0.2,-11.3 0,-13.2 1.3,-13.2 1.1,-0 1.5,1.1 1.5,4.5 0,3.3 0.4,4.5 1.5,4.5 1.3,-0 1.5,-4.4 1.5,-33.9 0,-28.9 0.2,-34 1.5,-35.1 1.2,-1 1.5,-3.9 1.5,-14.1 0,-10.8 -0.2,-12.9 -1.5,-12.9 -1.3,-0 -1.5,-2.1 -1.5,-12.9 0,-10.2 0.3,-13.1 1.5,-14.1 1.3,-1.1 1.5,-5.8 1.5,-31.5 0,-25.7 -0.2,-30.4 -1.5,-31.5 -0.8,-0.7 -1.5,-2 -1.5,-2.9 -0.1,-1.9 -3.4,-6.1 -4.8,-6.1 -0.5,-0 -1.2,0.7 -1.6,1.5 -0.3,0.9 -1.8,1.5 -3.9,1.5 -2.8,-0 -4.2,-0.9 -7.6,-4.5 -4.4,-4.8 -5.6,-5.3 -6.5,-3zM380,107.5c0,0.8 -0.7,1.5 -1.5,1.5 -0.8,-0 -1.5,-0.7 -1.5,-1.5 0,-0.8 0.7,-1.5 1.5,-1.5 0.8,-0 1.5,0.7 1.5,1.5zM665,119.5c0,0.8 -0.7,1.5 -1.5,1.5 -0.8,-0 -1.5,-0.7 -1.5,-1.5 0,-0.8 0.7,-1.5 1.5,-1.5 0.8,-0 1.5,0.7 1.5,1.5zM439.6,122.5c0.4,0.8 1.2,1.5 1.9,1.5 0.7,-0 1.5,-0.7 1.9,-1.5 0.4,-1.1 2,-1.5 5.4,-1.5 3.2,-0 5.4,0.5 6.2,1.5 0.9,1.1 3.5,1.5 10.5,1.5 7,-0 9.6,0.4 10.5,1.5 1.1,1.3 12.8,1.5 94.7,1.5 82.1,-0 93.4,-0.2 93.9,-1.5 1,-2.4 3.4,-1.8 3.4,0.9 0,1.3 0.7,2.9 1.5,3.6 0.8,0.7 1.5,2.7 1.5,4.5 0,1.8 -0.7,3.8 -1.5,4.5 -0.9,0.8 -1.5,3 -1.5,6 0,3 -0.6,5.2 -1.5,6 -1.3,1.1 -1.5,13.3 -1.5,99 0,85.7 -0.2,97.9 -1.5,99 -1.3,1.1 -1.5,14.6 -1.5,110.1 0,96.1 0.2,108.9 1.5,108.9 1.2,-0 1.5,-1.5 1.5,-7.5 0,-6 0.3,-7.5 1.5,-7.5 1.3,-0 1.5,2.3 1.5,14.3l0,14.3 -3,2.9c-2.3,2.2 -3,3.8 -3,6.7 0,2.7 -0.4,3.8 -1.5,3.8 -1,-0 -1.5,-1 -1.5,-3 0,-2 -0.5,-3 -1.5,-3 -0.9,-0 -1.5,0.9 -1.5,2.3 0,1.3 -1.3,3.6 -3,5.2 -1.6,1.6 -3,3.6 -3,4.4 0,0.9 -3,4.6 -6.7,8.3l-6.7,6.8 -45.2,-0c-38.9,-0 -45.3,0.2 -46.4,1.5 -1.8,2.2 -24,2.2 -24,-0 0,-0.8 -0.7,-1.5 -1.5,-1.5 -0.8,-0 -1.5,0.7 -1.5,1.5 0,0.8 0.7,1.5 1.5,1.5 0.8,-0 1.5,0.7 1.5,1.5 0,2.2 -25.2,2.2 -27,-0 -1.1,-1.3 -7,-1.5 -42,-1.5 -35,-0 -40.9,0.2 -42,1.5 -1,1.2 -4.3,1.5 -18,1.5 -13.7,-0 -17,0.3 -18,1.5 -0.8,0.9 -3,1.5 -6,1.5 -3,-0 -5.2,0.6 -6,1.5 -1.9,2.2 -48,2.2 -48,-0 0,-1.3 3.1,-1.5 21.9,-1.5 18.2,-0 22.1,-0.3 23.1,-1.5 0.7,-0.8 2.3,-1.5 3.6,-1.5 1.5,-0 2.4,-0.6 2.4,-1.5 0,-1.3 -12.5,-1.5 -106.5,-1.5 -76.2,-0 -106.5,-0.3 -106.5,-1.1 0,-1.5 4.1,-4.8 6,-4.9 2,-0 15,-13.1 15,-15 0,-0.9 1.4,-2.9 3,-4.5 2.1,-2 3,-3.8 3,-6.1 0,-1.7 0.7,-3.7 1.5,-4.4 1.2,-1 1.5,-3.7 1.5,-12 0,-8.3 0.3,-11 1.5,-12 2.3,-1.9 2.3,-118.1 0,-120 -1.2,-1 -1.5,-4.7 -1.5,-21 0,-16.3 -0.3,-20 -1.5,-21 -2.1,-1.8 -2.1,-12 0,-12 1,-0 1.5,1 1.5,3 0,2 0.5,3 1.5,3 1.3,-0 1.5,-3.3 1.5,-23.4 0,-19.5 0.2,-23.6 1.5,-24.6 2.2,-1.8 2.2,-15 0,-15 -0.8,-0 -1.5,0.7 -1.5,1.5 0,0.8 -0.7,1.5 -1.5,1.5 -0.8,-0 -1.5,-0.7 -1.5,-1.5 0,-0.8 0.7,-1.5 1.5,-1.5 1.3,-0 1.5,-2.5 1.5,-16.5 0,-14 0.2,-16.5 1.5,-16.5 0.8,-0 1.5,-0.7 1.5,-1.5 0,-0.8 -0.7,-1.5 -1.5,-1.5 -0.8,-0 -1.5,0.7 -1.5,1.5 0,0.8 -0.7,1.5 -1.5,1.5 -1.3,-0 -1.5,-2.2 -1.5,-13.5 0,-11.3 0.2,-13.5 1.5,-13.5 1.2,-0 1.5,1.3 1.5,6 0,4.7 0.3,6 1.5,6 1.3,-0 1.5,-7.6 1.5,-62.4 0,-54.2 -0.2,-62.5 -1.5,-63.6 -0.8,-0.7 -1.5,-2 -1.5,-3 0,-1 -0.7,-2.3 -1.5,-3 -0.8,-0.7 -1.5,-2 -1.5,-3 0,-1 -0.7,-2.3 -1.5,-3 -1.8,-1.5 -2,-6 -0.2,-6 0.6,-0 2.1,1.4 3.2,3 3.2,4.9 4.4,3.8 4.7,-4.3l0.3,-7.2 124.3,-0.3c69.9,-0.1 124.2,-0.6 124.2,-1.1 0,-0.5 -0.7,-1.4 -1.5,-2.1 -0.8,-0.7 -1.5,-1.6 -1.5,-2.1 0,-1.5 5,-1 5.6,0.6zM152,188.5c0,1.2 -1.3,1.5 -6,1.5 -4.7,-0 -6,-0.3 -6,-1.5 0,-1.2 1.3,-1.5 6,-1.5 4.7,-0 6,0.3 6,1.5zM688.8,213.7c-0.2,8.2 -0.7,11.8 -1.5,12.1 -1,0.3 -1.3,-2.5 -1.3,-11.7 0,-10.2 0.2,-12.1 1.5,-12.1 1.3,-0 1.5,1.7 1.3,11.7zM92,206.5c0,0.9 0.9,1.5 2.4,1.5 1.3,-0 2.9,-0.7 3.6,-1.5 0.7,-0.8 2.8,-1.5 4.7,-1.5 2.1,-0 3.6,0.6 3.9,1.5 0.4,0.8 1.2,1.5 1.9,1.5 0.7,-0 1.5,-0.7 1.9,-1.5 0.6,-1.6 5.6,-2.1 5.6,-0.6 0,0.5 -0.7,1.4 -1.5,2.1 -0.8,0.7 -1.5,1.6 -1.5,2.1 0,0.5 10.7,1 23.8,1.1l23.7,0.3 0.3,65.1c0.2,57 0,65.3 -1.3,66.4 -1.3,1.1 -1.5,9.3 -1.5,63.6 0,54.8 0.2,62.4 1.5,62.4 1,-0 1.5,-1 1.5,-3 0,-2 0.5,-3 1.5,-3 1.1,-0 1.5,1.3 1.5,5.4 0,3.5 -0.5,5.8 -1.5,6.6 -0.8,0.7 -1.5,2 -1.5,3 0,1 -0.7,2.3 -1.5,3 -1.9,1.6 -1.9,4.4 0,6 0.8,0.7 1.5,2 1.5,3 0,1 -0.7,2.3 -1.5,3 -1.3,1.1 -1.5,7.2 -1.5,43.5 0,36.3 -0.2,42.4 -1.5,43.5 -0.8,0.7 -1.5,2 -1.5,2.8 0,2.1 -7,9.2 -9,9.2 -0.9,-0 -2.9,1.3 -4.5,3 -1.6,1.6 -3.6,3 -4.5,3 -0.9,-0 -2.9,1.3 -4.5,3 -1.6,1.6 -3.6,3 -4.6,3 -0.9,-0 -2.2,0.7 -2.9,1.5 -0.7,0.8 -2,1.5 -3,1.5 -1,-0 -3,1.3 -4.3,3 -2.9,3.3 -4.2,3.7 -5.1,1.5 -0.3,-0.8 -1.4,-1.5 -2.4,-1.5 -1.1,-0 -2.5,-0.7 -3.2,-1.5 -0.7,-0.8 -2,-1.5 -2.9,-1.5 -2.1,-0 -18.1,-16 -18.1,-18.1 0,-0.9 -0.7,-2.2 -1.5,-2.9 -0.8,-0.7 -1.5,-2 -1.5,-3 0,-1 -0.7,-2.3 -1.5,-3 -1.3,-1 -1.5,-5.2 -1.5,-25.5 0,-20.3 -0.2,-24.5 -1.5,-25.5 -0.9,-0.7 -1.5,-2.9 -1.5,-5.1 0,-2.8 -0.4,-3.9 -1.5,-3.9 -0.9,-0 -1.5,-0.9 -1.5,-2.4 0,-1.3 -0.7,-2.9 -1.5,-3.6 -1.7,-1.4 -2,-6 -0.4,-6 2.2,-0 4.8,4.5 4.9,8.2 0,2.7 0.4,3.8 1.5,3.8 1.1,-0 1.5,-1.3 1.5,-5.4 0,-3.5 -0.5,-5.8 -1.5,-6.6 -2.2,-1.9 -2.2,-36 0,-36 0.8,-0 1.5,-0.7 1.5,-1.5 0,-0.8 -0.7,-1.5 -1.5,-1.5 -0.8,-0 -1.5,0.7 -1.5,1.5 0,0.8 -0.7,1.5 -1.5,1.5 -1.3,-0 -1.5,-3.3 -1.5,-24 0,-20.7 -0.2,-24 -1.5,-24 -1.2,-0 -1.5,-1.8 -1.5,-10.5 0,-8.7 0.3,-10.5 1.5,-10.5 1.3,-0 1.5,-2 1.5,-12 0,-10 0.3,-12 1.5,-12 1.3,-0 1.5,-9.4 1.5,-78.9 0,-70 -0.2,-79 -1.6,-80.1 -1,-0.9 -1.4,-2.6 -1.2,-4.9l0.3,-3.6 8.8,-0.3c6.8,-0.2 8.7,-0.6 8.7,-1.7 0,-0.8 -0.7,-1.5 -1.5,-1.5 -0.8,-0 -1.5,-0.7 -1.5,-1.5 0,-0.8 0.7,-1.5 1.5,-1.5 0.8,-0 1.5,0.7 1.5,1.5zM167,235c0,2 -0.5,3 -1.5,3 -1,-0 -1.5,-1 -1.5,-3 0,-2 0.5,-3 1.5,-3 1,-0 1.5,1 1.5,3zM164,499c0,2 -0.5,3 -1.5,3 -1.5,-0 -2.1,-4 -0.8,-5.3 1.4,-1.5 2.3,-0.6 2.3,2.3zM476,623.5c0,1.3 -3.2,1.5 -22.5,1.5 -19.3,-0 -22.5,-0.2 -22.5,-1.5 0,-1.3 3.2,-1.5 22.5,-1.5 19.3,-0 22.5,0.2 22.5,1.5zM281,638.5c1,1.2 4.1,1.5 15.6,1.5 12.1,-0 14.4,-0.2 14.4,-1.5 0,-1 1,-1.5 3,-1.5 2,-0 3,0.5 3,1.5 0,1 -1,1.5 -2.9,1.5 -1.6,-0 -3.1,0.6 -3.5,1.5 -0.4,1.3 -3.5,1.5 -18.9,1.5 -15.2,-0 -18.7,-0.3 -19.7,-1.5 -0.7,-0.9 -2.9,-1.5 -5.1,-1.5 -2.8,-0 -3.9,-0.4 -3.9,-1.5 0,-1.2 1.6,-1.5 8.4,-1.5 6.2,-0 8.7,0.4 9.6,1.5z" stroke="#FFFFFF"/><path fill="#FFFFFF" d="M215,144.5c0,1.4 0.7,2.8 1.5,3.1 0.8,0.4 1.5,1.2 1.5,1.9 0,0.7 -0.7,1.5 -1.5,1.9 -1.2,0.4 -1.5,2.4 -1.5,9.1 0,8.4 0.6,9.9 3,7 2.2,-2.7 3,-1.6 3,4.5 0,6.1 -0.8,7.2 -3,4.5 -2.2,-2.7 -3,-1.6 -3,3.9 0,3.5 0.5,5.8 1.5,6.6 1.2,1 1.5,3.7 1.5,11.9l0,10.7 -4.5,4.4c-2.7,2.7 -4.5,5.3 -4.5,6.7 0,2.6 2.5,3.1 3.4,0.7 0.3,-0.9 1.5,-1.4 2.8,-1.2 2,0.3 2.3,1 2.6,5.6 0.2,4 -0.1,5.4 -1.2,5.8 -2.6,1 -1.8,3.2 1.2,3.6l2.7,0.3 0.5,11.1c0.5,10.7 0.6,11.2 3.7,14.7 1.8,2.1 3.7,3.7 4.3,3.7 0.6,-0 1,-7.3 1,-21 0,-18 0.2,-21 1.5,-21 0.8,-0 1.5,-0.7 1.5,-1.5 0,-0.8 -0.7,-1.5 -1.5,-1.5 -0.8,-0 -1.5,0.7 -1.5,1.5 0,0.8 -0.7,1.5 -1.6,1.5 -2.7,-0 -1.3,-5.3 1.6,-6 1.8,-0.4 2.6,-1.3 2.8,-3.3 0.3,-2.8 3.2,-3.9 3.2,-1.2 0,0.8 0.7,1.5 1.5,1.5 0.8,-0 1.5,-0.7 1.5,-1.5 0,-0.8 -0.7,-1.5 -1.5,-1.5 -0.8,-0 -1.5,-0.4 -1.5,-1 0,-1.5 7.3,-7.9 9.1,-8 0.8,-0 2.8,-1.4 4.4,-3 1.6,-1.7 3.6,-3 4.6,-3 0.9,-0 2.9,-1.4 4.3,-3.1 2.5,-2.9 2.8,-3 4.5,-1.5 1,0.9 2.1,1.6 2.4,1.6 1.3,-0 0.7,-4.8 -0.7,-6 -0.8,-0.6 -1.6,-2.1 -1.8,-3.3 -0.2,-1.3 -1.1,-2.3 -2.4,-2.5 -1.2,-0.2 -3.4,-1.6 -4.9,-3.3 -1.6,-1.6 -3.9,-2.9 -5.2,-2.9 -1.4,-0 -2.3,-0.6 -2.3,-1.5 0,-0.8 0.7,-1.5 1.5,-1.5 0.8,-0 1.5,-0.7 1.5,-1.5 0,-0.8 -0.7,-1.5 -1.5,-1.5 -0.8,-0 -1.5,0.7 -1.5,1.5 0,2.7 -1.7,1.6 -7.6,-4.5 -3.1,-3.3 -6.4,-6 -7.3,-6 -2.1,-0 -9.1,-7 -9.1,-9 -0.1,-1.7 -6.5,-9 -8,-9 -0.6,-0 -1,1.1 -1,2.5zM239,177.4c0,1.5 1.2,3.4 3,4.9 1.7,1.4 3,2.8 3,3 0,0.9 -7.2,7.7 -8.1,7.7 -0.5,-0 -0.9,-0.7 -0.9,-1.5 0,-0.8 -0.4,-1.5 -0.9,-1.5 -0.5,-0 -1.4,0.7 -2.1,1.5 -2.1,2.5 -3,1.7 -3,-2.4 0,-2.3 -0.6,-4.4 -1.5,-5.1 -0.9,-0.7 -1.5,-2.3 -1.3,-3.4 0.2,-1.6 1.1,-2.2 4.1,-2.4 2.2,-0.2 4.1,-1 4.4,-1.8 0.9,-2.3 3.3,-1.6 3.3,1zM224,196c0,4.7 -0.3,6 -1.5,6 -1.2,-0 -1.5,-1.3 -1.5,-6 0,-4.7 0.3,-6 1.5,-6 1.2,-0 1.5,1.3 1.5,6z" stroke="#FFFFFF"/><path fill="#FFFFFF" d="M325.6,146.5c-0.3,0.9 -1.8,1.5 -3.9,1.5 -1.9,-0 -4,0.7 -4.7,1.5 -0.8,0.9 -3,1.5 -6,1.5 -3,-0 -5.2,0.6 -6,1.5 -0.7,0.8 -2,1.5 -3,1.5 -1,-0 -2.3,0.7 -3,1.5 -0.7,0.8 -2.7,1.5 -4.5,1.5 -1.8,-0 -3.8,0.7 -4.5,1.5 -0.7,0.8 -2.7,1.5 -4.5,1.5 -1.8,-0 -3.8,0.7 -4.5,1.5 -0.7,0.8 -2.3,1.5 -3.6,1.5 -2.8,-0 -3,0.7 -0.9,3 1.4,1.5 1.4,1.8 0,3 -2.5,2 -1.8,2.9 2.8,3.2l4.2,0.3 0.3,4.9c0.2,3.2 -0.2,5.4 -1.2,6.5 -0.8,0.9 -1.6,3.2 -1.8,5.1 -0.2,2.4 -0.9,3.6 -2.3,4 -3,0.8 -6.5,3.3 -6.5,4.7 0,0.7 1.8,1.3 4.3,1.5l4.2,0.3 0.3,14c0.2,10.9 0.6,14.3 1.8,15.6 2.8,3.1 1.4,5.4 -3.4,5.7 -2.3,0.2 -4.2,0.8 -4.2,1.3 0,1.5 4.2,4.8 6.1,4.9 0.9,-0 2.2,0.7 2.9,1.5 0.7,0.8 2.7,1.5 4.5,1.5 1.8,-0 3.8,0.7 4.5,1.5 0.7,0.8 2.7,1.5 4.5,1.5 1.8,-0 3.8,0.7 4.5,1.5 0.9,1 3.2,1.5 7.5,1.5 4.3,-0 6.6,0.5 7.5,1.5 0.7,0.8 2.7,1.5 4.5,1.5 1.8,-0 3.8,0.7 4.5,1.5 1.4,1.7 6,2 6,0.4 0,-0.6 -1.3,-2.2 -3,-3.6 -1.6,-1.3 -3,-3.3 -3,-4.2 0,-1 -1,-2.7 -2.3,-3.9 -1.9,-1.8 -3.5,-2.2 -8.4,-2.2 -4,-0 -6.5,-0.5 -7.3,-1.4 -0.6,-0.8 -2.1,-1.6 -3.3,-1.8 -1.3,-0.2 -2.3,-1.3 -2.7,-2.8 -0.4,-1.5 -1.5,-2.6 -3,-3 -1.8,-0.4 -2.6,-1.4 -2.8,-3.3 -0.2,-1.5 -1,-2.7 -1.8,-2.7 -1.1,-0 -1.4,-2.2 -1.4,-12 0,-6.6 0.4,-12 0.9,-12 0.5,-0 1.4,0.7 2.1,1.5 1.9,2.3 3,1.8 3,-1.5 0,-3.2 2.3,-4.2 3.4,-1.5 0.3,0.8 1.7,1.5 3.1,1.5 1.6,-0 2.5,0.6 2.5,1.5 0,0.8 0.7,1.5 1.5,1.5 0.8,-0 1.5,-0.7 1.5,-1.5 0,-0.8 -0.7,-1.5 -1.6,-1.5 -1.1,-0 -1.4,-0.8 -1.2,-2.8l0.3,-2.7 10,-0.5c9.5,-0.5 10,-0.6 10.3,-2.8 0.2,-1.3 1,-2.6 1.8,-2.9 0.8,-0.3 1.4,-1.1 1.4,-1.9 0,-1 -2.9,-1.4 -13.2,-1.6l-13.3,-0.3 -0.3,-2.8c-0.4,-2.9 -2.6,-3.7 -3.6,-1.2 -0.7,1.9 -5.6,2 -5.6,0.1 0,-0.8 0.7,-1.6 1.5,-2 0.9,-0.3 1.5,-1.9 1.5,-4.1 0,-2.2 -0.6,-3.8 -1.5,-4.1 -4.3,-1.7 1.3,-6.3 7.6,-6.4 2.9,-0 5.1,-0.6 5.9,-1.5 0.7,-0.8 2,-1.5 3,-1.5 1,-0 3,-1.4 4.3,-3 2.8,-3.3 4.7,-3.9 4.7,-1.5 0,2.1 1.6,1.9 4,-0.5 2.4,-2.4 2.6,-4 0.5,-4 -0.8,-0 -1.5,-0.6 -1.5,-1.4 0,-0.8 0.7,-1.6 1.5,-2 1.9,-0.7 2,-5.6 0.1,-5.6 -0.8,-0 -1.6,0.7 -2,1.5zM287,203.5c0,3.3 -0.4,4.5 -1.5,4.5 -1.1,-0 -1.5,-1.2 -1.5,-4.5 0,-3.3 0.4,-4.5 1.5,-4.5 1.1,-0 1.5,1.2 1.5,4.5z" stroke="#FFFFFF"/><path fill="#FFFFFF" d="M209,155.5c0,6 0.3,7.5 1.5,7.5 1.2,-0 1.5,-1.5 1.5,-7.5 0,-6 -0.3,-7.5 -1.5,-7.5 -1.2,-0 -1.5,1.5 -1.5,7.5z" stroke="#FFFFFF"/><path fill="#FFFFFF" d="M347,149.5c-0.7,0.8 -2,1.5 -3,1.5 -1,-0 -2.3,0.6 -3,1.4 -0.6,0.8 -2.1,1.6 -3.3,1.8 -1.8,0.2 -2.3,1.1 -2.5,4.5 -0.2,3.2 0,4.3 1.1,4.3 0.8,-0 1.7,-0.7 2.1,-1.5 0.3,-0.8 1.4,-1.5 2.4,-1.5 1.1,-0 2.5,0.7 3.2,1.5 0.9,1.1 3.3,1.5 8.9,1.5 6.8,-0 8,0.3 9.9,2.3 2,2.1 2.2,3.4 2.2,14.4 0,9.5 -0.3,12.3 -1.5,13.3 -2,1.7 -2,10.3 0,12 1.2,1 1.5,5.2 1.7,22.8l0.3,21.6 2.5,0.6c2.4,0.6 2.5,0.9 2.8,9.3 0.2,6.8 0.6,8.7 1.7,8.7 1.3,-0 1.5,-3.2 1.5,-20.4 0,-16.9 0.3,-20.6 1.5,-21.6 0.8,-0.7 1.5,-2.7 1.5,-4.5 0,-1.8 -0.7,-3.8 -1.5,-4.5 -1.1,-0.9 -1.5,-3.3 -1.5,-9 0,-5.7 0.4,-8.1 1.5,-9 0.9,-0.8 1.5,-3 1.5,-6 0,-3 0.6,-5.2 1.5,-6 0.8,-0.7 1.5,-2 1.5,-3 0,-1 -0.7,-2.3 -1.5,-3 -0.9,-0.8 -1.5,-3 -1.5,-5.9 0,-6.6 2.7,-9.1 9.8,-9.1 5.3,-0 6.3,-0.8 3.7,-3 -0.8,-0.7 -1.5,-1.6 -1.5,-2.1 0,-0.5 5.4,-0.9 12,-0.9 10,-0 12,-0.3 12,-1.5 0,-0.9 -0.9,-1.5 -2.3,-1.5 -1.3,-0 -3.6,-1.4 -5.2,-3 -2.6,-2.7 -3.5,-3 -9.1,-3 -4.2,-0 -6.5,-0.5 -7.4,-1.5 -1,-1.2 -4.7,-1.5 -21,-1.5 -16.3,-0 -20,0.3 -21,1.5z" stroke="#FFFFFF"/><path fill="#FFFFFF" d="M302,170.5c0,0.8 0.7,1.5 1.5,1.5 0.8,-0 1.5,-0.7 1.5,-1.5 0,-0.8 -0.7,-1.5 -1.5,-1.5 -0.8,-0 -1.5,0.7 -1.5,1.5z" stroke="#FFFFFF"/><path fill="#FFFFFF" d="M359,171.9c0,2.1 0.5,3.1 1.6,3.1 1.1,-0 1.4,-0.8 1.2,-2.7 -0.4,-3.9 -2.8,-4.2 -2.8,-0.4z" stroke="#FFFFFF"/><path fill="#FFFFFF" d="M257,173.5c0,0.8 0.7,1.5 1.5,1.5 0.8,-0 1.5,-0.7 1.5,-1.5 0,-0.8 -0.7,-1.5 -1.5,-1.5 -0.8,-0 -1.5,0.7 -1.5,1.5z" stroke="#FFFFFF"/><path fill="#FFFFFF" d="M597.5,199c-1.6,1.6 -3.6,3 -4.6,3 -0.9,-0 -2.2,0.6 -2.9,1.4 -0.6,0.8 -2.1,1.6 -3.3,1.8 -1.6,0.2 -2.3,1.1 -2.5,3 -0.3,2.9 -3.2,4 -3.2,1.3 0,-0.8 -0.7,-1.5 -1.5,-1.5 -0.8,-0 -1.5,0.7 -1.5,1.5 0,0.8 0.7,1.5 1.5,1.5 0.8,-0 1.5,0.6 1.5,1.4 0,0.8 -0.7,1.6 -1.5,2 -0.8,0.3 -1.5,1.5 -1.5,2.6 0,1.1 -0.7,2.3 -1.5,2.6 -0.8,0.4 -1.5,1.1 -1.5,1.6 0,1.4 4.2,4.7 6.1,4.8 2,-0 5.9,4.1 5.9,6.2 0,0.8 -2.7,4.1 -6,7.2 -3.3,3.2 -6,6 -6,6.3 0,1 4.5,4.2 6,4.3 2,-0 11.7,-9.9 12.2,-12.5 0.2,-1.1 1.2,-2.1 2.3,-2.3 5.3,-1 8.5,-8.2 4,-9 -2.6,-0.5 -9.5,-7.2 -9.5,-9.2 0,-2.1 4.1,-6 6.2,-6 0.9,-0 2.8,-1.4 4.1,-3 1.4,-1.7 3,-3 3.6,-3 0.6,-0 1.1,-0.7 1.1,-1.5 0,-0.8 0.7,-1.5 1.5,-1.5 0.8,-0 1.5,0.7 1.5,1.5 0,0.8 -0.7,1.5 -1.5,1.5 -0.8,-0 -1.5,0.7 -1.5,1.5 0,0.8 0.7,1.5 1.5,1.5 0.8,-0 1.5,-0.7 1.5,-1.5 0,-0.8 0.7,-1.5 1.5,-1.5 0.8,-0 1.5,-0.7 1.5,-1.5 0,-0.8 -0.7,-1.5 -1.5,-1.5 -0.8,-0 -1.5,-0.5 -1.5,-1.1 0,-1.5 -4.2,-4.8 -6.1,-4.9 -0.8,-0 -2.8,1.3 -4.4,3z" stroke="#FFFFFF"/><path fill="#FFFFFF" d="M479.7,202.8c-3.6,3.7 -3.7,4 -3.7,11.4 0,5.5 -0.4,7.9 -1.5,8.8 -1,0.8 -1.5,3.1 -1.5,6.6 0,4.1 0.4,5.4 1.5,5.4 0.8,-0 1.5,-0.7 1.5,-1.5 0,-0.8 0.7,-1.5 1.5,-1.5 0.8,-0 1.5,0.7 1.5,1.5 0,0.8 -0.7,1.5 -1.6,1.5 -1.1,-0 -1.4,0.8 -1.2,2.7 0.4,3.3 3.1,4.2 5.7,1.9 1.2,-1.1 4.3,-1.6 11.1,-1.8 9.4,-0.3 9.5,-0.3 9.5,-2.8 0,-2.4 -0.3,-2.5 -7,-3 -6.7,-0.5 -7,-0.6 -7,-3 0,-2.1 0.5,-2.5 3.6,-2.8 2.3,-0.2 4,0.2 4.9,1.2 2.3,2.8 3,1.7 3,-4.4 0,-4.7 0.3,-6 1.5,-6 1,-0 1.5,-1 1.5,-3.1 0,-3.8 -2.4,-3.5 -2.8,0.4 -0.3,2.6 -0.6,2.7 -6.3,2.7 -3.6,-0 -5.9,-0.4 -5.9,-1.1 0,-1.5 4.2,-4.8 6.1,-4.9 0.9,-0 2.2,-0.6 2.9,-1.4 0.6,-0.8 2.1,-1.6 3.3,-1.8 1.6,-0.2 2.2,-1 2.2,-2.8 0,-2.3 -0.4,-2.5 -5.2,-2.8 -2.9,-0.2 -5.6,-0.9 -6.3,-1.7 -2.4,-2.8 -7.3,-1.8 -11.3,2.3z" stroke="#FFFFFF"/><path fill="#FFFFFF" d="M380,203.5c0,0.8 0.7,1.5 1.5,1.5 0.8,-0 1.5,-0.7 1.5,-1.5 0,-0.8 -0.7,-1.5 -1.5,-1.5 -0.8,-0 -1.5,0.7 -1.5,1.5z" stroke="#FFFFFF"/><path fill="#FFFFFF" d="M446,203.5c0,0.8 0.7,1.5 1.5,1.5 0.8,-0 1.5,0.6 1.5,1.4 0,0.8 -0.7,1.6 -1.5,2 -1.1,0.4 -1.5,2.2 -1.5,7.6 0,5.3 -0.3,7 -1.4,7 -0.8,-0 -1.6,-0.7 -2,-1.5 -0.3,-0.8 -1.4,-1.5 -2.4,-1.5 -2.2,-0 -5.9,-3.7 -6.4,-6.5 -0.2,-1.5 -1.2,-2.1 -4,-2.3 -2,-0.2 -4.2,-1 -4.8,-1.8 -0.7,-0.8 -2,-1.4 -3,-1.4 -1,-0 -2.3,-0.7 -3,-1.5 -0.7,-0.9 -2.3,-1.5 -3.4,-1.3 -2,0.3 -2.1,0.8 -2.1,19.3l0,19 4,-0c3.3,-0 4.1,-0.4 4.3,-2.2 0.2,-1.2 1,-2.7 1.8,-3.3 0.9,-0.8 1.4,-3.2 1.4,-6.6 0,-6.2 1,-6.7 4.7,-2.4 1.3,1.6 3.2,3 4.2,3 0.9,-0 4.3,2.7 7.6,6 5.9,6 6.1,6.1 11,5.8l5,-0.3 0,-20.5 0,-20.5 -2.3,-0.3c-1.3,-0.2 -2.5,0.3 -2.8,1.2 -0.8,2 -3.4,2.1 -3.4,0.1 0,-0.8 -0.7,-1.5 -1.5,-1.5 -0.8,-0 -1.5,0.7 -1.5,1.5z" stroke="#FFFFFF"/><path fill="#FFFFFF" d="M560.7,202.6c-0.4,0.4 -0.7,1.8 -0.7,3.1 0,1.4 -0.6,2.3 -1.5,2.3 -0.8,-0 -1.5,-0.7 -1.5,-1.5 0,-0.8 -0.7,-1.5 -1.5,-1.5 -0.8,-0 -1.5,0.7 -1.5,1.5 0,0.8 0.7,1.5 1.5,1.5 1.1,-0 1.5,1.3 1.5,5.4 0,3.5 -0.5,5.8 -1.5,6.6 -0.9,0.7 -1.5,2.9 -1.5,5.1 0,4.6 -2.7,5.6 -3.2,1.1 -0.2,-1.9 -0.9,-2.8 -2.5,-3 -1.2,-0.2 -3.3,-1.7 -4.7,-3.3 -1.4,-1.6 -2.8,-2.9 -3.1,-2.9 -1.2,-0 -4.4,4.5 -4.5,6.1 0,0.9 -0.7,2.2 -1.5,2.9 -0.8,0.7 -1.5,2.3 -1.5,3.6 0,1.5 -0.6,2.4 -1.5,2.4 -0.9,-0 -1.5,-0.9 -1.5,-2.4 0,-1.3 -0.7,-2.9 -1.5,-3.6 -0.8,-0.7 -1.5,-2 -1.5,-2.9 0,-1 -1.3,-3 -3,-4.6 -1.6,-1.6 -3,-3.9 -3,-5.2 0,-1.4 -0.6,-2.3 -1.5,-2.3 -0.8,-0 -1.5,-0.7 -1.5,-1.5 0,-0.8 -0.7,-1.5 -1.5,-1.5 -0.8,-0 -1.5,0.7 -1.5,1.5 0,0.8 -0.5,1.5 -1.1,1.5 -1.5,-0 -4.8,4.1 -4.9,6 0,0.9 2,3.6 4.5,6 2.5,2.4 4.5,5.1 4.5,6 0,2.1 3.8,5.7 6.5,6.2 1.4,0.2 2.1,1.3 2.5,3.8 0.9,6.4 6,11.1 6,5.6 0,-1.3 0.7,-2.9 1.5,-3.6 0.8,-0.7 1.5,-2 1.5,-2.9 0.1,-1.9 3.4,-6.1 4.8,-6.1 0.5,-0 1.2,0.6 1.5,1.4 0.3,0.8 1.6,1.6 2.9,1.8 1.3,0.2 2.4,1.1 2.6,2.3 0.2,1.1 1,2.7 1.7,3.5 0.7,0.8 1.5,2.4 1.7,3.5 0.5,3 6.3,3.3 9.4,0.4 2.1,-2 2.4,-3.1 2.4,-10 0,-5.6 0.4,-8 1.5,-8.9 1.3,-1.1 1.5,-3.4 1.3,-12.4 -0.3,-10.3 -0.4,-11.1 -2.3,-11.4 -1.2,-0.2 -2.4,-0 -2.8,0.4zM518,212.5c0,0.8 -0.7,1.5 -1.5,1.5 -0.8,-0 -1.5,-0.7 -1.5,-1.5 0,-0.8 0.7,-1.5 1.5,-1.5 0.8,-0 1.5,0.7 1.5,1.5z" stroke="#FFFFFF"/><path fill="#FFFFFF" d="M296.5,224.1c-0.4,0.6 -0.5,1.1 -0.4,1.2 0.2,0.1 1.4,1 2.6,2 2.1,1.8 2.2,1.8 4.2,-0.2 1.2,-1.2 2.1,-2.6 2.1,-3.1 0,-1.3 -7.7,-1.3 -8.5,0.1z" stroke="#FFFFFF"/><path fill="#FFFFFF" d="M323,236.5c0,0.8 0.7,1.5 1.5,1.5 0.8,-0 1.5,-0.7 1.5,-1.5 0,-0.8 -0.7,-1.5 -1.5,-1.5 -0.8,-0 -1.5,0.7 -1.5,1.5z" stroke="#FFFFFF"/><path fill="#FFFFFF" d="M215,247c0,2 0.5,3 1.5,3 1,-0 1.5,-1 1.5,-3 0,-2 -0.5,-3 -1.5,-3 -1,-0 -1.5,1 -1.5,3z" stroke="#FFFFFF"/><path fill="#FFFFFF" d="M359,247c0,2 0.5,3 1.5,3 1,-0 1.5,-1 1.5,-3 0,-2 -0.5,-3 -1.5,-3 -1,-0 -1.5,1 -1.5,3z" stroke="#FFFFFF"/><path fill="#FFFFFF" d="M623,281.5c0,0.8 0.7,1.5 1.5,1.5 0.8,-0 1.5,-0.7 1.5,-1.5 0,-0.8 -0.7,-1.5 -1.5,-1.5 -0.8,-0 -1.5,0.7 -1.5,1.5z" stroke="#FFFFFF"/><path fill="#FFFFFF" d="M221.7,283.7c-0.4,0.3 -0.7,11.5 -0.7,24.8 0,20.3 0.2,24.5 1.5,25.5 0.8,0.7 1.5,2 1.5,3 0,1 0.7,2.3 1.5,3 0.9,0.8 1.5,3 1.5,6 0,3 0.6,5.2 1.5,6 0.8,0.7 1.5,2 1.5,3 0,1 -0.7,2.3 -1.5,3 -1.1,0.9 -1.5,3.2 -1.5,8.1 0,5.5 -0.3,6.9 -1.5,6.9 -1.1,-0 -1.5,-1.2 -1.5,-4.5 0,-3.3 -0.4,-4.5 -1.5,-4.5 -1.3,-0 -1.5,2.3 -1.5,14.3l0,14.3 3,2.9c3.4,3.2 4.2,9.1 1.5,10.1 -0.8,0.4 -1.5,1.2 -1.5,1.9 0,0.7 0.7,1.5 1.5,1.9 1.1,0.4 1.5,2.2 1.5,6.9 0,4.5 -0.5,6.8 -1.5,7.7 -0.8,0.7 -1.5,2.7 -1.5,4.5 0,1.8 -0.7,3.8 -1.5,4.5 -1.2,1 -1.5,2.9 -1.3,7.9l0.3,6.6 31,-0 31,-0 0.3,-2.8c0.3,-2.5 0.1,-2.7 -3.5,-2.7 -3.8,-0.1 -8.3,-2.7 -8.3,-4.9 0,-1.6 4.6,-1.3 6,0.4 0.7,0.8 2.3,1.5 3.6,1.5 1.5,-0 2.4,0.6 2.4,1.5 0,0.9 0.9,1.5 2.4,1.5 1.3,-0 2.9,0.7 3.6,1.5 0.9,1.1 3.5,1.5 10.5,1.5 7,-0 9.6,-0.4 10.5,-1.5 0.9,-1.1 3.5,-1.5 10.5,-1.5 7,-0 9.6,-0.4 10.5,-1.5 0.7,-0.8 2.8,-1.5 4.7,-1.5 2.1,-0 3.6,-0.6 3.9,-1.5 1,-2.5 3.2,-1.7 3.6,1.2l0.3,2.8 12.4,0.3c9.9,0.2 12.7,-0 14,-1.2 1.4,-1.2 5.2,-1.6 18.6,-1.8 15.5,-0.3 17,-0.5 17.3,-2.1 0.2,-1 -0.4,-2.7 -1.3,-3.7 -2.4,-2.6 -1.5,-5.4 1.8,-5.8 2.7,-0.3 2.7,-0.3 2.7,5.7 0,4.8 0.3,6.1 1.5,6.1 1.2,-0 1.5,-1.3 1.5,-6 0,-4.7 -0.3,-6 -1.5,-6 -2,-0 -2,-4.4 0,-6 1.9,-1.6 1.9,-4.4 0,-6 -1.3,-1.1 -1.5,-5.8 -1.5,-31.5 0,-25.7 -0.2,-30.4 -1.5,-31.5 -0.8,-0.7 -1.5,-2 -1.5,-3 0,-1 0.7,-2.3 1.5,-3 1.1,-0.9 1.5,-3.5 1.5,-10.5 0,-7.1 0.4,-9.6 1.5,-10.5 1.3,-1.1 1.5,-3.9 1.3,-16.9l-0.3,-15.6 -6.7,-0.3c-4.3,-0.2 -7.1,-0.8 -7.8,-1.7 -0.7,-0.9 -2.9,-1.5 -5.1,-1.5 -2.8,-0 -3.9,-0.4 -3.9,-1.5 0,-1.1 1.2,-1.5 4.5,-1.5 3.3,-0 4.5,-0.4 4.5,-1.5 0,-1.3 -2.1,-1.5 -12.7,-1.5 -11,0.1 -13.1,0.3 -15,1.9 -2.6,2.2 -3,4.1 -0.8,4.1 0.8,-0 1.5,0.7 1.5,1.5 0,0.8 -0.7,1.5 -1.5,1.5 -0.8,-0 -1.5,-0.7 -1.5,-1.5 0,-1.2 -1.9,-1.5 -11.4,-1.5 -8.9,-0 -11.6,-0.3 -12.6,-1.5 -1.3,-1.6 -9,-2.1 -9,-0.6 0,0.5 0.7,1.4 1.5,2.1 2.8,2.3 1.5,3 -5.4,3 -4.9,-0 -7.2,-0.4 -8.1,-1.5 -1,-1.2 -3.7,-1.5 -12.6,-1.5 -9.5,-0 -11.4,-0.3 -11.4,-1.5 0,-0.8 0.7,-1.5 1.5,-1.5 0.8,-0 1.5,-0.7 1.5,-1.5 0,-0.8 -0.7,-1.5 -1.5,-1.5 -0.8,-0 -1.5,0.7 -1.5,1.5 0,1.3 -2.6,1.5 -17.4,1.5 -14.2,-0 -17.6,0.3 -18.6,1.5 -1.3,1.6 -9,2.1 -9,0.6 0,-0.5 0.7,-1.4 1.5,-2.1 0.8,-0.7 1.5,-1.6 1.5,-2.1 0,-1 -34.3,-1.2 -35.3,-0.2zM233,421c0,4.7 -0.3,6 -1.5,6 -1.2,-0 -1.5,-1.3 -1.5,-6 0,-4.7 0.3,-6 1.5,-6 1.2,-0 1.5,1.3 1.5,6z" stroke="#FFFFFF"/><path fill="#FFFFFF" d="M485,287.5c-1,1.2 -5.7,1.5 -27.4,1.7l-26.1,0.3 -0.3,10.2c-0.2,8.4 0,10.3 1.2,10.3 0.7,-0 1.6,-0.7 2,-1.5 0.4,-1.2 2.7,-1.5 11.4,-1.5 8.5,-0 11.2,0.3 12.2,1.5 1.1,1.3 7,1.5 42,1.5 35,-0 40.9,-0.2 42,-1.5 1.8,-2.2 25.2,-2.2 27,-0 1.1,1.3 5,1.5 27.4,1.3 25.2,-0.3 26.1,-0.4 26.4,-2.3 0.2,-1.1 1.1,-2.7 1.8,-3.6 1.1,-1.2 1.4,-3.8 1.2,-9.5 -0.3,-7.1 -0.5,-7.9 -2.4,-8.2 -1.1,-0.2 -2.7,0.4 -3.4,1.3 -1.1,1.3 -4.7,1.5 -24,1.5 -19,-0 -23,0.2 -24,1.5 -0.9,1.1 -3.5,1.5 -10.5,1.5 -7,-0 -9.6,-0.4 -10.5,-1.5 -0.7,-0.8 -2,-1.5 -3,-1.5 -1,-0 -2.3,-0.7 -3,-1.5 -1.9,-2.2 -58.1,-2.2 -60,-0z" stroke="#FFFFFF"/><path fill="#FFFFFF" d="M482,344.5c-1,1.2 -3.7,1.5 -12,1.5 -8.2,-0 -11,0.3 -12,1.5 -0.8,1 -3.7,1.5 -9.3,1.7l-8.2,0.3 0,8.5 0,8.5 11.8,0.3c9.8,0.2 11.7,-0 11.7,-1.2 0,-1.2 -1.9,-1.6 -10.2,-1.8 -7,-0.2 -10.3,-0.7 -10.6,-1.6 -0.3,-0.9 3.3,-1.2 15.5,-1.2l15.9,-0 2.9,3 2.9,3 22.7,-0c18.9,-0 22.9,0.2 23.9,1.5 1,1.3 5.2,1.5 25.5,1.5 20.3,-0 24.5,-0.2 25.5,-1.5 0.9,-1.1 3.3,-1.5 9,-1.5 5.6,-0 8.1,-0.4 9,-1.5 0.9,-1.1 4.2,-1.5 13.8,-1.7l12.7,-0.3 0,-7 0,-7 -21.4,-0.3c-18.4,-0.2 -21.6,-0 -23.1,1.3 -1.3,1.1 -3.3,1.5 -6.6,1.3 -4.2,-0.3 -4.9,-0.6 -5.4,-2.8l-0.6,-2.5 -17.1,-0.3c-13.6,-0.2 -17.3,-0.5 -18.3,-1.7 -1.9,-2.2 -46.2,-2.2 -48,-0zM536,362.5c0,0.8 -0.7,1.5 -1.5,1.5 -0.8,-0 -1.5,-0.7 -1.5,-1.5 0,-0.8 0.7,-1.5 1.5,-1.5 0.8,-0 1.5,0.7 1.5,1.5z" stroke="#FFFFFF"/><path fill="#FFFFFF" d="M443.7,403.7c-0.4,0.3 -0.7,5.1 -0.7,10.5 0,7.7 0.3,9.8 1.4,9.8 0.8,-0 1.6,-0.7 2,-1.5 0.4,-1.2 2.7,-1.5 11.4,-1.5 8.5,-0 11.2,0.3 12.2,1.5 1,1.2 3.7,1.5 12,1.5 8.3,-0 11,0.3 12,1.5 1,1.2 3.8,1.5 13.5,1.5 9.7,-0 12.5,-0.3 13.5,-1.5 0.7,-0.8 2.8,-1.5 4.7,-1.5 2.1,-0 3.6,-0.6 3.9,-1.5 0.4,-0.8 1.2,-1.5 1.9,-1.5 0.7,-0 1.5,0.7 1.9,1.5 0.4,1.3 3.4,1.5 17.6,1.5 14.2,-0 17.2,0.2 17.6,1.5 0.4,0.8 1.2,1.5 1.9,1.5 0.7,-0 1.5,-0.7 1.9,-1.5 0.4,-1.2 2.7,-1.5 11.4,-1.5 8.5,-0 11.2,-0.3 12.2,-1.5 0.9,-1.1 3.3,-1.5 9,-1.5 5.7,-0 8.1,-0.4 9,-1.5 0.7,-0.8 2.1,-1.5 3.1,-1.5 1,-0 2.2,-0.8 2.8,-1.7 0.9,-1.7 1,-1.7 2.8,-0 1.1,0.9 2.3,1.7 2.7,1.7 0.4,-0 0.6,-3.3 0.4,-7.3l-0.3,-7.2 -8.1,-0.3c-6.3,-0.2 -8.4,0.1 -9.4,1.3 -1.9,2.2 -52.1,2.3 -54,-0 -0.9,-1.1 -3.3,-1.5 -9,-1.5 -5.7,-0 -8.1,0.4 -9,1.5 -0.8,0.9 -3,1.5 -6,1.5 -3,-0 -5.2,-0.6 -6,-1.5 -1,-1.2 -3.8,-1.5 -13.5,-1.5 -9.7,-0 -12.5,0.3 -13.5,1.5 -1,1.2 -3.7,1.5 -12,1.5 -8.3,-0 -11,-0.3 -12,-1.5 -1,-1.2 -4,-1.5 -15,-1.5 -7.5,-0 -14,0.3 -14.3,0.7zM506,407.5c0,1 -1,1.5 -3,1.5 -2.9,-0 -3.8,-0.9 -2.3,-2.3 1.3,-1.3 5.3,-0.7 5.3,0.8z" stroke="#FFFFFF"/><path fill="#FFFFFF" d="M395,446.5c0,0.8 0.7,1.5 1.5,1.5 0.8,-0 1.5,-0.7 1.5,-1.5 0,-0.8 -0.7,-1.5 -1.5,-1.5 -0.8,-0 -1.5,0.7 -1.5,1.5z" stroke="#FFFFFF"/><path fill="#FFFFFF" d="M410,446.5c0,0.8 0.7,1.5 1.5,1.5 0.8,-0 1.5,-0.7 1.5,-1.5 0,-0.8 -0.7,-1.5 -1.5,-1.5 -0.8,-0 -1.5,0.7 -1.5,1.5z" stroke="#FFFFFF"/><path fill="#FFFFFF" d="M218,461.5c0,1 1,1.5 3,1.5 2,-0 3,-0.5 3,-1.5 0,-1 -1,-1.5 -3,-1.5 -2,-0 -3,0.5 -3,1.5z" stroke="#FFFFFF"/><path fill="#FFFFFF" d="M355.6,461.5c-0.4,1.3 -3.5,1.5 -18.9,1.5 -15.2,-0 -18.7,0.3 -19.7,1.5 -0.9,1.1 -3.3,1.5 -9,1.5 -5.7,-0 -8.1,-0.4 -9,-1.5 -1,-1.2 -4.7,-1.5 -21,-1.5 -16.3,-0 -20,0.3 -21,1.5 -0.8,1 -3.1,1.5 -6.6,1.5 -4.1,-0 -5.4,0.4 -5.4,1.5 0,2.1 -10.2,2.1 -12,-0 -1,-1.2 -2.9,-1.5 -7.9,-1.3l-6.6,0.3 0,8.5 0,8.5 55,-0 54.9,-0 0.6,-2.5 0.6,-2.5 30.6,-0.3c26.3,-0.2 30.7,-0 31.8,1.3 1.1,1.3 7.7,1.5 50.1,1.5 27.4,-0 48.9,-0.4 48.9,-0.9 0,-0.5 -0.7,-1.4 -1.5,-2.1 -0.8,-0.7 -1.5,-1.6 -1.5,-2.1 0,-1.5 4.7,-1 6,0.6 1.1,1.3 7.9,1.5 50.1,1.5 42.8,-0 48.9,0.2 48.9,1.5 0,1.1 -1.2,1.5 -4.5,1.5 -3.4,-0 -4.5,0.4 -4.5,1.5 0,1.3 2.9,1.5 22.3,1.3l22.2,-0.3 0,-10 0,-10 -42.6,-0.3c-36.4,-0.2 -42.9,-0.4 -43.9,-1.7 -1.9,-2.3 -97.1,-2.3 -99,-0 -1.1,1.3 -7,1.5 -42.2,1.5 -35.4,-0 -40.9,-0.2 -41.4,-1.5 -0.4,-0.8 -1.2,-1.5 -1.9,-1.5 -0.7,-0 -1.5,0.7 -1.9,1.5zM287,467.5c0,0.8 -0.7,1.5 -1.5,1.5 -0.8,-0 -1.5,-0.7 -1.5,-1.5 0,-0.8 0.7,-1.5 1.5,-1.5 0.8,-0 1.5,0.7 1.5,1.5zM254,470.5c0,1.1 -1.2,1.5 -4.5,1.5 -3.3,-0 -4.5,-0.4 -4.5,-1.5 0,-1.1 1.2,-1.5 4.5,-1.5 3.3,-0 4.5,0.4 4.5,1.5z" stroke="#FFFFFF"/><path fill="#FFFFFF" d="M380,482.4c0,1.2 1.1,1.6 4.6,1.6 5.9,-0 5.5,-2.4 -0.4,-2.8 -3.3,-0.2 -4.2,-0 -4.2,1.2z" stroke="#FFFFFF"/><path fill="#FFFFFF" d="M569,482.5c0,1.1 1.2,1.5 4.5,1.5 3.3,-0 4.5,-0.4 4.5,-1.5 0,-1.1 -1.2,-1.5 -4.5,-1.5 -3.3,-0 -4.5,0.4 -4.5,1.5z" stroke="#FFFFFF"/><path fill="#FFFFFF" d="M425,509.5c-1.1,1.3 -13.2,1.5 -97.5,1.5 -82.9,-0 -96.4,0.2 -97.5,1.5 -0.7,0.8 -3.4,1.5 -6.3,1.7l-5.2,0.3 -0.3,11.7c-0.2,10.1 0,11.8 1.3,11.8 0.9,-0 1.5,-0.9 1.5,-2.3 0,-3.2 4,-6.7 7.6,-6.7 2.1,-0 4,1 5.9,3l2.9,3 37.7,-0c32.2,-0 37.8,-0.2 38.9,-1.5 1,-1.2 4.6,-1.5 20.1,-1.5 16.1,-0 18.9,0.2 18.9,1.5 0,1.2 1.7,1.5 9,1.5 7.3,-0 9,-0.3 9,-1.5 0,-1.1 1.3,-1.5 5.4,-1.5 3.5,-0 5.8,-0.5 6.6,-1.5 1.9,-2.3 85.1,-2.3 87,-0 1.1,1.3 10.4,1.5 75.4,1.3l74.1,-0.3 0,-11.5 0,-11.5 -21.5,-0.3 -21.6,-0.2 -2.9,3c-3.2,3.3 -8.3,4.1 -10.5,1.5 -1,-1.2 -3.8,-1.5 -13.5,-1.5 -9.7,-0 -12.5,0.3 -13.5,1.5 -0.9,1.1 -3.3,1.5 -9,1.5 -5.7,-0 -8.1,-0.4 -9,-1.5 -0.8,-0.9 -3,-1.5 -6,-1.5 -3,-0 -5.2,-0.6 -6,-1.5 -1.1,-1.3 -6.8,-1.5 -40.5,-1.5 -33.7,-0 -39.4,0.2 -40.5,1.5zM371,530.5c0,1.2 -1.7,1.5 -9,1.5 -7.3,-0 -9,-0.3 -9,-1.5 0,-1.2 1.7,-1.5 9,-1.5 7.3,-0 9,0.3 9,1.5z" stroke="#FFFFFF"/><path fill="#FFFFFF" d="M386.7,532.7c-1.9,1.8 0.3,2.3 11.3,2.3 10,-0 12,-0.3 12,-1.5 0,-1.2 -1.9,-1.5 -11.3,-1.5 -6.3,-0 -11.7,0.3 -12,0.7z" stroke="#FFFFFF"/><path fill="#FFFFFF" d="M224.7,535.7c-1.5,1.4 -0.6,2.3 2.3,2.3 2,-0 3,-0.5 3,-1.5 0,-1.5 -4,-2.1 -5.3,-0.8z" stroke="#FFFFFF"/><path fill="#FFFFFF" d="M218.4,560.3c-0.2,0.7 -0.3,6 -0.2,11.8l0.3,10.4 120.4,0.3c105.8,0.2 120.6,-0 122.1,-1.3 1.4,-1.3 11.7,-1.5 77.1,-1.7l75.4,-0.3 0,-8.5 0,-8.5 -11.2,-0.3c-8.3,-0.2 -11.4,-0.6 -12.3,-1.7 -1.1,-1.3 -17.4,-1.5 -125.1,-1.5 -109.5,-0 -123.9,0.2 -123.9,1.5 0,1.2 1.8,1.5 10.5,1.5 8.7,-0 10.5,0.3 10.5,1.5 0,1.3 -2.8,1.5 -18.9,1.5 -15.5,-0 -19.1,-0.3 -20.1,-1.5 -0.9,-1.1 -3.3,-1.5 -9.2,-1.5 -6.1,-0 -8,0.3 -8.4,1.5 -0.4,0.8 -1.2,1.5 -1.9,1.5 -0.7,-0 -1.5,-0.7 -1.9,-1.5 -0.3,-0.8 -1.4,-1.5 -2.4,-1.5 -1.1,-0 -2.5,-0.7 -3.2,-1.5 -1.1,-1.3 -6.7,-1.5 -39.2,-1.5 -30.4,-0 -38,0.3 -38.4,1.3zM374,566.5c0,0.8 -0.7,1.5 -1.5,1.5 -0.8,-0 -1.5,-0.7 -1.5,-1.5 0,-0.8 0.7,-1.5 1.5,-1.5 0.8,-0 1.5,0.7 1.5,1.5z" stroke="#FFFFFF"/><path fill="#FFFFFF" d="M662,575.5c0,0.8 0.7,1.5 1.5,1.5 0.8,-0 1.5,-0.7 1.5,-1.5 0,-0.8 -0.7,-1.5 -1.5,-1.5 -0.8,-0 -1.5,0.7 -1.5,1.5z" stroke="#FFFFFF"/><path fill="#FFFFFF" d="M599,584.5c0,1.2 1.5,1.5 7.5,1.5 6,-0 7.5,-0.3 7.5,-1.5 0,-1.2 -1.5,-1.5 -7.5,-1.5 -6,-0 -7.5,0.3 -7.5,1.5z" stroke="#FFFFFF"/><path fill="#FFFFFF" d="M77,390.5c0,9.4 -0.3,11.7 -1.5,12.1 -1.2,0.5 -1.5,2.7 -1.5,11 0,8.6 0.3,10.4 1.5,10.4 1.2,-0 1.5,-1.4 1.5,-6.9 0,-4.9 0.4,-7.2 1.5,-8.1 1.2,-1 1.5,-4.1 1.5,-15.6 0,-12.1 -0.2,-14.4 -1.5,-14.4 -1.2,-0 -1.5,1.9 -1.5,11.5z" stroke="#FFFFFF"/><path fill="#FFFFFF" d="M56,590.5c0,0.8 0.7,1.5 1.5,1.5 0.8,-0 1.5,-0.7 1.5,-1.5 0,-0.8 -0.7,-1.5 -1.5,-1.5 -0.8,-0 -1.5,0.7 -1.5,1.5z" stroke="#FFFFFF"/></g></svg>