<svg id="vector" xmlns="http://www.w3.org/2000/svg" width="200" height="200" viewBox="0 0 600 600"><g id="g_0"><path fill="#000000" d="M408,34.3c-0.3,0.2 -17.4,0.7 -38,1.1 -73.8,1.3 -132.6,2.6 -139,3.1 -3.6,0.3 -29.4,1 -57.5,1.5 -64.6,1.3 -75.6,2.2 -92.5,7.6 -32.9,10.4 -53,44.5 -48.9,83.2 1.2,12.1 1.3,34 0.3,159.7 -0.9,121.7 0.2,140.7 9.5,159.8 12.1,24.9 34.9,39.5 68.2,43.7 6.2,0.8 35.9,1.4 87.4,1.6 68.9,0.4 78.7,0.6 83.8,2.1 3.8,1.1 9.6,4.2 16.5,9 34.7,23.8 90.1,60.8 98.6,65.8 12.9,7.5 21.2,10.5 29.8,10.5 16.6,-0 28.3,-10.5 30.8,-27.9 0.5,-3.2 0.4,-13.8 -0.2,-25.1 -1.7,-29.3 -1.1,-30 23.1,-30 27.7,-0 45.2,-6.2 60.7,-21.5 14.8,-14.7 21.6,-33.4 24.4,-67.5 1.6,-18.6 0.6,-300 -1,-306.9 -1.7,-7 -7.4,-20 -13.2,-30 -9.4,-16.2 -23.4,-27.8 -40.7,-33.6 -16,-5.5 -18.9,-5.7 -61.6,-6.2 -22,-0.3 -40.2,-0.3 -40.5,-0zM488,68.5c0.8,0.9 3,1.5 6,1.5 3,-0 5.2,0.6 6,1.5 0.7,0.8 2,1.5 2.9,1.5 1,-0 3,1.3 4.6,3 1.6,1.6 3.6,3 4.4,3 2,-0 12.1,10 12.1,12 0,0.9 1.4,2.9 3,4.5 1.7,1.6 3,3.6 3,4.6 0,0.9 0.7,2.2 1.5,2.9 0.9,0.8 1.5,3 1.5,6 0,3 0.6,5.2 1.5,6 1.3,1.1 1.5,19.2 1.5,151.5 0,132.3 -0.2,150.4 -1.5,151.5 -0.9,0.8 -1.5,3 -1.5,6 0,3 -0.6,5.2 -1.5,6 -0.8,0.7 -1.5,2 -1.5,2.9 0,1 -1.3,3 -3,4.6 -1.6,1.6 -3,3.6 -3,4.4 0,2 -10,12.1 -12,12.1 -0.9,-0 -2.9,1.3 -4.5,3 -1.6,1.6 -3.6,3 -4.6,3 -0.9,-0 -2.2,0.7 -2.9,1.5 -0.8,0.9 -3,1.5 -6,1.5 -3,-0 -5.2,0.6 -6,1.5 -1,1.2 -6.2,1.5 -31.9,1.7l-30.6,0.3 -0.5,44.5 -0.5,44.5 -3.5,0.3c-2.8,0.2 -4.1,-0.3 -6.5,-2.8 -1.6,-1.6 -3.6,-3 -4.5,-3 -0.9,-0 -3.6,-2 -6,-4.5 -2.4,-2.5 -5.1,-4.5 -6,-4.5 -0.9,-0 -3.6,-2 -6,-4.5 -2.4,-2.5 -5.1,-4.5 -6,-4.5 -0.9,-0 -2.9,-1.4 -4.5,-3 -1.6,-1.7 -3.6,-3 -4.5,-3 -0.9,-0 -3.6,-2 -6,-4.5 -2.4,-2.5 -5.1,-4.5 -6,-4.5 -0.9,-0 -2.9,-1.3 -4.5,-3 -1.6,-1.6 -3.6,-3 -4.5,-3 -0.9,-0 -3.6,-2 -6,-4.5 -2.4,-2.5 -5.1,-4.5 -6,-4.5 -0.9,-0 -2.9,-1.4 -4.5,-3 -1.6,-1.7 -3.6,-3 -4.5,-3 -0.9,-0 -3.6,-2 -6,-4.5 -2.4,-2.5 -5.1,-4.5 -6,-4.5 -0.9,-0 -2.9,-1.4 -4.5,-3 -1.6,-1.7 -3.6,-3 -4.5,-3 -0.9,-0 -3.6,-2 -6,-4.5 -2.4,-2.5 -5.1,-4.5 -6,-4.5 -0.9,-0 -2.9,-1.4 -4.5,-3l-2.9,-3 -91.7,-0c-80.2,-0 -91.8,-0.2 -92.9,-1.5 -0.8,-0.9 -3,-1.5 -6,-1.5 -3,-0 -5.2,-0.6 -6,-1.5 -0.7,-0.8 -2,-1.5 -2.9,-1.5 -1,-0 -3,-1.4 -4.6,-3 -1.6,-1.7 -3.6,-3 -4.4,-3 -2,-0 -12.1,-10 -12.1,-12 0,-0.9 -1.4,-2.9 -3,-4.5 -1.6,-1.6 -3,-3.6 -3,-4.6 0,-0.9 -0.7,-2.2 -1.5,-2.9 -0.9,-0.8 -1.5,-3 -1.5,-6 0,-3 -0.6,-5.2 -1.5,-6 -1.3,-1.1 -1.5,-19.2 -1.5,-151.5 0,-132.3 0.2,-150.4 1.5,-151.5 0.9,-0.8 1.5,-3 1.5,-6 0,-3 0.6,-5.2 1.5,-6 0.8,-0.7 1.5,-2 1.5,-2.9 0,-1 1.4,-3 3,-4.6 1.7,-1.6 3,-3.6 3,-4.4 0,-2 10,-12.1 12,-12.1 0.9,-0 2.9,-1.4 4.5,-3 1.6,-1.7 3.6,-3 4.6,-3 0.9,-0 2.2,-0.7 2.9,-1.5 0.8,-0.9 3,-1.5 6,-1.5 3,-0 5.2,-0.6 6,-1.5 1.1,-1.3 23.3,-1.5 189,-1.5 165.7,-0 187.9,0.2 189,1.5z" stroke="#000000"/><path fill="#000000" d="M239,92.5c-1,1.2 -4.2,1.5 -16.5,1.5 -12.3,-0 -15.5,0.3 -16.5,1.5 -1,1.2 -4,1.5 -15,1.5 -11,-0 -14,0.3 -15,1.5 -0.8,0.9 -3,1.5 -6,1.5 -3,-0 -5.2,-0.6 -6,-1.5 -1,-1.2 -4.3,-1.5 -18,-1.5 -13.7,-0 -17,-0.3 -18,-1.5 -0.9,-1.1 -3.3,-1.5 -9,-1.5 -5.7,-0 -8.1,0.4 -9,1.5 -0.7,0.8 -2.7,1.5 -4.4,1.5 -4.8,-0 -7.6,3.5 -7.6,9.2 0,2.8 -0.6,5 -1.5,5.8 -0.8,0.7 -1.5,2 -1.5,3 0,1 -0.7,2.3 -1.5,3 -1.2,1 -1.5,4.7 -1.5,21 0,16.3 -0.3,20 -1.5,21 -0.8,0.7 -1.5,2 -1.5,3 0,1 -0.7,2.3 -1.5,3 -2.1,1.7 -2.1,13.3 0,15 1.2,1 1.5,4.3 1.5,18 0,13.7 0.3,17 1.5,18 1.2,1 1.5,4.2 1.5,16.5 0,12.3 0.3,15.5 1.5,16.5 1,0.9 1.5,3.2 1.5,7.5 0,4.3 -0.5,6.6 -1.5,7.5 -1.3,1.1 -1.5,5.7 -1.5,30 0,24.3 -0.2,28.9 -1.5,30 -1.1,0.9 -1.5,3.3 -1.5,9.2 0,6.1 -0.3,8 -1.5,8.4 -1.9,0.8 -1.9,3 0,3.8 1.2,0.4 1.5,3 1.5,14.4 0,11.4 0.3,14.2 1.5,15.2 2.3,1.9 1.4,5.3 -1.5,6 -2.3,0.5 -2.5,1.1 -2.8,7.3 -0.2,5.3 0,6.9 1.3,7.3 1.9,0.8 2,3 0,3.8 -2.7,1 -1.9,6.9 1.5,10.1 1.6,1.6 3,3.6 3,4.6 0,0.9 0.6,2.2 1.4,2.9 0.8,0.6 1.6,2.1 1.8,3.3 0.2,1.7 1.1,2.3 4,2.5 2,0.2 4.2,1 4.8,1.8 0.7,0.8 2.7,1.4 4.5,1.4 1.8,-0 3.8,0.6 4.5,1.4 0.6,0.8 2.8,1.6 4.8,1.8 2.9,0.2 3.7,0.8 4.2,2.8 0.6,2.5 0.7,2.5 13.2,2.8 9.6,0.2 12.9,0.6 13.8,1.7 1.6,1.9 7.4,1.9 9,-0 1,-1.2 4,-1.5 15,-1.5 11,-0 14,-0.3 15,-1.5 1.6,-1.9 7.4,-1.9 9,-0 1.9,2.2 64.1,2.2 66,-0 1.7,-2 10.3,-2 12,-0 0.7,0.8 2.7,1.5 4.5,1.5 1.8,-0 3.8,0.7 4.5,1.5 1.7,2 10.3,2 12,-0 0.9,-1 3.2,-1.5 7.4,-1.5 5.6,-0 6.5,0.3 9.1,3 1.6,1.7 3.6,3 4.5,3 2.1,-0 5.7,3.8 6.2,6.5 0.2,1.1 1.3,2.1 2.5,2.3 1.2,0.2 2.7,1 3.3,1.8 0.7,0.8 2,1.4 2.9,1.4 2.1,-0 5.8,3.8 6.3,6.5 0.2,1.5 1.2,2.1 3.9,2.3 2.4,0.2 4.5,1.3 6.5,3.3 1.5,1.6 3.5,2.9 4.4,2.9 0.9,-0 3.6,2 6,4.5 2.4,2.5 5.1,4.5 6,4.5 0.9,-0 3.6,2 6,4.5 2.4,2.5 5.2,4.5 6.1,4.5 1,-0 2.9,1.3 4.2,3 2.8,3.3 4.7,3.9 4.7,1.5 0,-2.5 2.4,-1.7 4.5,1.5 3.6,5.4 4.5,3.9 4.5,-6.9 0,-7.5 0.4,-10.1 1.5,-11.1 1.2,-1 1.5,-4 1.5,-15 0,-10.8 0.3,-14 1.4,-15 0.8,-0.6 1.6,-2.8 1.8,-4.8l0.3,-3.7 6.6,-0.3c5,-0.2 6.9,0.1 7.9,1.3 0.9,1.1 3.2,1.5 9,1.5 7.5,-0 7.9,-0.1 10.3,-3 2.9,-3.3 4.2,-3.7 5.1,-1.5 0.4,1.3 3.5,1.5 18.9,1.5 15.2,-0 18.7,-0.3 19.7,-1.5 0.7,-0.8 2.1,-1.5 3.2,-1.5 1,-0 2.1,-0.7 2.4,-1.5 0.4,-0.8 1.2,-1.5 2,-1.5 0.8,-0 1.4,0.7 1.4,1.5 0,0.8 0.6,1.5 1.4,1.5 0.8,-0 1.6,-0.7 2,-1.5 0.3,-0.8 1.4,-1.5 2.4,-1.5 2.2,-0 6.2,-4 6.2,-6.2 0,-0.9 0.7,-2.1 1.5,-2.8 0.8,-0.7 1.5,-2 1.5,-3 0,-1 0.7,-2.3 1.5,-3 1.3,-1.1 1.5,-8.8 1.5,-58.5 0,-49.7 0.2,-57.4 1.5,-58.5 0.8,-0.7 1.5,-2 1.5,-3 0,-1 -0.7,-2.3 -1.5,-3 -1,-0.9 -1.5,-3.2 -1.5,-7.5 0,-4.3 0.5,-6.6 1.5,-7.5 1.1,-0.9 1.5,-3.5 1.5,-10.5 0,-7 -0.4,-9.6 -1.5,-10.5 -1.2,-1 -1.5,-4.2 -1.5,-16.5 0,-12.3 -0.3,-15.5 -1.5,-16.5 -1,-0.9 -1.5,-3.2 -1.5,-7.7 0,-4.7 -0.4,-6.5 -1.5,-6.9 -0.8,-0.4 -1.5,-1.2 -1.5,-1.9 0,-0.7 0.7,-1.5 1.5,-1.9 0.8,-0.3 1.5,-1.4 1.5,-2.4 0,-1.1 0.7,-2.5 1.5,-3.2 1.3,-1 1.5,-5.2 1.5,-25.5 0,-20.3 0.2,-24.5 1.5,-25.5 1.2,-1 1.5,-4.2 1.5,-16.5 0,-12.3 -0.3,-15.5 -1.5,-16.5 -0.8,-0.7 -1.5,-2.3 -1.5,-3.6 0,-2.7 -1.2,-3.1 -3,-0.9 -1.8,2.2 -3,1.8 -3,-0.8 0,-2.6 -3.8,-6.7 -6.2,-6.7 -0.9,-0 -2.1,-0.7 -2.8,-1.5 -0.7,-0.8 -2,-1.5 -3,-1.5 -1,-0 -2.3,-0.7 -3,-1.5 -1,-1.2 -4.8,-1.5 -22.5,-1.5 -17.7,-0 -21.5,0.3 -22.5,1.5 -1,1.2 -3.8,1.5 -13.5,1.5 -9.7,-0 -12.5,-0.3 -13.5,-1.5 -1,-1.2 -4.7,-1.5 -21,-1.5 -16.3,-0 -20,-0.3 -21,-1.5 -0.7,-0.8 -2.8,-1.5 -4.7,-1.5 -2.1,-0 -3.6,0.6 -3.9,1.5 -0.4,0.8 -1.2,1.5 -2,1.5 -0.8,-0 -1.4,-0.7 -1.4,-1.5 0,-0.8 -0.6,-1.5 -1.4,-1.5 -0.8,-0 -1.6,0.7 -2,1.5 -0.3,0.8 -1.4,1.5 -2.4,1.5 -1.1,-0 -2.5,-0.7 -3.2,-1.5 -0.9,-1 -3.2,-1.5 -7.5,-1.5 -4.3,-0 -6.6,0.5 -7.5,1.5 -0.7,0.8 -2,1.5 -3,1.5 -1,-0 -2.3,-0.7 -3,-1.5 -1,-1.2 -4.8,-1.5 -22.5,-1.5 -17.7,-0 -21.5,-0.3 -22.5,-1.5 -1,-1.2 -4.8,-1.5 -22.5,-1.5 -17.7,-0 -21.5,0.3 -22.5,1.5zM298.8,213.7c0.2,2.9 0.9,5.6 1.7,6.3 0.8,0.7 1.5,2.7 1.5,4.5 0,1.8 0.7,3.8 1.5,4.5 0.9,0.8 1.5,3 1.5,5.9 0,3.9 0.5,5.2 3,7.6 2.1,2 3,3.8 3,6.1 0,1.7 0.6,3.7 1.4,4.4 0.8,0.6 1.6,2.1 1.8,3.3 0.3,2.2 0.6,2.2 22.6,2.5 13.5,0.1 22.2,-0.1 22.2,-0.7 0,-1.6 -10.4,-11.1 -12.1,-11.1 -0.9,-0 -2.2,-0.7 -2.9,-1.5 -0.7,-0.8 -2.3,-1.5 -3.6,-1.5 -1.5,-0 -2.4,-0.6 -2.4,-1.5 0,-1.2 2.9,-1.5 17.8,-1.7l17.7,-0.3 0.3,-3.7c0.2,-2 1,-4.2 1.8,-4.8 0.8,-0.7 1.4,-2.7 1.4,-4.5 0,-1.8 0.7,-3.8 1.5,-4.5 0.8,-0.7 1.5,-2.7 1.5,-4.4 0.1,-3.1 2.9,-7.6 4.9,-7.6 0.7,-0 1.1,2.2 1.1,5.4 0,3.5 0.5,5.8 1.5,6.6 0.8,0.7 1.5,2.7 1.5,4.5 0,1.8 0.7,3.8 1.5,4.5 0.8,0.7 1.5,1.9 1.5,2.8 0,0.9 1,2.6 2.2,3.9 2.1,2.2 2.7,2.3 17.5,2.3 12.7,-0 15.5,0.3 15.9,1.5 0.4,0.8 1.3,1.5 2.1,1.5 1.1,-0 1.3,-1.1 1.1,-4.2 -0.2,-3.3 -0.8,-4.3 -2.4,-4.8 -2.5,-0.6 -9.4,-6.5 -9.4,-8 0,-0.6 2.8,-1 6.7,-1 7.9,-0 11.3,-2.2 11.3,-7.4 0.1,-3.2 2.9,-7.6 4.9,-7.6 0.6,-0 1.1,1.7 1.1,3.9 0,2.1 0.6,4.4 1.4,5.1 0.8,0.6 1.6,2.1 1.8,3.3 0.3,2 1.1,2.3 7.3,2.7 6.7,0.5 7,0.6 7,3 0,1.7 -0.6,2.6 -2,2.8 -1.1,0.2 -3,1.3 -4.2,2.5 -1.9,1.7 -2.3,3.1 -2.3,8.4 0,4.7 0.4,6.5 1.5,6.9 0.8,0.4 1.5,1.2 1.5,2 0,2.5 -4.5,1.5 -7.5,-1.6 -3.2,-3.3 -8.4,-4.1 -10.5,-1.5 -0.7,0.8 -2,1.5 -3,1.5 -1,-0 -3,1.3 -4.3,3 -1.4,1.6 -3,3 -3.6,3 -1.6,-0 -1.3,-4.6 0.4,-6 0.8,-0.7 1.5,-2.3 1.5,-3.6 0,-4 -4,-3 -9,2.1 -2.4,2.5 -5.1,4.5 -6,4.5 -0.9,-0 -2.9,1.3 -4.5,2.9 -1.5,1.7 -3.7,3.1 -4.9,3.3 -2.6,0.4 -3.3,4 -1.1,5.8 1,0.8 1.5,2.9 1.5,6 0,3 0.6,5.2 1.5,6 0.8,0.7 1.5,2 1.5,3 0,1 0.7,2.3 1.5,3 0.9,0.7 1.5,2.3 1.3,3.4 -0.5,3.3 -4,3.1 -7.3,-0.4 -1.6,-1.6 -3.6,-3 -4.5,-3 -0.9,-0 -2.9,-1.4 -4.5,-3 -1.6,-1.7 -3.7,-3 -4.7,-3 -1,-0 -2.1,-0.7 -2.4,-1.5 -0.4,-0.8 -1.2,-1.5 -1.9,-1.5 -0.7,-0 -1.5,0.7 -1.9,1.5 -0.3,0.9 -1.8,1.5 -3.9,1.5 -2.4,-0 -4.1,0.8 -6.2,3 -1.6,1.6 -3.6,3 -4.6,3 -0.9,-0 -3.5,2 -5.8,4.5 -2.3,2.5 -4.6,4.5 -5.1,4.5 -1.6,-0 -1.2,-4.6 0.5,-6 0.8,-0.7 1.5,-2.7 1.5,-4.5 0,-1.8 0.7,-3.8 1.5,-4.5 0.8,-0.7 1.5,-2 1.5,-3 0,-1 0.7,-2.3 1.5,-3 1.9,-1.6 2,-6 0.1,-6 -0.8,-0 -1.6,0.7 -2,1.5 -0.3,1 -1.9,1.5 -4.6,1.5 -4.2,-0 -5,0.9 -2.5,3 2.2,1.8 1.8,3 -0.8,3 -1.3,-0 -3.6,1.3 -5.2,3 -2,2.1 -3.8,3 -6,3 -3.4,-0 -7,3.1 -7.7,6.5 -0.2,1.1 -1.2,2.1 -2.3,2.3 -2.7,0.5 -6.5,4.2 -6.5,6.3 0,0.9 0.7,2.2 1.5,2.9 0.8,0.7 1.5,2.7 1.5,4.5 0,1.8 0.7,3.8 1.5,4.5 0.9,0.8 1.5,3 1.5,6 0,3 0.6,5.2 1.5,6 0.9,0.8 1.5,3 1.5,5.9 0,3.9 0.5,5.2 3,7.6 2.6,2.5 3,3.6 3,8.2 0,3.9 -0.4,5.3 -1.4,5.3 -0.8,-0 -1.6,-0.6 -1.9,-1.4 -0.3,-0.8 -1.6,-1.6 -2.8,-1.8 -1.5,-0.2 -2.5,-1.2 -2.9,-2.8 -0.4,-1.5 -1.4,-2.6 -2.7,-2.8 -1.1,-0.2 -3.3,-1.6 -4.8,-3.3 -1.6,-1.6 -3.6,-2.9 -4.6,-2.9 -0.9,-0 -2.2,-0.6 -2.9,-1.4 -0.6,-0.8 -2.1,-1.6 -3.3,-1.8 -1.3,-0.2 -2.3,-1.3 -2.7,-2.8 -0.4,-1.5 -1.4,-2.6 -2.7,-2.8 -1.2,-0.2 -2.7,-1 -3.3,-1.8 -0.7,-0.8 -2,-1.4 -3,-1.4 -1,-0 -2.3,-0.7 -3,-1.5 -0.7,-0.8 -2,-1.5 -3,-1.5 -1,-0 -2.3,0.7 -3,1.5 -0.7,0.8 -2,1.5 -3,1.5 -1,-0 -2.3,0.6 -3,1.4 -0.6,0.8 -2.1,1.6 -3.3,1.8 -1.3,0.2 -2.3,1.3 -2.7,2.8 -0.3,1.4 -1.4,2.6 -2.5,2.8 -1.1,0.2 -2.7,1 -3.5,1.7 -0.8,0.8 -3.8,1.5 -6.5,1.7 -4.1,0.2 -5,0.7 -5.3,2.3 -0.2,1.1 -1,2.7 -1.7,3.5 -0.7,0.8 -1.5,2.4 -1.7,3.5 -0.2,1.1 -1.2,2.1 -2.3,2.3 -1.1,0.2 -2.8,1.1 -3.7,1.9 -0.9,0.8 -2.5,1.3 -3.5,1.1 -2.3,-0.4 -2.9,-4.1 -0.8,-5.8 0.8,-0.7 1.5,-2 1.5,-3 0,-1 0.7,-2.3 1.5,-3 0.9,-0.8 1.5,-3 1.5,-5.9 0,-3.9 0.5,-5.2 3,-7.6 2.1,-2 3,-3.8 3,-6.1 0,-1.7 0.7,-3.7 1.5,-4.4 1.3,-1 1.5,-3.2 1.3,-10.9 -0.3,-8.9 -0.5,-9.6 -2.4,-9.9 -1.2,-0.2 -3.4,-1.6 -4.9,-3.3 -1.6,-1.6 -3.6,-2.9 -4.5,-2.9 -2.1,-0 -5.7,-3.8 -6.2,-6.5 -0.2,-1.1 -1.3,-2.1 -2.5,-2.3 -1.2,-0.2 -2.7,-1 -3.3,-1.8 -0.7,-0.8 -2.1,-1.4 -3.2,-1.4 -1,-0 -2.1,-0.7 -2.4,-1.5 -0.4,-0.8 -1.2,-1.5 -2,-1.5 -2,-0 -1.9,7.4 0.1,9 0.8,0.7 1.5,2 1.5,3 0,1 0.7,2.3 1.5,3 0.9,0.7 1.5,2.3 1.3,3.4 -0.5,3.3 -4,3.1 -7.3,-0.4 -1.6,-1.6 -3.6,-3 -4.5,-3 -0.9,-0 -2.9,-1.4 -4.5,-3 -1.6,-1.7 -3.7,-3 -4.7,-3 -1,-0 -2.1,-0.7 -2.4,-1.5 -0.4,-0.8 -1.2,-1.5 -1.9,-1.5 -0.7,-0 -1.5,0.7 -1.9,1.5 -0.3,0.9 -1.8,1.5 -3.9,1.5 -2.4,-0 -4.1,0.8 -6.2,3 -1.6,1.6 -3.6,3 -4.6,3 -0.9,-0 -3.5,2 -5.8,4.5 -2.3,2.5 -4.6,4.5 -5.1,4.5 -1.6,-0 -1.2,-4.6 0.5,-6 0.8,-0.7 1.5,-2.7 1.5,-4.5 0,-1.8 0.7,-3.8 1.5,-4.5 0.8,-0.7 1.5,-2 1.5,-3 0,-1 0.7,-2.3 1.5,-3 1.2,-1 1.5,-2.8 1.3,-6.4 -0.3,-4.3 -0.6,-5.1 -2.4,-5.4 -1.1,-0.2 -4.7,-3 -7.9,-6.2 -3.3,-3.3 -6.7,-6 -7.6,-6 -0.9,-0 -2.2,-0.7 -2.9,-1.5 -0.7,-0.8 -2.3,-1.5 -3.6,-1.5 -1.5,-0 -2.4,-0.6 -2.4,-1.5 0,-1.2 2.9,-1.5 17.8,-1.7l17.7,-0.3 0.3,-3.7c0.2,-2 1,-4.2 1.8,-4.8 0.8,-0.7 1.4,-2.7 1.4,-4.5 0,-1.8 0.7,-3.8 1.5,-4.5 0.8,-0.7 1.5,-2.7 1.5,-4.4 0.1,-3.1 2.9,-7.6 4.9,-7.6 0.7,-0 1.1,2.2 1.1,5.4 0,3.5 0.5,5.8 1.5,6.6 0.8,0.7 1.5,2.7 1.5,4.5 0,1.8 0.7,3.8 1.5,4.5 0.8,0.7 1.5,1.9 1.5,2.8 0,0.9 1,2.6 2.2,3.9 2.1,2.2 2.7,2.3 18,2.3 13.4,-0 15.8,0.2 15.8,1.5 0,0.9 -0.9,1.5 -2.3,1.5 -1.4,-0 -4,1.8 -6.7,4.5 -2.4,2.5 -5.1,4.5 -6,4.5 -1.9,0.1 -6,3.4 -6,4.9 0,0.8 6.5,1.1 22.3,0.9 21.9,-0.3 22.2,-0.3 22.5,-2.5 0.2,-1.2 1,-2.7 1.8,-3.3 0.8,-0.7 1.4,-2.7 1.4,-4.5 0,-1.8 0.7,-3.8 1.5,-4.5 1,-0.9 1.5,-3.2 1.5,-7.4 0,-5.6 0.3,-6.5 3,-9.1 2.5,-2.4 3,-3.7 3,-7.6 0,-2.9 0.6,-5.1 1.5,-5.9 0.8,-0.7 1.5,-2 1.5,-3 0,-2.3 1,-3.1 3.5,-2.8 1.7,0.3 2,1.1 2.3,5.5zM152,214.9c0,2.1 0.6,4.4 1.4,5.1 0.8,0.6 1.6,2.1 1.8,3.3 0.3,2 1.1,2.3 7.3,2.7 6.7,0.5 7,0.6 7,3 0,1.7 -0.6,2.6 -2,2.8 -1.1,0.2 -3,1.3 -4.2,2.5 -1.9,1.7 -2.3,3.1 -2.3,8.4 0,4.7 0.4,6.5 1.5,6.9 0.8,0.4 1.5,1.2 1.5,2 0,2.5 -4.5,1.5 -7.5,-1.6 -3.2,-3.3 -8.4,-4.1 -10.5,-1.5 -0.7,0.8 -2,1.5 -3,1.5 -1,-0 -3,1.3 -4.3,3 -1.4,1.6 -3,3 -3.6,3 -1.6,-0 -1.3,-4.6 0.4,-6 0.8,-0.7 1.5,-2 1.5,-3 0,-1 0.7,-2.3 1.6,-3 2.3,-2 1.5,-8.3 -1.2,-9 -2.5,-0.6 -9.4,-6.5 -9.4,-8 0,-0.6 2.8,-1 6.7,-1 7.8,-0 11.3,-2.3 11.3,-7.2 0,-3.2 2.8,-7.7 4.8,-7.8 0.7,-0 1.2,1.4 1.2,3.9z" stroke="#000000"/></g><g id="g_1"><path fill="#000000" d="M110,68.5c-0.8,0.9 -3,1.5 -6,1.5 -3,-0 -5.2,0.6 -6,1.5 -0.7,0.8 -2,1.5 -2.9,1.5 -1,-0 -3,1.3 -4.6,3 -1.6,1.6 -3.6,3 -4.5,3 -2,-0 -12,10.1 -12,12.1 0,0.8 -1.3,2.8 -3,4.4 -1.6,1.6 -3,3.6 -3,4.6 0,0.9 -0.7,2.2 -1.5,2.9 -0.9,0.8 -1.5,3 -1.5,6 0,3 -0.6,5.2 -1.5,6 -1.3,1.1 -1.5,19.2 -1.5,151.5 0,132.3 0.2,150.4 1.5,151.5 0.9,0.8 1.5,3 1.5,6 0,3 0.6,5.2 1.5,6 0.8,0.7 1.5,2 1.5,2.9 0,1 1.4,3 3,4.6 1.6,1.6 3,3.6 3,4.5 0,2 10.1,12 12.1,12 0.8,-0 2.8,1.3 4.4,3 1.6,1.6 3.6,3 4.6,3 0.9,-0 2.2,0.7 2.9,1.5 0.8,0.9 3,1.5 6,1.5 3,-0 5.2,0.6 6,1.5 1.1,1.3 12.7,1.5 92.9,1.5l91.7,-0 2.9,3c1.6,1.6 3.6,3 4.5,3 0.9,-0 3.6,2 6,4.5 2.4,2.5 5.1,4.5 6,4.5 0.9,-0 2.9,1.3 4.5,3 1.6,1.6 3.6,3 4.5,3 0.9,-0 3.6,2 6,4.5 2.4,2.5 5.1,4.5 6,4.5 0.9,-0 2.9,1.3 4.5,3 1.6,1.6 3.6,3 4.5,3 0.9,-0 3.6,2 6,4.5 2.4,2.5 5.1,4.5 6,4.5 0.9,-0 2.9,1.4 4.5,3 1.6,1.7 3.6,3 4.5,3 0.9,-0 3.6,2 6,4.5 2.4,2.5 5.1,4.5 6,4.5 0.9,-0 2.9,1.3 4.5,3 1.6,1.6 3.6,3 4.5,3 0.9,-0 3.6,2 6,4.5 2.4,2.5 5.1,4.5 6,4.5 0.9,-0 3.6,2 6,4.5 2.4,2.5 5.1,4.5 6,4.5 0.9,-0 2.9,1.4 4.5,3 2.4,2.5 3.7,3 6.5,2.8l3.5,-0.3 0.5,-44.5 0.5,-44.5 30.6,-0.3c25.7,-0.2 30.9,-0.5 31.9,-1.7 0.8,-0.9 3,-1.5 6,-1.5 3,-0 5.2,-0.6 6,-1.5 0.7,-0.8 2,-1.5 2.9,-1.5 1,-0 3,-1.4 4.6,-3 1.6,-1.7 3.6,-3 4.5,-3 2,-0 12,-10.1 12,-12.1 0,-0.8 1.4,-2.8 3,-4.4 1.7,-1.6 3,-3.6 3,-4.6 0,-0.9 0.7,-2.2 1.5,-2.9 0.9,-0.8 1.5,-3 1.5,-6 0,-3 0.6,-5.2 1.5,-6 1.3,-1.1 1.5,-19.2 1.5,-151.5 0,-132.3 -0.2,-150.4 -1.5,-151.5 -0.9,-0.8 -1.5,-3 -1.5,-6 0,-3 -0.6,-5.2 -1.5,-6 -0.8,-0.7 -1.5,-2 -1.5,-2.9 0,-1 -1.3,-3 -3,-4.6 -1.6,-1.6 -3,-3.6 -3,-4.5 0,-2 -10.1,-12 -12.1,-12 -0.8,-0 -2.8,-1.4 -4.4,-3 -1.6,-1.7 -3.6,-3 -4.6,-3 -0.9,-0 -2.2,-0.7 -2.9,-1.5 -0.8,-0.9 -3,-1.5 -6,-1.5 -3,-0 -5.2,-0.6 -6,-1.5 -1.1,-1.3 -23.3,-1.5 -189,-1.5 -165.7,-0 -187.9,0.2 -189,1.5zM284,92.5c1,1.2 4.8,1.5 22.5,1.5 17.7,-0 21.5,0.3 22.5,1.5 0.7,0.8 2,1.5 3,1.5 1,-0 2.3,-0.7 3,-1.5 0.9,-1 3.2,-1.5 7.5,-1.5 4.3,-0 6.6,0.5 7.5,1.5 1.7,2 4.7,1.9 5.9,-0.3 1,-1.6 1.2,-1.6 2.5,-0 1.6,2.2 3.2,2.3 4,0.3 0.3,-0.9 1.8,-1.5 3.9,-1.5 1.9,-0 4,0.7 4.7,1.5 1,1.2 4.7,1.5 21,1.5 16.3,-0 20,0.3 21,1.5 1,1.2 3.8,1.5 13.5,1.5 9.7,-0 12.5,-0.3 13.5,-1.5 1,-1.2 4.8,-1.5 22.5,-1.5 17.7,-0 21.5,0.3 22.5,1.5 0.7,0.8 2,1.5 3,1.5 1,-0 2.3,0.7 3,1.5 0.7,0.8 1.9,1.5 2.8,1.5 2.4,-0 6.2,4.1 6.2,6.7 0,2.6 1.2,3 3,0.8 1.8,-2.2 3,-1.8 3,0.9 0,1.3 0.7,2.9 1.5,3.6 1.2,1 1.5,4.2 1.5,16.5 0,12.3 -0.3,15.5 -1.5,16.5 -1.3,1 -1.5,5.2 -1.5,25.5 0,20.3 -0.2,24.5 -1.5,25.5 -0.8,0.7 -1.5,2.1 -1.5,3.2 0,1 -0.7,2.1 -1.5,2.4 -0.8,0.4 -1.5,1.2 -1.5,1.9 0,0.7 0.7,1.5 1.5,1.9 1.1,0.4 1.5,2.2 1.5,6.9 0,4.5 0.5,6.8 1.5,7.7 1.2,1 1.5,4.2 1.5,16.5 0,12.3 0.3,15.5 1.5,16.5 1.1,0.9 1.5,3.5 1.5,10.5 0,7 -0.4,9.6 -1.5,10.5 -1,0.9 -1.5,3.2 -1.5,7.5 0,4.3 0.5,6.6 1.5,7.5 0.8,0.7 1.5,2 1.5,3 0,1 -0.7,2.3 -1.5,3 -1.3,1.1 -1.5,8.8 -1.5,58.5 0,49.7 -0.2,57.4 -1.5,58.5 -0.8,0.7 -1.5,2 -1.5,3 0,1 -0.7,2.3 -1.5,3 -0.8,0.7 -1.5,1.9 -1.5,2.8 0,2.2 -4,6.2 -6.2,6.2 -1,-0 -2.1,0.7 -2.4,1.5 -0.4,0.8 -1.2,1.5 -2,1.5 -0.8,-0 -1.4,-0.7 -1.4,-1.5 0,-0.8 -0.6,-1.5 -1.4,-1.5 -0.8,-0 -1.6,0.7 -2,1.5 -0.3,0.8 -1.4,1.5 -2.4,1.5 -1.1,-0 -2.5,0.7 -3.2,1.5 -1,1.2 -4.5,1.5 -19.7,1.5 -15.4,-0 -18.5,-0.2 -18.9,-1.5 -0.9,-2.2 -2.2,-1.8 -5.1,1.5 -2.4,2.9 -2.8,3 -10.3,3 -5.8,-0 -8.1,-0.4 -9,-1.5 -1,-1.2 -2.9,-1.5 -7.9,-1.3l-6.6,0.3 -0.3,3.7c-0.2,2 -1,4.2 -1.8,4.8 -1.1,1 -1.4,4.2 -1.4,15 0,11 -0.3,14 -1.5,15 -1.1,1 -1.5,3.6 -1.5,11.1 0,10.8 -0.9,12.3 -4.5,6.9 -2.1,-3.2 -4.5,-4 -4.5,-1.5 0,2.4 -1.9,1.8 -4.7,-1.5 -1.3,-1.7 -3.2,-3 -4.2,-3 -0.9,-0 -3.7,-2 -6.1,-4.5 -2.4,-2.5 -5.1,-4.5 -6,-4.5 -0.9,-0 -3.6,-2 -6,-4.5 -2.4,-2.5 -5.1,-4.5 -6,-4.5 -0.9,-0 -2.9,-1.3 -4.4,-2.9 -2,-2 -4.1,-3.1 -6.5,-3.3 -2.7,-0.2 -3.7,-0.8 -3.9,-2.3 -0.5,-2.7 -4.2,-6.5 -6.3,-6.5 -0.9,-0 -2.2,-0.6 -2.9,-1.4 -0.6,-0.8 -2.1,-1.6 -3.3,-1.8 -1.2,-0.2 -2.3,-1.2 -2.5,-2.3 -0.5,-2.7 -4.1,-6.5 -6.2,-6.5 -0.9,-0 -2.9,-1.3 -4.5,-3 -2.6,-2.7 -3.5,-3 -9.1,-3 -4.2,-0 -6.5,0.5 -7.4,1.5 -1.7,2 -10.3,2 -12,-0 -0.7,-0.8 -2.7,-1.5 -4.5,-1.5 -1.8,-0 -3.8,-0.7 -4.5,-1.5 -1.7,-2 -10.3,-2 -12,-0 -1.9,2.2 -64.1,2.2 -66,-0 -1.6,-1.9 -7.4,-1.9 -9,-0 -1,1.2 -4,1.5 -15,1.5 -11,-0 -14,0.3 -15,1.5 -1.6,1.9 -7.4,1.9 -9,-0 -0.9,-1.1 -4.2,-1.5 -13.8,-1.7 -12.5,-0.3 -12.6,-0.3 -13.2,-2.8 -0.5,-2 -1.3,-2.6 -4.2,-2.8 -2,-0.2 -4.2,-1 -4.8,-1.8 -0.7,-0.8 -2.7,-1.4 -4.5,-1.4 -1.8,-0 -3.8,-0.6 -4.5,-1.4 -0.6,-0.8 -2.8,-1.6 -4.8,-1.8 -2.9,-0.2 -3.8,-0.8 -4,-2.5 -0.2,-1.2 -1,-2.7 -1.8,-3.3 -0.8,-0.7 -1.4,-2 -1.4,-2.9 0,-1 -1.4,-3 -3,-4.6 -3.4,-3.2 -4.2,-9.1 -1.5,-10.1 2,-0.8 1.9,-3 0,-3.8 -1.3,-0.4 -1.5,-2 -1.3,-7.3 0.3,-6.2 0.5,-6.8 2.8,-7.3 2.9,-0.7 3.8,-4.1 1.5,-6 -1.2,-1 -1.5,-3.8 -1.5,-15.2 0,-11.4 -0.3,-14 -1.5,-14.4 -1.9,-0.8 -1.9,-3 0,-3.8 1.2,-0.4 1.5,-2.3 1.5,-8.4 0,-5.9 0.4,-8.3 1.5,-9.2 1.3,-1.1 1.5,-5.7 1.5,-30 0,-24.3 0.2,-28.9 1.5,-30 1,-0.9 1.5,-3.2 1.5,-7.5 0,-4.3 -0.5,-6.6 -1.5,-7.5 -1.2,-1 -1.5,-4.2 -1.5,-16.5 0,-12.3 -0.3,-15.5 -1.5,-16.5 -1.2,-1 -1.5,-4.3 -1.5,-18 0,-13.7 -0.3,-17 -1.5,-18 -2.1,-1.7 -2.1,-13.3 0,-15 0.8,-0.7 1.5,-2 1.5,-3 0,-1 0.7,-2.3 1.5,-3 1.2,-1 1.5,-4.7 1.5,-21 0,-16.3 0.3,-20 1.5,-21 0.8,-0.7 1.5,-2 1.5,-3 0,-1 0.7,-2.3 1.5,-3 0.9,-0.8 1.5,-3 1.5,-5.8 0,-5.7 2.8,-9.2 7.6,-9.2 1.7,-0 3.7,-0.7 4.4,-1.5 0.9,-1.1 3.3,-1.5 9,-1.5 5.7,-0 8.1,0.4 9,1.5 1,1.2 4.3,1.5 18,1.5 13.7,-0 17,0.3 18,1.5 0.8,0.9 3,1.5 6,1.5 3,-0 5.2,-0.6 6,-1.5 1,-1.2 4,-1.5 15,-1.5 11,-0 14,-0.3 15,-1.5 1,-1.2 4.2,-1.5 16.5,-1.5 12.3,-0 15.5,-0.3 16.5,-1.5 1,-1.2 4.8,-1.5 22.5,-1.5 17.7,-0 21.5,0.3 22.5,1.5z" stroke="#000000"/><path fill="#000000" d="M293.7,208.6c-0.4,0.4 -0.7,1.5 -0.7,2.4 0,1 -0.7,2.3 -1.5,3 -0.9,0.8 -1.5,3 -1.5,5.9 0,3.9 -0.5,5.2 -3,7.6 -2.7,2.6 -3,3.5 -3,9.1 0,4.2 -0.5,6.5 -1.5,7.4 -0.8,0.7 -1.5,2.7 -1.5,4.5 0,1.8 -0.6,3.8 -1.4,4.5 -0.8,0.6 -1.6,2.1 -1.8,3.3 -0.3,2.2 -0.6,2.2 -22.5,2.5 -15.8,0.2 -22.3,-0.1 -22.3,-0.9 0,-1.5 4.1,-4.8 6,-4.9 0.9,-0 3.6,-2 6,-4.5 2.7,-2.7 5.3,-4.5 6.7,-4.5 1.4,-0 2.3,-0.6 2.3,-1.5 0,-1.3 -2.4,-1.5 -15.8,-1.5 -15.3,-0 -15.9,-0.1 -18,-2.3 -1.2,-1.3 -2.2,-3 -2.2,-3.9 0,-0.9 -0.7,-2.1 -1.5,-2.8 -0.8,-0.7 -1.5,-2.7 -1.5,-4.5 0,-1.8 -0.7,-3.8 -1.5,-4.5 -1,-0.8 -1.5,-3.1 -1.5,-6.6 0,-3.2 -0.4,-5.4 -1.1,-5.4 -2,-0 -4.8,4.5 -4.9,7.6 0,1.7 -0.7,3.7 -1.5,4.4 -0.8,0.7 -1.5,2.7 -1.5,4.5 0,1.8 -0.6,3.8 -1.4,4.5 -0.8,0.6 -1.6,2.8 -1.8,4.8l-0.3,3.7 -17.7,0.3c-14.9,0.2 -17.8,0.5 -17.8,1.7 0,0.9 0.9,1.5 2.4,1.5 1.3,-0 2.9,0.7 3.6,1.5 0.7,0.8 2,1.5 2.9,1.5 0.9,-0 4.3,2.7 7.6,6 3.2,3.2 6.8,6 7.9,6.2 1.8,0.3 2.1,1.1 2.4,5.4 0.2,3.6 -0.1,5.4 -1.3,6.4 -0.8,0.7 -1.5,2 -1.5,3 0,1 -0.7,2.3 -1.5,3 -0.8,0.7 -1.5,2.7 -1.5,4.5 0,1.8 -0.7,3.8 -1.5,4.5 -1.7,1.4 -2.1,6 -0.5,6 0.5,-0 2.8,-2 5.1,-4.5 2.3,-2.5 4.9,-4.5 5.8,-4.5 1,-0 3,-1.4 4.6,-3 2.1,-2.2 3.8,-3 6.2,-3 2.1,-0 3.6,-0.6 3.9,-1.5 0.4,-0.8 1.2,-1.5 1.9,-1.5 0.7,-0 1.5,0.7 1.9,1.5 0.3,0.8 1.4,1.5 2.4,1.5 1,-0 3.1,1.3 4.7,3 1.6,1.6 3.6,3 4.5,3 0.9,-0 2.9,1.4 4.5,3 3.3,3.5 6.8,3.7 7.3,0.4 0.2,-1.1 -0.4,-2.7 -1.3,-3.4 -0.8,-0.7 -1.5,-2 -1.5,-3 0,-1 -0.7,-2.3 -1.5,-3 -2,-1.6 -2.1,-9 -0.1,-9 0.8,-0 1.6,0.7 2,1.5 0.3,0.8 1.4,1.5 2.4,1.5 1.1,-0 2.5,0.6 3.2,1.4 0.6,0.8 2.1,1.6 3.3,1.8 1.2,0.2 2.3,1.2 2.5,2.3 0.5,2.7 4.1,6.5 6.2,6.5 0.9,-0 2.9,1.3 4.5,2.9 1.5,1.7 3.7,3.1 4.9,3.3 1.9,0.3 2.1,1 2.4,9.9 0.2,7.7 0,9.9 -1.3,10.9 -0.8,0.7 -1.5,2.7 -1.5,4.4 0,2.3 -0.9,4.1 -3,6.1 -2.5,2.4 -3,3.7 -3,7.6 0,2.9 -0.6,5.1 -1.5,5.9 -0.8,0.7 -1.5,2 -1.5,3 0,1 -0.7,2.3 -1.5,3 -2.1,1.7 -1.5,5.4 0.8,5.8 1,0.2 2.6,-0.3 3.5,-1.1 0.9,-0.8 2.6,-1.7 3.7,-1.9 1.1,-0.2 2.1,-1.2 2.3,-2.3 0.2,-1.1 1,-2.7 1.7,-3.5 0.7,-0.8 1.5,-2.4 1.7,-3.5 0.3,-1.6 1.2,-2.1 5.3,-2.3 2.7,-0.2 5.7,-0.9 6.5,-1.7 0.8,-0.7 2.4,-1.5 3.5,-1.7 1.1,-0.2 2.2,-1.4 2.5,-2.8 0.4,-1.5 1.4,-2.6 2.7,-2.8 1.2,-0.2 2.7,-1 3.3,-1.8 0.7,-0.8 2,-1.4 3,-1.4 1,-0 2.3,-0.7 3,-1.5 0.7,-0.8 2,-1.5 3,-1.5 1,-0 2.3,0.7 3,1.5 0.7,0.8 2,1.5 3,1.5 1,-0 2.3,0.6 3,1.4 0.6,0.8 2.1,1.6 3.3,1.8 1.3,0.2 2.3,1.3 2.7,2.8 0.4,1.5 1.4,2.6 2.7,2.8 1.2,0.2 2.7,1 3.3,1.8 0.7,0.8 2,1.4 2.9,1.4 1,-0 3,1.3 4.6,2.9 1.5,1.7 3.7,3.1 4.8,3.3 1.3,0.2 2.3,1.3 2.7,2.8 0.4,1.6 1.4,2.6 2.9,2.8 1.2,0.2 2.5,1 2.8,1.8 0.3,0.8 1.1,1.4 1.9,1.4 1,-0 1.4,-1.4 1.4,-5.3 0,-4.6 -0.4,-5.7 -3,-8.2 -2.5,-2.4 -3,-3.7 -3,-7.6 0,-2.9 -0.6,-5.1 -1.5,-5.9 -0.9,-0.8 -1.5,-3 -1.5,-6 0,-3 -0.6,-5.2 -1.5,-6 -0.8,-0.7 -1.5,-2.7 -1.5,-4.5 0,-1.8 -0.7,-3.8 -1.5,-4.5 -0.8,-0.7 -1.5,-2 -1.5,-2.9 0,-2.1 3.8,-5.8 6.5,-6.3 1.1,-0.2 2.1,-1.2 2.3,-2.3 0.7,-3.4 4.3,-6.5 7.7,-6.5 2.2,-0 4,-0.9 6,-3 1.6,-1.7 3.9,-3 5.2,-3 2.6,-0 3,-1.2 0.8,-3 -2.5,-2.1 -1.7,-3 2.5,-3 2.7,-0 4.3,-0.5 4.6,-1.5 0.4,-0.8 1.2,-1.5 2,-1.5 1.9,-0 1.8,4.4 -0.1,6 -0.8,0.7 -1.5,2 -1.5,3 0,1 -0.7,2.3 -1.5,3 -0.8,0.7 -1.5,2.7 -1.5,4.5 0,1.8 -0.7,3.8 -1.5,4.5 -1.7,1.4 -2.1,6 -0.5,6 0.5,-0 2.8,-2 5.1,-4.5 2.3,-2.5 4.9,-4.5 5.8,-4.5 1,-0 3,-1.4 4.6,-3 2.1,-2.2 3.8,-3 6.2,-3 2.1,-0 3.6,-0.6 3.9,-1.5 0.4,-0.8 1.2,-1.5 1.9,-1.5 0.7,-0 1.5,0.7 1.9,1.5 0.3,0.8 1.4,1.5 2.4,1.5 1,-0 3.1,1.3 4.7,3 1.6,1.6 3.6,3 4.5,3 0.9,-0 2.9,1.4 4.5,3 3.3,3.5 6.8,3.7 7.3,0.4 0.2,-1.1 -0.4,-2.7 -1.3,-3.4 -0.8,-0.7 -1.5,-2 -1.5,-3 0,-1 -0.7,-2.3 -1.5,-3 -0.9,-0.8 -1.5,-3 -1.5,-6 0,-3.1 -0.5,-5.2 -1.5,-6 -2.2,-1.8 -1.5,-5.4 1.1,-5.8 1.2,-0.2 3.4,-1.6 4.9,-3.3 1.6,-1.6 3.6,-2.9 4.5,-2.9 0.9,-0 3.6,-2 6,-4.5 5,-5.1 9,-6.1 9,-2.1 0,1.3 -0.7,2.9 -1.5,3.6 -1.7,1.4 -2,6 -0.4,6 0.6,-0 2.2,-1.4 3.6,-3 1.3,-1.7 3.3,-3 4.3,-3 1,-0 2.3,-0.7 3,-1.5 2.1,-2.6 7.3,-1.8 10.5,1.5 3,3.1 7.5,4.1 7.5,1.6 0,-0.8 -0.7,-1.6 -1.5,-2 -1.1,-0.4 -1.5,-2.2 -1.5,-6.9 0,-5.3 0.4,-6.7 2.3,-8.4 1.2,-1.2 3.1,-2.3 4.2,-2.5 1.4,-0.2 2,-1.1 2,-2.8 0,-2.4 -0.3,-2.5 -7,-3 -6.2,-0.4 -7,-0.7 -7.3,-2.7 -0.2,-1.2 -1,-2.7 -1.8,-3.3 -0.8,-0.7 -1.4,-3 -1.4,-5.1 0,-2.2 -0.5,-3.9 -1.1,-3.9 -2,-0 -4.8,4.4 -4.9,7.6 0,5.2 -3.4,7.4 -11.3,7.4 -3.9,-0 -6.7,0.4 -6.7,1 0,1.5 6.9,7.4 9.4,8 1.6,0.5 2.2,1.5 2.4,4.8 0.2,3.1 0,4.2 -1.1,4.2 -0.8,-0 -1.7,-0.7 -2.1,-1.5 -0.4,-1.2 -3.2,-1.5 -15.9,-1.5 -14.8,-0 -15.4,-0.1 -17.5,-2.3 -1.2,-1.3 -2.2,-3 -2.2,-3.9 0,-0.9 -0.7,-2.1 -1.5,-2.8 -0.8,-0.7 -1.5,-2.7 -1.5,-4.5 0,-1.8 -0.7,-3.8 -1.5,-4.5 -1,-0.8 -1.5,-3.1 -1.5,-6.6 0,-3.2 -0.4,-5.4 -1.1,-5.4 -2,-0 -4.8,4.5 -4.9,7.6 0,1.7 -0.7,3.7 -1.5,4.4 -0.8,0.7 -1.5,2.7 -1.5,4.5 0,1.8 -0.6,3.8 -1.4,4.5 -0.8,0.6 -1.6,2.8 -1.8,4.8l-0.3,3.7 -17.7,0.3c-14.9,0.2 -17.8,0.5 -17.8,1.7 0,0.9 0.9,1.5 2.4,1.5 1.3,-0 2.9,0.7 3.6,1.5 0.7,0.8 2,1.5 2.9,1.5 1.7,-0 12.1,9.5 12.1,11.1 0,0.6 -8.7,0.8 -22.2,0.7 -22,-0.3 -22.3,-0.3 -22.6,-2.5 -0.2,-1.2 -1,-2.7 -1.8,-3.3 -0.8,-0.7 -1.4,-2.7 -1.4,-4.4 0,-2.3 -0.9,-4.1 -3,-6.1 -2.5,-2.4 -3,-3.7 -3,-7.6 0,-2.9 -0.6,-5.1 -1.5,-5.9 -0.8,-0.7 -1.5,-2.7 -1.5,-4.5 0,-1.8 -0.7,-3.8 -1.5,-4.5 -0.8,-0.7 -1.5,-3.4 -1.7,-6.3 -0.3,-4.4 -0.6,-5.2 -2.3,-5.5 -1.2,-0.2 -2.4,-0 -2.8,0.4z" stroke="#000000"/><path fill="#000000" d="M147.8,213.5c-1,1.3 -1.8,3.7 -1.8,5.3 0,4.9 -3.5,7.2 -11.3,7.2 -3.9,-0 -6.7,0.4 -6.7,1 0,1.5 6.9,7.4 9.4,8 2.7,0.7 3.5,7 1.2,9 -0.9,0.7 -1.6,2 -1.6,3 0,1 -0.7,2.3 -1.5,3 -1.7,1.4 -2,6 -0.4,6 0.6,-0 2.2,-1.4 3.6,-3 1.3,-1.7 3.3,-3 4.3,-3 1,-0 2.3,-0.7 3,-1.5 2.1,-2.6 7.3,-1.8 10.5,1.5 3,3.1 7.5,4.1 7.5,1.6 0,-0.8 -0.7,-1.6 -1.5,-2 -1.1,-0.4 -1.5,-2.2 -1.5,-6.9 0,-5.3 0.4,-6.7 2.3,-8.4 1.2,-1.2 3.1,-2.3 4.2,-2.5 1.4,-0.2 2,-1.1 2,-2.8 0,-2.4 -0.3,-2.5 -7,-3 -6.2,-0.4 -7,-0.7 -7.3,-2.7 -0.2,-1.2 -1,-2.7 -1.8,-3.3 -0.8,-0.7 -1.4,-3 -1.4,-5.1 0,-4.5 -1.6,-5.1 -4.2,-1.4z" stroke="#000000"/></g></svg>