<svg id="vector" xmlns="http://www.w3.org/2000/svg" width="200" height="200" viewBox="0 0 900 900"><path fill="#FFFFFF" d="M277,150.5c-3,0.7 -8.4,1.4 -11.9,1.4 -3.5,0.1 -8.7,0.7 -11.5,1.5 -5.7,1.6 -12.8,3.3 -19.6,4.6 -2.5,0.4 -6.1,1.5 -8,2.3 -1.9,0.9 -6.6,2.5 -10.5,3.7 -3.8,1.2 -11.3,4.4 -16.5,7.1 -5.2,2.6 -11.1,5.5 -13,6.3 -3.2,1.4 -6.8,3.8 -17.4,11.3 -2.1,1.6 -4.8,3.5 -6.1,4.3 -7.9,5.3 -13.5,10.1 -26.1,22.4 -7.9,7.7 -15.2,15.6 -16.3,17.5 -1.1,2 -4.5,6.2 -7.5,9.5 -3.1,3.2 -5.6,6.5 -5.6,7.3 0,0.9 -1.9,4.3 -4.3,7.7 -5.5,8 -12.8,22.8 -16.7,34.1 -3,8.5 -3.6,10.6 -6.2,21.5 -4.5,18.8 -3.4,48.6 2.3,61.6 1.7,3.7 2,6.2 1.8,12.3 -0.4,6.8 -0.8,8.2 -3.4,11.7 -1.6,2.1 -3.4,4.8 -4,5.9 -1.6,3.3 -7.5,11.2 -12.7,17 -2.7,2.8 -4.8,5.8 -4.8,6.5 0,0.6 -1,2.5 -2.2,4.1 -10.7,13.4 -30.5,43.5 -31.9,48.2 -1.3,4.7 -1.1,12.4 0.5,15.5 2.8,5.3 8,9.1 16.6,12.2 4.7,1.6 9.9,3 11.6,3 8.6,-0 16.9,7.2 19.4,16.7 0.7,2.6 1.8,6.2 2.6,8 0.9,2.1 1.4,7 1.4,15.2 0,8.2 0.5,13.3 1.4,15.5 1.8,4.3 0.4,24.7 -2.1,31.5 -2.2,6.1 -2.3,14.4 -0.1,22.3 1,3.7 1.8,7.8 1.8,9 0,4.4 3.6,12.2 7.5,16.4 2.3,2.5 7.4,5.9 12.1,8.3 7.6,3.8 8.7,4.1 20,4.7 11.5,0.6 24.2,-0.5 28.9,-2.6 7.3,-3.3 10.4,-4 17.4,-4 4.2,-0 8.1,0.4 8.7,0.9 0.5,0.5 3.6,1.7 6.9,2.7 10.5,3.2 15.7,9.8 20.4,26 2,6.8 2,7.6 0.6,13.5 -2.4,10.3 -2,15.5 1.8,22.5 1.7,3.4 4.6,7.2 6.2,8.6 4.2,3.4 10.3,6.8 12.2,6.8 0.9,-0 3.4,0.8 5.7,1.9 4,1.8 11.9,3.7 22.1,5.1 2.8,0.4 6.6,1.3 8.5,1.9 1.9,0.6 6.9,1.1 11,1.1 5.4,-0 8.2,0.5 9.9,1.6 2.1,1.5 7.4,1.7 46.5,1.8 41.2,0.1 44.3,-0 47.6,-1.8 2.6,-1.3 5.5,-1.8 11.3,-1.7 5.5,-0 9.6,-0.5 13.5,-1.9 3.1,-1.1 6.9,-2 8.5,-2 1.5,-0 3.8,-0.5 4.9,-1.1 1.2,-0.6 4.6,-1.1 7.5,-1 3,-0 6.6,-0.5 8.1,-1.3 1.5,-0.7 4.4,-1.6 6.4,-2 2,-0.4 5,-1.3 6.5,-2.1 1.5,-0.8 4.2,-1.5 5.8,-1.5 1.7,-0 5.9,-1.1 9.5,-2.4 7.4,-2.7 8.6,-5.2 3.4,-7 -4.1,-1.5 -7.3,-4.7 -8.3,-8.2 -0.5,-1.9 -1.4,-2.9 -2.7,-3 -2.6,-0.1 -9.7,-7.2 -9.8,-9.8 -0.1,-1.3 -1.1,-2.2 -2.9,-2.7 -3.8,-1 -5.6,-2.6 -7.2,-6.5 -0.9,-2.1 -2.3,-3.6 -3.9,-4 -1.7,-0.4 -2.8,-1.5 -3.3,-3.3 -0.3,-1.4 -1.9,-3.9 -3.5,-5.5 -1.5,-1.7 -2.8,-3.7 -2.8,-4.6 0,-0.8 -2.5,-4.2 -5.5,-7.5 -3,-3.2 -5.5,-6.7 -5.5,-7.6 0,-1 -1.6,-3 -3.5,-4.5 -2,-1.5 -3.4,-3.3 -3.1,-4 0.3,-0.8 -0.4,-2.3 -1.5,-3.3 -1.2,-1.1 -1.8,-2.4 -1.5,-3 0.4,-0.6 -0.2,-1.8 -1.4,-2.8 -1.1,-1 -2,-2.7 -2,-3.8 0,-1.1 -0.7,-2.9 -1.5,-3.9 -0.8,-1.1 -1.5,-3 -1.5,-4.3 0,-1.3 -0.7,-2.6 -1.5,-2.9 -0.8,-0.4 -1.5,-1.6 -1.5,-2.8 0,-1.2 -0.9,-2.9 -2,-3.9 -1.4,-1.2 -1.8,-2.4 -1.4,-4.5 0.5,-2.5 -0.1,-3.6 -3.6,-7.1 -4,-3.9 -4.2,-4.4 -3.7,-8.6 0.5,-4 0.3,-4.7 -1.9,-6.1 -2.2,-1.5 -2.4,-2.2 -2.2,-9 0.1,-5.8 -0.2,-7.8 -1.6,-9.3 -1,-1.1 -1.5,-2.4 -1.2,-3 0.4,-0.6 -0.2,-1.8 -1.4,-2.8 -1.8,-1.6 -2,-2.9 -2,-13.9 0,-9.5 -0.3,-12.4 -1.5,-13.4 -1.2,-1 -1.5,-5.3 -1.7,-23.4l-0.3,-22.1 -5,0.5c-2.7,0.3 -9,0.5 -14,0.4 -8,-0.1 -9.7,-0.4 -15.2,-3.2 -6,-3.1 -6.6,-3.2 -18.9,-3.2 -12.1,-0 -12.9,-0.1 -19,-3.1 -6.8,-3.4 -8.8,-5.1 -9.8,-8.6 -0.6,-1.9 -0.2,-2.5 1.9,-3.3 1.4,-0.5 3.7,-1 4.9,-1 1.3,-0 2.9,-0.7 3.6,-1.5 0.7,-0.9 2.9,-1.5 5.2,-1.5 4.2,-0 14.4,-3.7 21.8,-7.8 8.8,-5 21.4,-16.1 27.8,-24.6 2.8,-3.6 2.9,-10 0.3,-13.9 -2.3,-3.5 -7.3,-6.7 -10.5,-6.7 -2.6,-0 -8.7,5.1 -18.8,15.6 -3.3,3.5 -7,6.6 -8.2,7 -1.1,0.4 -4,1.9 -6.4,3.5 -2.4,1.6 -4.6,2.9 -4.9,2.9 -0.4,-0 -3.5,1.4 -6.9,3.1 -5.2,2.5 -7.6,3.1 -14.1,3.2 -7.6,0.1 -8.1,-0 -17.8,-5 -10.6,-5.5 -15.1,-9.1 -19,-15.2 -2,-3.3 -2.4,-5.5 -3,-17.7 -0.5,-8.4 -1.3,-15 -2.1,-16.6 -1.9,-3.8 -8.2,-4.6 -19.9,-2.6 -7.7,1.3 -9.7,1.3 -13.5,0.2 -2.5,-0.8 -5.5,-1.4 -6.6,-1.4 -3.7,-0 -19,-8.5 -25.3,-14.1 -8.7,-7.6 -8.2,-10.9 1.6,-12.2 9.7,-1.2 19.8,-9.3 27.2,-21.7 5.4,-9.1 5.5,-9.8 2.1,-15.2 -5.6,-8.9 -14.8,-8.7 -20.7,0.4 -6.4,9.6 -17.9,18.5 -25.3,19.5 -7.1,1 -10.6,-0.4 -17.6,-6.9 -7,-6.6 -10.2,-11.8 -12.9,-21.3 -2.2,-7.3 -1.6,-13.2 2.3,-22.4 5.6,-13.3 14.4,-22 26.3,-26 3.7,-1.2 7.5,-3.1 8.5,-4.2 1.6,-1.8 1.7,-2.1 0.1,-5.5 -0.9,-1.9 -1.7,-4.6 -1.7,-6.1 0,-6.5 9.3,-18.3 14.4,-18.3 2.7,-0 4.9,2.7 8.5,10.3 5.3,11.2 17.1,18.5 27.9,17.5 11.7,-1.1 25.8,-9.4 28.3,-16.7 1.3,-3.7 -0.7,-7.9 -5.4,-11.5 -4.8,-3.6 -10.2,-3.5 -16.4,0.4 -6.7,4.2 -10.2,4 -14.7,-1 -2.9,-3.3 -3.6,-4.8 -3.6,-8.2 0,-3.7 0.6,-4.7 4.8,-8.6 5.6,-5.3 10,-8.2 12.5,-8.2 1,-0 3.5,-0.9 5.7,-2 4.9,-2.5 7,-2.5 12.3,-0.1 2.4,1.1 5.5,2.3 7,2.6 1.5,0.4 3,1.1 3.3,1.6 0.3,0.5 1.8,0.9 3.4,0.9 2.3,-0 3.3,-0.7 4.6,-3.3 1.6,-3.3 10.2,-12.7 11.6,-12.7 0.4,-0 2.4,-1.1 4.4,-2.5 3.4,-2.3 4.6,-2.5 14.4,-2.5 10.1,-0 11.2,0.2 16.5,3 3.1,1.6 6.6,3 7.6,3 1,-0 3.6,-1.5 5.6,-3.4 5.8,-5.1 13.3,-9.4 19.6,-11 5,-1.3 6.3,-1.3 10.5,-0.1 2.6,0.8 5.5,1.5 6.4,1.5 2,-0 12.5,6.8 15.8,10.4 2.9,2.9 5.3,3.2 9.4,1.1 4,-2.1 16.7,-2 21.4,0.2 6.3,2.8 9.3,5.4 12.7,10.7 4.4,6.9 7.1,8.4 11.6,6 5,-2.6 15.1,-2.4 21.2,0.4 6,2.9 11.2,9.8 12.7,17 1.3,6.1 2.8,7.1 9.6,7 5.7,-0.1 9.6,1.6 14.2,6.5 2.9,3 3.4,4.4 4,10.3l0.7,6.9 7.4,3.7c6.9,3.5 7.6,3.6 9.2,2.2 1,-0.9 2.2,-1.3 2.8,-1 0.6,0.4 1.8,-0.2 2.8,-1.4 1.1,-1.3 3,-2 5.1,-2 3.3,-0 7.3,-1.9 10.5,-5.2 1.3,-1.3 2.6,-1.6 4.4,-1.2 1.9,0.5 3,0.2 3.9,-1.1 0.7,-1 2.3,-1.8 3.6,-1.9 1.5,-0.1 2.6,-1 3.2,-2.7 1.1,-3.3 -1.2,-8.5 -6.8,-15.4 -2.3,-2.8 -5.5,-7 -7.1,-9.5 -3.1,-4.9 -23.9,-26.1 -29.5,-30.1 -25.3,-18.3 -45.6,-28.9 -68,-35.8 -5.8,-1.8 -11.7,-3.9 -13.1,-4.6 -1.4,-0.8 -5,-1.9 -8,-2.4 -9.1,-1.7 -16.1,-3.2 -22.1,-4.7 -3.2,-0.8 -8.6,-1.4 -12.2,-1.4 -3.5,-0 -8.3,-0.7 -10.6,-1.5 -5.6,-2 -67.4,-1.9 -76,-0z" stroke="#000000" id="path_0"/><path fill="#FFFFFF" d="M599,269.5c-0.8,0.9 -3,1.5 -6,1.5 -3,-0 -5.2,0.6 -6,1.5 -0.9,1.1 -3.3,1.5 -9,1.5 -5.7,-0 -8.1,0.4 -9,1.5 -0.7,0.8 -2,1.5 -3,1.5 -1,-0 -2.3,0.7 -3,1.5 -0.8,0.9 -3,1.5 -6,1.5 -3,-0 -5.2,0.6 -6,1.5 -0.7,0.8 -2.7,1.5 -4.5,1.5 -1.8,-0 -3.8,0.7 -4.5,1.5 -0.7,0.8 -2,1.5 -3,1.5 -1,-0 -2.3,0.7 -3,1.5 -0.7,0.8 -2.7,1.5 -4.4,1.5 -2.3,-0 -4.1,0.9 -6.1,3 -2,2.1 -3.8,3 -6.1,3 -1.7,-0 -3.7,0.7 -4.4,1.5 -0.7,0.8 -2,1.5 -2.9,1.5 -1,-0 -3,1.3 -4.6,3 -1.6,1.6 -3.6,3 -4.5,3 -0.9,-0 -2.9,1.3 -4.5,2.9 -1.5,1.7 -3.7,3.1 -4.8,3.3 -1.3,0.2 -2.3,1.3 -2.7,2.8 -0.3,1.4 -1.4,2.6 -2.5,2.8 -1.1,0.2 -2.7,1 -3.5,1.7 -0.8,0.7 -2.4,1.5 -3.5,1.7 -1.1,0.2 -2.2,1.4 -2.5,2.8 -0.3,1.5 -1.4,2.6 -2.6,2.8 -2.5,0.4 -33.1,31 -33.6,33.7 -0.2,1.1 -1.4,2.2 -2.8,2.5 -1.5,0.4 -2.6,1.4 -2.8,2.7 -0.2,1.2 -1,2.7 -1.8,3.3 -0.8,0.7 -1.4,2 -1.4,2.9 0,1 -1.3,3 -3,4.6 -1.6,1.6 -3,3.6 -3,4.5 0,0.9 -1.3,2.9 -3,4.5 -1.6,1.6 -3,3.6 -3,4.5 0,0.9 -1.3,2.9 -3,4.5 -2.1,2 -3,3.8 -3,6.1 0,1.7 -0.7,3.7 -1.5,4.4 -0.8,0.7 -1.5,2 -1.5,2.9 0,1 -1.3,3 -3,4.6 -2.5,2.4 -3,3.7 -3,7.5 0,3.8 -0.5,5.1 -3,7.5 -2.5,2.4 -3,3.7 -3,7.6 0,2.9 -0.6,5.1 -1.5,5.9 -0.9,0.8 -1.5,3 -1.5,6 0,3 -0.6,5.2 -1.5,6 -0.8,0.7 -1.5,2.7 -1.5,4.5 0,1.8 -0.7,3.8 -1.5,4.5 -1.1,0.9 -1.5,3.5 -1.5,10.5 0,7 -0.4,9.6 -1.5,10.5 -1.3,1.1 -1.5,5.5 -1.5,28.5 0,23 0.2,27.4 1.5,28.5 1.2,1 1.5,3.7 1.5,12 0,8.3 0.3,11 1.5,12 0.8,0.7 1.5,2 1.5,3 0,1 0.7,2.3 1.5,3 1,0.9 1.5,3.2 1.5,7.5 0,4.3 0.5,6.6 1.5,7.5 0.9,0.8 1.5,3 1.5,5.9 0,3.9 0.5,5.2 3,7.6 2.1,2 3,3.8 3,6.1 0,1.7 0.7,3.7 1.5,4.4 0.8,0.7 1.5,2 1.5,3 0,1 0.7,2.3 1.5,3 0.8,0.7 1.5,2 1.5,3 0,1 0.7,2.3 1.5,3 0.8,0.7 1.5,2 1.5,3 0,1 0.7,2.3 1.5,3 0.8,0.7 1.5,2 1.5,3 0,1 0.7,2.3 1.5,3 0.8,0.7 1.5,2 1.5,2.9 0,1 1.4,3 3,4.6 1.7,1.6 3,3.6 3,4.5 0,0.9 2,3.6 4.5,6 2.5,2.4 4.5,5.1 4.5,6 0,0.9 1.3,2.9 2.9,4.5 1.7,1.5 3.1,3.7 3.3,4.8 0.2,1.3 1.3,2.3 2.8,2.7 1.5,0.4 2.6,1.4 2.8,2.7 0.4,2.5 4,6 6.7,6.5 1.1,0.2 2.1,1.2 2.3,2.4 0.4,2.6 7,9.1 9.7,9.6 1.1,0.2 2.1,1.2 2.3,2.3 0.5,2.7 4.1,6.5 6.2,6.5 0.9,-0 3.6,2 6,4.5 2.4,2.5 5.1,4.5 6,4.5 0.9,-0 2.9,1.3 4.5,3 1.6,1.6 3.6,3 4.5,3 0.9,-0 2.9,1.3 4.5,3 1.6,1.6 3.6,3 4.5,3 0.9,-0 2.9,1.3 4.5,3 2,2.1 3.8,3 6,3 2.2,-0 4,0.9 6,3 1.6,1.7 3.6,3 4.6,3 0.9,-0 2.2,0.7 2.9,1.5 0.8,0.9 3,1.5 5.9,1.5 3.9,-0 5.2,0.5 7.6,3 2.4,2.5 3.7,3 7.6,3 2.9,-0 5.1,0.6 5.9,1.5 0.7,0.8 2,1.5 3,1.5 1,-0 2.3,0.7 3,1.5 0.9,1 3.2,1.5 7.5,1.5 4.3,-0 6.6,0.5 7.5,1.5 0.9,1.1 3.3,1.5 9,1.5 5.7,-0 8.1,0.4 9,1.5 0.9,1.1 3.3,1.5 9,1.5 5.7,-0 8.1,0.4 9,1.5 1,1.2 4.3,1.5 18,1.5 13.7,-0 17,-0.3 18,-1.5 0.9,-1 3.2,-1.5 7.5,-1.5 4.3,-0 6.6,-0.5 7.5,-1.5 0.9,-1.1 3.5,-1.5 10.5,-1.5 7,-0 9.6,-0.4 10.5,-1.5 0.9,-1 3.2,-1.5 7.5,-1.5 4.3,-0 6.6,-0.5 7.5,-1.5 0.7,-0.8 2,-1.5 3,-1.5 1,-0 2.3,-0.7 3,-1.5 0.7,-0.8 2.7,-1.5 4.5,-1.5 1.8,-0 3.8,-0.7 4.5,-1.5 0.7,-0.8 2,-1.5 3,-1.5 1,-0 2.3,-0.7 3,-1.5 0.7,-0.8 2.7,-1.5 4.5,-1.5 1.8,-0 3.8,-0.7 4.5,-1.5 0.7,-0.8 2,-1.5 3,-1.5 1,-0 2.3,-0.7 3,-1.5 0.7,-0.8 2,-1.5 3,-1.5 1,-0 2.3,-0.7 3,-1.5 0.7,-0.8 2,-1.5 2.9,-1.5 1,-0 3,-1.4 4.6,-3 1.6,-1.7 3.6,-3 4.5,-3 0.9,-0 2.9,-1.4 4.5,-3 1.6,-1.7 3.6,-3 4.6,-3 0.9,-0 2.2,-0.7 2.9,-1.5 0.7,-0.8 2,-1.5 2.9,-1.5 0.9,-0 4.3,-2.7 7.6,-6 3.3,-3.3 6.6,-6 7.5,-6 2,-0 36,-34 36,-36.1 0,-0.8 2,-3.5 4.5,-5.9 2.5,-2.4 4.5,-5.1 4.5,-6 0,-0.9 1.4,-2.9 3,-4.5 1.7,-1.6 3,-3.6 3,-4.5 0,-0.9 1.4,-2.9 3,-4.5 2.1,-2 3,-3.8 3,-6 0,-2.2 0.9,-4 3,-6 1.7,-1.6 3,-3.6 3,-4.6 0,-0.9 0.7,-2.2 1.5,-2.9 0.8,-0.7 1.5,-2.7 1.5,-4.4 0,-2.3 0.9,-4.1 3,-6.1 2.1,-2 3,-3.8 3,-6.1 0,-1.7 0.7,-3.7 1.5,-4.4 0.8,-0.7 1.5,-2 1.5,-3 0,-1 0.7,-2.3 1.5,-3 1,-0.9 1.5,-3.2 1.5,-7.5 0,-4.3 0.5,-6.6 1.5,-7.5 1,-0.9 1.5,-3.2 1.5,-7.5 0,-4.3 0.5,-6.6 1.5,-7.5 0.8,-0.7 1.5,-2.7 1.5,-4.5 0,-1.8 0.7,-3.8 1.5,-4.5 1.3,-1.1 1.5,-6.8 1.5,-40.5 0,-33.7 -0.2,-39.4 -1.5,-40.5 -0.8,-0.7 -1.5,-2.7 -1.5,-4.5 0,-1.8 -0.7,-3.8 -1.5,-4.5 -1,-0.9 -1.5,-3.2 -1.5,-7.5 0,-4.3 -0.5,-6.6 -1.5,-7.5 -0.9,-0.8 -1.5,-3 -1.5,-6 0,-3 -0.6,-5.2 -1.5,-6 -0.8,-0.7 -1.5,-2 -1.5,-3 0,-1 -0.7,-2.3 -1.5,-3 -0.8,-0.7 -1.5,-2.7 -1.5,-4.5 0,-1.8 -0.7,-3.8 -1.5,-4.5 -0.8,-0.7 -1.5,-2 -1.5,-3 0,-1 -0.7,-2.3 -1.5,-3 -0.8,-0.7 -1.5,-2 -1.5,-3 0,-1 -0.7,-2.3 -1.5,-3 -0.8,-0.7 -1.5,-2.7 -1.5,-4.4 0,-2.3 -0.9,-4.1 -3,-6.1 -1.6,-1.6 -3,-3.6 -3,-4.5 0,-0.9 -1.3,-2.9 -3,-4.5 -1.6,-1.6 -3,-3.6 -3,-4.5 0,-0.9 -1.3,-2.9 -3,-4.5 -1.6,-1.6 -3,-3.6 -3,-4.6 0,-0.9 -0.7,-2.2 -1.5,-2.9 -0.8,-0.7 -1.5,-2 -1.5,-2.9 0,-0.9 -4.7,-6.3 -10.5,-12.1 -5.7,-5.7 -10.5,-11.3 -10.7,-12.4 -0.2,-1.2 -1.2,-2.2 -2.3,-2.4 -2.7,-0.5 -12.3,-10 -12.7,-12.6 -0.2,-1.2 -1.2,-2.2 -2.4,-2.4 -1.1,-0.2 -4,-2.3 -6.4,-4.7 -2.5,-2.5 -5.1,-4.5 -6,-4.5 -0.9,-0 -2.9,-1.4 -4.5,-3 -1.6,-1.7 -3.6,-3 -4.5,-3 -0.9,-0 -2.9,-1.4 -4.5,-3 -1.6,-1.7 -3.6,-3 -4.5,-3 -0.9,-0 -2.9,-1.4 -4.5,-3 -1.6,-1.7 -3.6,-3 -4.6,-3 -0.9,-0 -2.2,-0.7 -2.9,-1.5 -0.7,-0.8 -2.7,-1.5 -4.4,-1.5 -2.3,-0 -4.1,-0.9 -6.1,-3 -2,-2.1 -3.8,-3 -6,-3 -2.2,-0 -4,-0.9 -6,-3 -2.4,-2.5 -3.7,-3 -7.6,-3 -2.9,-0 -5.1,-0.6 -5.9,-1.5 -0.8,-0.9 -3,-1.5 -6,-1.5 -3,-0 -5.2,-0.6 -6,-1.5 -0.7,-0.8 -2,-1.5 -3,-1.5 -1,-0 -2.3,-0.7 -3,-1.5 -0.9,-1.1 -3.3,-1.5 -9,-1.5 -5.7,-0 -8.1,-0.4 -9,-1.5 -0.8,-0.9 -3,-1.5 -6,-1.5 -3,-0 -5.2,-0.6 -6,-1.5 -1.1,-1.3 -5.8,-1.5 -31.5,-1.5 -25.7,-0 -30.4,0.2 -31.5,1.5zM656,347.4c0.6,0.8 2.1,1.6 3.3,1.8 2.1,0.3 2.2,0.7 2.2,11.8l0,11.5 -31,-0 -31,-0 0,-11.5c0,-11.1 0.1,-11.5 2.2,-11.8 1.2,-0.2 2.7,-1 3.3,-1.8 1,-1.1 5.6,-1.4 25.5,-1.4 19.9,-0 24.5,0.3 25.5,1.4zM661.5,400l0,11.5 -31,-0 -31,-0 -0.3,-10.4c-0.1,-5.8 0,-11.1 0.2,-11.8 0.5,-1.1 6.4,-1.3 31.3,-1.1l30.8,0.3 0,11.5zM661.5,439l0,11.5 -31,-0 -31,-0 -0.3,-10.4c-0.1,-5.8 0,-11.1 0.2,-11.8 0.5,-1.1 6.4,-1.3 31.3,-1.1l30.8,0.3 0,11.5zM662,514l0.5,47.5 23,0.3 23,0.2 3.7,3.7c4.1,4 5.1,9 2.4,11.3 -0.8,0.6 -1.6,2.1 -1.8,3.3 -0.2,1.3 -1.3,2.3 -2.8,2.7 -1.4,0.3 -2.6,1.4 -2.8,2.5 -0.2,1.1 -1.7,3.3 -3.2,5 -1.5,1.6 -3,3.9 -3.2,5 -0.2,1.1 -1.4,2.2 -2.8,2.5 -1.4,0.3 -2.6,1.4 -2.8,2.5 -0.2,1.1 -3,4.7 -6.2,8 -3.2,3.3 -6,6.9 -6.2,8 -0.2,1.1 -1.4,2.2 -2.8,2.5 -1.5,0.3 -2.6,1.4 -2.8,2.6 -0.2,1.1 -3,4.7 -6.2,7.9 -3.3,3.3 -6,6.6 -6,7.5 0,0.8 -3.4,4.9 -7.5,9 -4.1,4.1 -7.5,8.1 -7.5,9 0,0.8 -3.7,5.2 -8.2,9.7 -11,11 -11.5,11 -22.5,0.1 -4.6,-4.6 -8.3,-9 -8.3,-9.8 0,-0.9 -3.4,-4.9 -7.5,-9 -4.1,-4.1 -7.5,-8.2 -7.5,-9 0,-0.9 -2.7,-4.2 -6,-7.5 -3.2,-3.2 -6,-6.8 -6.2,-7.9 -0.2,-1.2 -1.3,-2.3 -2.8,-2.6 -1.4,-0.3 -2.6,-1.4 -2.8,-2.5 -0.2,-1.1 -3,-4.7 -6.2,-8 -3.2,-3.3 -6,-6.9 -6.2,-8 -0.2,-1.1 -1.4,-2.2 -2.8,-2.5 -1.4,-0.3 -2.6,-1.4 -2.8,-2.5 -0.2,-1.1 -1.7,-3.4 -3.2,-5 -1.5,-1.7 -3,-3.9 -3.2,-5 -0.2,-1.1 -1.4,-2.2 -2.8,-2.5 -1.5,-0.4 -2.6,-1.4 -2.8,-2.7 -0.2,-1.2 -1,-2.7 -1.8,-3.3 -2.7,-2.3 -1.7,-7.3 2.4,-11.3l3.7,-3.7 23,-0.2 23,-0.3 0.3,-46.5c0.1,-25.6 0.4,-47.1 0.7,-47.8 0.3,-1 7.1,-1.2 31.2,-1l30.8,0.3 0.5,47.5z" stroke="#000000" id="path_1"/></svg>