<svg id="vector" xmlns="http://www.w3.org/2000/svg" width="200" height="200" viewBox="0 0 300 300"><path fill="#FFFFFF" d="M136,49.9c-17.4,4 -29.8,13.6 -37.1,28.8 -4.2,8.6 -4.3,9 -4.7,21l-0.4,12.3 10.5,-0 10.5,-0 0.4,-8.8c0.2,-7.1 0.8,-9.8 3.2,-14.5 3.4,-7.1 7.8,-11.6 14.2,-14.8 4.3,-2.1 6.3,-2.4 16.9,-2.4 11.3,-0 12.3,0.2 17.5,2.9 6.5,3.4 10.1,7.2 13.8,14.6l2.7,5.5 0,22.5 0,22.5 -48.7,0.5 -48.6,0.5 -4.6,3.2c-2.9,2.1 -5.2,4.8 -6.5,7.7 -2,4.3 -2.1,6.3 -2.1,44.1 0,36.9 0.1,39.9 1.9,43.8 2.2,4.8 5,7.5 10.3,10 3.3,1.6 8.8,1.7 64.3,1.7 66.5,-0 64.4,0.2 70.5,-6 6.1,-6 6.1,-6.1 5.8,-50.7l-0.3,-40.8 -3,-4.5c-3,-4.5 -9,-8.3 -14.7,-9.5l-2.8,-0.5 0,-23.1c0,-24.7 -0.7,-29.3 -5.5,-38.9 -5.3,-10.3 -14.9,-19.1 -25.5,-23.4 -2.5,-1 -5.6,-2.3 -7,-2.8 -3.1,-1.3 -26.3,-2 -31,-0.9z" stroke="#000000" id="path_0"/></svg>