<svg id="vector" xmlns="http://www.w3.org/2000/svg" width="200" height="200" viewBox="0 0 250 250"><path fill="#FFFFFF" d="M109.7,16.8l-14.7,14.7 0,93.5 0,93.5 14.8,14.8 14.7,14.7 15.8,-15.8 15.7,-15.7 0,-91.5 0,-91.5 -15.8,-15.8 -15.7,-15.7 -14.8,14.8z" stroke="#000000" id="path_0"/><path fill="#FFFFFF" d="M28,98.5l-26.5,26.5 26.8,26.8 26.7,26.7 0,-53.3c0,-29.2 -0.1,-53.2 -0.3,-53.2 -0.1,-0 -12.1,11.9 -26.7,26.5z" stroke="#000000" id="path_1"/><path fill="#FFFFFF" d="M196,125l0,51.5 25.7,-25.8 25.8,-25.7 -25.8,-25.7 -25.7,-25.8 0,51.5z" stroke="#000000" id="path_2"/></svg>