<svg id="vector" xmlns="http://www.w3.org/2000/svg" width="200" height="200" viewBox="0 0 300 300"><path fill="#ffffff" d="M17.2,45c-4.2,1 -10.1,5.7 -12.7,10.1 -1.9,3.2 -2,5.5 -2.3,36.4 -0.2,21.6 0.1,34.5 0.8,37.4 2.9,11.5 15.7,18.3 26.2,14 1.8,-0.7 5.1,-2.6 7.3,-4.1 2.2,-1.6 5.1,-3.6 6.5,-4.6 2.1,-1.5 6.5,-1.8 36.5,-2.3 21.2,-0.4 35.4,-1.1 37.6,-1.8 7,-2.2 15.1,-10.5 17.7,-18 1.9,-5.3 1.6,-30 -0.4,-35.8 -1.9,-5.6 -7.5,-12.8 -11.8,-15 -5.6,-3 -12.8,-3.6 -47.3,-4l-34.3,-0.4 -1.4,-2.8c-2,-3.7 -7.3,-7.6 -12.1,-9 -4.5,-1.2 -5.6,-1.2 -10.3,-0.1zM50.2,67.7c1.6,1.5 1.8,3.6 1.8,25.8 0,26.8 0,26.9 -6.2,26.3 -5.5,-0.5 -5.9,-2.4 -5.6,-27.4 0.3,-20.2 0.5,-22.4 2.2,-24.3 2.3,-2.5 5.3,-2.7 7.8,-0.4zM100.2,68.7c1.6,1.5 1.8,3.6 1.8,24.6 0,20 -0.2,23.3 -1.7,24.9 -2.2,2.4 -5.6,2.3 -7.9,-0.3 -1.7,-1.9 -1.9,-3.9 -1.9,-24.4 0,-20.5 0.2,-22.5 1.9,-24.4 2.3,-2.5 5.3,-2.7 7.8,-0.4z" stroke="#000000" id="path_0"/><path fill="#ffffff" d="M133,58.5c0,0.8 1.3,2.1 2.8,2.9 1.6,0.8 4.2,3.4 5.8,5.7l2.9,4.2 0.3,20.4c0.3,16.5 0,21.3 -1.3,26 -2,7.2 -5.5,12.3 -10.5,15.8 -8.2,5.7 -9.7,5.9 -47,6.5 -34.3,0.5 -34.5,0.5 -39.5,3 -8.1,4.1 -8,3.3 -8,44.5 0,36 0,36 2.3,40 3.3,5.5 6,8.3 11.2,11.3l4.5,2.7 90.5,-0c100.8,-0 93.6,0.5 101.8,-7 6.9,-6.2 8.2,-11.9 8.2,-36.2 0,-15.6 0.3,-20.3 1.3,-20.3 1.3,0.1 13,2.9 22,5.5 8,2.2 12.8,1.7 14.4,-1.5 1,-1.9 1.3,-13.4 1.3,-47.8l0,-45.3 -2.5,-2.4c-2.9,-3 -3.6,-3 -11.1,-0.6 -3.3,1 -9.5,2.6 -13.9,3.6 -4.4,0.9 -8.8,2.1 -9.7,2.6 -1.6,0.9 -1.8,0.3 -1.8,-5.5 0,-13.3 -6.9,-23.6 -18.4,-27.6 -5.6,-1.9 -8.3,-2 -55.8,-2 -43.2,-0 -49.8,0.2 -49.8,1.5zM111.7,173.3c1.6,1.6 1.8,3.8 1.8,19.7 0,15.9 -0.2,18.1 -1.8,19.7 -1.6,1.6 -3.8,1.8 -19.7,1.8 -15.9,-0 -18.1,-0.2 -19.7,-1.8 -1.5,-1.5 -1.8,-4 -2.1,-17 -0.2,-8.4 0,-16.8 0.5,-18.7 1.5,-5.5 3.6,-6.1 22.5,-5.8 14.5,0.3 17,0.5 18.5,2.1zM134.2,202.7c2.1,1.9 2.4,7.1 0.6,9.5 -2.7,3.4 -10.3,2.2 -11.8,-1.8 -1.3,-3.4 -1.3,-3.8 1.1,-6.8 2.4,-3.1 7.2,-3.5 10.1,-0.9zM162.4,203.2c1.7,2.4 2.1,6.5 0.8,8.5 -0.4,0.6 -2,1.6 -3.5,2.2 -4.9,1.9 -9.7,-1.5 -9.7,-6.8 0,-5.5 9.3,-8.4 12.4,-3.9z" stroke="#000000" id="path_1"/><path fill="#ffffff" d="M78.6,180.6c-2.3,2.3 -2.3,24.5 0,26.8 2.3,2.3 24.5,2.3 26.8,-0 2.3,-2.3 2.3,-24.5 0,-26.8 -2.3,-2.3 -24.5,-2.3 -26.8,-0z" stroke="#000000" id="path_2"/></svg>