<svg id="vector" xmlns="http://www.w3.org/2000/svg" width="200" height="200" viewBox="0 0 300 300"><path fill="#ffffff" d="M145,3.9c-6.5,1.4 -15,7.2 -18.7,12.7 -4.3,6.4 -4.7,7.9 -4.7,17.9 0,9.2 0.2,10.4 2.8,14.8 1.5,2.6 4.6,6.2 6.7,8.1l4,3.3 -2.5,1.7c-1.4,0.9 -2.9,1.6 -3.4,1.6 -0.5,-0 -1.7,0.9 -2.7,2 -1,1.1 -2.7,2.2 -3.9,2.6 -1.1,0.3 -3.5,1.7 -5.3,3 -1.7,1.3 -3.5,2.4 -3.8,2.4 -0.3,-0 -2.1,1.1 -3.9,2.5 -1.8,1.4 -3.6,2.5 -4.1,2.5 -0.4,-0 -2,1.1 -3.7,2.5 -1.6,1.4 -3.5,2.5 -4.1,2.5 -0.7,-0 -2.4,1.1 -3.9,2.5 -1.5,1.4 -3.2,2.5 -3.7,2.5 -0.5,-0 -4,2.1 -7.7,4.6 -3.6,2.5 -7.4,4.8 -8.3,5.1 -0.9,0.3 -2.5,1.4 -3.6,2.4 -1.1,0.9 -3.4,2.5 -5,3.6 -7.8,4.7 -9.5,5.9 -9.5,6.5 0,0.5 43.2,0.8 96,0.8 52.8,-0 96,-0.3 96,-0.8 0,-0.7 -2.5,-2.4 -10.9,-7.4 -2.5,-1.4 -4.7,-3.1 -4.9,-3.7 -0.2,-0.6 -1,-1.1 -1.7,-1.1 -0.7,-0 -4.6,-2.2 -8.7,-5 -4,-2.7 -7.8,-5 -8.4,-5 -0.6,-0 -1.7,-0.7 -2.5,-1.6 -0.7,-0.9 -2.7,-2.3 -4.5,-3.2 -1.7,-0.9 -5,-3 -7.3,-4.5 -2.3,-1.5 -5.9,-3.7 -8.1,-4.8 -2.1,-1.1 -4.4,-2.6 -5,-3.4 -0.6,-0.7 -2.5,-1.9 -4.3,-2.6 -1.8,-0.7 -3.8,-2.1 -4.5,-3.1 -0.7,-1 -2.1,-1.8 -3.1,-1.8 -1,-0 -2.5,-0.8 -3.4,-1.8 -1.5,-1.6 -1.4,-2 1.8,-4.5 1.9,-1.5 4,-3.8 4.7,-5.1 0.7,-1.3 2.2,-3.9 3.2,-5.7 1.5,-2.7 1.9,-5.4 1.9,-12.4 0,-7 -0.4,-9.7 -1.9,-12.4 -1,-1.8 -2.4,-4.3 -3.1,-5.5 -1.8,-3.2 -6.2,-7.1 -11.4,-9.9 -5.1,-2.8 -14.9,-4.1 -20.9,-2.8zM159,20.7c5.9,4.1 7.3,6 7.8,11.2 0.6,6.5 -0.1,8.9 -3.7,13 -3.5,3.9 -9.2,5.4 -15.9,4.1 -4.1,-0.7 -5.2,-1.6 -8.9,-6.8 -2.3,-3.4 -2.1,-12.6 0.4,-16 5,-6.8 14.7,-9.4 20.3,-5.5z" stroke="#000000" id="path_0"/><path fill="#ffffff" d="M55,120.6c0,1.1 7.1,26.9 9.6,34.6 1.3,4.3 2.4,8.5 2.4,9.5 0,1 1.1,5.4 2.4,9.8 4.1,13.4 7.6,26.9 7.6,29 0,1.2 0.4,2.5 0.9,3 0.5,0.6 1.7,4.1 2.6,8 2.6,10.7 3.8,14.9 4.6,16 0.4,0.5 1,2.8 1.4,5 0.8,4.6 4.8,19.7 8,30l2.2,7 55.1,0.3 55,0.2 2.5,-7.7c1.4,-4.3 2.7,-9.7 3.1,-11.9 0.3,-2.3 1.5,-6.1 2.6,-8.5 1.1,-2.4 2,-5.5 2,-6.8 0,-1.4 1.1,-6.1 2.4,-10.5 6.4,-21.9 7.6,-26.5 7.6,-28.5 0,-1.2 0.7,-3.6 1.6,-5.2 0.8,-1.7 2.4,-7.3 3.5,-12.5 1.1,-5.1 2.7,-10.6 3.5,-12.1 0.7,-1.6 1.4,-3.6 1.4,-4.6 0,-1.7 2.2,-9.8 7.5,-28.2 1.3,-4.4 2.6,-9.9 3,-12.3l0.7,-4.2 -96.6,-0c-53.1,-0 -96.6,0.3 -96.6,0.6zM226,138.2c-0.1,0.7 -0.7,3.1 -1.5,5.3 -0.8,2.2 -2,6.7 -2.6,10 -0.6,3.3 -1.4,6.4 -1.8,7 -0.4,0.5 -1.3,3 -1.9,5.5 -3.5,14.8 -4.6,18.6 -5.3,19.4 -0.5,0.6 -0.9,1.9 -0.9,3 0,1.9 -3,13.2 -7.6,28.1 -1.3,4.4 -2.4,9 -2.4,10.2 0,1.2 -1.1,5.3 -2.5,9.1 -1.4,3.8 -2.5,7.6 -2.5,8.4 0,0.8 -0.7,3.8 -1.5,6.6l-1.6,5.2 -42,-0c-39.1,-0 -42,-0.1 -42.5,-1.8 -0.3,-0.9 -1,-2.6 -1.4,-3.7 -0.5,-1.1 -1.1,-3.4 -1.3,-5 -0.3,-1.7 -1.9,-8 -3.7,-14 -1.7,-6.1 -3.8,-13.9 -4.7,-17.5 -0.8,-3.6 -2.6,-9.7 -3.9,-13.5 -1.3,-3.9 -2.4,-7.9 -2.4,-8.9 0,-1.8 -1.3,-6.6 -7.6,-28.2 -1.3,-4.4 -2.4,-8.9 -2.4,-10 0,-1 -1.1,-4.6 -2.5,-7.9 -1.3,-3.3 -2.5,-6.6 -2.5,-7.3 0,-0.9 15.6,-1.2 74.5,-1.2 59,-0 74.5,0.3 74.5,1.2z" stroke="#000000" id="path_1"/><path fill="#ffffff" d="M146,161.8c0,7.1 -2.1,15.7 -6,24.1 -1.7,3.5 -3,6.9 -3,7.6 0,0.7 -0.6,1.8 -1.4,2.4 -1.1,0.9 -1.5,0.2 -2.1,-4.4 -0.8,-6.4 -2.1,-7.8 -3,-3.3 -0.4,1.8 -1.3,4.6 -2,6.3 -6.3,14.8 -7.7,30.4 -3.5,39 3.5,7 7.3,12.5 8.7,12.5 0.6,-0 1.8,0.7 2.7,1.5 2.5,2.6 6.5,3.5 14.8,3.5 7.1,-0 8.7,-0.3 13.4,-3 5.4,-3.1 12.4,-11.3 12.4,-14.4 0,-0.9 0.7,-3.1 1.6,-4.8 2.7,-5.2 3.6,-15 2,-22.1 -3,-13 -6.6,-23 -9.9,-27.2 -0.4,-0.5 -1.4,-1.9 -2.2,-3 -1.3,-1.8 -1.4,-1.3 -1.5,5.3 0,8.5 -1.2,8.7 -3.6,0.4 -1.9,-6.6 -4.5,-12.2 -5.6,-12.2 -0.5,-0 -0.8,-0.7 -0.8,-1.7 0,-0.9 -0.7,-2.3 -1.5,-3.2 -0.8,-0.9 -2.9,-3.3 -4.7,-5.4 -1.8,-2 -3.6,-3.7 -4,-3.7 -0.5,-0 -0.8,2.6 -0.8,5.8z" stroke="#000000" id="path_2"/><path fill="#ffffff" d="M71.7,280.7c-0.9,0.8 -0.9,13.6 -0.1,15.7 0.6,1.4 8.6,1.6 80.5,1.6l79.9,-0 0,-9 0,-9 -79.8,-0c-43.9,-0 -80.2,0.3 -80.5,0.7z" stroke="#000000" id="path_3"/></svg>